<?xml version="1.0" standalone="no"?>
<!DOCTYPE svg PUBLIC "-//W3C//DTD SVG 1.1//EN" "http://www.w3.org/Graphics/SVG/1.1/DTD/svg11.dtd" >
<svg xmlns="http://www.w3.org/2000/svg">
<metadata>
This is a custom SVG webfont generated by Font Squirrel.
Copyright   : Copyright 2009 2010 2011 by Daniel Johnson  Released under the terms of the Open Font License
</metadata>
<defs>
<font id="JuraLight" horiz-adv-x="0" >
<font-face units-per-em="2048" ascent="1638" descent="-410" />
<missing-glyph horiz-adv-x="520" />
<glyph unicode=" "  horiz-adv-x="520" />
<glyph unicode="&#x09;" horiz-adv-x="520" />
<glyph unicode="&#xa0;" horiz-adv-x="520" />
<glyph unicode="!" horiz-adv-x="468" d="M142 58q0 28 31 50t61 22q32 0 63 -22t31 -50t-31 -50t-63 -22q-30 0 -61 22t-31 50zM192 394v838q0 56 42 56t42 -56v-838q0 -56 -44 -56q-40 0 -40 56z" />
<glyph unicode="&#x22;" horiz-adv-x="570" d="M142 932v298q0 56 42 56q40 0 40 -56v-298q0 -56 -42 -56q-40 0 -40 56zM344 932v298q0 56 42 56t42 -56v-298q0 -56 -44 -56q-40 0 -40 56z" />
<glyph unicode="#" horiz-adv-x="1190" d="M90 452q0 42 56 42h178l102 284h-220q-54 0 -54 44q0 40 54 40h250l128 346q15 42 42 42q42 0 42 -40q0 -12 -6 -30l-118 -318h268l128 346q16 42 44 42q18 0 30 -12t12 -30q0 -12 -6 -28l-116 -318h140q56 0 56 -42t-56 -42h-172l-102 -284h212q56 0 56 -44 q0 -40 -56 -40h-242l-128 -346q-14 -42 -44 -42q-42 0 -42 42q0 12 6 28l118 318h-270l-126 -346q-14 -42 -44 -42q-40 0 -40 40q0 12 6 30l116 318h-146q-56 0 -56 42zM412 494h268l102 284h-268z" />
<glyph unicode="$" horiz-adv-x="1134" d="M122 868q0 116 57 176t191 60h164v126q0 56 42 56t42 -56v-126h202q62 0 103 -18t58 -52t23 -66t6 -78q0 -60 -42 -60t-42 56q0 72 -26 103t-94 31h-188v-324h150q246 0 246 -268q0 -246 -246 -246h-150v-142q0 -54 -44 -54q-40 0 -40 54v142h-222q-62 0 -103 18t-58 52 t-23 66t-6 78q0 60 42 60t42 -56q0 -72 26 -103t94 -31h208v346h-164q-248 0 -248 256zM206 868q0 -82 36 -127t92 -45h200v324h-200q-128 0 -128 -152zM618 266h184q128 0 128 162q0 84 -36 134t-92 50h-184v-346z" />
<glyph unicode="%" horiz-adv-x="1080" d="M138 292q0 20 22 42l700 700q26 22 42 22q14 0 27 -12t13 -28t-22 -42l-700 -700q-22 -22 -42 -22q-14 0 -27 12t-13 28zM162 942q0 64 46 109t110 45q62 0 107 -45t45 -109t-45 -109t-107 -45q-64 0 -110 45t-46 109zM248 942q0 -28 21 -49t49 -21t49 21t21 49t-21 49 t-49 21t-49 -21t-21 -49zM610 366q0 62 45 108t109 46t109 -46t45 -108t-45 -108t-109 -46t-109 46t-45 108zM694 366q0 -28 21 -49t49 -21q30 0 50 21t20 49q0 30 -20 50t-50 20q-28 0 -49 -20t-21 -50z" />
<glyph unicode="&#x26;" horiz-adv-x="988" d="M74 364q0 98 43 194t129 154l-28 34q-94 108 -94 206q0 148 111 245t239 97q78 0 146 -57t98 -110t30 -71q0 -16 -12 -28t-30 -12q-20 0 -42 30t-41 67t-60 67t-93 30q-98 0 -178 -71t-80 -187q0 -74 78 -164l480 -554q68 94 68 220q0 62 44 62q38 0 38 -62 q0 -160 -92 -286l96 -110q12 -14 12 -36q0 -36 -34 -36q-26 0 -52 28l-78 90q-132 -122 -290 -122q-66 0 -134 20t-131 62t-103 120t-40 180zM158 364q0 -154 100 -226t224 -72q128 0 236 102l-416 482q-74 -42 -109 -122t-35 -164z" />
<glyph unicode="'" horiz-adv-x="366" d="M142 932v298q0 56 42 56q40 0 40 -56v-298q0 -56 -42 -56q-40 0 -40 56z" />
<glyph unicode="(" horiz-adv-x="474" d="M146 266v740q0 148 27 225t75 101t138 24v-84q-108 0 -132 -41t-24 -225v-740q0 -184 24 -225t132 -41v-84q-90 0 -138 24t-75 101t-27 225z" />
<glyph unicode=")" horiz-adv-x="472" d="M88 0q106 0 130 41t24 225v740q0 184 -24 225t-130 41v84q134 0 186 -67t52 -283v-740q0 -216 -52 -283t-186 -67v84z" />
<glyph unicode="*" horiz-adv-x="774" d="M130 858q0 24 32 44l140 82l-140 78q-32 20 -32 44q0 10 9 25t29 15q12 0 36 -10l140 -82v162q0 56 44 56q40 0 40 -56v-162l140 82q24 10 36 10q16 0 28 -13t12 -27q0 -22 -34 -44l-138 -78l138 -82q34 -22 34 -44q0 -10 -10 -25t-30 -15q-12 0 -36 10l-140 82v-162 q0 -56 -42 -56t-42 56v162l-140 -82q-24 -10 -36 -10q-16 0 -27 13t-11 27z" />
<glyph unicode="+" horiz-adv-x="1020" d="M78 462q0 42 52 42h338v376q0 56 44 56q40 0 40 -56v-376h334q58 0 58 -46q0 -40 -58 -40h-334v-378q0 -54 -42 -54t-42 54v378h-338q-52 0 -52 44z" />
<glyph unicode="," horiz-adv-x="406" d="M100 -120q0 12 6 30l48 172q12 40 40 40q20 0 46 -10t26 -30q0 -18 -8 -34l-84 -166q-18 -42 -40 -42q-34 0 -34 40z" />
<glyph unicode="-" horiz-adv-x="892" d="M146 462q0 42 52 42h490q58 0 58 -46q0 -40 -58 -40h-490q-52 0 -52 44z" />
<glyph unicode="." horiz-adv-x="448" d="M132 58q0 28 30 50t62 22q30 0 61 -22t31 -50t-31 -50t-61 -22q-32 0 -62 22t-30 50z" />
<glyph unicode="/" horiz-adv-x="698" d="M86 22q0 10 6 32l436 1196q12 40 40 40q44 0 44 -38q0 -14 -6 -32l-436 -1196q-12 -40 -42 -40q-42 0 -42 38z" />
<glyph unicode="0" horiz-adv-x="1196" d="M154 308v656q0 136 98 222t242 86h208q144 0 242 -86t98 -222v-656q0 -136 -98 -222t-242 -86h-208q-144 0 -242 86t-98 222zM238 276q0 -74 70 -133t170 -59h240q100 0 170 59t70 133v718q0 74 -70 133t-170 59h-240q-100 0 -170 -59t-70 -133v-718z" />
<glyph unicode="1" horiz-adv-x="486" d="M70 1176q0 22 24 44l124 126q24 24 48 24q8 0 17 -3t18 -14t9 -29v-1284q0 -54 -42 -54t-42 54v1192l-68 -66q-24 -26 -50 -26q-38 0 -38 36z" />
<glyph unicode="2" horiz-adv-x="1136" d="M124 1058q0 116 44 165t146 49h284q102 0 171 -13t128 -49t87 -108t28 -182q0 -98 -83 -178t-200 -142l-235 -127q-118 -65 -201 -165t-83 -224h742q60 0 60 -44q0 -40 -60 -40h-826v88q0 102 44 188t115 143t157 107t171 92t156 85t115 98t44 119q0 172 -72 220t-258 48 h-270q-68 0 -94 -30t-26 -100q0 -60 -44 -60q-40 0 -40 60z" />
<glyph unicode="3" horiz-adv-x="1152" d="M126 212q0 62 42 62t42 -56q0 -64 95 -99t185 -35h160q160 0 221 65t61 183q0 100 -131 188t-241 88q-64 0 -64 44q0 42 64 42q114 0 243 75t129 171q0 118 -61 183t-221 65h-160q-90 0 -185 -35t-95 -99q0 -56 -42 -56t-42 60q0 84 94 149t256 65h154q208 0 296 -82 t88 -288q0 -70 -97 -153t-163 -97q64 -12 162 -110t98 -172q0 -206 -88 -288t-296 -82h-154q-162 0 -256 65t-94 147z" />
<glyph unicode="4" horiz-adv-x="1026" d="M64 350v112l606 810h114v-838h122q54 0 54 -42t-54 -42h-122v-310q0 -54 -42 -54t-42 54v310h-636zM138 434h562v754z" />
<glyph unicode="5" horiz-adv-x="1096" d="M126 180q0 16 12 29t26 13q6 0 61 -39t144 -78t181 -39q170 0 265 103t95 285q0 88 -32 156t-81 104t-99 53t-98 17h-462l18 240q12 138 60 193t158 55h482q54 0 54 -44q0 -40 -54 -40h-494q-56 0 -84 -30t-34 -100l-12 -190h350q160 0 286 -113t126 -301 q0 -220 -125 -346t-319 -126q-124 0 -274 69t-150 129z" />
<glyph unicode="6" horiz-adv-x="1072" d="M104 414q0 178 43 332t103 249t128 165t117 99t69 29q44 0 44 -36q0 -26 -36 -46q-106 -58 -203 -182t-145 -306q128 128 324 128q190 0 317 -122t127 -310t-127 -310t-317 -122t-317 122t-127 310zM188 414q0 -156 97 -252t263 -96t263 96t97 252t-97 252t-263 96 t-263 -96t-97 -252z" />
<glyph unicode="7" horiz-adv-x="956" d="M58 1058q0 116 44 165t146 49h620q42 0 42 -36q0 -16 -8 -38l-426 -1172q-16 -46 -42 -46q-44 0 -44 38q0 16 8 38l412 1132h-546q-68 0 -95 -30t-27 -100q0 -60 -42 -60t-42 60z" />
<glyph unicode="8" horiz-adv-x="1184" d="M148 348q0 230 140 304q-140 64 -140 292q0 90 21 151t52 96t90 53t113 23t140 5h58q86 0 140 -5t112 -23t89 -53t52 -96t21 -151q0 -230 -138 -292q138 -72 138 -304q0 -110 -28 -181t-87 -107t-128 -48t-171 -12h-58q-212 0 -314 69t-102 279zM232 348q0 -72 14 -121 t37 -77t68 -43t91 -19t122 -4h58q94 0 147 7t100 33t65 80t18 144t-19 144t-65 81t-99 34t-147 7h-58q-96 0 -149 -7t-99 -34t-65 -81t-19 -144zM232 944q0 -60 8 -103t30 -70t43 -42t67 -22t80 -8t104 -1h58q70 0 103 1t80 8t67 22t42 42t30 70t8 103q0 72 -15 119t-35 72 t-70 37t-88 14t-122 2h-58q-84 0 -122 -2t-89 -14t-71 -37t-35 -72t-15 -119z" />
<glyph unicode="9" horiz-adv-x="1074" d="M84 942q0 106 51 178t135 102t150 40t138 10q414 0 414 -332q0 -214 -61 -400t-159 -309t-220 -193t-246 -70q-52 0 -52 44q0 42 52 42q70 0 153 37t169 110t156 201t102 288q-100 -76 -308 -76q-474 0 -474 328zM168 942q0 -64 26 -111t63 -72t94 -40t102 -18t105 -3 q330 0 330 242q0 248 -330 248q-390 0 -390 -246z" />
<glyph unicode=":" horiz-adv-x="476" d="M146 160q0 28 30 50t62 22q30 0 61 -22t31 -50t-31 -50t-61 -22q-32 0 -62 22t-30 50zM146 866q0 28 30 50t62 22q30 0 61 -22t31 -50t-31 -50t-61 -22q-32 0 -62 22t-30 50z" />
<glyph unicode=";" horiz-adv-x="482" d="M146 866q0 28 30 50t62 22q30 0 61 -22t31 -50t-31 -50t-61 -22q-32 0 -62 22t-30 50zM160 -18q0 12 6 30l48 172q12 40 40 40q20 0 46 -10t26 -30q0 -18 -8 -34l-84 -166q-18 -42 -40 -42q-34 0 -34 40z" />
<glyph unicode="&#x3c;" horiz-adv-x="1044" d="M66 666q0 24 32 42l726 420q18 10 36 10q40 0 40 -36q0 -24 -32 -48l-678 -388l676 -392q34 -18 34 -42q0 -12 -9 -28t-29 -16q-14 0 -38 12l-726 420q-32 22 -32 46z" />
<glyph unicode="=" horiz-adv-x="916" d="M158 562q0 42 52 42h490q58 0 58 -46q0 -40 -58 -40h-490q-52 0 -52 44zM158 768q0 42 52 42h490q58 0 58 -46q0 -40 -58 -40h-490q-52 0 -52 44z" />
<glyph unicode="&#x3e;" horiz-adv-x="1044" d="M144 226q0 26 32 46l678 390l-676 390q-34 18 -34 44q0 12 9 27t29 15q15 0 36 -12l728 -420q32 -22 32 -44q0 -26 -32 -44l-728 -420q-14 -10 -34 -10q-40 0 -40 38z" />
<glyph unicode="?" horiz-adv-x="1056" d="M78 942q0 110 28 181t89 106t129 47t172 12h152q172 0 247 -94t75 -226t-55 -202t-191 -108l-188 -52v-218q0 -56 -42 -56t-42 56v280l306 84q56 16 92 74t36 142q0 88 -49 162t-155 74h-186q-96 0 -149 -7t-100 -32t-65 -79t-18 -144q0 -56 -42 -56q-44 0 -44 56z M402 58q0 28 30 50t62 22q30 0 61 -22t31 -50t-31 -50t-61 -22q-32 0 -62 22t-30 50z" />
<glyph unicode="@" horiz-adv-x="1168" d="M142 482v308q0 226 113 354t303 128h58q190 0 303 -128t113 -354q0 -62 -2 -102t-12 -88t-27 -77t-49 -60t-78 -47t-114 -26t-156 -10q-140 0 -191 65t-51 219q0 152 51 217t191 65q142 0 193 -65t51 -217q0 -114 -26 -178q56 12 82 36t40 86t14 182q0 188 -84 293 t-248 105h-58q-164 0 -248 -105t-84 -293v-308q0 -188 84 -293t248 -105h268q68 0 95 30t27 104q0 56 40 56q44 0 44 -62q0 -44 -6 -76t-24 -66t-59 -52t-103 -18h-282q-190 0 -303 128t-113 354zM436 664q0 -118 28 -159t130 -41q104 0 132 41t28 159q0 116 -28 157 t-132 41q-102 0 -130 -41t-28 -157z" />
<glyph unicode="A" horiz-adv-x="1096" d="M46 8q0 12 6 28l450 1236h92l450 -1236q6 -16 6 -28q0 -40 -42 -40q-28 0 -44 40l-144 400h-544l-144 -400q-18 -40 -44 -40q-42 0 -42 40zM308 492h480l-242 658z" />
<glyph unicode="B" horiz-adv-x="1168" d="M168 62v1148q0 62 38 62h352q206 0 310 -64t104 -236q0 -168 -110 -238q98 -30 146 -106t48 -220v-58q0 -210 -102 -280t-312 -70h-436q-38 0 -38 62zM252 84h390q94 0 147 7t99 34t65 81t19 144v58q0 90 -19 144t-65 81t-99 34t-147 7h-390v-590zM252 758h306 q180 0 255 42t75 172q0 132 -75 174t-255 42h-306v-430z" />
<glyph unicode="C" horiz-adv-x="1144" d="M144 350v572q0 210 102 280t314 70h282q62 0 103 -18t58 -52t23 -66t6 -78q0 -60 -42 -60t-42 56q0 72 -26 103t-94 31h-268q-96 0 -149 -7t-99 -34t-65 -81t-19 -144v-572q0 -90 19 -144t65 -81t99 -34t149 -7h268q68 0 94 30t26 104q0 56 42 56t42 -62q0 -44 -6 -76 t-23 -66t-58 -52t-103 -18h-282q-212 0 -314 70t-102 280z" />
<glyph unicode="D" horiz-adv-x="1200" d="M168 62v1148q0 62 38 62h436q210 0 312 -70t102 -280v-572q0 -210 -102 -280t-312 -70h-436q-38 0 -38 62zM252 84h390q94 0 147 7t99 34t65 81t19 144v572q0 90 -19 144t-65 81t-99 34t-147 7h-390v-1104z" />
<glyph unicode="E" horiz-adv-x="1154" d="M168 62v1148q0 62 38 62h792q58 0 58 -46q0 -38 -58 -38h-746v-430h510q60 0 60 -46q0 -38 -60 -38h-510v-590h746q58 0 58 -46q0 -38 -58 -38h-792q-38 0 -38 62z" />
<glyph unicode="F" horiz-adv-x="1116" d="M168 46v1164q0 62 38 62h792q58 0 58 -46q0 -38 -58 -38h-746v-430h510q60 0 60 -46q0 -38 -60 -38h-510v-628q0 -60 -42 -60t-42 60z" />
<glyph unicode="G" horiz-adv-x="1170" d="M144 350v572q0 110 28 182t88 108t128 48t172 12h282q62 0 103 -18t58 -52t23 -66t6 -76q0 -62 -42 -62t-42 58q0 72 -26 102t-94 30h-268q-96 0 -149 -7t-99 -34t-65 -81t-19 -144v-572q0 -90 19 -144t65 -81t99 -34t149 -7h268q68 0 94 30t26 102v286h-266 q-60 0 -60 40q0 44 60 44h350v-374q0 -44 -6 -76t-23 -66t-58 -52t-103 -18h-282q-104 0 -172 12t-128 48t-88 108t-28 182z" />
<glyph unicode="H" horiz-adv-x="1224" d="M168 46v1178q0 62 38 62q46 0 46 -62v-496h720v496q0 62 40 62q44 0 44 -62v-1178q0 -60 -40 -60q-44 0 -44 60v598h-720v-598q0 -60 -42 -60t-42 60z" />
<glyph unicode="I" horiz-adv-x="420" d="M168 40v1190q0 56 42 56t42 -56v-1190q0 -54 -44 -54q-40 0 -40 54z" />
<glyph unicode="J" horiz-adv-x="1060" d="M64 334q0 56 46 56q40 0 40 -56q0 -172 72 -219t260 -47q96 0 149 7t99 34t65 81t19 144v896q0 56 42 56t42 -56v-896q0 -110 -28 -182t-88 -108t-128 -48t-172 -12t-173 12t-129 48t-88 108t-28 182z" />
<glyph unicode="K" horiz-adv-x="994" d="M168 40v1190q0 56 42 56t42 -56v-588l520 618q20 26 42 26q14 0 27 -11t13 -27q0 -21 -18 -42l-412 -492l544 -648q20 -20 20 -40q0 -16 -14 -28t-28 -12q-22 0 -42 26l-536 638l-116 -140v-470q0 -54 -44 -54q-40 0 -40 54z" />
<glyph unicode="L" horiz-adv-x="990" d="M168 62v1168q0 56 42 56t42 -56v-1146h636q56 0 56 -44q0 -40 -56 -40h-682q-38 0 -38 62z" />
<glyph unicode="M" horiz-adv-x="1266" d="M168 46v1178q0 62 38 62q30 0 52 -34l374 -568l376 568q22 34 50 34q40 0 40 -62v-1178q0 -60 -44 -60q-40 0 -40 60v1068l-356 -544q-10 -12 -26 -12q-14 0 -24 12l-356 544v-1068q0 -60 -42 -60t-42 60z" />
<glyph unicode="N" horiz-adv-x="1224" d="M168 46v1178q0 62 38 62q30 0 52 -34l714 -1084v1056q0 62 40 62q44 0 44 -62v-1178q0 -60 -40 -60q-24 0 -32 14l-732 1114v-1068q0 -60 -42 -60t-42 60z" />
<glyph unicode="O" horiz-adv-x="1148" d="M130 454v364q0 220 125 346t319 126t319 -126t125 -346v-364q0 -220 -125 -346t-319 -126t-319 126t-125 346zM214 454q0 -182 96 -285t264 -103t264 103t96 285v364q0 182 -96 285t-264 103t-264 -103t-96 -285v-364z" />
<glyph unicode="P" horiz-adv-x="1040" d="M168 40v1170q0 62 38 62h352q206 0 310 -64t104 -236q0 -146 -87 -222t-243 -76h-390v-634q0 -54 -44 -54q-40 0 -40 54zM252 758h306q180 0 255 42t75 172q0 132 -75 174t-255 42h-306v-430z" />
<glyph unicode="Q" horiz-adv-x="1148" d="M130 454v364q0 220 125 346t319 126t319 -126t125 -346v-364q0 -198 -102 -320l76 -76q20 -20 20 -42q0 -14 -11 -27t-27 -13t-42 22l-74 76q-120 -92 -284 -92q-194 0 -319 126t-125 346zM214 454q0 -182 96 -285t264 -103q138 0 224 68l-116 114q-22 22 -22 40 q0 14 12 28t28 14q20 0 42 -22l116 -118q76 100 76 264v364q0 182 -96 285t-264 103t-264 -103t-96 -285v-364z" />
<glyph unicode="R" horiz-adv-x="1098" d="M168 40v1170q0 62 38 62h352q206 0 310 -64t104 -236q0 -126 -64 -200t-182 -92q66 -52 131 -209t98 -282t33 -149q0 -54 -44 -54q-18 0 -29 16t-11 38q0 28 -28 142t-96 270t-152 222h-376v-634q0 -54 -44 -54q-40 0 -40 54zM252 758h306q180 0 255 42t75 172 q0 132 -75 174t-255 42h-306v-430z" />
<glyph unicode="S" horiz-adv-x="1140" d="M124 334q0 56 46 56q40 0 40 -56q0 -172 72 -219t260 -47h186q106 0 155 76t49 164q0 102 -41 168t-87 76l-432 106q-136 32 -192 104t-56 206q0 132 76 226t248 94h152q104 0 172 -12t128 -47t88 -106t28 -181q0 -56 -44 -56q-42 0 -42 56q0 90 -18 144t-65 79t-99 32 t-148 7h-188q-106 0 -155 -75t-49 -161q0 -84 37 -143t91 -73l434 -104q246 -62 246 -340q0 -132 -75 -228t-247 -96h-152q-104 0 -173 12t-129 48t-88 108t-28 182z" />
<glyph unicode="T" horiz-adv-x="920" d="M52 1230q0 42 56 42h702q56 0 56 -44q0 -40 -56 -40h-308v-1148q0 -54 -44 -54q-40 0 -40 54v1148h-310q-56 0 -56 42z" />
<glyph unicode="U" horiz-adv-x="1196" d="M154 454v776q0 56 42 56t42 -56v-776q0 -182 96 -285t264 -103t264 103t96 285v776q0 56 44 56q40 0 40 -56v-776q0 -220 -125 -346t-319 -126t-319 126t-125 346z" />
<glyph unicode="V" horiz-adv-x="1096" d="M46 1264q0 14 9 24t18 13t15 3q26 0 44 -40l416 -1144l416 1144q16 40 44 40q6 0 15 -3t18 -13t9 -24q0 -12 -6 -30l-450 -1234h-92l-450 1234q-6 18 -6 30z" />
<glyph unicode="W" horiz-adv-x="1784" d="M48 1264q0 14 11 24t21 13t16 3q26 0 38 -40l356 -1144l352 1140q14 44 46 44q36 0 50 -44l354 -1140l352 1144q16 40 40 40q6 0 16 -3t20 -13t10 -24q0 -12 -6 -30l-384 -1234h-100l-352 1130l-350 -1130h-98l-376 1234q-2 6 -9 16t-7 14z" />
<glyph unicode="X" horiz-adv-x="1074" d="M70 24q0 18 14 40l402 570l-402 574q-14 16 -14 38q0 16 13 28t27 12q22 0 44 -32l382 -546l384 546q22 32 42 32q14 0 28 -12t14 -28q0 -22 -14 -38l-402 -574l402 -570q14 -22 14 -40q0 -16 -13 -27t-29 -11q-20 0 -42 28l-384 548l-382 -548q-22 -28 -44 -28 q-14 0 -27 11t-13 27z" />
<glyph unicode="Y" horiz-adv-x="998" d="M32 1246q0 16 13 28t27 12q20 0 42 -32l384 -546l382 546q26 32 44 32q14 0 27 -12t13 -28q0 -18 -14 -38l-410 -588v-580q0 -54 -42 -54q-40 0 -40 54v580l-412 588q-14 20 -14 38z" />
<glyph unicode="Z" horiz-adv-x="1070" d="M90 1230q0 42 62 42h826v-92l-788 -1096h728q60 0 60 -44q0 -40 -60 -40h-826v88l792 1100h-732q-62 0 -62 42z" />
<glyph unicode="[" horiz-adv-x="488" d="M160 -84v1440h240v-84h-156v-1272h156v-84h-240z" />
<glyph unicode="\" horiz-adv-x="698" d="M86 1252q0 38 42 38q30 0 42 -40l436 -1196q6 -22 6 -32q0 -38 -44 -38q-28 0 -40 40l-436 1196q-6 18 -6 32z" />
<glyph unicode="]" horiz-adv-x="488" d="M88 0h156v1272h-156v84h240v-1440h-240v84z" />
<glyph unicode="^" horiz-adv-x="886" d="M170 766q0 4 4 20l216 486h108l214 -486q4 -8 4 -20q0 -36 -36 -36q-30 0 -48 36l-186 414h-6l-186 -414q-18 -36 -48 -36q-36 0 -36 36z" />
<glyph unicode="_" horiz-adv-x="950" d="M0 -40q0 40 56 40h838q56 0 56 -44q0 -40 -56 -40h-838q-56 0 -56 44z" />
<glyph unicode="`" horiz-adv-x="424" d="M68 1314q0 18 13 30t27 12q18 0 42 -26l192 -230q16 -18 16 -40q0 -16 -13 -28t-27 -12q-18 0 -42 26l-192 230q-16 18 -16 38z" />
<glyph unicode="a" horiz-adv-x="1068" d="M120 240q0 84 20 146t54 99t88 58t114 29t140 8h304v128q0 70 -26 100t-94 30h-282q-234 0 -234 -130q0 -60 -44 -60q-40 0 -40 60q0 108 85 161t219 53h310q110 0 150 -54t40 -194v-628q0 -60 -42 -60t-42 60v98q-108 -144 -330 -144h-186q-90 0 -147 65t-57 175z M204 230q0 -56 37 -101t83 -45h186q158 0 244 96t86 276v40h-304q-96 0 -149 -7t-99 -34t-65 -81t-19 -144z" />
<glyph unicode="b" horiz-adv-x="1160" d="M148 46v1178q0 62 38 62q46 0 46 -62v-446q112 144 332 144h58q210 0 312 -70t102 -280v-222q0 -210 -102 -280t-312 -70h-58q-220 0 -332 144v-98q0 -60 -42 -60t-42 60zM232 456q0 -180 86 -276t246 -96h58q94 0 147 7t99 34t65 81t19 144v222q0 90 -19 144t-65 81 t-99 34t-147 7h-58q-160 0 -246 -97t-86 -277v-8z" />
<glyph unicode="c" horiz-adv-x="1128" d="M124 350v222q0 210 102 280t314 70h282q62 0 103 -18t58 -53t23 -66t6 -77q0 -60 -42 -60t-42 56q0 72 -26 103t-94 31h-268q-96 0 -149 -7t-99 -34t-65 -81t-19 -144v-222q0 -90 19 -144t65 -81t99 -34t149 -7h268q68 0 94 30t26 104q0 56 42 56t42 -62q0 -44 -6 -76 t-23 -66t-58 -52t-103 -18h-282q-212 0 -314 70t-102 280z" />
<glyph unicode="d" horiz-adv-x="1160" d="M124 350v222q0 210 102 280t314 70h388v302q0 62 46 62q38 0 38 -62v-1178q0 -60 -42 -60t-42 60v98q-108 -144 -330 -144h-58q-212 0 -314 70t-102 280zM208 350q0 -90 19 -144t65 -81t99 -34t149 -7h58q158 0 244 96t86 276v382h-388q-96 0 -149 -7t-99 -34t-65 -81 t-19 -144v-222z" />
<glyph unicode="e" horiz-adv-x="1132" d="M124 350v222q0 210 102 280t314 70h58q210 0 312 -70t102 -280v-72h-804v-150q0 -90 19 -144t65 -81t99 -34t149 -7h268q68 0 94 30t26 104q0 56 42 56t42 -62q0 -44 -6 -76t-23 -66t-58 -52t-103 -18h-282q-212 0 -314 70t-102 280zM208 584h720q0 162 -74 208t-256 46 h-58q-184 0 -258 -46t-74 -208z" />
<glyph unicode="f" horiz-adv-x="626" d="M96 882q0 40 62 40q0 112 28 183t88 107t128 48t172 12q62 0 62 -46q0 -38 -62 -38q-96 0 -149 -7t-99 -34t-65 -81t-19 -144h286q62 0 62 -46q0 -38 -62 -38h-286v-790q0 -62 -46 -62q-38 0 -38 62v790q-62 0 -62 44z" />
<glyph unicode="g" horiz-adv-x="1162" d="M124 350v222q0 210 102 280t314 70h58q222 0 330 -144v98q0 60 42 60t42 -60v-1060q0 -128 -36 -177t-136 -49h-526q-62 0 -103 18t-58 53t-23 66t-6 77q0 60 42 60t42 -56q0 -72 26 -103t94 -31h498q62 0 82 23t20 87v234q-40 -18 -106 -18h-282q-212 0 -314 70 t-102 280zM208 350q0 -90 19 -144t65 -81t99 -34t149 -7h268q68 0 94 29t26 99v252q0 180 -86 277t-244 97h-58q-96 0 -149 -7t-99 -34t-65 -81t-19 -144v-222z" />
<glyph unicode="h" horiz-adv-x="1176" d="M148 46v1178q0 62 38 62q46 0 46 -62v-446q112 144 332 144h58q210 0 312 -70t102 -280v-526q0 -60 -40 -60q-44 0 -44 60v526q0 90 -19 144t-65 81t-99 34t-147 7h-58q-160 0 -246 -97t-86 -277v-418q0 -60 -42 -60t-42 60z" />
<glyph unicode="i" horiz-adv-x="380" d="M98 1202q0 28 30 50t62 22q30 0 61 -22t31 -50t-31 -50t-61 -22q-32 0 -62 22t-30 50zM148 40v840q0 56 42 56t42 -56v-840q0 -54 -44 -54q-40 0 -40 54z" />
<glyph unicode="j" horiz-adv-x="384" d="M-244 -306q0 40 62 40q96 0 149 7t99 34t65 81t19 144v874q0 62 44 62q40 0 40 -62v-874q0 -112 -28 -184t-88 -107t-128 -47t-172 -12q-62 0 -62 44zM100 1202q0 28 31 50t61 22q32 0 62 -22t30 -50t-30 -50t-62 -22q-30 0 -61 22t-31 50z" />
<glyph unicode="k" horiz-adv-x="866" d="M148 40v1190q0 56 42 56t42 -56v-706l384 386q26 22 42 22q14 0 27 -12t13 -30t-22 -40l-318 -318l464 -462q20 -20 20 -42q0 -14 -11 -27t-27 -13q-20 0 -42 22l-462 464l-68 -68v-366q0 -54 -44 -54q-40 0 -40 54z" />
<glyph unicode="l" horiz-adv-x="520" d="M180 248v978q0 60 42 60t42 -60v-1014q0 -70 26 -99t94 -29q60 0 60 -44q0 -40 -60 -40h-14q-110 0 -150 54t-40 194z" />
<glyph unicode="m" horiz-adv-x="1624" d="M148 46v828q0 62 38 62q46 0 46 -62v-96q60 78 118 111t152 33q134 0 216 -36t116 -138q94 174 292 174q178 0 267 -70t89 -280v-526q0 -60 -42 -60t-42 60v526q0 90 -14 144t-52 81t-82 34t-124 7q-128 0 -199 -97t-71 -277v-418q0 -60 -40 -60q-44 0 -44 60v526 q0 90 -14 144t-52 81t-81 34t-123 7q-128 0 -199 -97t-71 -277v-418q0 -60 -42 -60t-42 60z" />
<glyph unicode="n" horiz-adv-x="1174" d="M148 46v828q0 62 38 62q46 0 46 -62v-96q112 144 332 144h58q210 0 312 -70t102 -280v-526q0 -60 -40 -60q-44 0 -44 60v526q0 90 -19 144t-65 81t-99 34t-147 7h-58q-160 0 -246 -97t-86 -277v-418q0 -60 -42 -60t-42 60z" />
<glyph unicode="o" horiz-adv-x="1136" d="M124 350v222q0 210 102 280t314 70h58q210 0 312 -70t102 -280v-222q0 -210 -102 -280t-312 -70h-58q-212 0 -314 70t-102 280zM208 350q0 -90 19 -144t65 -81t99 -34t149 -7h58q94 0 147 7t99 34t65 81t19 144v222q0 90 -19 144t-65 81t-99 34t-147 7h-58q-96 0 -149 -7 t-99 -34t-65 -81t-19 -144v-222z" />
<glyph unicode="p" horiz-adv-x="1162" d="M150 -304v1180q0 60 42 60t42 -60v-98q112 144 332 144h58q210 0 312 -70t102 -280v-222q0 -210 -102 -280t-312 -70h-390v-304q0 -60 -46 -60q-38 0 -38 60zM234 84h390q94 0 147 7t99 34t65 81t19 144v222q0 90 -19 144t-65 81t-99 34t-147 7h-58q-160 0 -246 -97 t-86 -277v-380z" />
<glyph unicode="q" horiz-adv-x="1162" d="M124 350v222q0 210 102 280t314 70h58q222 0 330 -144v98q0 60 42 60t42 -60v-1180q0 -60 -38 -60q-46 0 -46 60v304h-388q-212 0 -314 70t-102 280zM208 350q0 -90 19 -144t65 -81t99 -34t149 -7h388v380q0 180 -86 277t-244 97h-58q-96 0 -149 -7t-99 -34t-65 -81 t-19 -144v-222z" />
<glyph unicode="r" horiz-adv-x="744" d="M148 46v828q0 62 38 62q46 0 46 -62v-96q112 144 332 144h92q60 0 60 -42t-60 -42h-92q-160 0 -246 -97t-86 -277v-418q0 -60 -42 -60t-42 60z" />
<glyph unicode="s" horiz-adv-x="1132" d="M120 686q0 116 57 176t191 60h450q62 0 103 -18t58 -53t23 -66t6 -77q0 -60 -42 -60t-42 56q0 72 -26 103t-94 31h-472q-128 0 -128 -152q0 -82 36 -127t92 -45h434q246 0 246 -268q0 -246 -246 -246h-456q-62 0 -103 18t-58 52t-23 66t-6 76q0 62 42 62t42 -56 q0 -74 26 -104t94 -30h476q128 0 128 162q0 84 -36 134t-92 50h-432q-248 0 -248 256z" />
<glyph unicode="t" horiz-adv-x="660" d="M92 882q0 40 62 40v218q0 62 38 62q46 0 46 -62v-218h286q62 0 62 -46q0 -38 -62 -38h-286v-488q0 -90 19 -144t65 -81t99 -34t149 -7q60 0 60 -38q0 -46 -60 -46q-102 0 -172 13t-129 49t-87 107t-28 181v488q-62 0 -62 44z" />
<glyph unicode="u" horiz-adv-x="1176" d="M140 350v526q0 60 40 60q44 0 44 -60v-526q0 -90 19 -144t65 -81t99 -34t149 -7h58q158 0 244 96t86 276v420q0 60 42 60t42 -60v-828q0 -62 -38 -62q-46 0 -46 62v96q-108 -144 -330 -144h-58q-212 0 -314 70t-102 280z" />
<glyph unicode="v" horiz-adv-x="998" d="M56 898q0 16 11 27t27 11q30 0 46 -38l346 -806h14l360 808q18 36 46 36q38 0 38 -36q0 -16 -6 -22l-386 -878h-128l-362 878q-6 4 -6 20z" />
<glyph unicode="w" horiz-adv-x="1542" d="M62 898q0 14 20 26t34 12q20 0 34 -38l278 -806h12l288 808q6 34 46 34q32 0 42 -34l276 -808h12l290 808q12 36 34 36q16 0 35 -11t19 -25q0 -16 -6 -22l-310 -878h-142l-252 768l-272 -768h-142l-290 878q-6 4 -6 20z" />
<glyph unicode="x" horiz-adv-x="976" d="M76 16q0 16 18 42l340 402l-340 406q-18 22 -18 40q0 16 13 27t27 11q21 0 42 -24l332 -394l330 394q20 24 40 24q14 0 27 -11t13 -27q0 -18 -18 -40l-340 -406l340 -402q18 -26 18 -42t-13 -27t-27 -11q-20 0 -40 24l-330 394l-332 -394q-21 -24 -42 -24q-14 0 -27 11 t-13 27z" />
<glyph unicode="y" horiz-adv-x="1178" d="M140 350v522q0 64 42 64t42 -64v-522q0 -90 19 -144t65 -81t99 -34t149 -7h58q158 0 244 96t86 276v416q0 64 44 64q40 0 40 -64v-1056q0 -128 -36 -177t-136 -49h-526q-62 0 -103 18t-58 53t-23 66t-6 77q0 60 42 60t42 -56q0 -72 26 -103t94 -31h498q62 0 82 23t20 87 v360q-108 -144 -330 -144h-58q-212 0 -314 70t-102 280z" />
<glyph unicode="z" horiz-adv-x="1060" d="M116 0v118l708 720h-504q-78 0 -99 -41t-21 -123q0 -62 -44 -62q-40 0 -40 62q0 140 40 194t150 54h612v-124l-702 -714h538q56 0 84 25t33 54t5 85q0 62 42 62t42 -62q0 -140 -41 -194t-149 -54h-654z" />
<glyph unicode="{" horiz-adv-x="500" d="M68 634q18 8 43 24t67 60t42 82t-28 129t-28 127q0 178 54 239t186 61v-84q-104 0 -130 -40t-26 -176q0 -24 28 -115t28 -141q0 -38 -38 -80t-76 -64l-38 -22q18 -8 43 -23t67 -58t42 -81q0 -52 -28 -142t-28 -114q0 -138 26 -177t130 -39v-84q-132 0 -186 61t-54 239 q0 36 28 127t28 129t-38 79t-76 62z" />
<glyph unicode="|" horiz-adv-x="408" d="M162 40v1190q0 56 42 56t42 -56v-1190q0 -54 -44 -54q-40 0 -40 54z" />
<glyph unicode="}" horiz-adv-x="502" d="M96 0q104 0 130 39t26 177q0 24 -28 114t-28 142q0 38 38 79t76 63l38 22q-18 8 -43 24t-67 59t-42 81q0 50 28 141t28 115q0 136 -26 176t-130 40v84q132 0 186 -61t54 -239q0 -36 -28 -127t-28 -129t38 -79t76 -63l38 -22q-18 -8 -43 -24t-67 -59t-42 -81t28 -129 t28 -127q0 -178 -54 -239t-186 -61v84z" />
<glyph unicode="~" horiz-adv-x="836" d="M146 402q0 26 24 44l94 78q10 14 30 14q6 0 22 -4l196 -72q8 -4 14 -4q8 0 22 10l62 56q22 16 38 16t29 -10t13 -26q0 -24 -24 -46l-94 -78q-14 -14 -32 -14q-8 0 -20 4l-196 72q-8 4 -16 4t-22 -10l-62 -56q-22 -16 -38 -16q-14 0 -27 11t-13 27z" />
<glyph unicode="&#xa1;" horiz-adv-x="436" d="M124 900q0 28 31 50t61 22q32 0 63 -22t31 -50t-31 -50t-63 -22q-30 0 -61 22t-31 50zM176 -276v840q0 56 42 56t42 -56v-840q0 -54 -44 -54q-40 0 -40 54z" />
<glyph unicode="&#xa2;" horiz-adv-x="942" d="M100 596v84q0 190 85 265t253 83v202q0 56 44 56q40 0 40 -56v-200h114q116 0 154 -58t38 -154q0 -62 -44 -62q-40 0 -40 58q0 72 -27 102t-95 30h-100v-616h96q68 0 95 30t27 102q0 58 40 58q44 0 44 -62q0 -44 -6 -76t-24 -66t-59 -52t-103 -18h-110v-206 q0 -54 -44 -54q-40 0 -40 54v208q-170 8 -254 82t-84 266zM184 596q0 -154 57 -207t197 -57v612q-136 -4 -195 -59t-59 -205v-84z" />
<glyph unicode="&#xa3;" horiz-adv-x="982" d="M130 46q0 10 2 16l76 874q10 110 42 183t85 107t106 47t125 13q138 0 217 -59t79 -225q0 -56 -44 -56q-40 0 -40 56q0 68 -16 111t-51 61t-67 23t-86 5q-120 0 -186 -50t-80 -216l-18 -208h78q54 0 54 -44q0 -40 -54 -40h-86l-48 -560h592q56 0 56 -44q0 -40 -56 -40 h-646q-34 0 -34 46z" />
<glyph unicode="&#xa4;" horiz-adv-x="986" d="M144 768q0 14 13 27t27 13q18 0 40 -22l98 -96q74 58 172 58q96 0 170 -58l96 96q22 22 42 22q12 0 26 -11t14 -27q0 -21 -24 -42l-96 -98q58 -70 58 -170q0 -96 -58 -170l96 -96q24 -22 24 -40q0 -14 -14 -28t-28 -14q-20 0 -40 24l-96 96q-74 -58 -170 -58 q-98 0 -172 58l-98 -96q-21 -24 -42 -24q-12 0 -25 11t-13 29q0 20 22 42l96 96q-56 74 -56 170q0 98 56 170l-96 98q-22 22 -22 40zM274 460q0 -90 64 -154t156 -64q90 0 154 64t64 154q0 92 -64 156t-154 64q-92 0 -156 -64t-64 -156z" />
<glyph unicode="&#xa5;" horiz-adv-x="1058" d="M64 1246q0 16 13 28t27 12q20 0 42 -32l384 -546l382 546q26 32 44 32q14 0 27 -12t13 -28q0 -18 -14 -38l-410 -588v-76h198q56 0 56 -44q0 -42 -56 -42h-198v-92h198q56 0 56 -44q0 -42 -56 -42h-198v-240q0 -54 -42 -54q-40 0 -40 54v240h-210q-54 0 -54 46 q0 40 54 40h210v92h-210q-54 0 -54 46q0 40 54 40h210v76l-412 588q-14 20 -14 38z" />
<glyph unicode="&#xa6;" horiz-adv-x="414" d="M166 44v430q0 52 42 52q40 0 40 -52v-430q0 -58 -44 -58q-38 0 -38 58zM166 802v430q0 54 42 54q40 0 40 -54v-430q0 -56 -44 -56q-38 0 -38 56z" />
<glyph unicode="&#xa7;" horiz-adv-x="1020" d="M150 612q0 152 106 186q-106 50 -106 192q0 198 200 198h370q50 0 82 -14t46 -42t18 -54t4 -62q0 -50 -42 -50t-42 46q0 58 -17 75t-73 17h-368q-54 0 -74 -28t-20 -86q0 -138 86 -150l350 -50q200 -28 200 -212q0 -154 -106 -188q106 -50 106 -192q0 -198 -200 -198 h-368q-66 0 -101 28t-43 61t-8 83t44 50q16 0 28 -12t12 -34q0 -58 17 -75t73 -17h368q54 0 74 27t20 87q0 138 -86 150l-350 50q-200 28 -200 214zM234 612q0 -86 110 -128t270 -42q106 0 139 22t33 114q0 86 -110 127t-270 41q-106 0 -139 -22t-33 -112z" />
<glyph unicode="&#xa8;" horiz-adv-x="734" d="M130 1260q0 28 30 50t62 22q30 0 61 -22t31 -50t-31 -50t-61 -22q-32 0 -62 22t-30 50zM422 1260q0 28 30 50t62 22q30 0 61 -22t31 -50t-31 -50t-61 -22q-32 0 -62 22t-30 50z" />
<glyph unicode="&#xa9;" horiz-adv-x="1208" d="M160 524v222q0 210 102 280t314 70h58q210 0 312 -70t102 -280v-222q0 -210 -102 -280t-312 -70h-58q-212 0 -314 70t-102 280zM244 524q0 -90 19 -144t65 -81t99 -34t149 -7h58q94 0 147 7t99 34t65 81t19 144v222q0 90 -19 144t-65 81t-99 34t-147 7h-58q-96 0 -149 -7 t-99 -34t-65 -81t-19 -144v-222zM414 596v78q0 78 53 118t127 40h100q40 0 64 -21t30 -42t6 -45q0 -22 -30 -22q-28 0 -28 20q0 48 -46 48h-96q-50 0 -85 -25t-35 -71v-78q0 -46 35 -71t85 -25h96q46 0 46 46q0 22 28 22q30 0 30 -24q0 -22 -6 -43t-30 -42t-64 -21h-100 q-74 0 -127 40t-53 118z" />
<glyph unicode="&#xaa;" horiz-adv-x="752" d="M136 364q0 34 42 34h392q46 0 46 -38q0 -32 -46 -32h-392q-42 0 -42 36zM186 622q0 84 47 116t147 32h124v38q0 28 -11 40t-39 12h-158q-26 0 -37 -12t-11 -40q0 -24 -32 -24q-30 0 -30 24q0 48 29 81t75 33h170q106 0 106 -128v-278q0 -24 -32 -24q-30 0 -30 24v68 q-16 -44 -44 -65t-90 -21h-74q-48 0 -79 38t-31 86zM248 618q0 -22 14 -40t34 -18h74q64 0 99 38t35 110h-124q-74 0 -103 -17t-29 -73z" />
<glyph unicode="&#xab;" horiz-adv-x="968" d="M72 666q0 14 32 42l364 338q10 10 40 10t30 -28t-26 -56l-316 -306l316 -310q26 -26 26 -56t-30 -30q-28 0 -40 12l-364 338q-32 28 -32 46zM380 666q0 14 32 42l364 338q10 10 40 10t30 -28t-26 -56l-316 -306l316 -310q26 -26 26 -56t-30 -30q-28 0 -40 12l-364 338 q-32 28 -32 46z" />
<glyph unicode="&#xac;" horiz-adv-x="1030" d="M166 462q0 42 52 42h596q58 0 58 -54v-168q0 -56 -46 -56q-40 0 -40 56v136h-568q-52 0 -52 44z" />
<glyph unicode="&#xad;" horiz-adv-x="892" d="M146 462q0 42 52 42h490q58 0 58 -46q0 -40 -58 -40h-490q-52 0 -52 44z" />
<glyph unicode="&#xae;" horiz-adv-x="1208" d="M160 524v222q0 210 102 280t314 70h58q210 0 312 -70t102 -280v-222q0 -210 -102 -280t-312 -70h-58q-212 0 -314 70t-102 280zM244 524q0 -90 19 -144t65 -81t99 -34t149 -7h58q94 0 147 7t99 34t65 81t19 144v222q0 90 -19 144t-65 81t-99 34t-147 7h-58q-96 0 -149 -7 t-99 -34t-65 -81t-19 -144v-222zM406 434v388q0 20 28 20h168q208 0 208 -120q0 -42 -30 -75t-80 -39q30 -18 59 -60t43 -75t14 -39q0 -18 -32 -18q-10 0 -20 6t-10 12t-15 36t-48 72t-69 64h-154v-172q0 -18 -32 -18q-30 0 -30 18zM468 668h134q80 0 113 10t33 44 q0 36 -33 47t-113 11h-134v-112z" />
<glyph unicode="&#xaf;" horiz-adv-x="858" d="M130 1400q0 42 52 42h490q58 0 58 -46q0 -40 -58 -40h-490q-52 0 -52 44z" />
<glyph unicode="&#xb0;" horiz-adv-x="788" d="M108 1070q0 118 84 202t202 84t203 -84t85 -202t-85 -203t-203 -85t-202 85t-84 203zM190 1070q0 -86 60 -146t144 -60q86 0 146 60t60 146q0 84 -60 144t-146 60q-84 0 -144 -60t-60 -144z" />
<glyph unicode="&#xb1;" horiz-adv-x="1146" d="M140 46q0 40 52 40h756q58 0 58 -46q0 -40 -58 -40h-756q-52 0 -52 46zM140 586q0 40 52 40h338v254q0 56 44 56q40 0 40 -56v-254h334q58 0 58 -44q0 -42 -58 -42h-334v-254q0 -54 -42 -54t-42 54v254h-338q-52 0 -52 46z" />
<glyph unicode="&#xb2;" horiz-adv-x="620" d="M82 922v44q0 70 40 125t96 89t112 62t96 58t40 64q0 70 -36 87t-138 17h-52q-86 0 -86 -62q0 -14 -11 -25t-25 -11q-12 0 -24 11t-12 25q0 54 45 91t105 37h60q122 0 181 -32t59 -138q0 -56 -59 -105t-129 -81t-129 -83t-59 -107h332q16 0 30 -11t14 -23q0 -10 -14 -21 t-30 -11h-406z" />
<glyph unicode="&#xb3;" horiz-adv-x="560" d="M60 1050q0 30 34 30q38 0 38 -26q0 -32 42 -49t88 -17h24q46 0 75 7t41 22t16 29t4 36q0 48 -61 84t-123 36q-36 0 -36 34q0 32 36 32q64 0 124 30t60 76q0 22 -4 36t-16 29t-41 22t-75 7h-24q-46 0 -88 -17t-42 -49q0 -26 -38 -26q-34 0 -34 30q0 42 53 85t141 43h24 q114 0 161 -38t47 -128q0 -48 -50 -86t-90 -46q42 -6 91 -51t49 -105q0 -84 -47 -121t-161 -37h-24q-88 0 -141 43t-53 85z" />
<glyph unicode="&#xb4;" horiz-adv-x="424" d="M68 1060q0 22 16 40l192 230q24 26 42 26q14 0 27 -12t13 -30q0 -20 -16 -38l-192 -230q-24 -26 -42 -26q-14 0 -27 12t-13 28z" />
<glyph unicode="&#xb5;" horiz-adv-x="1128" d="M164 -344v1220q0 60 40 60q44 0 44 -60v-420q0 -180 86 -276t246 -96q158 0 245 96t87 276v420q0 60 40 60q44 0 44 -60v-828q0 -62 -40 -62q-44 0 -44 62v96q-112 -144 -332 -144t-332 144v-488q0 -62 -46 -62q-38 0 -38 62z" />
<glyph unicode="&#xb6;" horiz-adv-x="894" d="M72 972q0 172 104 236t310 64h230v-1232q0 -54 -40 -54q-44 0 -44 54v1148h-62v-1148q0 -54 -40 -54q-44 0 -44 54v634h-84q-156 0 -243 76t-87 222z" />
<glyph unicode="&#xb7;" horiz-adv-x="464" d="M140 774q0 28 30 50t62 22q30 0 61 -22t31 -50t-31 -50t-61 -22q-32 0 -62 22t-30 50z" />
<glyph unicode="&#xb8;" horiz-adv-x="484" d="M84 -240q0 26 20 26q6 0 52 -18t80 -18q94 0 94 62q0 24 -22 47t-47 39t-47 51t-22 81h84q0 -36 22 -62t47 -40t47 -41t22 -65q0 -66 -52 -109t-130 -43q-46 0 -97 21t-51 69z" />
<glyph unicode="&#xb9;" horiz-adv-x="276" d="M-20 1384q0 18 20 36l98 100q20 20 38 20q36 0 36 -38v-542q0 -44 -34 -44t-34 44v470l-54 -54q-18 -20 -40 -20q-30 0 -30 28z" />
<glyph unicode="&#xba;" horiz-adv-x="752" d="M136 364q0 34 42 34h392q46 0 46 -38q0 -32 -46 -32h-392q-42 0 -42 36zM186 666v88q0 98 39 133t141 35h18q104 0 143 -35t39 -133v-88q0 -100 -39 -134t-143 -34h-18q-102 0 -141 34t-39 134zM248 666q0 -70 23 -88t95 -18h18q72 0 96 18t24 88v88q0 70 -24 88t-96 18 h-18q-72 0 -95 -18t-23 -88v-88z" />
<glyph unicode="&#xbb;" horiz-adv-x="968" d="M122 1028q0 28 30 28q28 0 38 -10l366 -338q32 -28 32 -42q0 -18 -32 -46l-366 -338q-12 -12 -38 -12q-30 0 -30 30t26 56l316 310l-316 306q-26 28 -26 56zM430 1028q0 28 30 28q28 0 38 -10l366 -338q32 -28 32 -42q0 -18 -32 -46l-366 -338q-12 -12 -38 -12 q-30 0 -30 30t26 56l316 310l-316 306q-26 28 -26 56z" />
<glyph unicode="&#xbc;" horiz-adv-x="1158" d="M80 186q0 20 22 42l818 818q26 22 42 22q30 0 30 -30q0 -16 -22 -42l-818 -818q-22 -22 -42 -22q-30 0 -30 30zM194 1116q0 18 20 36l98 100q20 20 38 20q36 0 36 -38v-542q0 -44 -34 -44t-34 44v470l-54 -54q-18 -20 -40 -20q-30 0 -30 28zM604 200v90l240 320h92v-344 h98q42 0 42 -32q0 -34 -42 -34h-98v-164q0 -44 -34 -44t-34 44v164h-264zM662 266h206v276z" />
<glyph unicode="&#xbd;" horiz-adv-x="1204" d="M80 186q0 20 22 42l818 818q26 22 42 22q30 0 30 -30q0 -16 -22 -42l-818 -818q-22 -22 -42 -22q-30 0 -30 30zM194 1116q0 18 20 36l98 100q20 20 38 20q36 0 36 -38v-542q0 -44 -34 -44t-34 44v470l-54 -54q-18 -20 -40 -20q-30 0 -30 28zM648 -2v44q0 70 40 125t96 89 t112 62t96 58t40 64q0 70 -36 87t-138 17h-52q-86 0 -86 -62q0 -14 -11 -25t-25 -11q-12 0 -24 11t-12 25q0 54 45 91t105 37h60q122 0 181 -32t59 -138q0 -56 -59 -105t-129 -81t-129 -83t-59 -107h332q16 0 30 -11t14 -23q0 -10 -14 -21t-30 -11h-406z" />
<glyph unicode="&#xbe;" horiz-adv-x="1244" d="M132 788q0 30 34 30q38 0 38 -26q0 -32 42 -49t88 -17h24q46 0 75 7t41 22t16 29t4 36q0 48 -61 84t-123 36q-36 0 -36 34q0 32 36 32q64 0 124 30t60 76q0 22 -4 36t-16 29t-41 22t-75 7h-24q-46 0 -88 -17t-42 -49q0 -26 -38 -26q-34 0 -34 30q0 42 53 85t141 43h24 q114 0 161 -38t47 -128q0 -48 -50 -86t-90 -46q42 -6 91 -51t49 -105q0 -84 -47 -121t-161 -37h-24q-88 0 -141 43t-53 85zM180 186q0 20 22 42l818 818q26 22 42 22q30 0 30 -30q0 -16 -22 -42l-818 -818q-22 -22 -42 -22q-30 0 -30 30zM686 200v90l240 320h92v-344h98 q42 0 42 -32q0 -34 -42 -34h-98v-164q0 -44 -34 -44t-34 44v164h-264zM744 266h206v276z" />
<glyph unicode="&#xbf;" horiz-adv-x="1040" d="M78 -10q0 132 56 202t192 108l186 52v218q0 56 44 56q40 0 40 -56v-280l-306 -84q-54 -16 -91 -75t-37 -141q0 -88 49 -162t155 -74h188q96 0 148 7t99 32t65 79t18 144q0 56 42 56q44 0 44 -56q0 -110 -28 -181t-88 -106t-128 -47t-172 -12h-152q-172 0 -248 94t-76 226 zM462 900q0 28 31 50t63 22q30 0 61 -22t31 -50t-31 -50t-61 -22q-32 0 -63 22t-31 50z" />
<glyph unicode="&#xc0;" horiz-adv-x="1096" d="M46 8q0 12 6 28l450 1236h92l450 -1236q6 -16 6 -28q0 -40 -42 -40q-28 0 -44 40l-144 400h-544l-144 -400q-18 -40 -44 -40q-42 0 -42 40zM308 492h480l-242 658zM342 1598q0 12 13 26t29 14q20 0 40 -22l140 -138q22 -26 22 -44q0 -12 -12 -25t-28 -13q-22 0 -42 22 l-138 138q-24 24 -24 42z" />
<glyph unicode="&#xc1;" horiz-adv-x="1096" d="M46 8q0 12 6 28l450 1236h92l450 -1236q6 -16 6 -28q0 -40 -42 -40q-28 0 -44 40l-144 400h-544l-144 -400q-18 -40 -44 -40q-42 0 -42 40zM308 492h480l-242 658zM470 1434q0 20 24 44l138 138q20 22 42 22q16 0 28 -14t12 -26q0 -16 -22 -42l-140 -138q-20 -22 -40 -22 q-16 0 -29 13t-13 25z" />
<glyph unicode="&#xc2;" horiz-adv-x="1096" d="M46 8q0 12 6 28l450 1236h92l450 -1236q6 -16 6 -28q0 -40 -42 -40q-28 0 -44 40l-144 400h-544l-144 -400q-18 -40 -44 -40q-42 0 -42 40zM276 1338q0 18 8 26l208 274h110l212 -274q8 -10 8 -26q0 -36 -36 -36q-8 0 -15 3t-10 6t-11 13t-12 14l-188 208h-6l-184 -208 q-32 -36 -48 -36q-36 0 -36 36zM308 492h480l-242 658z" />
<glyph unicode="&#xc3;" horiz-adv-x="1096" d="M46 8q0 12 6 28l450 1236h92l450 -1236q6 -16 6 -28q0 -40 -42 -40q-28 0 -44 40l-144 400h-544l-144 -400q-18 -40 -44 -40q-42 0 -42 40zM276 1450q0 26 24 44l94 78q10 14 30 14q6 0 22 -4l196 -72q8 -4 14 -4q8 0 22 10l62 56q22 16 38 16t29 -10t13 -26 q0 -24 -24 -46l-94 -78q-14 -14 -32 -14q-8 0 -20 4l-196 72q-8 4 -16 4t-22 -10l-62 -56q-22 -16 -38 -16q-14 0 -27 11t-13 27zM308 492h480l-242 658z" />
<glyph unicode="&#xc4;" horiz-adv-x="1096" d="M46 8q0 12 6 28l450 1236h92l450 -1236q6 -16 6 -28q0 -40 -42 -40q-28 0 -44 40l-144 400h-544l-144 -400q-18 -40 -44 -40q-42 0 -42 40zM308 492h480l-242 658zM310 1486q0 28 30 50t62 22q30 0 61 -22t31 -50t-31 -50t-61 -22q-32 0 -62 22t-30 50zM602 1486 q0 28 30 50t62 22q30 0 61 -22t31 -50t-31 -50t-61 -22q-32 0 -62 22t-30 50z" />
<glyph unicode="&#xc5;" horiz-adv-x="1096" d="M46 8q0 12 6 28l450 1236h92l450 -1236q6 -16 6 -28q0 -40 -42 -40q-28 0 -44 40l-144 400h-544l-144 -400q-18 -40 -44 -40q-42 0 -42 40zM308 492h480l-242 658zM396 1432q0 64 44 108t108 44t108 -44t44 -108t-44 -108t-108 -44t-108 44t-44 108zM450 1432 q0 -40 29 -69t69 -29t69 29t29 69t-29 69t-69 29t-69 -29t-29 -69z" />
<glyph unicode="&#xc6;" horiz-adv-x="1692" d="M16 -6q0 14 14 42l766 1220q10 16 30 16h712q58 0 58 -46q0 -38 -58 -38h-668v-430h430q62 0 62 -46q0 -38 -62 -38h-430v-590h668q58 0 58 -46q0 -38 -58 -38h-712q-38 0 -38 62v346h-438l-246 -398q-26 -42 -58 -42q-30 0 -30 26zM406 492h382v608z" />
<glyph unicode="&#xc7;" horiz-adv-x="1144" d="M144 350v572q0 210 102 280t314 70h282q62 0 103 -18t58 -52t23 -66t6 -78q0 -60 -42 -60t-42 56q0 72 -26 103t-94 31h-268q-96 0 -149 -7t-99 -34t-65 -81t-19 -144v-572q0 -90 19 -144t65 -81t99 -34t149 -7h268q68 0 94 30t26 104q0 56 42 56t42 -62q0 -44 -6 -76 t-23 -66t-58 -52t-103 -18h-206q8 -30 43 -55t63 -53t28 -70q0 -66 -52 -109t-130 -43q-46 0 -97 21t-51 69q0 26 20 26q6 0 52 -18t80 -18q94 0 94 62q0 28 -30 53t-64 57t-42 78q-206 2 -306 72t-100 278z" />
<glyph unicode="&#xc8;" horiz-adv-x="1154" d="M168 62v1148q0 62 38 62h792q58 0 58 -46q0 -38 -58 -38h-746v-430h510q60 0 60 -46q0 -38 -60 -38h-510v-590h746q58 0 58 -46q0 -38 -58 -38h-792q-38 0 -38 62zM398 1598q0 12 13 26t29 14q20 0 40 -22l140 -138q22 -26 22 -44q0 -12 -12 -25t-28 -13q-22 0 -42 22 l-138 138q-24 24 -24 42z" />
<glyph unicode="&#xc9;" horiz-adv-x="1154" d="M168 62v1148q0 62 38 62h792q58 0 58 -46q0 -38 -58 -38h-746v-430h510q60 0 60 -46q0 -38 -60 -38h-510v-590h746q58 0 58 -46q0 -38 -58 -38h-792q-38 0 -38 62zM500 1434q0 20 24 44l138 138q20 22 42 22q16 0 28 -14t12 -26q0 -16 -22 -42l-140 -138q-20 -22 -40 -22 q-16 0 -29 13t-13 25z" />
<glyph unicode="&#xca;" horiz-adv-x="1154" d="M168 62v1148q0 62 38 62h792q58 0 58 -46q0 -38 -58 -38h-746v-430h510q60 0 60 -46q0 -38 -60 -38h-510v-590h746q58 0 58 -46q0 -38 -58 -38h-792q-38 0 -38 62zM330 1338q0 18 8 26l208 274h110l212 -274q8 -10 8 -26q0 -36 -36 -36q-8 0 -15 3t-10 6t-11 13t-12 14 l-188 208h-6l-184 -208q-4 -4 -11 -12t-10 -11t-8 -7t-9 -5t-10 -1q-36 0 -36 36z" />
<glyph unicode="&#xcb;" horiz-adv-x="1154" d="M168 62v1148q0 62 38 62h792q58 0 58 -46q0 -38 -58 -38h-746v-430h510q60 0 60 -46q0 -38 -60 -38h-510v-590h746q58 0 58 -46q0 -38 -58 -38h-792q-38 0 -38 62zM366 1486q0 28 30 50t62 22q30 0 61 -22t31 -50t-31 -50t-61 -22q-32 0 -62 22t-30 50zM658 1486 q0 28 30 50t62 22q30 0 61 -22t31 -50t-31 -50t-61 -22q-32 0 -62 22t-30 50z" />
<glyph unicode="&#xcc;" horiz-adv-x="420" d="M8 1598q0 12 13 26t29 14q20 0 40 -22l140 -138q22 -26 22 -44q0 -12 -12 -25t-28 -13q-22 0 -42 22l-138 138q-24 24 -24 42zM168 40v1190q0 56 42 56t42 -56v-1190q0 -54 -44 -54q-40 0 -40 54z" />
<glyph unicode="&#xcd;" horiz-adv-x="420" d="M168 40v1190q0 56 42 56t42 -56v-1190q0 -54 -44 -54q-40 0 -40 54zM170 1434q0 20 24 44l138 138q20 22 42 22q16 0 28 -14t12 -26q0 -16 -22 -42l-140 -138q-20 -22 -40 -22q-16 0 -29 13t-13 25z" />
<glyph unicode="&#xce;" horiz-adv-x="420" d="M-60 1338q0 18 8 26l208 274h110l212 -274q8 -10 8 -26q0 -36 -36 -36q-8 0 -15 3t-10 6t-11 13t-12 14l-188 208h-6l-184 -208q-32 -36 -48 -36q-36 0 -36 36zM168 40v1190q0 56 42 56t42 -56v-1190q0 -54 -44 -54q-40 0 -40 54z" />
<glyph unicode="&#xcf;" horiz-adv-x="420" d="M-26 1486q0 28 30 50t62 22q30 0 61 -22t31 -50t-31 -50t-61 -22q-32 0 -62 22t-30 50zM168 40v1190q0 56 42 56t42 -56v-1190q0 -54 -44 -54q-40 0 -40 54zM266 1486q0 28 30 50t62 22q30 0 61 -22t31 -50t-31 -50t-61 -22q-32 0 -62 22t-30 50z" />
<glyph unicode="&#xd0;" horiz-adv-x="1200" d="M98 652q0 40 54 40h16v518q0 62 38 62h436q210 0 312 -70t102 -280v-572q0 -210 -102 -280t-312 -70h-436q-38 0 -38 62v544h-16q-54 0 -54 46zM252 84h390q94 0 147 7t99 34t65 81t19 144v572q0 90 -19 144t-65 81t-99 34t-147 7h-390v-496h212q58 0 58 -44 q0 -42 -58 -42h-212v-522z" />
<glyph unicode="&#xd1;" horiz-adv-x="1224" d="M168 46v1178q0 62 38 62q30 0 52 -34l714 -1084v1056q0 62 40 62q44 0 44 -62v-1178q0 -60 -40 -60q-24 0 -32 14l-732 1114v-1068q0 -60 -42 -60t-42 60zM338 1450q0 26 24 44l94 78q10 14 30 14q6 0 22 -4l196 -72q8 -4 14 -4q8 0 22 10l62 56q22 16 38 16t29 -10 t13 -26q0 -24 -24 -46l-94 -78q-14 -14 -32 -14q-8 0 -20 4l-196 72q-8 4 -16 4t-22 -10l-62 -56q-22 -16 -38 -16q-14 0 -27 11t-13 27z" />
<glyph unicode="&#xd2;" horiz-adv-x="1148" d="M130 454v364q0 220 125 346t319 126t319 -126t125 -346v-364q0 -220 -125 -346t-319 -126t-319 126t-125 346zM214 454q0 -182 96 -285t264 -103t264 103t96 285v364q0 182 -96 285t-264 103t-264 -103t-96 -285v-364zM370 1598q0 12 13 26t29 14q20 0 40 -22l140 -138 q22 -26 22 -44q0 -12 -12 -25t-28 -13q-22 0 -42 22l-138 138q-24 24 -24 42z" />
<glyph unicode="&#xd3;" horiz-adv-x="1148" d="M130 454v364q0 220 125 346t319 126t319 -126t125 -346v-364q0 -220 -125 -346t-319 -126t-319 126t-125 346zM214 454q0 -182 96 -285t264 -103t264 103t96 285v364q0 182 -96 285t-264 103t-264 -103t-96 -285v-364zM532 1434q0 20 24 44l138 138q20 22 42 22 q16 0 28 -14t12 -26q0 -16 -22 -42l-140 -138q-20 -22 -40 -22q-16 0 -29 13t-13 25z" />
<glyph unicode="&#xd4;" horiz-adv-x="1148" d="M130 454v364q0 220 125 346t319 126t319 -126t125 -346v-364q0 -220 -125 -346t-319 -126t-319 126t-125 346zM214 454q0 -182 96 -285t264 -103t264 103t96 285v364q0 182 -96 285t-264 103t-264 -103t-96 -285v-364zM302 1338q0 18 8 26l208 274h110l212 -274 q8 -10 8 -26q0 -36 -36 -36q-8 0 -15 3t-10 6t-11 13t-12 14l-188 208h-6l-184 -208q-4 -4 -11 -12t-10 -11t-8 -7t-9 -5t-10 -1q-36 0 -36 36z" />
<glyph unicode="&#xd5;" horiz-adv-x="1148" d="M130 454v364q0 220 125 346t319 126t319 -126t125 -346v-364q0 -220 -125 -346t-319 -126t-319 126t-125 346zM214 454q0 -182 96 -285t264 -103t264 103t96 285v364q0 182 -96 285t-264 103t-264 -103t-96 -285v-364zM302 1450q0 26 24 44l94 78q10 14 30 14q6 0 22 -4 l196 -72q8 -4 14 -4q8 0 22 10l62 56q22 16 38 16t29 -10t13 -26q0 -24 -24 -46l-94 -78q-14 -14 -32 -14q-8 0 -20 4l-196 72q-8 4 -16 4t-22 -10l-62 -56q-22 -16 -38 -16q-14 0 -27 11t-13 27z" />
<glyph unicode="&#xd6;" horiz-adv-x="1148" d="M130 454v364q0 220 125 346t319 126t319 -126t125 -346v-364q0 -220 -125 -346t-319 -126t-319 126t-125 346zM214 454q0 -182 96 -285t264 -103t264 103t96 285v364q0 182 -96 285t-264 103t-264 -103t-96 -285v-364zM338 1486q0 28 30 50t62 22q30 0 61 -22t31 -50 t-31 -50t-61 -22q-32 0 -62 22t-30 50zM630 1486q0 28 30 50t62 22q30 0 61 -22t31 -50t-31 -50t-61 -22q-32 0 -62 22t-30 50z" />
<glyph unicode="&#xd7;" horiz-adv-x="982" d="M142 152q0 20 22 42l266 266l-266 268q-22 22 -22 40q0 14 13 27t27 13q18 0 40 -22l270 -266l266 266q22 22 42 22q12 0 26 -11t14 -27q0 -21 -24 -42l-266 -268l266 -266q24 -22 24 -40q0 -14 -14 -28t-28 -14q-18 0 -40 24l-266 266l-270 -266q-21 -24 -42 -24 q-12 0 -25 11t-13 29z" />
<glyph unicode="&#xd8;" horiz-adv-x="1148" d="M130 454v364q0 220 125 346t319 126q166 0 278 -90l26 44q18 32 42 32q6 0 15 -3t18 -13t9 -24q0 -12 -10 -36l-38 -60q104 -126 104 -322v-364q0 -220 -125 -346t-319 -126q-164 0 -276 88l-24 -42q-18 -32 -44 -32q-10 0 -25 9t-15 29q0 14 10 38l34 58 q-104 122 -104 324zM214 454q0 -152 66 -248l532 922q-92 78 -238 78q-168 0 -264 -103t-96 -285v-364zM338 142q92 -76 236 -76q168 0 264 103t96 285v364q0 150 -64 244z" />
<glyph unicode="&#xd9;" horiz-adv-x="1196" d="M154 454v776q0 56 42 56t42 -56v-776q0 -182 96 -285t264 -103t264 103t96 285v776q0 56 44 56q40 0 40 -56v-776q0 -220 -125 -346t-319 -126t-319 126t-125 346zM396 1566q0 18 13 30t27 12q18 0 42 -26l192 -230q16 -18 16 -40q0 -16 -13 -28t-27 -12q-18 0 -42 26 l-192 230q-16 18 -16 38z" />
<glyph unicode="&#xda;" horiz-adv-x="1196" d="M154 454v776q0 56 42 56t42 -56v-776q0 -182 96 -285t264 -103t264 103t96 285v776q0 56 44 56q40 0 40 -56v-776q0 -220 -125 -346t-319 -126t-319 126t-125 346zM558 1312q0 22 16 40l192 230q24 26 42 26q14 0 27 -12t13 -30q0 -20 -16 -38l-192 -230q-24 -26 -42 -26 q-14 0 -27 12t-13 28z" />
<glyph unicode="&#xdb;" horiz-adv-x="1196" d="M154 454v776q0 56 42 56t42 -56v-776q0 -182 96 -285t264 -103t264 103t96 285v776q0 56 44 56q40 0 40 -56v-776q0 -220 -125 -346t-319 -126t-319 126t-125 346zM326 1338q0 18 8 26l208 274h110l212 -274q8 -10 8 -26q0 -36 -36 -36q-8 0 -15 3t-10 6t-11 13t-12 14 l-188 208h-6l-184 -208q-4 -4 -11 -12t-10 -11t-8 -7t-9 -5t-10 -1q-36 0 -36 36z" />
<glyph unicode="&#xdc;" horiz-adv-x="1196" d="M154 454v776q0 56 42 56t42 -56v-776q0 -182 96 -285t264 -103t264 103t96 285v776q0 56 44 56q40 0 40 -56v-776q0 -220 -125 -346t-319 -126t-319 126t-125 346zM362 1486q0 28 30 50t62 22q30 0 61 -22t31 -50t-31 -50t-61 -22q-32 0 -62 22t-30 50zM654 1486 q0 28 30 50t62 22q30 0 61 -22t31 -50t-31 -50t-61 -22q-32 0 -62 22t-30 50z" />
<glyph unicode="&#xdd;" horiz-adv-x="998" d="M32 1246q0 16 13 28t27 12q20 0 42 -32l384 -546l382 546q26 32 44 32q14 0 27 -12t13 -28q0 -18 -14 -38l-410 -588v-580q0 -54 -42 -54q-40 0 -40 54v580l-412 588q-14 20 -14 38zM458 1312q0 22 16 40l192 230q24 26 42 26q14 0 27 -12t13 -30q0 -20 -16 -38 l-192 -230q-24 -26 -42 -26q-14 0 -27 12t-13 28z" />
<glyph unicode="&#xde;" horiz-adv-x="1000" d="M168 40v1106q0 56 42 56t42 -56v-224h346q156 0 244 -76t88 -224q0 -146 -89 -223t-245 -77h-344v-282q0 -54 -44 -54q-40 0 -40 54zM252 838v-432h260q182 0 256 41t76 173q0 132 -75 175t-255 43h-262z" />
<glyph unicode="&#xdf;" horiz-adv-x="884" d="M62 882q0 40 62 40q0 110 27 183t75 107t95 47t107 13q118 0 182 -66t64 -156q0 -188 -160 -282q296 -76 296 -378q0 -122 -26 -211t-71 -134t-92 -65t-99 -20q-80 0 -150 55t-70 157q0 62 42 62t42 -58q0 -68 45 -100t107 -32q74 0 131 74t57 272q0 142 -105 236 t-299 94v84q120 0 194 62t74 188q0 60 -43 97t-119 37q-54 0 -88 -8t-68 -33t-49 -81t-15 -144v-874q0 -62 -46 -62q-38 0 -38 62v790q-62 0 -62 44z" />
<glyph unicode="&#xe0;" horiz-adv-x="1068" d="M120 240q0 84 20 146t54 99t88 58t114 29t140 8h304v128q0 70 -26 100t-94 30h-282q-234 0 -234 -130q0 -60 -44 -60q-40 0 -40 60q0 108 85 161t219 53h310q110 0 150 -54t40 -194v-628q0 -60 -42 -60t-42 60v98q-108 -144 -330 -144h-186q-90 0 -147 65t-57 175z M204 230q0 -56 37 -101t83 -45h186q158 0 244 96t86 276v40h-304q-96 0 -149 -7t-99 -34t-65 -81t-19 -144zM320 1308q0 18 13 30t27 12q18 0 42 -26l192 -230q16 -18 16 -40q0 -16 -13 -28t-27 -12q-18 0 -42 26l-192 230q-16 18 -16 38z" />
<glyph unicode="&#xe1;" horiz-adv-x="1068" d="M120 240q0 84 20 146t54 99t88 58t114 29t140 8h304v128q0 70 -26 100t-94 30h-282q-234 0 -234 -130q0 -60 -44 -60q-40 0 -40 60q0 108 85 161t219 53h310q110 0 150 -54t40 -194v-628q0 -60 -42 -60t-42 60v98q-108 -144 -330 -144h-186q-90 0 -147 65t-57 175z M204 230q0 -56 37 -101t83 -45h186q158 0 244 96t86 276v40h-304q-96 0 -149 -7t-99 -34t-65 -81t-19 -144zM482 1060q0 22 16 40l192 230q24 26 42 26q14 0 27 -12t13 -30q0 -20 -16 -38l-192 -230q-24 -26 -42 -26q-14 0 -27 12t-13 28z" />
<glyph unicode="&#xe2;" horiz-adv-x="1068" d="M120 240q0 84 20 146t54 99t88 58t114 29t140 8h304v128q0 70 -26 100t-94 30h-282q-234 0 -234 -130q0 -60 -44 -60q-40 0 -40 60q0 108 85 161t219 53h310q110 0 150 -54t40 -194v-628q0 -60 -42 -60t-42 60v98q-108 -144 -330 -144h-186q-90 0 -147 65t-57 175z M204 230q0 -56 37 -101t83 -45h186q158 0 244 96t86 276v40h-304q-96 0 -149 -7t-99 -34t-65 -81t-19 -144zM250 1080q0 18 8 26l208 274h110l212 -274q8 -10 8 -26q0 -36 -36 -36q-8 0 -15 3t-10 6t-11 13t-12 14l-188 208h-6l-184 -208q-4 -4 -11 -12t-10 -11t-8 -7t-9 -5 t-10 -1q-36 0 -36 36z" />
<glyph unicode="&#xe3;" horiz-adv-x="1068" d="M120 240q0 84 20 146t54 99t88 58t114 29t140 8h304v128q0 70 -26 100t-94 30h-282q-234 0 -234 -130q0 -60 -44 -60q-40 0 -40 60q0 108 85 161t219 53h310q110 0 150 -54t40 -194v-628q0 -60 -42 -60t-42 60v98q-108 -144 -330 -144h-186q-90 0 -147 65t-57 175z M204 230q0 -56 37 -101t83 -45h186q158 0 244 96t86 276v40h-304q-96 0 -149 -7t-99 -34t-65 -81t-19 -144zM252 1082q0 26 24 44l94 78q10 14 30 14q6 0 22 -4l196 -72q8 -4 14 -4q8 0 22 10l62 56q22 16 38 16t29 -10t13 -26q0 -24 -24 -46l-94 -78q-14 -14 -32 -14 q-8 0 -20 4l-196 72q-8 4 -16 4t-22 -10l-62 -56q-22 -16 -38 -16q-14 0 -27 11t-13 27z" />
<glyph unicode="&#xe4;" horiz-adv-x="1068" d="M120 240q0 84 20 146t54 99t88 58t114 29t140 8h304v128q0 70 -26 100t-94 30h-282q-234 0 -234 -130q0 -60 -44 -60q-40 0 -40 60q0 108 85 161t219 53h310q110 0 150 -54t40 -194v-628q0 -60 -42 -60t-42 60v98q-108 -144 -330 -144h-186q-90 0 -147 65t-57 175z M204 230q0 -56 37 -101t83 -45h186q158 0 244 96t86 276v40h-304q-96 0 -149 -7t-99 -34t-65 -81t-19 -144zM284 1116q0 28 30 50t62 22q30 0 61 -22t31 -50t-31 -50t-61 -22q-32 0 -62 22t-30 50zM576 1116q0 28 30 50t62 22q30 0 61 -22t31 -50t-31 -50t-61 -22 q-32 0 -62 22t-30 50z" />
<glyph unicode="&#xe5;" horiz-adv-x="1068" d="M120 240q0 84 20 146t54 99t88 58t114 29t140 8h304v128q0 70 -26 100t-94 30h-282q-234 0 -234 -130q0 -60 -44 -60q-40 0 -40 60q0 108 85 161t219 53h310q110 0 150 -54t40 -194v-628q0 -60 -42 -60t-42 60v98q-108 -144 -330 -144h-186q-90 0 -147 65t-57 175z M204 230q0 -56 37 -101t83 -45h186q158 0 244 96t86 276v40h-304q-96 0 -149 -7t-99 -34t-65 -81t-19 -144zM372 1196q0 64 44 108t108 44t108 -44t44 -108t-44 -108t-108 -44t-108 44t-44 108zM426 1196q0 -40 29 -69t69 -29t69 29t29 69t-29 69t-69 29t-69 -29t-29 -69z " />
<glyph unicode="&#xe6;" horiz-adv-x="1848" d="M120 236q0 200 109 277t323 77h300v124q0 66 -25 95t-93 29h-278q-252 0 -252 -130q0 -60 -44 -60q-40 0 -40 60q0 80 52 131t119 67t151 16h306q48 0 81 -9t51 -28t24 -30t16 -35q32 32 58 49t106 35t198 18h16q228 0 329 -70t101 -272v-74h-792v-162q0 -90 18 -142 t67 -78t104 -33t157 -7h242q70 0 95 31t25 103q0 56 42 56t42 -62q0 -102 -39 -157t-151 -55h-256q-110 0 -185 13t-117 40t-61 50t-39 61l-10 -12q-50 -70 -158 -111t-204 -41h-184q-88 0 -146 64t-58 172zM204 226q0 -56 37 -99t83 -43h184q166 0 255 102t89 280v40h-300 q-192 0 -270 -55t-78 -225zM936 590h708q-2 152 -73 200t-273 48h-16q-204 0 -274 -47t-72 -201z" />
<glyph unicode="&#xe7;" horiz-adv-x="1128" d="M124 350v222q0 210 102 280t314 70h282q62 0 103 -18t58 -53t23 -66t6 -77q0 -60 -42 -60t-42 56q0 72 -26 103t-94 31h-268q-96 0 -149 -7t-99 -34t-65 -81t-19 -144v-222q0 -90 19 -144t65 -81t99 -34t149 -7h268q68 0 94 30t26 104q0 56 42 56t42 -62q0 -44 -6 -76 t-23 -66t-58 -52t-103 -18h-202q8 -30 43 -55t63 -53t28 -70q0 -66 -52 -109t-130 -43q-46 0 -97 21t-51 69q0 26 20 26q6 0 52 -18t80 -18q94 0 94 62q0 28 -30 53t-64 57t-42 78q-208 0 -309 71t-101 279z" />
<glyph unicode="&#xe8;" horiz-adv-x="1132" d="M124 350v222q0 210 102 280t314 70h58q210 0 312 -70t102 -280v-72h-804v-150q0 -90 19 -144t65 -81t99 -34t149 -7h268q68 0 94 30t26 104q0 56 42 56t42 -62q0 -44 -6 -76t-23 -66t-58 -52t-103 -18h-282q-212 0 -314 70t-102 280zM208 584h720q0 162 -74 208t-256 46 h-58q-184 0 -258 -46t-74 -208zM362 1314q0 18 13 30t27 12q18 0 42 -26l192 -230q16 -18 16 -40q0 -16 -13 -28t-27 -12q-18 0 -42 26l-192 230q-16 18 -16 38z" />
<glyph unicode="&#xe9;" horiz-adv-x="1132" d="M124 350v222q0 210 102 280t314 70h58q210 0 312 -70t102 -280v-72h-804v-150q0 -90 19 -144t65 -81t99 -34t149 -7h268q68 0 94 30t26 104q0 56 42 56t42 -62q0 -44 -6 -76t-23 -66t-58 -52t-103 -18h-282q-212 0 -314 70t-102 280zM208 584h720q0 162 -74 208t-256 46 h-58q-184 0 -258 -46t-74 -208zM530 1060q0 22 16 40l192 230q24 26 42 26q14 0 27 -12t13 -30q0 -20 -16 -38l-192 -230q-24 -26 -42 -26q-14 0 -27 12t-13 28z" />
<glyph unicode="&#xea;" horiz-adv-x="1132" d="M124 350v222q0 210 102 280t314 70h58q210 0 312 -70t102 -280v-72h-804v-150q0 -90 19 -144t65 -81t99 -34t149 -7h268q68 0 94 30t26 104q0 56 42 56t42 -62q0 -44 -6 -76t-23 -66t-58 -52t-103 -18h-282q-212 0 -314 70t-102 280zM208 584h720q0 162 -74 208t-256 46 h-58q-184 0 -258 -46t-74 -208zM296 1080q0 18 8 26l208 274h110l212 -274q8 -10 8 -26q0 -36 -36 -36q-8 0 -15 3t-10 6t-11 13t-12 14l-188 208h-6l-184 -208q-32 -36 -48 -36q-36 0 -36 36z" />
<glyph unicode="&#xeb;" horiz-adv-x="1132" d="M124 350v222q0 210 102 280t314 70h58q210 0 312 -70t102 -280v-72h-804v-150q0 -90 19 -144t65 -81t99 -34t149 -7h268q68 0 94 30t26 104q0 56 42 56t42 -62q0 -44 -6 -76t-23 -66t-58 -52t-103 -18h-282q-212 0 -314 70t-102 280zM208 584h720q0 162 -74 208t-256 46 h-58q-184 0 -258 -46t-74 -208zM332 1116q0 28 30 50t62 22q30 0 61 -22t31 -50t-31 -50t-61 -22q-32 0 -62 22t-30 50zM624 1116q0 28 30 50t62 22q30 0 61 -22t31 -50t-31 -50t-61 -22q-32 0 -62 22t-30 50z" />
<glyph unicode="&#xec;" horiz-adv-x="380" d="M-58 1316q0 18 13 30t27 12q18 0 42 -26l192 -230q16 -18 16 -40q0 -16 -13 -28t-27 -12q-18 0 -42 26l-192 230q-16 18 -16 38zM148 40v840q0 56 42 56t42 -56v-840q0 -54 -44 -54q-40 0 -40 54z" />
<glyph unicode="&#xed;" horiz-adv-x="380" d="M148 40v840q0 56 42 56t42 -56v-840q0 -54 -44 -54q-40 0 -40 54zM148 1060q0 22 16 40l192 230q24 26 42 26q14 0 27 -12t13 -30q0 -20 -16 -38l-192 -230q-24 -26 -42 -26q-14 0 -27 12t-13 28z" />
<glyph unicode="&#xee;" horiz-adv-x="380" d="M-82 1094q0 18 8 26l208 274h110l212 -274q8 -10 8 -26q0 -36 -36 -36q-8 0 -15 3t-10 6t-11 13t-12 14l-188 208h-6l-184 -208q-4 -4 -11 -12t-10 -11t-8 -7t-9 -5t-10 -1q-36 0 -36 36zM148 40v840q0 56 42 56t42 -56v-840q0 -54 -44 -54q-40 0 -40 54z" />
<glyph unicode="&#xef;" horiz-adv-x="380" d="M-48 1130q0 28 30 50t62 22q30 0 61 -22t31 -50t-31 -50t-61 -22q-32 0 -62 22t-30 50zM148 40v840q0 56 42 56t42 -56v-840q0 -54 -44 -54q-40 0 -40 54zM244 1130q0 28 30 50t62 22q30 0 61 -22t31 -50t-31 -50t-61 -22q-32 0 -62 22t-30 50z" />
<glyph unicode="&#xf0;" horiz-adv-x="1092" d="M94 440q0 222 133 347t341 125q164 0 270 -106q-84 212 -264 308l-100 -98q-22 -22 -40 -22q-14 0 -28 12t-14 28q0 14 24 42l76 74q-96 36 -196 36q-52 0 -52 40q0 46 52 46q142 0 262 -54l68 68q22 22 42 22q14 0 27 -11t13 -27q0 -20 -22 -44l-50 -48 q346 -212 346 -736q0 -196 -112 -335t-302 -139q-208 0 -341 126t-133 346zM178 440q0 -170 107 -279t283 -109q160 0 245 123t85 267q0 160 -83 273t-247 113q-176 0 -283 -108t-107 -280z" />
<glyph unicode="&#xf1;" horiz-adv-x="1176" d="M148 46v828q0 62 38 62q46 0 46 -62v-96q112 144 332 144h58q210 0 312 -70t102 -280v-526q0 -60 -40 -60q-44 0 -44 60v526q0 90 -19 144t-65 81t-99 34t-147 7h-58q-160 0 -246 -97t-86 -277v-418q0 -60 -42 -60t-42 60zM320 1096q0 26 24 44l94 78q10 14 30 14 q6 0 22 -4l196 -72q8 -4 14 -4q8 0 22 10l62 56q22 16 38 16t29 -10t13 -26q0 -24 -24 -46l-94 -78q-14 -14 -32 -14q-8 0 -20 4l-196 72q-8 4 -16 4t-22 -10l-62 -56q-22 -16 -38 -16q-14 0 -27 11t-13 27z" />
<glyph unicode="&#xf2;" horiz-adv-x="1136" d="M124 350v222q0 210 102 280t314 70h58q210 0 312 -70t102 -280v-222q0 -210 -102 -280t-312 -70h-58q-212 0 -314 70t-102 280zM208 350q0 -90 19 -144t65 -81t99 -34t149 -7h58q94 0 147 7t99 34t65 81t19 144v222q0 90 -19 144t-65 81t-99 34t-147 7h-58q-96 0 -149 -7 t-99 -34t-65 -81t-19 -144v-222zM366 1314q0 18 13 30t27 12q18 0 42 -26l192 -230q16 -18 16 -40q0 -16 -13 -28t-27 -12q-18 0 -42 26l-192 230q-16 18 -16 38z" />
<glyph unicode="&#xf3;" horiz-adv-x="1136" d="M124 350v222q0 210 102 280t314 70h58q210 0 312 -70t102 -280v-222q0 -210 -102 -280t-312 -70h-58q-212 0 -314 70t-102 280zM208 350q0 -90 19 -144t65 -81t99 -34t149 -7h58q94 0 147 7t99 34t65 81t19 144v222q0 90 -19 144t-65 81t-99 34t-147 7h-58q-96 0 -149 -7 t-99 -34t-65 -81t-19 -144v-222zM526 1060q0 22 16 40l192 230q24 26 42 26q14 0 27 -12t13 -30q0 -20 -16 -38l-192 -230q-24 -26 -42 -26q-14 0 -27 12t-13 28z" />
<glyph unicode="&#xf4;" horiz-adv-x="1136" d="M124 350v222q0 210 102 280t314 70h58q210 0 312 -70t102 -280v-222q0 -210 -102 -280t-312 -70h-58q-212 0 -314 70t-102 280zM208 350q0 -90 19 -144t65 -81t99 -34t149 -7h58q94 0 147 7t99 34t65 81t19 144v222q0 90 -19 144t-65 81t-99 34t-147 7h-58q-96 0 -149 -7 t-99 -34t-65 -81t-19 -144v-222zM296 1080q0 18 8 26l208 274h110l212 -274q8 -10 8 -26q0 -36 -36 -36q-8 0 -15 3t-10 6t-11 13t-12 14l-188 208h-6l-184 -208q-32 -36 -48 -36q-36 0 -36 36z" />
<glyph unicode="&#xf5;" horiz-adv-x="1136" d="M124 350v222q0 210 102 280t314 70h58q210 0 312 -70t102 -280v-222q0 -210 -102 -280t-312 -70h-58q-212 0 -314 70t-102 280zM208 350q0 -90 19 -144t65 -81t99 -34t149 -7h58q94 0 147 7t99 34t65 81t19 144v222q0 90 -19 144t-65 81t-99 34t-147 7h-58q-96 0 -149 -7 t-99 -34t-65 -81t-19 -144v-222zM296 1082q0 26 24 44l94 78q10 14 30 14q6 0 22 -4l196 -72q8 -4 14 -4q8 0 22 10l62 56q22 16 38 16t29 -10t13 -26q0 -24 -24 -46l-94 -78q-14 -14 -32 -14q-8 0 -20 4l-196 72q-8 4 -16 4t-22 -10l-62 -56q-22 -16 -38 -16q-14 0 -27 11 t-13 27z" />
<glyph unicode="&#xf6;" horiz-adv-x="1136" d="M124 350v222q0 210 102 280t314 70h58q210 0 312 -70t102 -280v-222q0 -210 -102 -280t-312 -70h-58q-212 0 -314 70t-102 280zM208 350q0 -90 19 -144t65 -81t99 -34t149 -7h58q94 0 147 7t99 34t65 81t19 144v222q0 90 -19 144t-65 81t-99 34t-147 7h-58q-96 0 -149 -7 t-99 -34t-65 -81t-19 -144v-222zM332 1116q0 28 30 50t62 22q30 0 61 -22t31 -50t-31 -50t-61 -22q-32 0 -62 22t-30 50zM624 1116q0 28 30 50t62 22q30 0 61 -22t31 -50t-31 -50t-61 -22q-32 0 -62 22t-30 50z" />
<glyph unicode="&#xf7;" horiz-adv-x="880" d="M140 462q0 42 52 42h490q58 0 58 -46q0 -40 -58 -40h-490q-52 0 -52 44zM340 256q0 28 30 50t62 22q30 0 61 -22t31 -50t-31 -50t-61 -22q-32 0 -62 22t-30 50zM340 666q0 28 30 50t62 22q30 0 61 -22t31 -50t-31 -50t-61 -22q-32 0 -62 22t-30 50z" />
<glyph unicode="&#xf8;" horiz-adv-x="1136" d="M124 350v222q0 210 102 280t314 70h58q182 0 268 -44l26 34q22 26 42 26q14 0 28 -12t14 -28q0 -18 -18 -40l-24 -28q78 -82 78 -258v-222q0 -210 -102 -280t-312 -70h-58q-178 0 -266 40l-28 -30q-22 -26 -42 -26q-14 0 -28 12t-14 28t20 40l22 26q-80 84 -80 260z M208 350q0 -138 50 -196l552 660q-64 24 -212 24h-58q-96 0 -149 -7t-99 -34t-65 -81t-19 -144v-222zM328 106q64 -22 212 -22h58q94 0 147 7t99 34t65 81t19 144v222q0 136 -48 194z" />
<glyph unicode="&#xf9;" horiz-adv-x="1176" d="M140 350v526q0 60 40 60q44 0 44 -60v-526q0 -90 19 -144t65 -81t99 -34t149 -7h58q158 0 244 96t86 276v420q0 60 42 60t42 -60v-828q0 -62 -38 -62q-46 0 -46 62v96q-108 -144 -330 -144h-58q-212 0 -314 70t-102 280zM380 1314q0 18 13 30t27 12q18 0 42 -26l192 -230 q16 -18 16 -40q0 -16 -13 -28t-27 -12q-18 0 -42 26l-192 230q-16 18 -16 38z" />
<glyph unicode="&#xfa;" horiz-adv-x="1176" d="M140 350v526q0 60 40 60q44 0 44 -60v-526q0 -90 19 -144t65 -81t99 -34t149 -7h58q158 0 244 96t86 276v420q0 60 42 60t42 -60v-828q0 -62 -38 -62q-46 0 -46 62v96q-108 -144 -330 -144h-58q-212 0 -314 70t-102 280zM544 1060q0 22 16 40l192 230q24 26 42 26 q14 0 27 -12t13 -30q0 -20 -16 -38l-192 -230q-24 -26 -42 -26q-14 0 -27 12t-13 28z" />
<glyph unicode="&#xfb;" horiz-adv-x="1176" d="M140 350v526q0 60 40 60q44 0 44 -60v-526q0 -90 19 -144t65 -81t99 -34t149 -7h58q158 0 244 96t86 276v420q0 60 42 60t42 -60v-828q0 -62 -38 -62q-46 0 -46 62v96q-108 -144 -330 -144h-58q-212 0 -314 70t-102 280zM310 1094q0 18 8 26l208 274h110l212 -274 q8 -10 8 -26q0 -36 -36 -36q-8 0 -15 3t-10 6t-11 13t-12 14l-188 208h-6l-184 -208q-4 -4 -11 -12t-10 -11t-8 -7t-9 -5t-10 -1q-36 0 -36 36z" />
<glyph unicode="&#xfc;" horiz-adv-x="1176" d="M140 350v526q0 60 40 60q44 0 44 -60v-526q0 -90 19 -144t65 -81t99 -34t149 -7h58q158 0 244 96t86 276v420q0 60 42 60t42 -60v-828q0 -62 -38 -62q-46 0 -46 62v96q-108 -144 -330 -144h-58q-212 0 -314 70t-102 280zM346 1130q0 28 30 50t62 22q30 0 61 -22t31 -50 t-31 -50t-61 -22q-32 0 -62 22t-30 50zM638 1130q0 28 30 50t62 22q30 0 61 -22t31 -50t-31 -50t-61 -22q-32 0 -62 22t-30 50z" />
<glyph unicode="&#xfd;" horiz-adv-x="1178" d="M140 350v522q0 64 42 64t42 -64v-522q0 -90 19 -144t65 -81t99 -34t149 -7h58q158 0 244 96t86 276v416q0 64 44 64q40 0 40 -64v-1056q0 -128 -36 -177t-136 -49h-526q-62 0 -103 18t-58 53t-23 66t-6 77q0 60 42 60t42 -56q0 -72 26 -103t94 -31h498q62 0 82 23t20 87 v360q-108 -144 -330 -144h-58q-212 0 -314 70t-102 280zM546 1060q0 22 16 40l192 230q24 26 42 26q14 0 27 -12t13 -30q0 -20 -16 -38l-192 -230q-24 -26 -42 -26q-14 0 -27 12t-13 28z" />
<glyph unicode="&#xfe;" horiz-adv-x="1162" d="M150 -304v1530q0 60 42 60t42 -60v-448q112 144 332 144h58q210 0 312 -70t102 -280v-222q0 -210 -102 -280t-312 -70h-390v-304q0 -60 -46 -60q-38 0 -38 60zM234 84h390q94 0 147 7t99 34t65 81t19 144v222q0 90 -19 144t-65 81t-99 34t-147 7h-58q-160 0 -246 -97 t-86 -277v-380z" />
<glyph unicode="&#xff;" horiz-adv-x="1178" d="M140 350v522q0 64 42 64t42 -64v-522q0 -90 19 -144t65 -81t99 -34t149 -7h58q158 0 244 96t86 276v416q0 64 44 64q40 0 40 -64v-1056q0 -128 -36 -177t-136 -49h-526q-62 0 -103 18t-58 53t-23 66t-6 77q0 60 42 60t42 -56q0 -72 26 -103t94 -31h498q62 0 82 23t20 87 v360q-108 -144 -330 -144h-58q-212 0 -314 70t-102 280zM348 1130q0 28 30 50t62 22q30 0 61 -22t31 -50t-31 -50t-61 -22q-32 0 -62 22t-30 50zM640 1130q0 28 30 50t62 22q30 0 61 -22t31 -50t-31 -50t-61 -22q-32 0 -62 22t-30 50z" />
<glyph unicode="&#x100;" horiz-adv-x="1096" d="M46 8q0 12 6 28l450 1236h92l450 -1236q6 -16 6 -28q0 -40 -42 -40q-28 0 -44 40l-144 400h-544l-144 -400q-18 -40 -44 -40q-42 0 -42 40zM248 1456q0 42 52 42h490q58 0 58 -46q0 -40 -58 -40h-490q-52 0 -52 44zM308 492h480l-242 658z" />
<glyph unicode="&#x101;" horiz-adv-x="1068" d="M120 240q0 84 20 146t54 99t88 58t114 29t140 8h304v128q0 70 -26 100t-94 30h-282q-234 0 -234 -130q0 -60 -44 -60q-40 0 -40 60q0 108 85 161t219 53h310q110 0 150 -54t40 -194v-628q0 -60 -42 -60t-42 60v98q-108 -144 -330 -144h-186q-90 0 -147 65t-57 175z M204 230q0 -56 37 -101t83 -45h186q158 0 244 96t86 276v40h-304q-96 0 -149 -7t-99 -34t-65 -81t-19 -144zM230 1088q0 42 52 42h490q58 0 58 -46q0 -40 -58 -40h-490q-52 0 -52 44z" />
<glyph unicode="&#x102;" horiz-adv-x="1096" d="M46 8q0 12 6 28l450 1236h92l450 -1236q6 -16 6 -28q0 -40 -42 -40q-28 0 -44 40l-144 400h-544l-144 -400q-18 -40 -44 -40q-42 0 -42 40zM308 492h480l-242 658zM318 1638h86q0 -68 39 -111t105 -43t105 43t39 111h86q0 -96 -68 -169t-162 -73t-162 73t-68 169z" />
<glyph unicode="&#x103;" horiz-adv-x="1068" d="M120 240q0 84 20 146t54 99t88 58t114 29t140 8h304v128q0 70 -26 100t-94 30h-282q-234 0 -234 -130q0 -60 -44 -60q-40 0 -40 60q0 108 85 161t219 53h310q110 0 150 -54t40 -194v-628q0 -60 -42 -60t-42 60v98q-108 -144 -330 -144h-186q-90 0 -147 65t-57 175z M204 230q0 -56 37 -101t83 -45h186q158 0 244 96t86 276v40h-304q-96 0 -149 -7t-99 -34t-65 -81t-19 -144zM314 1286h86q0 -68 39 -111t105 -43t105 43t39 111h86q0 -96 -68 -169t-162 -73t-162 73t-68 169z" />
<glyph unicode="&#x104;" horiz-adv-x="1094" d="M46 8q0 12 6 28l450 1236h92l450 -1236q6 -16 6 -28q0 -34 -36 -40q-36 -36 -67 -93t-31 -87q0 -118 94 -118q34 0 80 18t52 18q20 0 20 -26q0 -48 -51 -69t-97 -21q-80 0 -131 55t-51 143q0 44 40 115t86 123l-138 382h-544l-144 -400q-18 -40 -44 -40q-42 0 -42 40z M308 492h480l-242 658z" />
<glyph unicode="&#x105;" horiz-adv-x="1068" d="M120 240q0 84 20 146t54 99t88 58t114 29t140 8h304v128q0 70 -26 100t-94 30h-282q-234 0 -234 -130q0 -60 -44 -60q-40 0 -40 60q0 108 85 161t219 53h310q110 0 150 -54t40 -194v-628q0 -46 -22 -56q-38 -26 -79 -96t-41 -104q0 -118 94 -118q34 0 80 18t52 18 q20 0 20 -26q0 -48 -51 -69t-97 -21q-80 0 -131 55t-51 143q0 46 48 127t94 129v98q-108 -144 -330 -144h-186q-90 0 -147 65t-57 175zM204 230q0 -56 37 -101t83 -45h186q158 0 244 96t86 276v40h-304q-96 0 -149 -7t-99 -34t-65 -81t-19 -144z" />
<glyph unicode="&#x106;" horiz-adv-x="1144" d="M144 350v572q0 210 102 280t314 70h282q62 0 103 -18t58 -52t23 -66t6 -78q0 -60 -42 -60t-42 56q0 72 -26 103t-94 31h-268q-96 0 -149 -7t-99 -34t-65 -81t-19 -144v-572q0 -90 19 -144t65 -81t99 -34t149 -7h268q68 0 94 30t26 104q0 56 42 56t42 -62q0 -44 -6 -76 t-23 -66t-58 -52t-103 -18h-282q-212 0 -314 70t-102 280zM582 1436q0 20 24 44l138 138q20 22 42 22q16 0 28 -14t12 -26q0 -16 -22 -42l-140 -138q-20 -22 -40 -22q-16 0 -29 13t-13 25z" />
<glyph unicode="&#x107;" horiz-adv-x="1128" d="M124 350v222q0 210 102 280t314 70h282q62 0 103 -18t58 -53t23 -66t6 -77q0 -60 -42 -60t-42 56q0 72 -26 103t-94 31h-268q-96 0 -149 -7t-99 -34t-65 -81t-19 -144v-222q0 -90 19 -144t65 -81t99 -34t149 -7h268q68 0 94 30t26 104q0 56 42 56t42 -62q0 -44 -6 -76 t-23 -66t-58 -52t-103 -18h-282q-212 0 -314 70t-102 280zM526 1060q0 22 16 40l192 230q24 26 42 26q14 0 27 -12t13 -30q0 -20 -16 -38l-192 -230q-24 -26 -42 -26q-14 0 -27 12t-13 28z" />
<glyph unicode="&#x108;" horiz-adv-x="1144" d="M144 350v572q0 210 102 280t314 70h282q62 0 103 -18t58 -52t23 -66t6 -78q0 -60 -42 -60t-42 56q0 72 -26 103t-94 31h-268q-96 0 -149 -7t-99 -34t-65 -81t-19 -144v-572q0 -90 19 -144t65 -81t99 -34t149 -7h268q68 0 94 30t26 104q0 56 42 56t42 -62q0 -44 -6 -76 t-23 -66t-58 -52t-103 -18h-282q-212 0 -314 70t-102 280zM340 1338q0 18 8 26l208 274h110l212 -274q8 -10 8 -26q0 -36 -36 -36q-8 0 -15 3t-10 6t-11 13t-12 14l-188 208h-6l-184 -208q-32 -36 -48 -36q-36 0 -36 36z" />
<glyph unicode="&#x109;" horiz-adv-x="1128" d="M124 350v222q0 210 102 280t314 70h282q62 0 103 -18t58 -53t23 -66t6 -77q0 -60 -42 -60t-42 56q0 72 -26 103t-94 31h-268q-96 0 -149 -7t-99 -34t-65 -81t-19 -144v-222q0 -90 19 -144t65 -81t99 -34t149 -7h268q68 0 94 30t26 104q0 56 42 56t42 -62q0 -44 -6 -76 t-23 -66t-58 -52t-103 -18h-282q-212 0 -314 70t-102 280zM304 1080q0 18 8 26l208 274h110l212 -274q8 -10 8 -26q0 -36 -36 -36q-8 0 -15 3t-10 6t-11 13t-12 14l-188 208h-6l-184 -208q-32 -36 -48 -36q-36 0 -36 36z" />
<glyph unicode="&#x10a;" horiz-adv-x="1144" d="M144 350v572q0 210 102 280t314 70h282q62 0 103 -18t58 -52t23 -66t6 -78q0 -60 -42 -60t-42 56q0 72 -26 103t-94 31h-268q-96 0 -149 -7t-99 -34t-65 -81t-19 -144v-572q0 -90 19 -144t65 -81t99 -34t149 -7h268q68 0 94 30t26 104q0 56 42 56t42 -62q0 -44 -6 -76 t-23 -66t-58 -52t-103 -18h-282q-212 0 -314 70t-102 280zM490 1484q0 28 30 50t62 22q30 0 61 -22t31 -50t-31 -50t-61 -22q-32 0 -62 22t-30 50z" />
<glyph unicode="&#x10b;" horiz-adv-x="1128" d="M124 350v222q0 210 102 280t314 70h282q62 0 103 -18t58 -53t23 -66t6 -77q0 -60 -42 -60t-42 56q0 72 -26 103t-94 31h-268q-96 0 -149 -7t-99 -34t-65 -81t-19 -144v-222q0 -90 19 -144t65 -81t99 -34t149 -7h268q68 0 94 30t26 104q0 56 42 56t42 -62q0 -44 -6 -76 t-23 -66t-58 -52t-103 -18h-282q-212 0 -314 70t-102 280zM478 1116q0 28 30 50t62 22q30 0 61 -22t31 -50t-31 -50t-61 -22q-32 0 -62 22t-30 50z" />
<glyph unicode="&#x10c;" horiz-adv-x="1144" d="M144 350v572q0 210 102 280t314 70h282q62 0 103 -18t58 -52t23 -66t6 -78q0 -60 -42 -60t-42 56q0 72 -26 103t-94 31h-268q-96 0 -149 -7t-99 -34t-65 -81t-19 -144v-572q0 -90 19 -144t65 -81t99 -34t149 -7h268q68 0 94 30t26 104q0 56 42 56t42 -62q0 -44 -6 -76 t-23 -66t-58 -52t-103 -18h-282q-212 0 -314 70t-102 280zM326 1594q0 30 36 30q20 0 58 -32l174 -144l174 144q38 32 58 32q36 0 36 -30q0 -12 -12 -24l-204 -214h-104l-204 214q-12 12 -12 24z" />
<glyph unicode="&#x10d;" horiz-adv-x="1128" d="M124 350v222q0 210 102 280t314 70h282q62 0 103 -18t58 -53t23 -66t6 -77q0 -60 -42 -60t-42 56q0 72 -26 103t-94 31h-268q-96 0 -149 -7t-99 -34t-65 -81t-19 -144v-222q0 -90 19 -144t65 -81t99 -34t149 -7h268q68 0 94 30t26 104q0 56 42 56t42 -62q0 -44 -6 -76 t-23 -66t-58 -52t-103 -18h-282q-212 0 -314 70t-102 280zM310 1282q0 30 36 30q20 0 58 -32l174 -144l174 144q38 32 58 32q36 0 36 -30q0 -12 -12 -24l-204 -214h-104l-204 214q-12 12 -12 24z" />
<glyph unicode="&#x10e;" horiz-adv-x="1200" d="M168 62v1148q0 62 38 62h436q210 0 312 -70t102 -280v-572q0 -210 -102 -280t-312 -70h-436q-38 0 -38 62zM252 84h390q94 0 147 7t99 34t65 81t19 144v572q0 90 -19 144t-65 81t-99 34t-147 7h-390v-1104zM306 1594q0 30 36 30q20 0 58 -32l174 -144l174 144 q38 32 58 32q36 0 36 -30q0 -12 -12 -24l-204 -214h-104l-204 214q-12 12 -12 24z" />
<glyph unicode="&#x10f;" horiz-adv-x="1160" d="M124 350v222q0 210 102 280t314 70h388v302q0 62 46 62q38 0 38 -62v-1178q0 -60 -42 -60t-42 60v98q-108 -144 -330 -144h-58q-212 0 -314 70t-102 280zM208 350q0 -90 19 -144t65 -81t99 -34t149 -7h58q158 0 244 96t86 276v382h-388q-96 0 -149 -7t-99 -34t-65 -81 t-19 -144v-222zM1072 1044q0 12 6 30l48 172q12 40 40 40q20 0 46 -10t26 -30q0 -18 -8 -34l-84 -166q-18 -42 -40 -42q-34 0 -34 40z" />
<glyph unicode="&#x110;" horiz-adv-x="1200" d="M98 652q0 40 54 40h16v518q0 62 38 62h436q210 0 312 -70t102 -280v-572q0 -210 -102 -280t-312 -70h-436q-38 0 -38 62v544h-16q-54 0 -54 46zM252 84h390q94 0 147 7t99 34t65 81t19 144v572q0 90 -19 144t-65 81t-99 34t-147 7h-390v-496h212q58 0 58 -44 q0 -42 -58 -42h-212v-522z" />
<glyph unicode="&#x111;" horiz-adv-x="1160" d="M124 350v222q0 210 102 280t314 70h388v112h-384q-52 0 -52 44q0 42 52 42h384v104q0 62 46 62q38 0 38 -62v-104h22q58 0 58 -46q0 -40 -58 -40h-22v-988q0 -60 -42 -60t-42 60v98q-108 -144 -330 -144h-58q-212 0 -314 70t-102 280zM208 350q0 -90 19 -144t65 -81 t99 -34t149 -7h58q158 0 244 96t86 276v382h-388q-96 0 -149 -7t-99 -34t-65 -81t-19 -144v-222z" />
<glyph unicode="&#x112;" horiz-adv-x="1154" d="M168 62v1148q0 62 38 62h792q58 0 58 -46q0 -38 -58 -38h-746v-430h510q60 0 60 -46q0 -38 -60 -38h-510v-590h746q58 0 58 -46q0 -38 -58 -38h-792q-38 0 -38 62zM302 1456q0 42 52 42h490q58 0 58 -46q0 -40 -58 -40h-490q-52 0 -52 44z" />
<glyph unicode="&#x113;" horiz-adv-x="1132" d="M124 350v222q0 210 102 280t314 70h58q210 0 312 -70t102 -280v-72h-804v-150q0 -90 19 -144t65 -81t99 -34t149 -7h268q68 0 94 30t26 104q0 56 42 56t42 -62q0 -44 -6 -76t-23 -66t-58 -52t-103 -18h-282q-212 0 -314 70t-102 280zM208 584h720q0 162 -74 208t-256 46 h-58q-184 0 -258 -46t-74 -208zM270 1088q0 42 52 42h490q58 0 58 -46q0 -40 -58 -40h-490q-52 0 -52 44z" />
<glyph unicode="&#x116;" horiz-adv-x="1154" d="M168 62v1148q0 62 38 62h792q58 0 58 -46q0 -38 -58 -38h-746v-430h510q60 0 60 -46q0 -38 -60 -38h-510v-590h746q58 0 58 -46q0 -38 -58 -38h-792q-38 0 -38 62zM510 1484q0 28 30 50t62 22q30 0 61 -22t31 -50t-31 -50t-61 -22q-32 0 -62 22t-30 50z" />
<glyph unicode="&#x117;" horiz-adv-x="1132" d="M124 350v222q0 210 102 280t314 70h58q210 0 312 -70t102 -280v-72h-804v-150q0 -90 19 -144t65 -81t99 -34t149 -7h268q68 0 94 30t26 104q0 56 42 56t42 -62q0 -44 -6 -76t-23 -66t-58 -52t-103 -18h-282q-212 0 -314 70t-102 280zM208 584h720q0 162 -74 208t-256 46 h-58q-184 0 -258 -46t-74 -208zM478 1116q0 28 30 50t62 22q30 0 61 -22t31 -50t-31 -50t-61 -22q-32 0 -62 22t-30 50z" />
<glyph unicode="&#x118;" horiz-adv-x="1154" d="M168 62v1148q0 62 38 62h792q58 0 58 -46q0 -38 -58 -38h-746v-430h510q60 0 60 -46q0 -38 -60 -38h-510v-590h746q58 0 58 -46q0 -38 -58 -38h-316q-38 -22 -82 -95t-44 -109q0 -118 94 -118q34 0 80 18t52 18q20 0 20 -26q0 -48 -51 -69t-97 -21q-80 0 -131 55t-51 143 q0 74 98 204h-364q-38 0 -38 62z" />
<glyph unicode="&#x119;" horiz-adv-x="1132" d="M124 350v222q0 210 102 280t314 70h58q210 0 312 -70t102 -280v-72h-804v-150q0 -90 19 -144t65 -81t99 -34t149 -7h268q68 0 94 30t26 104q0 56 42 56t42 -62q0 -44 -6 -76t-23 -66t-58 -52t-103 -18h-80q-38 -22 -82 -95t-44 -109q0 -118 94 -118q34 0 80 18t52 18 q20 0 20 -26q0 -48 -51 -69t-97 -21q-80 0 -131 55t-51 143q0 74 98 204h-90q-212 0 -314 70t-102 280zM208 584h720q0 162 -74 208t-256 46h-58q-184 0 -258 -46t-74 -208z" />
<glyph unicode="&#x11a;" horiz-adv-x="1154" d="M168 62v1148q0 62 38 62h792q58 0 58 -46q0 -38 -58 -38h-746v-430h510q60 0 60 -46q0 -38 -60 -38h-510v-590h746q58 0 58 -46q0 -38 -58 -38h-792q-38 0 -38 62zM328 1594q0 30 36 30q20 0 58 -32l174 -144l174 144q38 32 58 32q36 0 36 -30q0 -12 -12 -24l-204 -214 h-104l-204 214q-12 12 -12 24z" />
<glyph unicode="&#x11b;" horiz-adv-x="1132" d="M124 350v222q0 210 102 280t314 70h58q210 0 312 -70t102 -280v-72h-804v-150q0 -90 19 -144t65 -81t99 -34t149 -7h268q68 0 94 30t26 104q0 56 42 56t42 -62q0 -44 -6 -76t-23 -66t-58 -52t-103 -18h-282q-212 0 -314 70t-102 280zM208 584h720q0 162 -74 208t-256 46 h-58q-184 0 -258 -46t-74 -208zM300 1282q0 30 36 30q20 0 58 -32l174 -144l174 144q38 32 58 32q36 0 36 -30q0 -12 -12 -24l-204 -214h-104l-204 214q-12 12 -12 24z" />
<glyph unicode="&#x11c;" horiz-adv-x="1170" d="M144 350v572q0 110 28 182t88 108t128 48t172 12h282q62 0 103 -18t58 -52t23 -66t6 -76q0 -62 -42 -62t-42 58q0 72 -26 102t-94 30h-268q-96 0 -149 -7t-99 -34t-65 -81t-19 -144v-572q0 -90 19 -144t65 -81t99 -34t149 -7h268q68 0 94 30t26 102v286h-266 q-60 0 -60 40q0 44 60 44h350v-374q0 -44 -6 -76t-23 -66t-58 -52t-103 -18h-282q-104 0 -172 12t-128 48t-88 108t-28 182zM334 1338q0 18 8 26l208 274h110l212 -274q8 -10 8 -26q0 -36 -36 -36q-8 0 -15 3t-10 6t-11 13t-12 14l-188 208h-6l-184 -208q-4 -4 -11 -12 t-10 -11t-8 -7t-9 -5t-10 -1q-36 0 -36 36z" />
<glyph unicode="&#x11d;" horiz-adv-x="1162" d="M124 350v222q0 210 102 280t314 70h58q222 0 330 -144v98q0 60 42 60t42 -60v-1060q0 -128 -36 -177t-136 -49h-526q-62 0 -103 18t-58 53t-23 66t-6 77q0 60 42 60t42 -56q0 -72 26 -103t94 -31h498q62 0 82 23t20 87v234q-40 -18 -106 -18h-282q-212 0 -314 70 t-102 280zM208 350q0 -90 19 -144t65 -81t99 -34t149 -7h268q68 0 94 29t26 99v252q0 180 -86 277t-244 97h-58q-96 0 -149 -7t-99 -34t-65 -81t-19 -144v-222zM294 1094q0 18 8 26l208 274h110l212 -274q8 -10 8 -26q0 -36 -36 -36q-8 0 -15 3t-10 6t-11 13t-12 14 l-188 208h-6l-184 -208q-4 -4 -11 -12t-10 -11t-8 -7t-9 -5t-10 -1q-36 0 -36 36z" />
<glyph unicode="&#x11e;" horiz-adv-x="1170" d="M144 350v572q0 110 28 182t88 108t128 48t172 12h282q62 0 103 -18t58 -52t23 -66t6 -76q0 -62 -42 -62t-42 58q0 72 -26 102t-94 30h-268q-96 0 -149 -7t-99 -34t-65 -81t-19 -144v-572q0 -90 19 -144t65 -81t99 -34t149 -7h268q68 0 94 30t26 102v286h-266 q-60 0 -60 40q0 44 60 44h350v-374q0 -44 -6 -76t-23 -66t-58 -52t-103 -18h-282q-104 0 -172 12t-128 48t-88 108t-28 182zM380 1638h86q0 -68 39 -111t105 -43t105 43t39 111h86q0 -96 -68 -169t-162 -73t-162 73t-68 169z" />
<glyph unicode="&#x11f;" horiz-adv-x="1162" d="M124 350v222q0 210 102 280t314 70h58q222 0 330 -144v98q0 60 42 60t42 -60v-1060q0 -128 -36 -177t-136 -49h-526q-62 0 -103 18t-58 53t-23 66t-6 77q0 60 42 60t42 -56q0 -72 26 -103t94 -31h498q62 0 82 23t20 87v234q-40 -18 -106 -18h-282q-212 0 -314 70 t-102 280zM208 350q0 -90 19 -144t65 -81t99 -34t149 -7h268q68 0 94 29t26 99v252q0 180 -86 277t-244 97h-58q-96 0 -149 -7t-99 -34t-65 -81t-19 -144v-222zM336 1300h86q0 -68 39 -111t105 -43t105 43t39 111h86q0 -96 -68 -169t-162 -73t-162 73t-68 169z" />
<glyph unicode="&#x120;" horiz-adv-x="1170" d="M144 350v572q0 110 28 182t88 108t128 48t172 12h282q62 0 103 -18t58 -52t23 -66t6 -76q0 -62 -42 -62t-42 58q0 72 -26 102t-94 30h-268q-96 0 -149 -7t-99 -34t-65 -81t-19 -144v-572q0 -90 19 -144t65 -81t99 -34t149 -7h268q68 0 94 30t26 102v286h-266 q-60 0 -60 40q0 44 60 44h350v-374q0 -44 -6 -76t-23 -66t-58 -52t-103 -18h-282q-104 0 -172 12t-128 48t-88 108t-28 182zM486 1484q0 28 30 50t62 22q30 0 61 -22t31 -50t-31 -50t-61 -22q-32 0 -62 22t-30 50z" />
<glyph unicode="&#x121;" horiz-adv-x="1162" d="M124 350v222q0 210 102 280t314 70h58q222 0 330 -144v98q0 60 42 60t42 -60v-1060q0 -128 -36 -177t-136 -49h-526q-62 0 -103 18t-58 53t-23 66t-6 77q0 60 42 60t42 -56q0 -72 26 -103t94 -31h498q62 0 82 23t20 87v234q-40 -18 -106 -18h-282q-212 0 -314 70 t-102 280zM208 350q0 -90 19 -144t65 -81t99 -34t149 -7h268q68 0 94 29t26 99v252q0 180 -86 277t-244 97h-58q-96 0 -149 -7t-99 -34t-65 -81t-19 -144v-222zM470 1130q0 28 30 50t62 22q30 0 61 -22t31 -50t-31 -50t-61 -22q-32 0 -62 22t-30 50z" />
<glyph unicode="&#x122;" horiz-adv-x="1170" d="M144 350v572q0 110 28 182t88 108t128 48t172 12h282q62 0 103 -18t58 -52t23 -66t6 -76q0 -62 -42 -62t-42 58q0 72 -26 102t-94 30h-268q-96 0 -149 -7t-99 -34t-65 -81t-19 -144v-572q0 -90 19 -144t65 -81t99 -34t149 -7h268q68 0 94 30t26 102v286h-266 q-60 0 -60 40q0 44 60 44h350v-374q0 -44 -6 -76t-23 -66t-58 -52t-103 -18h-282q-104 0 -172 12t-128 48t-88 108t-28 182zM522 -370q0 12 6 30l48 172q12 40 40 40q20 0 46 -10t26 -30q0 -18 -8 -34l-84 -166q-18 -42 -40 -42q-34 0 -34 40z" />
<glyph unicode="&#x123;" horiz-adv-x="1162" d="M124 350v222q0 210 102 280t314 70h58q222 0 330 -144v98q0 60 42 60t42 -60v-1060q0 -128 -36 -177t-136 -49h-526q-62 0 -103 18t-58 53t-23 66t-6 77q0 60 42 60t42 -56q0 -72 26 -103t94 -31h498q62 0 82 23t20 87v234q-40 -18 -106 -18h-282q-212 0 -314 70 t-102 280zM208 350q0 -90 19 -144t65 -81t99 -34t149 -7h268q68 0 94 29t26 99v252q0 180 -86 277t-244 97h-58q-96 0 -149 -7t-99 -34t-65 -81t-19 -144v-222zM502 1098q0 18 8 34l84 166q18 42 40 42q34 0 34 -40q0 -12 -6 -30l-48 -172q-12 -40 -40 -40q-20 0 -46 10 t-26 30z" />
<glyph unicode="&#x124;" horiz-adv-x="1224" d="M168 46v1178q0 62 38 62q46 0 46 -62v-496h720v496q0 62 40 62q44 0 44 -62v-1178q0 -60 -40 -60q-44 0 -44 60v598h-720v-598q0 -60 -42 -60t-42 60zM336 1338q0 18 8 26l208 274h110l212 -274q8 -10 8 -26q0 -36 -36 -36q-8 0 -15 3t-10 6t-11 13t-12 14l-188 208h-6 l-184 -208q-32 -36 -48 -36q-36 0 -36 36z" />
<glyph unicode="&#x125;" horiz-adv-x="1176" d="M148 46v1178q0 62 38 62q46 0 46 -62v-446q112 144 332 144h58q210 0 312 -70t102 -280v-526q0 -60 -40 -60q-44 0 -44 60v526q0 90 -19 144t-65 81t-99 34t-147 7h-58q-160 0 -246 -97t-86 -277v-418q0 -60 -42 -60t-42 60zM320 1338q0 18 8 26l208 274h110l212 -274 q8 -10 8 -26q0 -36 -36 -36q-8 0 -15 3t-10 6t-11 13t-12 14l-188 208h-6l-184 -208q-32 -36 -48 -36q-36 0 -36 36z" />
<glyph unicode="&#x126;" horiz-adv-x="1228" d="M54 1060q0 42 52 42h64v122q0 62 38 62q46 0 46 -62v-122h720v122q0 62 40 62q44 0 44 -62v-122h58q58 0 58 -46q0 -40 -58 -40h-58v-970q0 -60 -40 -60q-44 0 -44 60v598h-720v-598q0 -60 -42 -60t-42 60v970h-64q-52 0 -52 44zM254 728h720v288h-720v-288z" />
<glyph unicode="&#x127;" horiz-adv-x="1176" d="M98 1064q0 42 50 42v118q0 62 38 62q46 0 46 -62v-118h408q58 0 58 -46q0 -40 -58 -40h-408v-242q112 144 332 144h58q210 0 312 -70t102 -280v-526q0 -60 -40 -60q-44 0 -44 60v526q0 90 -19 144t-65 81t-99 34t-147 7h-58q-160 0 -246 -97t-86 -277v-418q0 -60 -42 -60 t-42 60v974q-50 0 -50 44z" />
<glyph unicode="&#x128;" horiz-adv-x="420" d="M-62 1450q0 26 24 44l94 78q10 14 30 14q6 0 22 -4l196 -72q8 -4 14 -4q8 0 22 10l62 56q22 16 38 16t29 -10t13 -26q0 -24 -24 -46l-94 -78q-14 -14 -32 -14q-8 0 -20 4l-196 72q-8 4 -16 4t-22 -10l-62 -56q-22 -16 -38 -16q-14 0 -27 11t-13 27zM168 40v1190 q0 56 42 56t42 -56v-1190q0 -54 -44 -54q-40 0 -40 54z" />
<glyph unicode="&#x129;" horiz-adv-x="380" d="M-82 1096q0 26 24 44l94 78q10 14 30 14q6 0 22 -4l196 -72q8 -4 14 -4q8 0 22 10l62 56q22 16 38 16t29 -10t13 -26q0 -24 -24 -46l-94 -78q-14 -14 -32 -14q-8 0 -20 4l-196 72q-8 4 -16 4t-22 -10l-62 -56q-22 -16 -38 -16q-14 0 -27 11t-13 27zM148 40v840 q0 56 42 56t42 -56v-840q0 -54 -44 -54q-40 0 -40 54z" />
<glyph unicode="&#x12a;" horiz-adv-x="420" d="M-90 1456q0 42 52 42h490q58 0 58 -46q0 -40 -58 -40h-490q-52 0 -52 44zM168 40v1190q0 56 42 56t42 -56v-1190q0 -54 -44 -54q-40 0 -40 54z" />
<glyph unicode="&#x12b;" horiz-adv-x="380" d="M-110 1102q0 42 52 42h490q58 0 58 -46q0 -40 -58 -40h-490q-52 0 -52 44zM148 40v840q0 56 42 56t42 -56v-840q0 -54 -44 -54q-40 0 -40 54z" />
<glyph unicode="&#x12e;" horiz-adv-x="422" d="M38 -194q0 44 43 119t89 127v1178q0 56 42 56t42 -56v-1190q0 -48 -34 -54q-36 -36 -67 -93t-31 -87q0 -118 94 -118q34 0 80 18t52 18q20 0 20 -26q0 -48 -51 -69t-97 -21q-80 0 -131 55t-51 143z" />
<glyph unicode="&#x12f;" horiz-adv-x="384" d="M16 -202q0 46 45 123t91 127v832q0 56 42 56t42 -56v-840q0 -44 -28 -52q-36 -34 -72 -96t-36 -94q0 -118 94 -118q34 0 80 18t52 18q20 0 20 -26q0 -48 -51 -69t-97 -21q-80 0 -131 55t-51 143zM102 1202q0 28 30 50t62 22q30 0 61 -22t31 -50t-31 -50t-61 -22 q-32 0 -62 22t-30 50z" />
<glyph unicode="&#x130;" horiz-adv-x="420" d="M118 1484q0 28 30 50t62 22q30 0 61 -22t31 -50t-31 -50t-61 -22q-32 0 -62 22t-30 50zM168 40v1190q0 56 42 56t42 -56v-1190q0 -54 -44 -54q-40 0 -40 54z" />
<glyph unicode="&#x131;" horiz-adv-x="380" d="M148 40v840q0 56 42 56t42 -56v-840q0 -54 -44 -54q-40 0 -40 54z" />
<glyph unicode="&#x134;" horiz-adv-x="1060" d="M64 334q0 56 46 56q40 0 40 -56q0 -172 72 -219t260 -47q96 0 149 7t99 34t65 81t19 144v896q0 56 42 56t42 -56v-896q0 -110 -28 -182t-88 -108t-128 -48t-172 -12t-173 12t-129 48t-88 108t-28 182zM584 1340q0 18 8 26l208 274h110l212 -274q8 -10 8 -26 q0 -36 -36 -36q-8 0 -15 3t-10 6t-11 13t-12 14l-188 208h-6l-184 -208q-32 -36 -48 -36q-36 0 -36 36z" />
<glyph unicode="&#x135;" horiz-adv-x="384" d="M-244 -306q0 40 62 40q96 0 149 7t99 34t65 81t19 144v874q0 62 44 62q40 0 40 -62v-874q0 -112 -28 -184t-88 -107t-128 -47t-172 -12q-62 0 -62 44zM-80 1094q0 18 8 26l208 274h110l212 -274q8 -10 8 -26q0 -36 -36 -36q-8 0 -15 3t-10 6t-11 13t-12 14l-188 208h-6 l-184 -208q-32 -36 -48 -36q-36 0 -36 36z" />
<glyph unicode="&#x136;" horiz-adv-x="994" d="M168 40v1190q0 56 42 56t42 -56v-588l520 618q20 26 42 26q14 0 27 -11t13 -27q0 -21 -18 -42l-412 -492l544 -648q20 -20 20 -40q0 -16 -14 -28t-28 -12q-22 0 -42 26l-536 638l-116 -140v-470q0 -54 -44 -54q-40 0 -40 54zM494 -242q0 12 6 30l48 172q12 40 40 40 q20 0 46 -10t26 -30q0 -18 -8 -34l-84 -166q-18 -42 -40 -42q-34 0 -34 40z" />
<glyph unicode="&#x137;" horiz-adv-x="866" d="M148 40v1190q0 56 42 56t42 -56v-706l384 386q26 22 42 22q14 0 27 -12t13 -30t-22 -40l-318 -318l464 -462q20 -20 20 -42q0 -14 -11 -27t-27 -13q-20 0 -42 22l-462 464l-68 -68v-366q0 -54 -44 -54q-40 0 -40 54zM394 -242q0 12 6 30l48 172q12 40 40 40q20 0 46 -10 t26 -30q0 -18 -8 -34l-84 -166q-18 -42 -40 -42q-34 0 -34 40z" />
<glyph unicode="&#x138;" horiz-adv-x="874" d="M148 40v840q0 56 42 56t42 -56v-380l504 422q22 20 42 20q16 0 27 -14t11 -28q0 -22 -26 -42l-470 -394l472 -396q24 -20 24 -40q0 -14 -11 -28t-27 -14q-18 0 -40 18l-506 424v-388q0 -54 -44 -54q-40 0 -40 54z" />
<glyph unicode="&#x139;" horiz-adv-x="990" d="M168 62v1168q0 56 42 56t42 -56v-1146h636q56 0 56 -44q0 -40 -56 -40h-682q-38 0 -38 62zM168 1434q0 20 24 44l138 138q20 22 42 22q16 0 28 -14t12 -26q0 -16 -22 -42l-140 -138q-20 -22 -40 -22q-16 0 -29 13t-13 25z" />
<glyph unicode="&#x13a;" horiz-adv-x="520" d="M180 1446q0 20 24 44l138 138q20 22 42 22q16 0 28 -14t12 -26q0 -16 -22 -42l-140 -138q-20 -22 -40 -22q-16 0 -29 13t-13 25zM180 248v978q0 60 42 60t42 -60v-1014q0 -70 26 -99t94 -29q60 0 60 -44q0 -40 -60 -40h-14q-110 0 -150 54t-40 194z" />
<glyph unicode="&#x13b;" horiz-adv-x="990" d="M168 62v1168q0 56 42 56t42 -56v-1146h636q56 0 56 -44q0 -40 -56 -40h-682q-38 0 -38 62zM464 -364q0 12 6 30l48 172q12 40 40 40q20 0 46 -10t26 -30q0 -18 -8 -34l-84 -166q-18 -42 -40 -42q-34 0 -34 40z" />
<glyph unicode="&#x13c;" horiz-adv-x="522" d="M182 248v978q0 60 42 60t42 -60v-1014q0 -70 26 -99t94 -29q60 0 60 -44q0 -40 -60 -40h-14q-110 0 -150 54t-40 194zM208 -370q0 12 6 30l48 172q12 40 40 40q20 0 46 -10t26 -30q0 -18 -8 -34l-84 -166q-18 -42 -40 -42q-34 0 -34 40z" />
<glyph unicode="&#x13d;" horiz-adv-x="990" d="M168 62v1168q0 56 42 56t42 -56v-1146h636q56 0 56 -44q0 -40 -56 -40h-682q-38 0 -38 62zM378 1048q0 12 6 30l48 172q12 40 40 40q20 0 46 -10t26 -30q0 -18 -8 -34l-84 -166q-18 -42 -40 -42q-34 0 -34 40z" />
<glyph unicode="&#x13e;" horiz-adv-x="520" d="M180 248v978q0 60 42 60t42 -60v-1014q0 -70 26 -99t94 -29q60 0 60 -44q0 -40 -60 -40h-14q-110 0 -150 54t-40 194zM404 1044q0 12 6 30l48 172q12 40 40 40q20 0 46 -10t26 -30q0 -18 -8 -34l-84 -166q-18 -42 -40 -42q-34 0 -34 40z" />
<glyph unicode="&#x141;" horiz-adv-x="1002" d="M2 612q0 20 38 40l140 70v508q0 56 42 56t42 -56v-468l116 58q18 6 30 6q18 0 31 -13t13 -29q0 -26 -44 -44l-146 -72v-584h636q56 0 56 -44q0 -40 -56 -40h-682q-38 0 -38 62v564l-110 -54q-14 -6 -26 -6q-42 0 -42 46z" />
<glyph unicode="&#x142;" horiz-adv-x="598" d="M58 612q0 20 38 40l146 72v502q0 60 42 60t42 -60v-460l110 54q18 6 30 6q18 0 31 -13t13 -29q0 -26 -44 -44l-140 -70v-458q0 -70 26 -99t94 -29q60 0 60 -44q0 -40 -60 -40h-14q-110 0 -150 54t-40 194v382l-116 -58q-14 -6 -26 -6q-42 0 -42 46z" />
<glyph unicode="&#x143;" horiz-adv-x="1224" d="M168 46v1178q0 62 38 62q30 0 52 -34l714 -1084v1056q0 62 40 62q44 0 44 -62v-1178q0 -60 -40 -60q-24 0 -32 14l-732 1114v-1068q0 -60 -42 -60t-42 60zM512 1312q0 22 16 40l192 230q24 26 42 26q14 0 27 -12t13 -30q0 -20 -16 -38l-192 -230q-24 -26 -42 -26 q-14 0 -27 12t-13 28z" />
<glyph unicode="&#x144;" horiz-adv-x="1176" d="M148 46v828q0 62 38 62q46 0 46 -62v-96q112 144 332 144h58q210 0 312 -70t102 -280v-526q0 -60 -40 -60q-44 0 -44 60v526q0 90 -19 144t-65 81t-99 34t-147 7h-58q-160 0 -246 -97t-86 -277v-418q0 -60 -42 -60t-42 60zM510 1060q0 22 16 40l192 230q24 26 42 26 q14 0 27 -12t13 -30q0 -20 -16 -38l-192 -230q-24 -26 -42 -26q-14 0 -27 12t-13 28z" />
<glyph unicode="&#x145;" horiz-adv-x="1224" d="M168 46v1178q0 62 38 62q30 0 52 -34l714 -1084v1056q0 62 40 62q44 0 44 -62v-1178q0 -60 -40 -60q-24 0 -32 14l-732 1114v-1068q0 -60 -42 -60t-42 60zM530 -242q0 12 6 30l48 172q12 40 40 40q20 0 46 -10t26 -30q0 -18 -8 -34l-84 -166q-18 -42 -40 -42 q-34 0 -34 40z" />
<glyph unicode="&#x146;" horiz-adv-x="1174" d="M148 46v828q0 62 38 62q46 0 46 -62v-96q112 144 332 144h58q210 0 312 -70t102 -280v-526q0 -60 -40 -60q-44 0 -44 60v526q0 90 -19 144t-65 81t-99 34t-147 7h-58q-160 0 -246 -97t-86 -277v-418q0 -60 -42 -60t-42 60zM510 -242q0 12 6 30l48 172q12 40 40 40 q20 0 46 -10t26 -30q0 -18 -8 -34l-84 -166q-18 -42 -40 -42q-34 0 -34 40z" />
<glyph unicode="&#x147;" horiz-adv-x="1224" d="M168 46v1178q0 62 38 62q30 0 52 -34l714 -1084v1056q0 62 40 62q44 0 44 -62v-1178q0 -60 -40 -60q-24 0 -32 14l-732 1114v-1068q0 -60 -42 -60t-42 60zM350 1512q0 30 36 30q20 0 58 -32l174 -144l174 144q38 32 58 32q36 0 36 -30q0 -12 -12 -24l-204 -214h-104 l-204 214q-12 12 -12 24z" />
<glyph unicode="&#x148;" horiz-adv-x="1176" d="M148 46v828q0 62 38 62q46 0 46 -62v-96q112 144 332 144h58q210 0 312 -70t102 -280v-526q0 -60 -40 -60q-44 0 -44 60v526q0 90 -19 144t-65 81t-99 34t-147 7h-58q-160 0 -246 -97t-86 -277v-418q0 -60 -42 -60t-42 60zM324 1296q0 30 36 30q20 0 58 -32l174 -144 l174 144q38 32 58 32q36 0 36 -30q0 -12 -12 -24l-204 -214h-104l-204 214q-12 12 -12 24z" />
<glyph unicode="&#x14a;" horiz-adv-x="1224" d="M168 46v1178q0 62 38 62q30 0 52 -34l714 -1084v1056q0 62 40 62q44 0 44 -62v-1224q0 -112 -28 -184t-88 -107t-128 -47t-172 -12q-62 0 -62 44q0 40 62 40q96 0 149 7t99 34t65 81t19 144v18l-720 1096v-1068q0 -60 -42 -60t-42 60z" />
<glyph unicode="&#x14b;" horiz-adv-x="1178" d="M148 46v828q0 62 38 62q46 0 46 -62v-96q112 144 332 144h58q210 0 312 -70t102 -280v-572q0 -112 -28 -184t-88 -107t-128 -47t-172 -12q-62 0 -62 44q0 40 62 40q96 0 149 7t99 34t65 81t19 144v572q0 90 -19 144t-65 81t-99 34t-147 7h-58q-160 0 -246 -97t-86 -277 v-418q0 -60 -42 -60t-42 60z" />
<glyph unicode="&#x14c;" horiz-adv-x="1148" d="M130 454v364q0 220 125 346t319 126t319 -126t125 -346v-364q0 -220 -125 -346t-319 -126t-319 126t-125 346zM214 454q0 -182 96 -285t264 -103t264 103t96 285v364q0 182 -96 285t-264 103t-264 -103t-96 -285v-364zM274 1456q0 42 52 42h490q58 0 58 -46 q0 -40 -58 -40h-490q-52 0 -52 44z" />
<glyph unicode="&#x14d;" horiz-adv-x="1136" d="M124 350v222q0 210 102 280t314 70h58q210 0 312 -70t102 -280v-222q0 -210 -102 -280t-312 -70h-58q-212 0 -314 70t-102 280zM208 350q0 -90 19 -144t65 -81t99 -34t149 -7h58q94 0 147 7t99 34t65 81t19 144v222q0 90 -19 144t-65 81t-99 34t-147 7h-58q-96 0 -149 -7 t-99 -34t-65 -81t-19 -144v-222zM270 1088q0 42 52 42h490q58 0 58 -46q0 -40 -58 -40h-490q-52 0 -52 44z" />
<glyph unicode="&#x150;" horiz-adv-x="1148" d="M130 454v364q0 220 125 346t319 126t319 -126t125 -346v-364q0 -220 -125 -346t-319 -126t-319 126t-125 346zM214 454q0 -182 96 -285t264 -103t264 103t96 285v364q0 182 -96 285t-264 103t-264 -103t-96 -285v-364zM446 1434q0 20 24 44l138 138q20 22 42 22 q16 0 28 -14t12 -26q0 -16 -22 -42l-140 -138q-20 -22 -40 -22q-16 0 -29 13t-13 25zM646 1434q0 20 24 44l138 138q20 22 42 22q16 0 28 -14t12 -26q0 -16 -22 -42l-140 -138q-20 -22 -40 -22q-16 0 -29 13t-13 25z" />
<glyph unicode="&#x151;" horiz-adv-x="1136" d="M124 350v222q0 210 102 280t314 70h58q210 0 312 -70t102 -280v-222q0 -210 -102 -280t-312 -70h-58q-212 0 -314 70t-102 280zM208 350q0 -90 19 -144t65 -81t99 -34t149 -7h58q94 0 147 7t99 34t65 81t19 144v222q0 90 -19 144t-65 81t-99 34t-147 7h-58q-96 0 -149 -7 t-99 -34t-65 -81t-19 -144v-222zM408 1084q0 22 16 40l192 230q24 26 42 26q14 0 27 -12t13 -30q0 -20 -16 -38l-192 -230q-24 -26 -42 -26q-14 0 -27 12t-13 28zM648 1084q0 22 16 40l192 230q24 26 42 26q14 0 27 -12t13 -30q0 -20 -16 -38l-192 -230q-24 -26 -42 -26 q-14 0 -27 12t-13 28z" />
<glyph unicode="&#x152;" horiz-adv-x="1412" d="M130 454v364q0 210 130 341t276 131q128 0 216 -56q6 38 36 38h478q60 0 60 -40q0 -44 -60 -44h-432v-430h196q60 0 60 -46q0 -38 -60 -38h-196v-590h432q60 0 60 -46q0 -38 -60 -38h-478q-30 0 -36 36q-90 -54 -216 -54q-146 0 -276 131t-130 341zM212 454 q0 -172 101 -280t223 -108q140 0 214 74v992q-74 74 -214 74q-122 0 -223 -108t-101 -280v-364z" />
<glyph unicode="&#x153;" horiz-adv-x="1454" d="M124 350v222q0 182 75 266t257 84q114 0 182 -34t110 -106q68 140 272 140q146 0 230 -72t84 -278v-72h-544v-150q0 -86 25 -143t69 -82t83 -33t91 -8q192 0 192 134q0 56 40 56q44 0 44 -62q0 -68 -24 -113t-69 -65t-86 -27t-97 -7q-238 0 -306 148q-40 -76 -108 -112 t-188 -36q-182 0 -257 84t-75 266zM206 350q0 -140 48 -203t202 -63q156 0 203 63t47 203v222q0 140 -47 203t-203 63q-154 0 -202 -63t-48 -203v-222zM790 584h460q0 160 -56 207t-174 47t-174 -47t-56 -207z" />
<glyph unicode="&#x154;" horiz-adv-x="1098" d="M168 40v1170q0 62 38 62h352q206 0 310 -64t104 -236q0 -126 -64 -200t-182 -92q66 -52 131 -209t98 -282t33 -149q0 -54 -44 -54q-18 0 -29 16t-11 38q0 28 -28 142t-96 270t-152 222h-376v-634q0 -54 -44 -54q-40 0 -40 54zM252 758h306q180 0 255 42t75 172 q0 132 -75 174t-255 42h-306v-430zM416 1434q0 20 24 44l138 138q20 22 42 22q16 0 28 -14t12 -26q0 -16 -22 -42l-140 -138q-20 -22 -40 -22q-16 0 -29 13t-13 25z" />
<glyph unicode="&#x155;" horiz-adv-x="744" d="M148 46v828q0 62 38 62q46 0 46 -62v-96q112 144 332 144h92q60 0 60 -42t-60 -42h-92q-160 0 -246 -97t-86 -277v-418q0 -60 -42 -60t-42 60zM316 1060q0 22 16 40l192 230q24 26 42 26q14 0 27 -12t13 -30q0 -20 -16 -38l-192 -230q-24 -26 -42 -26q-14 0 -27 12 t-13 28z" />
<glyph unicode="&#x156;" horiz-adv-x="1098" d="M168 40v1170q0 62 38 62h352q206 0 310 -64t104 -236q0 -126 -64 -200t-182 -92q66 -52 131 -209t98 -282t33 -149q0 -54 -44 -54q-18 0 -29 16t-11 38q0 28 -28 142t-96 270t-152 222h-376v-634q0 -54 -44 -54q-40 0 -40 54zM252 758h306q180 0 255 42t75 172 q0 132 -75 174t-255 42h-306v-430zM494 -242q0 12 6 30l48 172q12 40 40 40q20 0 46 -10t26 -30q0 -18 -8 -34l-84 -166q-18 -42 -40 -42q-34 0 -34 40z" />
<glyph unicode="&#x157;" horiz-adv-x="744" d="M108 -370q0 12 6 30l48 172q12 40 40 40q20 0 46 -10t26 -30q0 -18 -8 -34l-84 -166q-18 -42 -40 -42q-34 0 -34 40zM148 46v828q0 62 38 62q46 0 46 -62v-96q112 144 332 144h92q60 0 60 -42t-60 -42h-92q-160 0 -246 -97t-86 -277v-418q0 -60 -42 -60t-42 60z" />
<glyph unicode="&#x158;" horiz-adv-x="1098" d="M168 40v1170q0 62 38 62h352q206 0 310 -64t104 -236q0 -126 -64 -200t-182 -92q66 -52 131 -209t98 -282t33 -149q0 -54 -44 -54q-18 0 -29 16t-11 38q0 28 -28 142t-96 270t-152 222h-376v-634q0 -54 -44 -54q-40 0 -40 54zM252 758h306q180 0 255 42t75 172 q0 132 -75 174t-255 42h-306v-430zM272 1594q0 30 36 30q20 0 58 -32l174 -144l174 144q38 32 58 32q36 0 36 -30q0 -12 -12 -24l-204 -214h-104l-204 214q-12 12 -12 24z" />
<glyph unicode="&#x159;" horiz-adv-x="744" d="M148 46v828q0 62 38 62q46 0 46 -62v-96q112 144 332 144h92q60 0 60 -42t-60 -42h-92q-160 0 -246 -97t-86 -277v-418q0 -60 -42 -60t-42 60zM164 1296q0 30 36 30q20 0 58 -32l174 -144l174 144q38 32 58 32q36 0 36 -30q0 -12 -12 -24l-204 -214h-104l-204 214 q-12 12 -12 24z" />
<glyph unicode="&#x15a;" horiz-adv-x="1140" d="M124 334q0 56 46 56q40 0 40 -56q0 -172 72 -219t260 -47h186q106 0 155 76t49 164q0 102 -41 168t-87 76l-432 106q-136 32 -192 104t-56 206q0 132 76 226t248 94h152q104 0 172 -12t128 -47t88 -106t28 -181q0 -56 -44 -56q-42 0 -42 56q0 90 -18 144t-65 79t-99 32 t-148 7h-188q-106 0 -155 -75t-49 -161q0 -84 37 -143t91 -73l434 -104q246 -62 246 -340q0 -132 -75 -228t-247 -96h-152q-104 0 -173 12t-129 48t-88 108t-28 182zM482 1434q0 20 24 44l138 138q20 22 42 22q16 0 28 -14t12 -26q0 -16 -22 -42l-140 -138q-20 -22 -40 -22 q-16 0 -29 13t-13 25z" />
<glyph unicode="&#x15b;" horiz-adv-x="1132" d="M120 686q0 116 57 176t191 60h450q62 0 103 -18t58 -53t23 -66t6 -77q0 -60 -42 -60t-42 56q0 72 -26 103t-94 31h-472q-128 0 -128 -152q0 -82 36 -127t92 -45h434q246 0 246 -268q0 -246 -246 -246h-456q-62 0 -103 18t-58 52t-23 66t-6 76q0 62 42 62t42 -56 q0 -74 26 -104t94 -30h476q128 0 128 162q0 84 -36 134t-92 50h-432q-248 0 -248 256zM522 1060q0 22 16 40l192 230q24 26 42 26q14 0 27 -12t13 -30q0 -20 -16 -38l-192 -230q-24 -26 -42 -26q-14 0 -27 12t-13 28z" />
<glyph unicode="&#x15c;" horiz-adv-x="1140" d="M124 334q0 56 46 56q40 0 40 -56q0 -172 72 -219t260 -47h186q106 0 155 76t49 164q0 102 -41 168t-87 76l-432 106q-136 32 -192 104t-56 206q0 132 76 226t248 94h152q104 0 172 -12t128 -47t88 -106t28 -181q0 -56 -44 -56q-42 0 -42 56q0 90 -18 144t-65 79t-99 32 t-148 7h-188q-106 0 -155 -75t-49 -161q0 -84 37 -143t91 -73l434 -104q246 -62 246 -340q0 -132 -75 -228t-247 -96h-152q-104 0 -173 12t-129 48t-88 108t-28 182zM260 1338q0 18 8 26l208 274h110l212 -274q8 -10 8 -26q0 -36 -36 -36q-8 0 -15 3t-10 6t-11 13t-12 14 l-188 208h-6l-184 -208q-32 -36 -48 -36q-36 0 -36 36z" />
<glyph unicode="&#x15d;" horiz-adv-x="1132" d="M120 686q0 116 57 176t191 60h450q62 0 103 -18t58 -53t23 -66t6 -77q0 -60 -42 -60t-42 56q0 72 -26 103t-94 31h-472q-128 0 -128 -152q0 -82 36 -127t92 -45h434q246 0 246 -268q0 -246 -246 -246h-456q-62 0 -103 18t-58 52t-23 66t-6 76q0 62 42 62t42 -56 q0 -74 26 -104t94 -30h476q128 0 128 162q0 84 -36 134t-92 50h-432q-248 0 -248 256zM320 1080q0 18 8 26l208 274h110l212 -274q8 -10 8 -26q0 -36 -36 -36q-8 0 -15 3t-10 6t-11 13t-12 14l-188 208h-6l-184 -208q-32 -36 -48 -36q-36 0 -36 36z" />
<glyph unicode="&#x15e;" horiz-adv-x="1140" d="M124 334q0 56 46 56q40 0 40 -56q0 -172 72 -219t260 -47h186q106 0 155 76t49 164q0 102 -41 168t-87 76l-432 106q-136 34 -192 105t-56 205q0 132 76 226t248 94h152q104 0 172 -12t128 -47t88 -106t28 -181q0 -56 -44 -56q-42 0 -42 56q0 90 -18 144t-65 79t-99 32 t-148 7h-188q-106 0 -155 -75t-49 -161q0 -84 37 -143t91 -73l434 -104q246 -62 246 -340q0 -132 -75 -228t-247 -96h-92q10 -20 69 -65t59 -97q0 -66 -52 -109t-130 -43q-46 0 -97 21t-51 69q0 26 20 26q6 0 52 -18t80 -18q94 0 94 62q0 32 -59 79t-73 93q-96 2 -161 16 t-120 50t-82 107t-27 177z" />
<glyph unicode="&#x15f;" horiz-adv-x="1132" d="M120 686q0 116 57 176t191 60h450q62 0 103 -18t58 -53t23 -66t6 -77q0 -60 -42 -60t-42 56q0 72 -26 103t-94 31h-472q-128 0 -128 -152q0 -82 36 -127t92 -45h434q246 0 246 -268q0 -246 -246 -246h-186q8 -30 43 -55t63 -53t28 -70q0 -66 -52 -109t-130 -43 q-46 0 -97 21t-51 69q0 26 20 26q6 0 52 -18t80 -18q94 0 94 62q0 28 -30 53t-64 57t-42 78h-184q-62 0 -103 18t-58 52t-23 66t-6 76q0 62 42 62t42 -56q0 -74 26 -104t94 -30h476q128 0 128 162q0 84 -36 134t-92 50h-432q-248 0 -248 256z" />
<glyph unicode="&#x160;" horiz-adv-x="1140" d="M124 334q0 56 46 56q40 0 40 -56q0 -172 72 -219t260 -47h186q106 0 155 76t49 164q0 102 -41 168t-87 76l-432 106q-136 32 -192 104t-56 206q0 132 76 226t248 94h152q104 0 172 -12t128 -47t88 -106t28 -181q0 -56 -44 -56q-42 0 -42 56q0 90 -18 144t-65 79t-99 32 t-148 7h-188q-106 0 -155 -75t-49 -161q0 -84 37 -143t91 -73l434 -104q246 -62 246 -340q0 -132 -75 -228t-247 -96h-152q-104 0 -173 12t-129 48t-88 108t-28 182zM300 1594q0 30 36 30q20 0 58 -32l174 -144l174 144q38 32 58 32q36 0 36 -30q0 -12 -12 -24l-204 -214 h-104l-204 214q-12 12 -12 24z" />
<glyph unicode="&#x161;" horiz-adv-x="1132" d="M120 686q0 116 57 176t191 60h450q62 0 103 -18t58 -53t23 -66t6 -77q0 -60 -42 -60t-42 56q0 72 -26 103t-94 31h-472q-128 0 -128 -152q0 -82 36 -127t92 -45h434q246 0 246 -268q0 -246 -246 -246h-456q-62 0 -103 18t-58 52t-23 66t-6 76q0 62 42 62t42 -56 q0 -74 26 -104t94 -30h476q128 0 128 162q0 84 -36 134t-92 50h-432q-248 0 -248 256zM326 1282q0 30 36 30q20 0 58 -32l174 -144l174 144q38 32 58 32q36 0 36 -30q0 -12 -12 -24l-204 -214h-104l-204 214q-12 12 -12 24z" />
<glyph unicode="&#x162;" horiz-adv-x="920" d="M52 1230q0 42 56 42h702q56 0 56 -44q0 -40 -56 -40h-308v-1158q0 -36 22 -62t47 -40t47 -41t22 -65q0 -66 -52 -109t-130 -43q-46 0 -97 21t-51 69q0 26 20 26q6 0 52 -18t80 -18q94 0 94 62q0 24 -22 47t-47 39t-47 51t-22 81v1158h-310q-56 0 -56 42z" />
<glyph unicode="&#x163;" horiz-adv-x="658" d="M90 882q0 40 62 40v218q0 62 38 62q46 0 46 -62v-218h286q62 0 62 -46q0 -38 -62 -38h-286v-488q0 -90 19 -144t65 -81t99 -34t149 -7q60 0 60 -38q0 -46 -60 -46q-68 0 -128 6q8 -38 72 -84t64 -100q0 -66 -52 -109t-130 -43q-46 0 -97 21t-51 69q0 26 20 26q6 0 52 -18 t80 -18q94 0 94 62q0 30 -34 56t-68 63t-36 91q-202 58 -202 328v488q-62 0 -62 44z" />
<glyph unicode="&#x164;" horiz-adv-x="920" d="M52 1230q0 42 56 42h702q56 0 56 -44q0 -40 -56 -40h-308v-1148q0 -54 -44 -54q-40 0 -40 54v1148h-310q-56 0 -56 42zM196 1594q0 30 36 30q20 0 58 -32l174 -144l174 144q38 32 58 32q36 0 36 -30q0 -12 -12 -24l-204 -214h-104l-204 214q-12 12 -12 24z" />
<glyph unicode="&#x165;" horiz-adv-x="660" d="M92 882q0 40 62 40v218q0 62 38 62q46 0 46 -62v-218h286q62 0 62 -46q0 -38 -62 -38h-286v-488q0 -90 19 -144t65 -81t99 -34t149 -7q60 0 60 -38q0 -46 -60 -46q-102 0 -172 13t-129 49t-87 107t-28 181v488q-62 0 -62 44zM322 1012q0 12 6 30l48 172q12 40 40 40 q20 0 46 -10t26 -30q0 -18 -8 -34l-84 -166q-18 -42 -40 -42q-34 0 -34 40z" />
<glyph unicode="&#x166;" horiz-adv-x="924" d="M54 1230q0 42 56 42h702q56 0 56 -44q0 -40 -56 -40h-308v-466h206q58 0 58 -46q0 -40 -58 -40h-206v-596q0 -54 -44 -54q-40 0 -40 54v596h-200q-52 0 -52 44q0 42 52 42h200v466h-310q-56 0 -56 42z" />
<glyph unicode="&#x167;" horiz-adv-x="674" d="M92 594q0 42 52 42h10v202q-62 0 -62 44q0 40 62 40v218q0 62 38 62q46 0 46 -62v-218h286q62 0 62 -46q0 -38 -62 -38h-286v-202h346q58 0 58 -46q0 -40 -58 -40h-346v-200q0 -90 19 -144t65 -81t99 -34t149 -7q60 0 60 -38q0 -46 -60 -46q-102 0 -172 13t-129 49 t-87 107t-28 181v200h-10q-52 0 -52 44z" />
<glyph unicode="&#x168;" horiz-adv-x="1196" d="M154 454v776q0 56 42 56t42 -56v-776q0 -182 96 -285t264 -103t264 103t96 285v776q0 56 44 56q40 0 40 -56v-776q0 -220 -125 -346t-319 -126t-319 126t-125 346zM328 1450q0 26 24 44l94 78q10 14 30 14q6 0 22 -4l196 -72q8 -4 14 -4q8 0 22 10l62 56q22 16 38 16 t29 -10t13 -26q0 -24 -24 -46l-94 -78q-14 -14 -32 -14q-8 0 -20 4l-196 72q-8 4 -16 4t-22 -10l-62 -56q-22 -16 -38 -16q-14 0 -27 11t-13 27z" />
<glyph unicode="&#x169;" horiz-adv-x="1176" d="M140 350v526q0 60 40 60q44 0 44 -60v-526q0 -90 19 -144t65 -81t99 -34t149 -7h58q158 0 244 96t86 276v420q0 60 42 60t42 -60v-828q0 -62 -38 -62q-46 0 -46 62v96q-108 -144 -330 -144h-58q-212 0 -314 70t-102 280zM312 1096q0 26 24 44l94 78q10 14 30 14 q6 0 22 -4l196 -72q8 -4 14 -4q8 0 22 10l62 56q22 16 38 16t29 -10t13 -26q0 -24 -24 -46l-94 -78q-14 -14 -32 -14q-8 0 -20 4l-196 72q-8 4 -16 4t-22 -10l-62 -56q-22 -16 -38 -16q-14 0 -27 11t-13 27z" />
<glyph unicode="&#x16a;" horiz-adv-x="1196" d="M154 454v776q0 56 42 56t42 -56v-776q0 -182 96 -285t264 -103t264 103t96 285v776q0 56 44 56q40 0 40 -56v-776q0 -220 -125 -346t-319 -126t-319 126t-125 346zM300 1456q0 42 52 42h490q58 0 58 -46q0 -40 -58 -40h-490q-52 0 -52 44z" />
<glyph unicode="&#x16b;" horiz-adv-x="1176" d="M140 350v526q0 60 40 60q44 0 44 -60v-526q0 -90 19 -144t65 -81t99 -34t149 -7h58q158 0 244 96t86 276v420q0 60 42 60t42 -60v-828q0 -62 -38 -62q-46 0 -46 62v96q-108 -144 -330 -144h-58q-212 0 -314 70t-102 280zM284 1102q0 42 52 42h490q58 0 58 -46 q0 -40 -58 -40h-490q-52 0 -52 44z" />
<glyph unicode="&#x16c;" horiz-adv-x="1196" d="M154 454v776q0 56 42 56t42 -56v-776q0 -182 96 -285t264 -103t264 103t96 285v776q0 56 44 56q40 0 40 -56v-776q0 -220 -125 -346t-319 -126t-319 126t-125 346zM370 1514h86q0 -68 39 -111t105 -43t105 43t39 111h86q0 -96 -68 -169t-162 -73t-162 73t-68 169z" />
<glyph unicode="&#x16d;" horiz-adv-x="1176" d="M140 350v526q0 60 40 60q44 0 44 -60v-526q0 -90 19 -144t65 -81t99 -34t149 -7h58q158 0 244 96t86 276v420q0 60 42 60t42 -60v-828q0 -62 -38 -62q-46 0 -46 62v96q-108 -144 -330 -144h-58q-212 0 -314 70t-102 280zM352 1300h86q0 -68 39 -111t105 -43t105 43 t39 111h86q0 -96 -68 -169t-162 -73t-162 73t-68 169z" />
<glyph unicode="&#x16e;" horiz-adv-x="1196" d="M154 454v776q0 56 42 56t42 -56v-776q0 -182 96 -285t264 -103t264 103t96 285v776q0 56 44 56q40 0 40 -56v-776q0 -220 -125 -346t-319 -126t-319 126t-125 346zM450 1432q0 64 45 108t107 44t107 -44t45 -108t-45 -108t-107 -44t-107 44t-45 108zM504 1432 q0 -40 29 -69t69 -29t69 29t29 69t-30 69t-68 29q-40 0 -69 -29t-29 -69z" />
<glyph unicode="&#x16f;" horiz-adv-x="1176" d="M140 350v526q0 60 40 60q44 0 44 -60v-526q0 -90 19 -144t65 -81t99 -34t149 -7h58q158 0 244 96t86 276v420q0 60 42 60t42 -60v-828q0 -62 -38 -62q-46 0 -46 62v96q-108 -144 -330 -144h-58q-212 0 -314 70t-102 280zM420 1196q0 64 44 108t108 44t108 -44t44 -108 t-44 -108t-108 -44t-108 44t-44 108zM474 1196q0 -40 29 -69t69 -29t69 29t29 69t-29 69t-69 29t-69 -29t-29 -69z" />
<glyph unicode="&#x170;" horiz-adv-x="1196" d="M154 454v776q0 56 42 56t42 -56v-776q0 -182 96 -285t264 -103t264 103t96 285v776q0 56 44 56q40 0 40 -56v-776q0 -220 -125 -346t-319 -126t-319 126t-125 346zM424 1312q0 22 16 40l192 230q24 26 42 26q14 0 27 -12t13 -30q0 -20 -16 -38l-192 -230q-24 -26 -42 -26 q-14 0 -27 12t-13 28zM664 1312q0 22 16 40l192 230q24 26 42 26q14 0 27 -12t13 -30q0 -20 -16 -38l-192 -230q-24 -26 -42 -26q-14 0 -27 12t-13 28z" />
<glyph unicode="&#x171;" horiz-adv-x="1176" d="M140 350v526q0 60 40 60q44 0 44 -60v-526q0 -90 19 -144t65 -81t99 -34t149 -7h58q158 0 244 96t86 276v420q0 60 42 60t42 -60v-828q0 -62 -38 -62q-46 0 -46 62v96q-108 -144 -330 -144h-58q-212 0 -314 70t-102 280zM406 1098q0 22 16 40l192 230q24 26 42 26 q14 0 27 -12t13 -30q0 -20 -16 -38l-192 -230q-24 -26 -42 -26q-14 0 -27 12t-13 28zM646 1098q0 22 16 40l192 230q24 26 42 26q14 0 27 -12t13 -30q0 -20 -16 -38l-192 -230q-24 -26 -42 -26q-14 0 -27 12t-13 28z" />
<glyph unicode="&#x172;" horiz-adv-x="1200" d="M156 454v776q0 56 42 56t42 -56v-776q0 -182 96 -285t264 -103t264 103t96 285v776q0 56 44 56q40 0 40 -56v-776q0 -206 -111 -330t-287 -140q-38 -32 -75 -96t-37 -98q0 -118 94 -118q34 0 80 18t52 18q20 0 20 -26q0 -48 -51 -69t-97 -21q-80 0 -131 55t-51 143 q0 68 92 196q-172 18 -279 142t-107 326z" />
<glyph unicode="&#x173;" horiz-adv-x="1176" d="M140 350v526q0 60 40 60q44 0 44 -60v-526q0 -90 19 -144t65 -81t99 -34t149 -7h58q158 0 244 96t86 276v420q0 60 42 60t42 -60v-828q0 -54 -28 -60q-38 -30 -77 -97t-39 -101q0 -118 94 -118q34 0 80 18t52 18q20 0 20 -26q0 -48 -51 -69t-97 -21q-80 0 -131 55 t-51 143q0 48 49 130t95 128v96q-108 -144 -330 -144h-58q-212 0 -314 70t-102 280z" />
<glyph unicode="&#x174;" horiz-adv-x="1784" d="M48 1264q0 14 11 24t21 13t16 3q26 0 38 -40l356 -1144l352 1140q14 44 46 44q36 0 50 -44l354 -1140l352 1144q16 40 40 40q6 0 16 -3t20 -13t10 -24q0 -12 -6 -30l-384 -1234h-100l-352 1130l-350 -1130h-98l-376 1234q-2 6 -9 16t-7 14zM616 1338q0 18 8 26l208 274 h110l212 -274q8 -10 8 -26q0 -36 -36 -36q-8 0 -15 3t-10 6t-11 13t-12 14l-188 208h-6l-184 -208q-32 -36 -48 -36q-36 0 -36 36z" />
<glyph unicode="&#x175;" horiz-adv-x="1542" d="M62 898q0 14 20 26t34 12q20 0 34 -38l278 -806h12l288 808q6 34 46 34q32 0 42 -34l276 -808h12l290 808q12 36 34 36q16 0 35 -11t19 -25q0 -16 -6 -22l-310 -878h-142l-252 768l-272 -768h-142l-290 878q-6 4 -6 20zM500 1094q0 18 8 26l208 274h110l212 -274 q8 -10 8 -26q0 -36 -36 -36q-8 0 -15 3t-10 6t-11 13t-12 14l-188 208h-6l-184 -208q-32 -36 -48 -36q-36 0 -36 36z" />
<glyph unicode="&#x176;" horiz-adv-x="998" d="M32 1246q0 16 13 28t27 12q20 0 42 -32l384 -546l382 546q26 32 44 32q14 0 27 -12t13 -28q0 -18 -14 -38l-410 -588v-580q0 -54 -42 -54q-40 0 -40 54v580l-412 588q-14 20 -14 38zM224 1338q0 18 8 26l208 274h110l212 -274q8 -10 8 -26q0 -36 -36 -36q-8 0 -15 3 t-10 6t-11 13t-12 14l-188 208h-6l-184 -208q-32 -36 -48 -36q-36 0 -36 36z" />
<glyph unicode="&#x177;" horiz-adv-x="1178" d="M140 350v522q0 64 42 64t42 -64v-522q0 -90 19 -144t65 -81t99 -34t149 -7h58q158 0 244 96t86 276v416q0 64 44 64q40 0 40 -64v-1056q0 -128 -36 -177t-136 -49h-526q-62 0 -103 18t-58 53t-23 66t-6 77q0 60 42 60t42 -56q0 -72 26 -103t94 -31h498q62 0 82 23t20 87 v360q-108 -144 -330 -144h-58q-212 0 -314 70t-102 280zM312 1094q0 18 8 26l208 274h110l212 -274q8 -10 8 -26q0 -36 -36 -36q-8 0 -15 3t-10 6t-11 13t-12 14l-188 208h-6l-184 -208q-32 -36 -48 -36q-36 0 -36 36z" />
<glyph unicode="&#x178;" horiz-adv-x="998" d="M32 1246q0 16 13 28t27 12q20 0 42 -32l384 -546l382 546q26 32 44 32q14 0 27 -12t13 -28q0 -18 -14 -38l-410 -588v-580q0 -54 -42 -54q-40 0 -40 54v580l-412 588q-14 20 -14 38zM262 1486q0 28 30 50t62 22q30 0 61 -22t31 -50t-31 -50t-61 -22q-32 0 -62 22t-30 50z M554 1486q0 28 30 50t62 22q30 0 61 -22t31 -50t-31 -50t-61 -22q-32 0 -62 22t-30 50z" />
<glyph unicode="&#x179;" horiz-adv-x="1070" d="M90 1230q0 42 62 42h826v-92l-788 -1096h728q60 0 60 -44q0 -40 -60 -40h-826v88l792 1100h-732q-62 0 -62 42zM484 1434q0 20 24 44l138 138q20 22 42 22q16 0 28 -14t12 -26q0 -16 -22 -42l-140 -138q-20 -22 -40 -22q-16 0 -29 13t-13 25z" />
<glyph unicode="&#x17a;" horiz-adv-x="1060" d="M116 0v118l708 720h-504q-78 0 -99 -41t-21 -123q0 -62 -44 -62q-40 0 -40 62q0 140 40 194t150 54h612v-124l-702 -714h538q56 0 84 25t33 54t5 85q0 62 42 62t42 -62q0 -140 -41 -194t-149 -54h-654zM518 1060q0 22 16 40l192 230q24 26 42 26q14 0 27 -12t13 -30 q0 -20 -16 -38l-192 -230q-24 -26 -42 -26q-14 0 -27 12t-13 28z" />
<glyph unicode="&#x17b;" horiz-adv-x="1070" d="M90 1230q0 42 62 42h826v-92l-788 -1096h728q60 0 60 -44q0 -40 -60 -40h-826v88l792 1100h-732q-62 0 -62 42zM442 1484q0 28 30 50t62 22q30 0 61 -22t31 -50t-31 -50t-61 -22q-32 0 -62 22t-30 50z" />
<glyph unicode="&#x17c;" horiz-adv-x="1060" d="M116 0v118l708 720h-504q-78 0 -99 -41t-21 -123q0 -62 -44 -62q-40 0 -40 62q0 140 40 194t150 54h612v-124l-702 -714h538q56 0 84 25t33 54t5 85q0 62 42 62t42 -62q0 -140 -41 -194t-149 -54h-654zM452 1116q0 28 30 50t62 22q30 0 61 -22t31 -50t-31 -50t-61 -22 q-32 0 -62 22t-30 50z" />
<glyph unicode="&#x17d;" horiz-adv-x="1070" d="M90 1230q0 42 62 42h826v-92l-788 -1096h728q60 0 60 -44q0 -40 -60 -40h-826v88l792 1100h-732q-62 0 -62 42zM278 1594q0 30 36 30q20 0 58 -32l174 -144l174 144q38 32 58 32q36 0 36 -30q0 -12 -12 -24l-204 -214h-104l-204 214q-12 12 -12 24z" />
<glyph unicode="&#x17e;" horiz-adv-x="1060" d="M116 0v118l708 720h-504q-78 0 -99 -41t-21 -123q0 -62 -44 -62q-40 0 -40 62q0 140 40 194t150 54h612v-124l-702 -714h538q56 0 84 25t33 54t5 85q0 62 42 62t42 -62q0 -140 -41 -194t-149 -54h-654zM242 1282q0 30 36 30q20 0 58 -32l174 -144l174 144q38 32 58 32 q36 0 36 -30q0 -12 -12 -24l-204 -214h-104l-204 214q-12 12 -12 24z" />
<glyph unicode="&#x192;" horiz-adv-x="626" d="M-100 -166q0 40 62 40q136 0 166 41t30 225v698q-62 0 -62 44q0 40 62 40q0 112 28 183t88 107t128 48t172 12q62 0 62 -46q0 -38 -62 -38q-96 0 -149 -7t-99 -34t-65 -81t-19 -144h286q62 0 62 -46q0 -38 -62 -38h-286v-750q0 -184 -62 -241t-218 -57q-62 0 -62 44z" />
<glyph unicode="&#x1a0;" horiz-adv-x="1214" d="M130 454v364q0 220 125 346t319 126q254 0 374 -196q98 2 144 25t46 81q0 36 -50 78q-26 20 -26 44q0 14 13 27t27 13q18 0 40 -20q84 -70 84 -150q0 -164 -240 -178q32 -92 32 -196v-364q0 -220 -125 -346t-319 -126t-319 126t-125 346zM214 454q0 -182 96 -285 t264 -103t264 103t96 285v364q0 182 -96 285t-264 103t-264 -103t-96 -285v-364z" />
<glyph unicode="&#x1a1;" horiz-adv-x="1212" d="M124 350v222q0 210 102 280t314 70h58q168 0 265 -42t131 -162q140 12 140 104q0 36 -50 78q-26 20 -26 44q0 14 13 27t27 13q18 0 40 -20q84 -70 84 -150q0 -152 -212 -176q2 -20 2 -66v-222q0 -210 -102 -280t-312 -70h-58q-212 0 -314 70t-102 280zM208 350 q0 -90 19 -144t65 -81t99 -34t149 -7h58q94 0 147 7t99 34t65 81t19 144v222q0 90 -19 144t-65 81t-99 34t-147 7h-58q-96 0 -149 -7t-99 -34t-65 -81t-19 -144v-222z" />
<glyph unicode="&#x1af;" horiz-adv-x="1278" d="M154 454v776q0 56 42 56t42 -56v-776q0 -182 96 -285t264 -103t264 103t96 285v776q0 56 44 56q40 0 40 -56v-146q88 4 131 27t43 79q0 36 -50 78q-26 20 -26 44q0 14 13 27t27 13q18 0 40 -20q84 -70 84 -150q0 -170 -262 -180v-548q0 -220 -125 -346t-319 -126 t-319 126t-125 346z" />
<glyph unicode="&#x1b0;" horiz-adv-x="1256" d="M140 350v526q0 60 40 60q44 0 44 -60v-526q0 -90 19 -144t65 -81t99 -34t149 -7h58q158 0 244 96t86 276v420q0 60 42 60t42 -60v-144q154 10 154 104q0 36 -50 78q-26 20 -26 44q0 14 13 27t27 13q18 0 40 -20q84 -70 84 -150q0 -164 -242 -178v-602q0 -62 -38 -62 q-46 0 -46 62v96q-108 -144 -330 -144h-58q-212 0 -314 70t-102 280z" />
<glyph unicode="&#x218;" horiz-adv-x="1140" d="M124 334q0 56 46 56q40 0 40 -56q0 -172 72 -219t260 -47h186q106 0 155 76t49 164q0 102 -41 168t-87 76l-432 106q-136 32 -192 104t-56 206q0 132 76 226t248 94h152q104 0 172 -12t128 -47t88 -106t28 -181q0 -56 -44 -56q-42 0 -42 56q0 90 -18 144t-65 79t-99 32 t-148 7h-188q-106 0 -155 -75t-49 -161q0 -84 37 -143t91 -73l434 -104q246 -62 246 -340q0 -132 -75 -228t-247 -96h-152q-104 0 -173 12t-129 48t-88 108t-28 182zM490 -370q0 12 6 30l48 172q12 40 40 40q20 0 46 -10t26 -30q0 -18 -8 -34l-84 -166q-18 -42 -40 -42 q-34 0 -34 40z" />
<glyph unicode="&#x219;" horiz-adv-x="1132" d="M120 686q0 116 57 176t191 60h450q62 0 103 -18t58 -53t23 -66t6 -77q0 -60 -42 -60t-42 56q0 72 -26 103t-94 31h-472q-128 0 -128 -152q0 -82 36 -127t92 -45h434q246 0 246 -268q0 -246 -246 -246h-456q-62 0 -103 18t-58 52t-23 66t-6 76q0 62 42 62t42 -56 q0 -74 26 -104t94 -30h476q128 0 128 162q0 84 -36 134t-92 50h-432q-248 0 -248 256zM466 -370q0 12 6 30l48 172q12 40 40 40q20 0 46 -10t26 -30q0 -18 -8 -34l-84 -166q-18 -42 -40 -42q-34 0 -34 40z" />
<glyph unicode="&#x21a;" horiz-adv-x="922" d="M54 1230q0 42 56 42h702q56 0 56 -44q0 -40 -56 -40h-308v-1148q0 -54 -44 -54q-40 0 -40 54v1148h-310q-56 0 -56 42zM378 -370q0 12 6 30l48 172q12 40 40 40q20 0 46 -10t26 -30q0 -18 -8 -34l-84 -166q-18 -42 -40 -42q-34 0 -34 40z" />
<glyph unicode="&#x21b;" horiz-adv-x="660" d="M92 882q0 40 62 40v218q0 62 38 62q46 0 46 -62v-218h286q62 0 62 -46q0 -38 -62 -38h-286v-488q0 -90 19 -144t65 -81t99 -34t149 -7q60 0 60 -38q0 -46 -60 -46q-102 0 -172 13t-129 49t-87 107t-28 181v488q-62 0 -62 44zM238 -370q0 12 6 30l48 172q12 40 40 40 q20 0 46 -10t26 -30q0 -18 -8 -34l-84 -166q-18 -42 -40 -42q-34 0 -34 40z" />
<glyph unicode="&#x237;" horiz-adv-x="384" d="M-244 -306q0 40 62 40q96 0 149 7t99 34t65 81t19 144v874q0 62 44 62q40 0 40 -62v-874q0 -112 -28 -184t-88 -107t-128 -47t-172 -12q-62 0 -62 44z" />
<glyph unicode="&#x2c6;" horiz-adv-x="804" d="M130 1056q0 18 8 26l208 274h110l212 -274q8 -10 8 -26q0 -36 -36 -36q-8 0 -15 3t-10 6t-11 13t-12 14l-188 208h-6l-184 -208q-4 -4 -11 -12t-10 -11t-8 -7t-9 -5t-10 -1q-36 0 -36 36z" />
<glyph unicode="&#x2c7;" horiz-adv-x="746" d="M110 1292q0 30 36 30q20 0 58 -32l174 -144l174 144q38 32 58 32q36 0 36 -30q0 -12 -12 -24l-204 -214h-104l-204 214q-12 12 -12 24z" />
<glyph unicode="&#x2d8;" horiz-adv-x="856" d="M198 1458h86q0 -68 39 -111t105 -43t105 43t39 111h86q0 -96 -68 -169t-162 -73t-162 73t-68 169z" />
<glyph unicode="&#x2d9;" horiz-adv-x="442" d="M130 1260q0 28 30 50t62 22q30 0 61 -22t31 -50t-31 -50t-61 -22q-32 0 -62 22t-30 50z" />
<glyph unicode="&#x2da;" horiz-adv-x="564" d="M130 1196q0 64 45 108t107 44t107 -44t45 -108t-45 -108t-107 -44t-107 44t-45 108zM184 1196q0 -40 29 -69t69 -29t69 29t29 69t-30 69t-68 29q-40 0 -69 -29t-29 -69z" />
<glyph unicode="&#x2db;" horiz-adv-x="468" d="M90 -204q0 50 52 135t98 129l60 -60q-38 -22 -82 -95t-44 -109q0 -118 94 -118q34 0 80 18t52 18q20 0 20 -26q0 -48 -51 -69t-97 -21q-80 0 -131 55t-51 143z" />
<glyph unicode="&#x2dc;" horiz-adv-x="802" d="M130 402q0 26 24 44l94 78q10 14 30 14q6 0 22 -4l196 -72q8 -4 14 -4q8 0 22 10l62 56q22 16 38 16t29 -10t13 -26q0 -24 -24 -46l-94 -78q-14 -14 -32 -14q-8 0 -20 4l-196 72q-8 4 -16 4t-22 -10l-62 -56q-22 -16 -38 -16q-14 0 -27 11t-13 27z" />
<glyph unicode="&#x2dd;" horiz-adv-x="666" d="M68 1060q0 22 16 40l192 230q24 26 42 26q14 0 27 -12t13 -30q0 -20 -16 -38l-192 -230q-24 -26 -42 -26q-14 0 -27 12t-13 28zM308 1060q0 22 16 40l192 230q24 26 42 26q14 0 27 -12t13 -30q0 -20 -16 -38l-192 -230q-24 -26 -42 -26q-14 0 -27 12t-13 28z" />
<glyph unicode="&#x300;" d="M-740 1222q0 12 13 26t29 14q20 0 40 -22l140 -138q22 -26 22 -44q0 -12 -12 -25t-28 -13q-22 0 -42 22l-138 138q-24 24 -24 42z" />
<glyph unicode="&#x301;" d="M-740 1058q0 20 24 44l138 138q20 22 42 22q16 0 28 -14t12 -26q0 -16 -22 -42l-140 -138q-20 -22 -40 -22q-16 0 -29 13t-13 25z" />
<glyph unicode="&#x302;" d="M-876 1056q0 18 8 26l208 274h110l212 -274q8 -10 8 -26q0 -36 -36 -36q-8 0 -15 3t-10 6t-11 13t-12 14l-188 208h-6l-184 -208q-32 -36 -48 -36q-36 0 -36 36z" />
<glyph unicode="&#x303;" d="M-862 1026q0 26 24 44l94 78q10 14 30 14q6 0 22 -4l196 -72q8 -4 14 -4q8 0 22 10l62 56q22 16 38 16t29 -10t13 -26q0 -24 -24 -46l-94 -78q-14 -14 -32 -14q-8 0 -20 4l-196 72q-8 4 -16 4t-22 -10l-62 -56q-22 -16 -38 -16q-14 0 -27 11t-13 27z" />
<glyph unicode="&#x304;" d="M-902 1078q0 42 52 42h490q58 0 58 -46q0 -40 -58 -40h-490q-52 0 -52 44z" />
<glyph unicode="&#x306;" d="M-838 1254h86q0 -68 39 -111t105 -43t105 43t39 111h86q0 -96 -68 -169t-162 -73t-162 73t-68 169z" />
<glyph unicode="&#x307;" d="M-706 1116q0 28 30 50t62 22q30 0 61 -22t31 -50t-31 -50t-61 -22q-32 0 -62 22t-30 50z" />
<glyph unicode="&#x308;" d="M-854 1092q0 28 30 50t62 22q30 0 61 -22t31 -50t-31 -50t-61 -22q-32 0 -62 22t-30 50zM-562 1092q0 28 30 50t62 22q30 0 61 -22t31 -50t-31 -50t-61 -22q-32 0 -62 22t-30 50z" />
<glyph unicode="&#x309;" d="M-692 1184q0 46 41 76t89 30q50 0 83 -34t33 -92q0 -48 -54 -80t-54 -66q0 -28 -30 -28q-14 0 -26 8t-12 20q0 52 54 85t54 71q0 22 -16 36t-36 14q-58 0 -58 -40q0 -26 -34 -26t-34 26z" />
<glyph unicode="&#x30a;" d="M-766 1172q0 64 45 108t107 44t107 -44t45 -108t-45 -108t-107 -44t-107 44t-45 108zM-712 1172q0 -40 29 -69t69 -29t69 29t29 69t-30 69t-68 29q-40 0 -69 -29t-29 -69z" />
<glyph unicode="&#x30b;" d="M-820 1058q0 20 24 44l138 138q20 22 42 22q16 0 28 -14t12 -26q0 -16 -22 -42l-140 -138q-20 -22 -40 -22q-16 0 -29 13t-13 25zM-620 1058q0 20 24 44l138 138q20 22 42 22q16 0 28 -14t12 -26q0 -16 -22 -42l-140 -138q-20 -22 -40 -22q-16 0 -29 13t-13 25z" />
<glyph unicode="&#x30c;" d="M-866 1292q0 30 36 30q20 0 58 -32l174 -144l174 144q38 32 58 32q36 0 36 -30q0 -12 -12 -24l-204 -214h-104l-204 214q-12 12 -12 24z" />
<glyph unicode="&#x311;" d="M-838 1012q0 96 68 169t162 73t162 -73t68 -169h-86q0 68 -39 111t-105 43t-105 -43t-39 -111h-86z" />
<glyph unicode="&#x312;" d="M-524 1092q0 18 8 34l84 166q18 42 40 42q34 0 34 -40q0 -12 -6 -30l-48 -172q-12 -40 -40 -40q-20 0 -46 10t-26 30z" />
<glyph unicode="&#x313;" d="M-590 1244q0 36 30 62t62 26q30 0 61 -26t31 -62q0 -58 -51 -150t-81 -92q-34 0 -34 40q0 22 26 60t26 64q-22 0 -46 28t-24 50z" />
<glyph unicode="&#x31b;" horiz-adv-x="188" d="M-124 1012v82q104 0 154 23t50 83q0 36 -50 78q-26 20 -26 44q0 14 13 27t27 13q18 0 40 -20q84 -70 84 -150q0 -180 -292 -180z" />
<glyph unicode="&#x323;" d="M-706 -196q0 28 30 50t62 22q30 0 61 -22t31 -50t-31 -50t-61 -22q-32 0 -62 22t-30 50z" />
<glyph unicode="&#x326;" d="M-716 -348q0 12 6 30l48 172q12 40 40 40q20 0 46 -10t26 -30q0 -18 -8 -34l-84 -166q-18 -42 -40 -42q-34 0 -34 40z" />
<glyph unicode="&#x327;" d="M-750 -240q0 26 20 26q6 0 52 -18t80 -18q94 0 94 62q0 24 -22 47t-47 39t-47 51t-22 81h84q0 -36 22 -62t47 -40t47 -41t22 -65q0 -66 -52 -109t-130 -43q-46 0 -97 21t-51 69z" />
<glyph unicode="&#x328;" d="M-558 -204q0 50 52 135t98 129l60 -60q-38 -22 -82 -95t-44 -109q0 -118 94 -118q34 0 80 18t52 18q20 0 20 -26q0 -48 -51 -69t-97 -21q-80 0 -131 55t-51 143z" />
<glyph unicode="&#x334;" horiz-adv-x="802" d="M-988 402q0 34 76 85t126 51t171 -40t149 -40q42 0 92 41t74 41q22 0 40 -10t18 -26q0 -34 -78 -86t-128 -52t-170 40t-148 40q-42 0 -92 -41t-76 -41q-20 0 -37 11t-17 27z" />
<glyph unicode="&#x335;" d="M-902 478q0 42 52 42h490q58 0 58 -46q0 -40 -58 -40h-490q-52 0 -52 44z" />
<glyph unicode="&#x337;" d="M-828 392q0 20 38 40l340 168q18 6 30 6q20 0 32 -13t12 -29q0 -26 -44 -44l-340 -168q-16 -6 -26 -6q-42 0 -42 46z" />
<glyph unicode="&#x37a;" horiz-adv-x="512" d="M170 -22q0 60 42 60t42 -60v-124q0 -70 26 -99t94 -29q60 0 60 -44q0 -40 -60 -40h-14q-110 0 -150 54t-40 194v88z" />
<glyph unicode="&#x37e;" horiz-adv-x="482" d="M146 866q0 28 30 50t62 22q30 0 61 -22t31 -50t-31 -50t-61 -22q-32 0 -62 22t-30 50zM160 -18q0 12 6 30l48 172q12 40 40 40q20 0 46 -10t26 -30q0 -18 -8 -34l-84 -166q-18 -42 -40 -42q-34 0 -34 40z" />
<glyph unicode="&#x384;" horiz-adv-x="478" d="M150 898q0 6 4 22l88 330q12 46 46 46q40 0 40 -44q0 -16 -2 -24l-90 -330q-12 -42 -40 -42q-46 0 -46 42z" />
<glyph unicode="&#x385;" horiz-adv-x="746" d="M106 1092q0 28 30 50t62 22q30 0 61 -22t31 -50t-31 -50t-61 -22q-32 0 -62 22t-30 50zM306 1230q0 6 4 22l88 330q12 46 46 46q40 0 40 -44q0 -16 -2 -24l-90 -330q-12 -42 -40 -42q-46 0 -46 42zM398 1092q0 28 30 50t62 22q30 0 61 -22t31 -50t-31 -50t-61 -22 q-32 0 -62 22t-30 50z" />
<glyph unicode="&#x386;" horiz-adv-x="1108" d="M58 8q0 12 6 28l450 1236h92l450 -1236q6 -16 6 -28q0 -40 -42 -40q-28 0 -44 40l-144 400h-544l-144 -400q-18 -40 -44 -40q-42 0 -42 40zM220 1102q0 6 4 22l88 330q12 46 46 46q40 0 40 -44q0 -16 -2 -24l-90 -330q-12 -42 -40 -42q-46 0 -46 42zM320 492h480 l-242 658z" />
<glyph unicode="&#x387;" horiz-adv-x="464" d="M140 774q0 28 30 50t62 22q30 0 61 -22t31 -50t-31 -50t-61 -22q-32 0 -62 22t-30 50z" />
<glyph unicode="&#x388;" horiz-adv-x="1228" d="M38 1102q0 6 4 22l88 330q12 46 46 46q40 0 40 -44q0 -16 -2 -24l-90 -330q-12 -42 -40 -42q-46 0 -46 42zM242 62v1148q0 62 38 62h792q58 0 58 -46q0 -38 -58 -38h-746v-430h510q60 0 60 -46q0 -38 -60 -38h-510v-590h746q58 0 58 -46q0 -38 -58 -38h-792q-38 0 -38 62 z" />
<glyph unicode="&#x389;" horiz-adv-x="1296" d="M40 1094q0 6 4 22l88 330q12 46 46 46q40 0 40 -44q0 -16 -2 -24l-90 -330q-12 -42 -40 -42q-46 0 -46 42zM240 46v1178q0 62 38 62q46 0 46 -62v-496h720v496q0 62 40 62q44 0 44 -62v-1178q0 -60 -40 -60q-44 0 -44 60v598h-720v-598q0 -60 -42 -60t-42 60z" />
<glyph unicode="&#x38a;" horiz-adv-x="480" d="M44 1102q0 6 4 22l88 330q12 46 46 46q40 0 40 -44q0 -16 -2 -24l-90 -330q-12 -42 -40 -42q-46 0 -46 42zM228 40v1190q0 56 42 56t42 -56v-1190q0 -54 -44 -54q-40 0 -40 54z" />
<glyph unicode="&#x38c;" horiz-adv-x="1206" d="M60 1102q0 6 4 22l88 330q12 46 46 46q40 0 40 -44q0 -16 -2 -24l-90 -330q-12 -42 -40 -42q-46 0 -46 42zM188 454v364q0 220 125 346t319 126t319 -126t125 -346v-364q0 -220 -125 -346t-319 -126t-319 126t-125 346zM272 454q0 -182 96 -285t264 -103t264 103t96 285 v364q0 182 -96 285t-264 103t-264 -103t-96 -285v-364z" />
<glyph unicode="&#x38e;" horiz-adv-x="1224" d="M50 1094q0 6 4 22l88 330q12 46 46 46q40 0 40 -44q0 -16 -2 -24l-90 -330q-12 -42 -40 -42q-46 0 -46 42zM258 1246q0 16 13 28t27 12q20 0 42 -32l384 -546l382 546q26 32 44 32q14 0 27 -12t13 -28q0 -18 -14 -38l-410 -588v-580q0 -54 -42 -54q-40 0 -40 54v580 l-412 588q-14 20 -14 38z" />
<glyph unicode="&#x38f;" horiz-adv-x="1214" d="M68 1102q0 6 4 22l88 330q12 46 46 46q40 0 40 -44q0 -16 -2 -24l-90 -330q-12 -42 -40 -42q-46 0 -46 42zM200 42q0 42 60 42h100q70 0 85 12t15 64v58q-120 50 -190 162t-70 274v164q0 220 125 346t319 126t319 -126t125 -346v-164q0 -162 -70 -274t-190 -162v-60 q0 -52 15 -63t85 -11h100q60 0 60 -42t-60 -42h-114q-116 0 -143 28t-27 164v84q124 28 192 126t68 252v164q0 182 -96 285t-264 103t-264 -103t-96 -285v-164q0 -154 68 -251t192 -127v-84q0 -134 -28 -163t-142 -29h-114q-60 0 -60 42z" />
<glyph unicode="&#x390;" horiz-adv-x="432" d="M-54 1130q0 28 30 50t62 22q30 0 61 -22t31 -50t-31 -50t-61 -22q-32 0 -62 22t-30 50zM142 248v628q0 60 42 60t42 -60v-664q0 -70 26 -99t94 -29q60 0 60 -44q0 -40 -60 -40h-14q-110 0 -150 54t-40 194zM146 1268q0 6 4 22l88 330q12 46 46 46q40 0 40 -44 q0 -16 -2 -24l-90 -330q-12 -42 -40 -42q-46 0 -46 42zM238 1130q0 28 30 50t62 22q30 0 61 -22t31 -50t-31 -50t-61 -22q-32 0 -62 22t-30 50z" />
<glyph unicode="&#x391;" horiz-adv-x="1096" d="M46 8q0 12 6 28l450 1236h92l450 -1236q6 -16 6 -28q0 -40 -42 -40q-28 0 -44 40l-144 400h-544l-144 -400q-18 -40 -44 -40q-42 0 -42 40zM308 492h480l-242 658z" />
<glyph unicode="&#x392;" horiz-adv-x="1168" d="M168 62v1148q0 62 38 62h352q206 0 310 -64t104 -236q0 -168 -110 -238q98 -30 146 -106t48 -220v-58q0 -210 -102 -280t-312 -70h-436q-38 0 -38 62zM252 84h390q94 0 147 7t99 34t65 81t19 144v58q0 90 -19 144t-65 81t-99 34t-147 7h-390v-590zM252 758h306 q180 0 255 42t75 172q0 132 -75 174t-255 42h-306v-430z" />
<glyph unicode="&#x393;" horiz-adv-x="1072" d="M164 46v978q0 140 40 194t150 54h610q60 0 60 -42t-60 -42h-596q-68 0 -94 -30t-26 -100v-1012q0 -60 -44 -60q-40 0 -40 60z" />
<glyph unicode="&#x394;" horiz-adv-x="1064" d="M50 40q0 12 6 28l430 1180q14 40 46 40t46 -40l430 -1180q6 -16 6 -28q0 -40 -44 -40h-876q-44 0 -44 40zM152 86h760l-380 1042z" />
<glyph unicode="&#x395;" horiz-adv-x="1154" d="M168 62v1148q0 62 38 62h792q58 0 58 -46q0 -38 -58 -38h-746v-430h510q60 0 60 -46q0 -38 -60 -38h-510v-590h746q58 0 58 -46q0 -38 -58 -38h-792q-38 0 -38 62z" />
<glyph unicode="&#x396;" horiz-adv-x="1070" d="M90 1230q0 42 62 42h826v-92l-788 -1096h728q60 0 60 -44q0 -40 -60 -40h-826v88l792 1100h-732q-62 0 -62 42z" />
<glyph unicode="&#x397;" horiz-adv-x="1224" d="M168 46v1178q0 62 38 62q46 0 46 -62v-496h720v496q0 62 40 62q44 0 44 -62v-1178q0 -60 -40 -60q-44 0 -44 60v598h-720v-598q0 -60 -42 -60t-42 60z" />
<glyph unicode="&#x398;" horiz-adv-x="1148" d="M130 454v364q0 220 125 346t319 126t319 -126t125 -346v-364q0 -220 -125 -346t-319 -126t-319 126t-125 346zM214 454q0 -182 96 -285t264 -103t264 103t96 285v364q0 182 -96 285t-264 103t-264 -103t-96 -285v-364zM354 636q0 42 52 42h330q58 0 58 -42q0 -18 -16 -31 t-42 -13h-330q-52 0 -52 44z" />
<glyph unicode="&#x399;" horiz-adv-x="420" d="M168 40v1190q0 56 42 56t42 -56v-1190q0 -54 -44 -54q-40 0 -40 54z" />
<glyph unicode="&#x39a;" horiz-adv-x="994" d="M168 40v1190q0 56 42 56t42 -56v-588l520 618q20 26 42 26q14 0 27 -11t13 -27q0 -21 -18 -42l-412 -492l544 -648q20 -20 20 -40q0 -16 -14 -28t-28 -12q-22 0 -42 26l-536 638l-116 -140v-470q0 -54 -44 -54q-40 0 -40 54z" />
<glyph unicode="&#x39b;" horiz-adv-x="1096" d="M46 8q0 12 6 28l450 1236h92l450 -1236q6 -16 6 -28q0 -40 -42 -40q-28 0 -44 40l-418 1142l-414 -1142q-18 -40 -44 -40q-42 0 -42 40z" />
<glyph unicode="&#x39c;" horiz-adv-x="1266" d="M168 46v1178q0 62 38 62q30 0 52 -34l374 -568l376 568q22 34 50 34q40 0 40 -62v-1178q0 -60 -44 -60q-40 0 -40 60v1068l-356 -544q-10 -12 -26 -12q-14 0 -24 12l-356 544v-1068q0 -60 -42 -60t-42 60z" />
<glyph unicode="&#x39d;" horiz-adv-x="1224" d="M168 46v1178q0 62 38 62q30 0 52 -34l714 -1084v1056q0 62 40 62q44 0 44 -62v-1178q0 -60 -40 -60q-24 0 -32 14l-732 1114v-1068q0 -60 -42 -60t-42 60z" />
<glyph unicode="&#x39e;" horiz-adv-x="1184" d="M108 42q0 42 52 42h860q58 0 58 -46q0 -38 -58 -38h-860q-52 0 -52 42zM108 1232q0 42 52 42h860q58 0 58 -46q0 -38 -58 -38h-860q-52 0 -52 42zM342 636q0 42 52 42h390q58 0 58 -42q0 -18 -16 -31t-42 -13h-390q-52 0 -52 44z" />
<glyph unicode="&#x39f;" horiz-adv-x="1148" d="M130 454v364q0 220 125 346t319 126t319 -126t125 -346v-364q0 -220 -125 -346t-319 -126t-319 126t-125 346zM214 454q0 -182 96 -285t264 -103t264 103t96 285v364q0 182 -96 285t-264 103t-264 -103t-96 -285v-364z" />
<glyph unicode="&#x3a0;" horiz-adv-x="1204" d="M168 46v1226h868v-1226q0 -60 -40 -60q-44 0 -44 60v1142h-700v-1142q0 -60 -42 -60t-42 60z" />
<glyph unicode="&#x3a1;" horiz-adv-x="1044" d="M168 40v1170q0 62 38 62h352q206 0 310 -64t104 -236q0 -146 -87 -222t-243 -76h-390v-634q0 -54 -44 -54q-40 0 -40 54zM252 758h306q180 0 255 42t75 172q0 132 -75 174t-255 42h-306v-430z" />
<glyph unicode="&#x3a3;" horiz-adv-x="1114" d="M58 40q0 18 18 40l482 556l-482 558q-18 18 -18 40q0 40 52 40h860q58 0 58 -46q0 -38 -58 -38h-780l446 -516q20 -26 20 -38q0 -16 -18 -38l-448 -514h780q58 0 58 -46q0 -38 -58 -38h-872q-16 0 -28 11t-12 29z" />
<glyph unicode="&#x3a4;" horiz-adv-x="920" d="M52 1230q0 42 56 42h702q56 0 56 -44q0 -40 -56 -40h-308v-1148q0 -54 -44 -54q-40 0 -40 54v1148h-310q-56 0 -56 42z" />
<glyph unicode="&#x3a5;" horiz-adv-x="998" d="M32 1246q0 16 13 28t27 12q20 0 42 -32l384 -546l382 546q26 32 44 32q14 0 27 -12t13 -28q0 -18 -14 -38l-410 -588v-580q0 -54 -42 -54q-40 0 -40 54v580l-412 588q-14 20 -14 38z" />
<glyph unicode="&#x3a6;" horiz-adv-x="1060" d="M86 624v24q0 210 113 334t293 136v112q0 56 42 56t42 -56v-112q176 -16 287 -140t111 -330v-24q0 -206 -111 -330t-287 -140v-114q0 -54 -44 -54q-40 0 -40 54v114q-180 12 -293 136t-113 334zM170 624q0 -172 85 -273t237 -113v796q-152 -12 -237 -114t-85 -272v-24z M576 238q148 14 231 116t83 270v24q0 168 -83 269t-231 117v-796z" />
<glyph unicode="&#x3a7;" horiz-adv-x="1074" d="M70 24q0 18 14 40l402 570l-402 574q-14 16 -14 38q0 16 13 28t27 12q22 0 44 -32l382 -546l384 546q22 32 42 32q14 0 28 -12t14 -28q0 -22 -14 -38l-402 -574l402 -570q14 -22 14 -40q0 -16 -13 -27t-29 -11q-20 0 -42 28l-384 548l-382 -548q-22 -28 -44 -28 q-14 0 -27 11t-13 27z" />
<glyph unicode="&#x3a8;" horiz-adv-x="1080" d="M96 918v312q0 56 42 56t42 -56v-312q0 -172 85 -273t235 -113v698q0 56 42 56t42 -56v-698q150 14 233 115t83 271v312q0 56 44 56q40 0 40 -56v-312q0 -208 -112 -332t-288 -138v-408q0 -54 -44 -54q-40 0 -40 54v408q-180 12 -292 137t-112 333z" />
<glyph unicode="&#x3a9;" horiz-adv-x="1140" d="M126 42q0 42 60 42h100q70 0 85 12t15 64v58q-120 50 -190 162t-70 274v164q0 220 125 346t319 126t319 -126t125 -346v-164q0 -162 -70 -274t-190 -162v-60q0 -52 15 -63t85 -11h100q60 0 60 -42t-60 -42h-114q-116 0 -143 28t-27 164v84q124 28 192 126t68 252v164 q0 182 -96 285t-264 103t-264 -103t-96 -285v-164q0 -154 68 -251t192 -127v-84q0 -134 -28 -163t-142 -29h-114q-60 0 -60 42z" />
<glyph unicode="&#x3aa;" horiz-adv-x="420" d="M-26 1486q0 28 30 50t62 22q30 0 61 -22t31 -50t-31 -50t-61 -22q-32 0 -62 22t-30 50zM168 40v1190q0 56 42 56t42 -56v-1190q0 -54 -44 -54q-40 0 -40 54zM266 1486q0 28 30 50t62 22q30 0 61 -22t31 -50t-31 -50t-61 -22q-32 0 -62 22t-30 50z" />
<glyph unicode="&#x3ab;" horiz-adv-x="998" d="M32 1246q0 16 13 28t27 12q20 0 42 -32l384 -546l382 546q26 32 44 32q14 0 27 -12t13 -28q0 -18 -14 -38l-410 -588v-580q0 -54 -42 -54q-40 0 -40 54v580l-412 588q-14 20 -14 38zM262 1486q0 28 30 50t62 22q30 0 61 -22t31 -50t-31 -50t-61 -22q-32 0 -62 22t-30 50z M554 1486q0 28 30 50t62 22q30 0 61 -22t31 -50t-31 -50t-61 -22q-32 0 -62 22t-30 50z" />
<glyph unicode="&#x3ac;" horiz-adv-x="1128" d="M120 390v142q0 218 94 304t290 86q198 0 302 -122v76q0 60 42 60t42 -60v-664q0 -70 26 -99t94 -29q60 0 60 -44q0 -40 -60 -40h-14q-84 0 -126 30t-56 102q-102 -132 -310 -132q-196 0 -290 86t-94 304zM204 390q0 -180 65 -243t235 -63q302 0 302 306v142 q0 306 -302 306q-170 0 -235 -63t-65 -243v-142zM448 1100q0 6 4 22l88 330q12 46 46 46q40 0 40 -44q0 -16 -2 -24l-90 -330q-12 -42 -40 -42q-46 0 -46 42z" />
<glyph unicode="&#x3ad;" horiz-adv-x="1126" d="M122 248q0 152 130 228q-38 14 -63 31t-46 60t-21 107q0 128 89 188t215 60h274q128 0 219 -60t91 -188q0 -60 -40 -60q-44 0 -44 60q0 54 -30 90t-77 50t-77 19t-56 5h-246q-236 0 -236 -138q0 -108 57 -145t171 -37h172q62 0 62 -46q0 -38 -62 -38h-172 q-226 0 -226 -212q0 -138 234 -138h246q24 0 55 5t78 19t77 50t30 90q0 60 44 60q40 0 40 -60q0 -128 -91 -188t-219 -60h-274q-126 0 -215 60t-89 188zM474 1086q0 6 4 22l88 330q12 46 46 46q40 0 40 -44q0 -16 -2 -24l-90 -330q-12 -42 -40 -42q-46 0 -46 42z" />
<glyph unicode="&#x3ae;" horiz-adv-x="1178" d="M148 46v828q0 62 38 62q46 0 46 -62v-96q112 144 332 144h58q210 0 312 -70t102 -280v-922q0 -60 -40 -60q-44 0 -44 60v922q0 90 -19 144t-65 81t-99 34t-147 7h-58q-160 0 -246 -97t-86 -277v-418q0 -60 -42 -60t-42 60zM554 1100q0 6 4 22l88 330q12 46 46 46 q40 0 40 -44q0 -16 -2 -24l-90 -330q-12 -42 -40 -42q-46 0 -46 42z" />
<glyph unicode="&#x3af;" horiz-adv-x="432" d="M142 248v628q0 60 42 60t42 -60v-664q0 -70 26 -99t94 -29q60 0 60 -44q0 -40 -60 -40h-14q-110 0 -150 54t-40 194zM152 1100q0 6 4 22l88 330q12 46 46 46q40 0 40 -44q0 -16 -2 -24l-90 -330q-12 -42 -40 -42q-46 0 -46 42z" />
<glyph unicode="&#x3b0;" horiz-adv-x="1166" d="M140 350v526q0 60 40 60q44 0 44 -60v-526q0 -90 19 -144t65 -81t99 -34t149 -7h56q96 0 149 7t99 34t65 81t19 144v526q0 60 42 60t42 -60v-526q0 -210 -102 -280t-314 -70h-56q-212 0 -314 70t-102 280zM346 1130q0 28 30 50t62 22q30 0 61 -22t31 -50t-31 -50t-61 -22 q-32 0 -62 22t-30 50zM546 1268q0 6 4 22l88 330q12 46 46 46q40 0 40 -44q0 -16 -2 -24l-90 -330q-12 -42 -40 -42q-46 0 -46 42zM638 1130q0 28 30 50t62 22q30 0 61 -22t31 -50t-31 -50t-61 -22q-32 0 -62 22t-30 50z" />
<glyph unicode="&#x3b1;" horiz-adv-x="1128" d="M120 390v142q0 218 94 304t290 86q198 0 302 -122v76q0 60 42 60t42 -60v-664q0 -70 26 -99t94 -29q60 0 60 -44q0 -40 -60 -40h-14q-84 0 -126 30t-56 102q-102 -132 -310 -132q-196 0 -290 86t-94 304zM204 390q0 -180 65 -243t235 -63q302 0 302 306v142 q0 306 -302 306q-170 0 -235 -63t-65 -243v-142z" />
<glyph unicode="&#x3b2;" horiz-adv-x="932" d="M150 -232v1154q0 110 27 183t75 107t95 47t107 13q128 0 210 -77t82 -201q0 -188 -160 -282q76 -20 129 -64t77 -99t34 -101t10 -92q0 -370 -324 -370q-168 0 -278 124v-342q0 -62 -46 -62q-38 0 -38 62zM234 236q140 -170 274 -170q40 0 70 6t76 30t72 89t26 165 q0 130 -85 219t-273 89v84q120 0 194 62t74 188q0 88 -63 139t-145 51q-54 0 -88 -8t-68 -33t-49 -81t-15 -144v-686z" />
<glyph unicode="&#x3b3;" horiz-adv-x="1006" d="M44 880q0 42 56 42q50 0 81 -15t58 -44t56 -111t58 -174t81 -272q38 -136 62 -214h14l360 808q18 36 46 36q38 0 38 -36q0 -10 -6 -22l-412 -938v-244q0 -60 -46 -60q-38 0 -38 60v242q-178 625 -235 758q-60 142 -117 142q-56 0 -56 42z" />
<glyph unicode="&#x3b4;" horiz-adv-x="1092" d="M92 476q0 144 81 250t184 151t201 45q108 0 192 -48q-112 152 -358 250l-174 68q-26 10 -26 40q0 42 52 42h626q58 0 58 -46q0 -40 -58 -40h-448l22 -8q546 -198 546 -772q0 -196 -122 -309t-322 -113q-112 0 -202 45t-143 117t-81 156t-28 172zM178 464q0 -160 102 -276 t274 -116q168 0 259 93t91 249q0 188 -92 306t-250 118q-58 0 -122 -22t-124 -65t-99 -118t-39 -169z" />
<glyph unicode="&#x3b5;" horiz-adv-x="1126" d="M122 248q0 152 130 228q-38 14 -63 31t-46 60t-21 107q0 128 89 188t215 60h274q128 0 219 -60t91 -188q0 -60 -40 -60q-44 0 -44 60q0 54 -30 90t-77 50t-77 19t-56 5h-246q-236 0 -236 -138q0 -108 57 -145t171 -37h172q62 0 62 -46q0 -38 -62 -38h-172 q-226 0 -226 -212q0 -138 234 -138h246q24 0 55 5t78 19t77 50t30 90q0 60 44 60q40 0 40 -60q0 -128 -91 -188t-219 -60h-274q-126 0 -215 60t-89 188z" />
<glyph unicode="&#x3b6;" horiz-adv-x="958" d="M102 408q0 576 568 780h-448q-58 0 -58 40q0 46 58 46h626q52 0 52 -42q0 -40 -26 -50q-8 -4 -75 -28t-103 -39t-109 -53t-118 -74t-105 -97t-94 -126t-58 -156t-24 -195q0 -156 92 -249t260 -93q88 0 139 -3t108 -17t86 -40t48 -72t19 -114q0 -76 -49 -130t-91 -54 q-16 0 -26 14t-10 28q0 20 46 56t46 78q0 110 -63 139t-247 29q-200 0 -322 113t-122 309z" />
<glyph unicode="&#x3b7;" horiz-adv-x="1178" d="M148 46v828q0 62 38 62q46 0 46 -62v-96q112 144 332 144h58q210 0 312 -70t102 -280v-922q0 -60 -40 -60q-44 0 -44 60v922q0 90 -19 144t-65 81t-99 34t-147 7h-58q-160 0 -246 -97t-86 -277v-418q0 -60 -42 -60t-42 60z" />
<glyph unicode="&#x3b8;" horiz-adv-x="1008" d="M130 454v364q0 230 94 351t280 121t280 -121t94 -351v-364q0 -230 -94 -351t-280 -121t-280 121t-94 351zM214 454q0 -388 290 -388t290 388v138h-580v-138zM214 678h580v140q0 388 -290 388t-290 -388v-140z" />
<glyph unicode="&#x3b9;" horiz-adv-x="432" d="M142 248v628q0 60 42 60t42 -60v-664q0 -70 26 -99t94 -29q60 0 60 -44q0 -40 -60 -40h-14q-110 0 -150 54t-40 194z" />
<glyph unicode="&#x3ba;" horiz-adv-x="874" d="M148 40v840q0 56 42 56t42 -56v-380l504 422q22 20 42 20q16 0 27 -14t11 -28q0 -22 -26 -42l-470 -394l472 -396q24 -20 24 -40q0 -14 -11 -28t-27 -14q-18 0 -40 18l-506 424v-388q0 -54 -44 -54q-40 0 -40 54z" />
<glyph unicode="&#x3bb;" horiz-adv-x="1108" d="M52 22q0 10 6 22l402 914l-44 106q-24 56 -68 90t-92 34q-58 0 -58 40q0 46 58 46q70 0 131 -40t89 -110l392 -926q24 -56 68 -90t92 -34q58 0 58 -40q0 -46 -58 -46q-70 0 -131 40t-89 110l-302 714l-370 -830q-16 -36 -46 -36q-38 0 -38 36z" />
<glyph unicode="&#x3bc;" horiz-adv-x="1130" d="M150 -344v1220q0 60 40 60q44 0 44 -60v-420q0 -180 86 -276t246 -96q158 0 245 96t87 276v420q0 60 40 60q44 0 44 -60v-828q0 -62 -40 -62q-44 0 -44 62v96q-112 -144 -332 -144t-332 144v-488q0 -62 -46 -62q-38 0 -38 62z" />
<glyph unicode="&#x3bd;" horiz-adv-x="998" d="M56 898q0 16 11 27t27 11q30 0 46 -38l346 -806h14l360 808q18 36 46 36q38 0 38 -36q0 -16 -6 -22l-386 -878h-128l-362 878q-6 4 -6 20z" />
<glyph unicode="&#x3be;" horiz-adv-x="962" d="M78 1232q0 40 52 40h622q58 0 58 -44q0 -40 -58 -40q-554 0 -554 -244q0 -114 62 -175t166 -61h172q62 0 62 -46q0 -38 -62 -38h-172q-98 0 -162 -93t-64 -213q0 -80 38 -133t101 -75t112 -30t99 -8q88 0 139 -3t108 -17t86 -40t48 -72t19 -114q0 -76 -49 -130t-91 -54 q-16 0 -26 14t-10 28q0 20 46 56t46 78q0 110 -63 139t-247 29q-72 0 -127 6t-117 27t-102 58t-67 105t-27 162t49 188t101 124q-52 20 -101 106t-49 182q0 162 146 244h-132q-52 0 -52 44z" />
<glyph unicode="&#x3bf;" horiz-adv-x="1136" d="M124 350v222q0 210 102 280t314 70h58q210 0 312 -70t102 -280v-222q0 -210 -102 -280t-312 -70h-58q-212 0 -314 70t-102 280zM208 350q0 -90 19 -144t65 -81t99 -34t149 -7h58q94 0 147 7t99 34t65 81t19 144v222q0 90 -19 144t-65 81t-99 34t-147 7h-58q-96 0 -149 -7 t-99 -34t-65 -81t-19 -144v-222z" />
<glyph unicode="&#x3c0;" horiz-adv-x="1164" d="M78 880q0 42 56 42h828q56 0 56 -44q0 -40 -56 -40h-40v-626q0 -70 26 -99t94 -29q60 0 60 -44q0 -40 -60 -40h-16q-110 0 -149 53t-39 195v590h-580v-792q0 -60 -42 -60t-42 60v792h-40q-56 0 -56 42z" />
<glyph unicode="&#x3c1;" horiz-adv-x="1140" d="M128 -304v736q0 490 416 490h58q210 0 312 -70t102 -280v-222q0 -210 -102 -280t-312 -70h-390v-304q0 -60 -46 -60q-38 0 -38 60zM212 84h390q94 0 147 7t99 34t65 81t19 144v222q0 90 -19 144t-65 81t-99 34t-147 7h-58q-160 0 -246 -97t-86 -277v-380z" />
<glyph unicode="&#x3c2;" horiz-adv-x="934" d="M94 452q0 220 182 352t530 132q58 0 58 -40q0 -46 -58 -46q-180 0 -309 -35t-195 -94t-94 -124t-28 -139q0 -76 13 -140t43 -122t89 -91t141 -33q88 0 139 -3t108 -17t86 -40t48 -72t19 -114q0 -76 -49 -130t-91 -54q-16 0 -26 14t-10 28q0 20 46 56t46 78q0 110 -63 139 t-247 29q-188 0 -283 129t-95 337z" />
<glyph unicode="&#x3c3;" horiz-adv-x="1204" d="M124 350v222q0 210 102 280t314 70h536q60 0 60 -42t-60 -42h-208q144 -112 144 -332v-156q0 -210 -102 -280t-312 -70h-58q-212 0 -314 70t-102 280zM208 350q0 -90 19 -144t65 -81t99 -34t149 -7h58q94 0 147 7t99 34t65 81t19 144v156q0 160 -97 246t-277 86h-14 q-96 0 -149 -7t-99 -34t-65 -81t-19 -144v-222z" />
<glyph unicode="&#x3c4;" horiz-adv-x="910" d="M38 880q0 42 56 42h702q56 0 56 -44q0 -40 -56 -40h-308v-626q0 -70 26 -99t94 -29q60 0 60 -44q0 -40 -60 -40h-16q-110 0 -149 53t-39 195v590h-310q-56 0 -56 42z" />
<glyph unicode="&#x3c5;" horiz-adv-x="1166" d="M140 350v526q0 60 40 60q44 0 44 -60v-526q0 -90 19 -144t65 -81t99 -34t149 -7h56q96 0 149 7t99 34t65 81t19 144v526q0 60 42 60t42 -60v-526q0 -210 -102 -280t-314 -70h-56q-212 0 -314 70t-102 280z" />
<glyph unicode="&#x3c6;" horiz-adv-x="1216" d="M126 350v268q0 130 56 217t192 87q60 0 60 -40q0 -44 -60 -44h-36q-64 0 -96 -68t-32 -166v-254q0 -86 23 -141t75 -81t108 -35t148 -9v348q0 80 2 126t8 112t23 104t44 76t71 55t104 17q140 0 207 -70t67 -280v-222q0 -96 -27 -164t-64 -103t-102 -55t-117 -24t-132 -4 v-304q0 -60 -44 -60q-40 0 -40 60v304q-210 2 -324 75t-114 275zM648 84q80 0 125 3t96 17t77 42t43 78t17 126v222q0 170 -41 218t-139 48q-102 0 -140 -86t-38 -288v-380z" />
<glyph unicode="&#x3c7;" horiz-adv-x="974" d="M52 890q0 46 58 46q70 0 131 -40t89 -110l158 -374l282 490q22 34 44 34q14 0 28 -12t14 -28q0 -15 -12 -36l-314 -546l192 -454q24 -56 68 -90t92 -34q58 0 58 -40q0 -46 -58 -46q-70 0 -131 40t-89 110l-182 428l-318 -552q-18 -32 -42 -32q-6 0 -16 3t-19 13t-9 24 q0 16 12 34l350 610l-168 398q-24 56 -68 90t-92 34q-58 0 -58 40z" />
<glyph unicode="&#x3c8;" horiz-adv-x="1140" d="M126 456v424q0 56 42 56t42 -56v-424q0 -172 85 -273t235 -113v1062q0 56 42 56t42 -56v-1062q150 14 233 115t83 271v424q0 56 44 56q40 0 40 -56v-424q0 -208 -112 -332t-288 -138v-212q0 -54 -44 -54q-40 0 -40 54v212q-180 12 -292 137t-112 333z" />
<glyph unicode="&#x3c9;" horiz-adv-x="1294" d="M126 290v338q0 128 60 218t188 90q60 0 60 -40q0 -44 -60 -44q-52 0 -89 -30t-51 -76t-19 -78t-5 -56v-306q0 -108 53 -172t127 -64q210 0 210 228v202q0 60 46 60q48 0 48 -60v-202q0 -228 210 -228q74 0 127 64t53 172v306q0 24 -5 56t-19 78t-51 76t-89 30 q-60 0 -60 44q0 40 60 40q128 0 188 -90t60 -218v-338q0 -120 -79 -212t-209 -92q-162 0 -232 132q-70 -132 -234 -132q-130 0 -209 92t-79 212z" />
<glyph unicode="&#x3ca;" horiz-adv-x="432" d="M-54 1130q0 28 30 50t62 22q30 0 61 -22t31 -50t-31 -50t-61 -22q-32 0 -62 22t-30 50zM142 248v628q0 60 42 60t42 -60v-664q0 -70 26 -99t94 -29q60 0 60 -44q0 -40 -60 -40h-14q-110 0 -150 54t-40 194zM238 1130q0 28 30 50t62 22q30 0 61 -22t31 -50t-31 -50 t-61 -22q-32 0 -62 22t-30 50z" />
<glyph unicode="&#x3cb;" horiz-adv-x="1166" d="M140 350v526q0 60 40 60q44 0 44 -60v-526q0 -90 19 -144t65 -81t99 -34t149 -7h56q96 0 149 7t99 34t65 81t19 144v526q0 60 42 60t42 -60v-526q0 -210 -102 -280t-314 -70h-56q-212 0 -314 70t-102 280zM344 1130q0 28 30 50t62 22q30 0 61 -22t31 -50t-31 -50t-61 -22 q-32 0 -62 22t-30 50zM636 1130q0 28 30 50t62 22q30 0 61 -22t31 -50t-31 -50t-61 -22q-32 0 -62 22t-30 50z" />
<glyph unicode="&#x3cc;" horiz-adv-x="1136" d="M124 350v222q0 210 102 280t314 70h58q210 0 312 -70t102 -280v-222q0 -210 -102 -280t-312 -70h-58q-212 0 -314 70t-102 280zM208 350q0 -90 19 -144t65 -81t99 -34t149 -7h58q94 0 147 7t99 34t65 81t19 144v222q0 90 -19 144t-65 81t-99 34t-147 7h-58q-96 0 -149 -7 t-99 -34t-65 -81t-19 -144v-222zM480 1086q0 6 4 22l88 330q12 46 46 46q40 0 40 -44q0 -16 -2 -24l-90 -330q-12 -42 -40 -42q-46 0 -46 42z" />
<glyph unicode="&#x3cd;" horiz-adv-x="1166" d="M140 350v526q0 60 40 60q44 0 44 -60v-526q0 -90 19 -144t65 -81t99 -34t149 -7h56q96 0 149 7t99 34t65 81t19 144v526q0 60 42 60t42 -60v-526q0 -210 -102 -280t-314 -70h-56q-212 0 -314 70t-102 280zM494 1100q0 6 4 22l88 330q12 46 46 46q40 0 40 -44 q0 -16 -2 -24l-90 -330q-12 -42 -40 -42q-46 0 -46 42z" />
<glyph unicode="&#x3ce;" horiz-adv-x="1294" d="M126 290v338q0 128 60 218t188 90q60 0 60 -40q0 -44 -60 -44q-52 0 -89 -30t-51 -76t-19 -78t-5 -56v-306q0 -108 53 -172t127 -64q210 0 210 228v202q0 60 46 60q48 0 48 -60v-202q0 -228 210 -228q74 0 127 64t53 172v306q0 24 -5 56t-19 78t-51 76t-89 30 q-60 0 -60 44q0 40 60 40q128 0 188 -90t60 -218v-338q0 -120 -79 -212t-209 -92q-162 0 -232 132q-70 -132 -234 -132q-130 0 -209 92t-79 212zM558 1100q0 6 4 22l88 330q12 46 46 46q40 0 40 -44q0 -16 -2 -24l-90 -330q-12 -42 -40 -42q-46 0 -46 42z" />
<glyph unicode="&#x400;" horiz-adv-x="1154" d="M168 62v1148q0 62 38 62h792q58 0 58 -46q0 -38 -58 -38h-746v-430h510q60 0 60 -46q0 -38 -60 -38h-510v-590h746q58 0 58 -46q0 -38 -58 -38h-792q-38 0 -38 62zM398 1598q0 12 13 26t29 14q20 0 40 -22l140 -138q22 -26 22 -44q0 -12 -12 -25t-28 -13q-22 0 -42 22 l-138 138q-24 24 -24 42z" />
<glyph unicode="&#x401;" horiz-adv-x="1154" d="M168 62v1148q0 62 38 62h792q58 0 58 -46q0 -38 -58 -38h-746v-430h510q60 0 60 -46q0 -38 -60 -38h-510v-590h746q58 0 58 -46q0 -38 -58 -38h-792q-38 0 -38 62zM366 1486q0 28 30 50t62 22q30 0 61 -22t31 -50t-31 -50t-61 -22q-32 0 -62 22t-30 50zM658 1486 q0 28 30 50t62 22q30 0 61 -22t31 -50t-31 -50t-61 -22q-32 0 -62 22t-30 50z" />
<glyph unicode="&#x402;" horiz-adv-x="1364" d="M52 1230q0 42 56 42h700q56 0 56 -44q0 -40 -56 -40h-306v-410q112 144 332 144q210 0 312 -70t102 -280v-734q0 -154 -50 -201t-154 -47q-62 0 -62 42t62 42q68 0 94 30t26 100v768q0 90 -19 144t-65 81t-99 34t-147 7q-160 0 -246 -97t-86 -277v-418q0 -60 -42 -60 t-42 60v1142h-310q-56 0 -56 42z" />
<glyph unicode="&#x403;" horiz-adv-x="1072" d="M164 46v978q0 140 40 194t150 54h610q60 0 60 -42t-60 -42h-596q-68 0 -94 -30t-26 -100v-1012q0 -60 -44 -60q-40 0 -40 60zM538 1434q0 20 24 44l138 138q20 22 42 22q16 0 28 -14t12 -26q0 -16 -22 -42l-140 -138q-20 -22 -40 -22q-16 0 -29 13t-13 25z" />
<glyph unicode="&#x404;" horiz-adv-x="1140" d="M144 350v572q0 210 102 280t314 70h282q62 0 103 -18t58 -52t23 -66t6 -76q0 -62 -42 -62t-42 56q0 74 -26 104t-94 30h-268q-96 0 -149 -7t-99 -34t-65 -81t-19 -144v-214h508q60 0 60 -38q0 -46 -60 -46h-508v-274q0 -90 19 -144t65 -81t99 -34t149 -7h268q68 0 94 31 t26 103q0 56 42 56t42 -60q0 -46 -6 -78t-23 -66t-58 -52t-103 -18h-282q-212 0 -314 70t-102 280z" />
<glyph unicode="&#x405;" horiz-adv-x="1140" d="M124 334q0 56 46 56q40 0 40 -56q0 -172 72 -219t260 -47h186q106 0 155 76t49 164q0 102 -41 168t-87 76l-432 106q-136 32 -192 104t-56 206q0 132 76 226t248 94h152q104 0 172 -12t128 -47t88 -106t28 -181q0 -56 -44 -56q-42 0 -42 56q0 90 -18 144t-65 79t-99 32 t-148 7h-188q-106 0 -155 -75t-49 -161q0 -84 37 -143t91 -73l434 -104q246 -62 246 -340q0 -132 -75 -228t-247 -96h-152q-104 0 -173 12t-129 48t-88 108t-28 182z" />
<glyph unicode="&#x406;" horiz-adv-x="420" d="M168 40v1190q0 56 42 56t42 -56v-1190q0 -54 -44 -54q-40 0 -40 54z" />
<glyph unicode="&#x407;" horiz-adv-x="420" d="M-26 1486q0 28 30 50t62 22q30 0 61 -22t31 -50t-31 -50t-61 -22q-32 0 -62 22t-30 50zM168 40v1190q0 56 42 56t42 -56v-1190q0 -54 -44 -54q-40 0 -40 54zM266 1486q0 28 30 50t62 22q30 0 61 -22t31 -50t-31 -50t-61 -22q-32 0 -62 22t-30 50z" />
<glyph unicode="&#x408;" horiz-adv-x="1060" d="M64 334q0 56 46 56q40 0 40 -56q0 -172 72 -219t260 -47q96 0 149 7t99 34t65 81t19 144v896q0 56 42 56t42 -56v-896q0 -110 -28 -182t-88 -108t-128 -48t-172 -12t-173 12t-129 48t-88 108t-28 182z" />
<glyph unicode="&#x409;" horiz-adv-x="1706" d="M40 44q0 40 62 40q68 0 94 29t26 99v812q0 140 40 194t150 54h524v-470h282q186 0 300 -112t114 -296q0 -186 -114 -297t-300 -111h-324q-42 0 -42 62v1140h-426q-68 0 -94 -30t-26 -100v-810q0 -154 -50 -201t-154 -47q-62 0 -62 44zM936 70h282q162 0 246 89t84 235 t-85 235t-245 89h-282v-648z" />
<glyph unicode="&#x40a;" horiz-adv-x="1824" d="M168 46v1178q0 62 38 62q46 0 46 -62v-422h720v422q0 62 40 62q44 0 44 -62v-422h282q186 0 300 -112t114 -296q0 -186 -114 -297t-300 -111h-324q-42 0 -42 62v670h-720v-672q0 -60 -42 -60t-42 60zM1056 70h282q162 0 246 89t84 235t-85 235t-245 89h-282v-648z" />
<glyph unicode="&#x40b;" horiz-adv-x="1364" d="M52 1230q0 42 56 42h700q56 0 56 -44q0 -40 -56 -40h-306v-410q112 144 332 144q210 0 312 -70t102 -280v-526q0 -60 -40 -60q-44 0 -44 60v526q0 90 -19 144t-65 81t-99 34t-147 7q-160 0 -246 -97t-86 -277v-418q0 -60 -42 -60t-42 60v1142h-310q-56 0 -56 42z" />
<glyph unicode="&#x40c;" horiz-adv-x="1106" d="M168 40v1100q0 56 42 56t42 -56v-506h250q118 0 189 41t71 109v166q0 154 50 201t154 47q62 0 62 -42t-62 -42q-68 0 -94 -30t-26 -100v-186q0 -152 -116 -210q116 -64 116 -202v-186q0 -70 26 -100t94 -30q62 0 62 -42t-62 -42q-104 0 -154 47t-50 201v166q0 62 -89 106 t-171 44h-250v-510q0 -54 -44 -54q-40 0 -40 54zM456 1228q0 22 16 40l192 230q24 26 42 26q14 0 27 -12t13 -30q0 -20 -16 -38l-192 -230q-24 -26 -42 -26q-14 0 -27 12t-13 28z" />
<glyph unicode="&#x40d;" horiz-adv-x="1224" d="M168 46v1178q0 62 44 62q40 0 40 -62v-1056l714 1084q22 34 52 34q38 0 38 -62v-1178q0 -60 -42 -60t-42 60v1068l-732 -1114q-8 -14 -32 -14q-40 0 -40 60zM410 1566q0 18 13 30t27 12q18 0 42 -26l192 -230q16 -18 16 -40q0 -16 -13 -28t-27 -12q-18 0 -42 26l-192 230 q-16 18 -16 38z" />
<glyph unicode="&#x40e;" horiz-adv-x="1012" d="M82 1234q0 16 11 27t27 11q30 0 46 -38l354 -822l366 824q16 36 46 36q38 0 38 -36q0 -10 -6 -22l-498 -1134q-40 -92 -154 -92q-62 0 -103 18t-58 53t-23 66t-6 77q0 60 42 60t42 -56q0 -72 23 -103t81 -31q56 0 86 62l72 162l-380 918q-6 4 -6 20zM236 1496v44h84v-76 q0 -62 21 -85t83 -23h204q62 0 82 23t20 85v76h84v-44q0 -128 -36 -176t-136 -48h-234q-98 0 -135 49t-37 175z" />
<glyph unicode="&#x40f;" horiz-adv-x="1204" d="M168 0v1142q0 60 40 60q44 0 44 -60v-1058h700v1058q0 60 42 60t42 -60v-1142h-392v-124q0 -60 -42 -60t-42 60v124h-392z" />
<glyph unicode="&#x410;" horiz-adv-x="1096" d="M46 8q0 12 6 28l450 1236h92l450 -1236q6 -16 6 -28q0 -40 -42 -40q-28 0 -44 40l-144 400h-544l-144 -400q-18 -40 -44 -40q-42 0 -42 40zM308 492h480l-242 658z" />
<glyph unicode="&#x411;" horiz-adv-x="1068" d="M168 48v1224h678q60 0 60 -42t-60 -42h-594v-266h306q180 0 297 -139t117 -329q0 -192 -116 -330t-298 -138h-352q-38 0 -38 62zM252 70h306q156 0 243 115t87 269t-87 269t-243 115h-306v-768z" />
<glyph unicode="&#x412;" horiz-adv-x="1168" d="M168 62v1148q0 62 38 62h352q206 0 310 -64t104 -236q0 -168 -110 -238q98 -30 146 -106t48 -220v-58q0 -210 -102 -280t-312 -70h-436q-38 0 -38 62zM252 84h390q94 0 147 7t99 34t65 81t19 144v58q0 90 -19 144t-65 81t-99 34t-147 7h-390v-590zM252 758h306 q180 0 255 42t75 172q0 132 -75 174t-255 42h-306v-430z" />
<glyph unicode="&#x413;" horiz-adv-x="1072" d="M164 46v978q0 140 40 194t150 54h610q60 0 60 -42t-60 -42h-596q-68 0 -94 -30t-26 -100v-1012q0 -60 -44 -60q-40 0 -40 60z" />
<glyph unicode="&#x414;" horiz-adv-x="1098" d="M20 -20q0 104 92 104h26q62 104 132 492t70 696h560v-1188h28q92 0 92 -104v-104q0 -60 -42 -60t-42 60v124h-832v-124q0 -60 -42 -60t-42 60v104zM230 84h586v1104h-394q0 -262 -67 -633t-125 -471z" />
<glyph unicode="&#x415;" horiz-adv-x="1154" d="M168 62v1148q0 62 38 62h792q58 0 58 -46q0 -38 -58 -38h-746v-430h510q60 0 60 -46q0 -38 -60 -38h-510v-590h746q58 0 58 -46q0 -38 -58 -38h-792q-38 0 -38 62z" />
<glyph unicode="&#x416;" horiz-adv-x="1296" d="M78 28q0 42 62 42q68 0 94 30t26 100v186q0 144 126 206q-126 62 -126 206v186q0 70 -26 100t-94 30q-62 0 -62 42t62 42q104 0 154 -47t50 -201v-166q0 -68 72 -109t192 -41v506q0 56 42 56t42 -56v-506q118 0 189 41t71 109v166q0 154 50 201t154 47q62 0 62 -42 t-62 -42q-68 0 -94 -30t-26 -100v-186q0 -152 -116 -210q116 -64 116 -202v-186q0 -70 26 -100t94 -30q62 0 62 -42t-62 -42q-104 0 -154 47t-50 201v166q0 62 -89 105t-171 45v-510q0 -54 -44 -54q-40 0 -40 54v510q-120 0 -192 -41t-72 -109v-166q0 -154 -50 -201 t-154 -47q-62 0 -62 42z" />
<glyph unicode="&#x417;" horiz-adv-x="1126" d="M110 248q0 60 40 60q44 0 44 -60v-36q0 -70 26 -99t94 -29h366q102 0 168 90t66 174q0 110 -66 188t-160 78h-172q-62 0 -62 42t62 42h172q94 0 160 69t66 177q0 80 -66 162t-168 82h-366q-68 0 -94 -29t-26 -99v-36q0 -60 -44 -60q-40 0 -40 60q0 140 40 194t150 54h394 q128 0 216 -94t88 -234q0 -96 -43 -172t-115 -118q72 -46 115 -127t43 -179q0 -140 -89 -244t-215 -104h-394q-110 0 -150 54t-40 194z" />
<glyph unicode="&#x418;" horiz-adv-x="1224" d="M168 46v1178q0 62 44 62q40 0 40 -62v-1056l714 1084q22 34 52 34q38 0 38 -62v-1178q0 -60 -42 -60t-42 60v1068l-732 -1114q-8 -14 -32 -14q-40 0 -40 60z" />
<glyph unicode="&#x419;" horiz-adv-x="1224" d="M168 46v1178q0 62 44 62q40 0 40 -62v-1056l714 1084q22 34 52 34q38 0 38 -62v-1178q0 -60 -42 -60t-42 60v1068l-732 -1114q-8 -14 -32 -14q-40 0 -40 60zM320 1496v44h84v-76q0 -62 21 -85t83 -23h204q62 0 82 23t20 85v76h84v-44q0 -128 -36 -176t-136 -48h-234 q-98 0 -135 49t-37 175z" />
<glyph unicode="&#x41a;" horiz-adv-x="1106" d="M168 40v1100q0 56 42 56t42 -56v-506h250q118 0 189 41t71 109v166q0 154 50 201t154 47q62 0 62 -42t-62 -42q-68 0 -94 -30t-26 -100v-186q0 -152 -116 -210q116 -64 116 -202v-186q0 -70 26 -100t94 -30q62 0 62 -42t-62 -42q-104 0 -154 47t-50 201v166q0 62 -89 106 t-171 44h-250v-510q0 -54 -44 -54q-40 0 -40 54z" />
<glyph unicode="&#x41b;" horiz-adv-x="1104" d="M40 44q0 40 62 40q68 0 94 29t26 99v812q0 140 40 194t150 54h524v-1224q0 -62 -44 -62q-40 0 -40 62v1140h-426q-68 0 -94 -30t-26 -100v-810q0 -154 -50 -201t-154 -47q-62 0 -62 44z" />
<glyph unicode="&#x41c;" horiz-adv-x="1266" d="M168 46v1178q0 62 38 62q30 0 52 -34l374 -568l376 568q22 34 50 34q40 0 40 -62v-1178q0 -60 -44 -60q-40 0 -40 60v1068l-356 -544q-10 -12 -26 -12q-14 0 -24 12l-356 544v-1068q0 -60 -42 -60t-42 60z" />
<glyph unicode="&#x41d;" horiz-adv-x="1224" d="M168 46v1178q0 62 38 62q46 0 46 -62v-496h720v496q0 62 40 62q44 0 44 -62v-1178q0 -60 -40 -60q-44 0 -44 60v598h-720v-598q0 -60 -42 -60t-42 60z" />
<glyph unicode="&#x41e;" horiz-adv-x="1148" d="M130 454v364q0 220 125 346t319 126t319 -126t125 -346v-364q0 -220 -125 -346t-319 -126t-319 126t-125 346zM214 454q0 -182 96 -285t264 -103t264 103t96 285v364q0 182 -96 285t-264 103t-264 -103t-96 -285v-364z" />
<glyph unicode="&#x41f;" horiz-adv-x="1204" d="M168 46v1226h868v-1226q0 -60 -40 -60q-44 0 -44 60v1142h-700v-1142q0 -60 -42 -60t-42 60z" />
<glyph unicode="&#x420;" horiz-adv-x="1044" d="M168 40v1170q0 62 38 62h352q206 0 310 -64t104 -236q0 -146 -87 -222t-243 -76h-390v-634q0 -54 -44 -54q-40 0 -40 54zM252 758h306q180 0 255 42t75 172q0 132 -75 174t-255 42h-306v-430z" />
<glyph unicode="&#x421;" horiz-adv-x="1144" d="M144 350v572q0 210 102 280t314 70h282q62 0 103 -18t58 -52t23 -66t6 -78q0 -60 -42 -60t-42 56q0 72 -26 103t-94 31h-268q-96 0 -149 -7t-99 -34t-65 -81t-19 -144v-572q0 -90 19 -144t65 -81t99 -34t149 -7h268q68 0 94 30t26 104q0 56 42 56t42 -62q0 -44 -6 -76 t-23 -66t-58 -52t-103 -18h-282q-212 0 -314 70t-102 280z" />
<glyph unicode="&#x422;" horiz-adv-x="920" d="M52 1230q0 42 56 42h702q56 0 56 -44q0 -40 -56 -40h-308v-1148q0 -54 -44 -54q-40 0 -40 54v1148h-310q-56 0 -56 42z" />
<glyph unicode="&#x423;" horiz-adv-x="1012" d="M82 1234q0 16 11 27t27 11q30 0 46 -38l354 -822l366 824q16 36 46 36q38 0 38 -36q0 -10 -6 -22l-498 -1134q-40 -92 -154 -92q-62 0 -103 18t-58 53t-23 66t-6 77q0 60 42 60t42 -56q0 -72 23 -103t81 -31q56 0 86 62l72 162l-380 918q-6 4 -6 20z" />
<glyph unicode="&#x424;" horiz-adv-x="1060" d="M86 624v24q0 210 113 334t293 136v112q0 56 42 56t42 -56v-112q176 -16 287 -140t111 -330v-24q0 -206 -111 -330t-287 -140v-114q0 -54 -44 -54q-40 0 -40 54v114q-180 12 -293 136t-113 334zM170 624q0 -172 85 -273t237 -113v796q-152 -12 -237 -114t-85 -272v-24z M576 238q148 14 231 116t83 270v24q0 168 -83 269t-231 117v-796z" />
<glyph unicode="&#x425;" horiz-adv-x="1074" d="M70 24q0 18 14 40l402 570l-402 574q-14 16 -14 38q0 16 13 28t27 12q22 0 44 -32l382 -546l384 546q22 32 42 32q14 0 28 -12t14 -28q0 -22 -14 -38l-402 -574l402 -570q14 -22 14 -40q0 -16 -13 -27t-29 -11q-20 0 -42 28l-384 548l-382 -548q-22 -28 -44 -28 q-14 0 -27 11t-13 27z" />
<glyph unicode="&#x426;" horiz-adv-x="1116" d="M168 0v1142q0 60 40 60q44 0 44 -60v-1058h584v1058q0 60 42 60t42 -60v-1058h24q92 0 92 -104v-104q0 -60 -42 -60t-42 60v124h-784z" />
<glyph unicode="&#x427;" horiz-adv-x="1170" d="M114 700v526q0 60 40 60q44 0 44 -60v-526q0 -90 19 -144t65 -81t99 -34t147 -7h58q160 0 246 97t86 277v418q0 60 42 60t42 -60v-1178q0 -62 -38 -62q-46 0 -46 62v446q-112 -144 -332 -144h-58q-210 0 -312 70t-102 280z" />
<glyph unicode="&#x428;" horiz-adv-x="1348" d="M168 0v1142q0 60 40 60q44 0 44 -60v-1058h380v1058q0 60 40 60q44 0 44 -60v-1058h380v1058q0 60 42 60t42 -60v-1142h-1012z" />
<glyph unicode="&#x429;" horiz-adv-x="1376" d="M168 0v1142q0 60 40 60q44 0 44 -60v-1058h380v1058q0 60 40 60q44 0 44 -60v-1058h380v1058q0 60 42 60t42 -60v-1058h24q92 0 92 -104v-104q0 -60 -42 -60t-42 60v124h-1044z" />
<glyph unicode="&#x42a;" horiz-adv-x="1190" d="M46 1234q0 38 62 38h286v-350h306q180 0 297 -139t117 -329q0 -192 -116 -330t-298 -138h-352q-38 0 -38 62v1140h-202q-62 0 -62 46zM394 70h306q156 0 243 115t87 269t-87 269t-243 115h-306v-768z" />
<glyph unicode="&#x42b;" horiz-adv-x="1326" d="M168 48v1170q0 54 40 54q44 0 44 -54v-296h306q180 0 297 -139t117 -329q0 -192 -116 -330t-298 -138h-352q-38 0 -38 62zM252 70h306q156 0 243 115t87 269t-87 269t-243 115h-306v-768zM1074 40v1190q0 56 42 56t42 -56v-1190q0 -54 -44 -54q-40 0 -40 54z" />
<glyph unicode="&#x42c;" horiz-adv-x="1048" d="M168 48v1170q0 54 40 54q44 0 44 -54v-296h306q180 0 297 -139t117 -329q0 -192 -116 -330t-298 -138h-352q-38 0 -38 62zM252 70h306q156 0 243 115t87 269t-87 269t-243 115h-306v-768z" />
<glyph unicode="&#x42d;" horiz-adv-x="1140" d="M108 214q0 60 42 60t42 -56q0 -72 26 -103t94 -31h268q96 0 149 7t99 34t65 81t19 144v274h-508q-60 0 -60 46q0 38 60 38h508v214q0 90 -19 144t-65 81t-99 34t-149 7h-268q-68 0 -94 -30t-26 -104q0 -56 -42 -56t-42 62q0 44 6 76t23 66t58 52t103 18h282 q212 0 314 -70t102 -280v-572q0 -210 -102 -280t-314 -70h-282q-62 0 -103 18t-58 52t-23 66t-6 78z" />
<glyph unicode="&#x42e;" horiz-adv-x="1400" d="M168 40v1190q0 56 42 56t42 -56v-542h130v130q0 220 125 346t319 126t319 -126t125 -346v-364q0 -220 -125 -346t-319 -126t-319 126t-125 346v150h-130v-564q0 -54 -44 -54q-40 0 -40 54zM466 454q0 -182 96 -285t264 -103t264 103t96 285v364q0 182 -96 285t-264 103 t-264 -103t-96 -285v-364z" />
<glyph unicode="&#x42f;" horiz-adv-x="1128" d="M12 28q0 42 62 42q54 0 96 46t56 92l62 228q28 112 120 180q-238 62 -238 318q0 338 414 338h338q38 0 38 -62v-1170q0 -54 -40 -54q-44 0 -44 54v558h-260q-196 0 -244 -170l-56 -208q-28 -106 -94 -170t-148 -64q-62 0 -62 42zM254 934q0 -136 80 -194t250 -58h292v506 h-292q-170 0 -250 -59t-80 -195z" />
<glyph unicode="&#x430;" horiz-adv-x="1068" d="M120 240q0 84 20 146t54 99t88 58t114 29t140 8h304v128q0 70 -26 100t-94 30h-282q-234 0 -234 -130q0 -60 -44 -60q-40 0 -40 60q0 108 85 161t219 53h310q110 0 150 -54t40 -194v-628q0 -60 -42 -60t-42 60v98q-108 -144 -330 -144h-186q-90 0 -147 65t-57 175z M204 230q0 -56 37 -101t83 -45h186q158 0 244 96t86 276v40h-304q-96 0 -149 -7t-99 -34t-65 -81t-19 -144z" />
<glyph unicode="&#x431;" horiz-adv-x="1154" d="M142 350v564q0 100 32 166t83 104t154 58t203 25t270 5q62 0 62 -46q0 -38 -62 -38q-106 0 -166 -1t-135 -4t-116 -11t-88 -21t-70 -32t-44 -47t-29 -65t-8 -85h388q210 0 312 -70t102 -280v-222q0 -210 -102 -280t-312 -70h-60q-210 0 -312 70t-102 280zM226 350 q0 -90 19 -144t65 -81t99 -34t147 -7h60q94 0 147 7t99 34t65 81t19 144v222q0 90 -19 144t-65 81t-99 34t-147 7h-390v-488z" />
<glyph unicode="&#x432;" horiz-adv-x="1166" d="M150 0v922h584q126 0 215 -60t89 -188q0 -92 -35 -133t-95 -65q130 -76 130 -228q0 -128 -89 -188t-215 -60h-584zM234 84h486q234 0 234 138q0 212 -226 212h-494v-350zM234 518h494q114 0 171 37t57 145q0 138 -236 138h-486v-320z" />
<glyph unicode="&#x433;" horiz-adv-x="916" d="M146 46v628q0 140 40 194t150 54h488q60 0 60 -42t-60 -42h-474q-68 0 -94 -30t-26 -100v-662q0 -60 -44 -60q-40 0 -40 60z" />
<glyph unicode="&#x434;" horiz-adv-x="1068" d="M20 -20q0 104 92 104h26q202 340 202 838h492v-838h96q92 0 92 -104v-104q0 -60 -42 -60t-42 60v124h-832v-124q0 -60 -42 -60t-42 60v104zM230 84h518v754h-326q0 -418 -192 -754z" />
<glyph unicode="&#x435;" horiz-adv-x="1132" d="M124 350v222q0 210 102 280t314 70h58q210 0 312 -70t102 -280v-72h-804v-150q0 -90 19 -144t65 -81t99 -34t149 -7h268q68 0 94 30t26 104q0 56 42 56t42 -62q0 -44 -6 -76t-23 -66t-58 -52t-103 -18h-282q-212 0 -314 70t-102 280zM208 584h720q0 162 -74 208t-256 46 h-58q-184 0 -258 -46t-74 -208z" />
<glyph unicode="&#x436;" horiz-adv-x="1288" d="M74 28q0 42 62 42q68 0 94 30t26 100v56q0 144 126 206q-126 62 -126 206v56q0 70 -26 100t-94 30q-62 0 -62 42t62 42q104 0 154 -47t50 -201v-56q0 -130 264 -130v376q0 56 42 56t42 -56v-376q260 0 260 130v56q0 154 50 201t154 47q62 0 62 -42t-62 -42q-68 0 -94 -30 t-26 -100v-56q0 -152 -116 -210q116 -64 116 -202v-56q0 -70 26 -100t94 -30q62 0 62 -42t-62 -42q-104 0 -154 47t-50 201v56q0 60 -86 94t-174 36v-380q0 -54 -44 -54q-40 0 -40 54v380q-264 0 -264 -130v-56q0 -154 -50 -201t-154 -47q-62 0 -62 42z" />
<glyph unicode="&#x437;" horiz-adv-x="1132" d="M116 248q0 60 40 60q44 0 44 -60v-36q0 -70 26 -99t94 -29h366q234 0 234 138q0 212 -226 212h-172q-62 0 -62 38q0 46 62 46h172q114 0 171 37t57 145q0 138 -236 138h-366q-68 0 -94 -29t-26 -99v-36q0 -60 -44 -60q-40 0 -40 60q0 140 40 194t150 54h394 q128 0 216 -60t88 -188q0 -92 -35 -133t-95 -65q130 -76 130 -228q0 -128 -88 -188t-216 -60h-394q-110 0 -150 54t-40 194z" />
<glyph unicode="&#x438;" horiz-adv-x="1166" d="M150 0v874q0 62 40 62q44 0 44 -62v-766l692 814h92v-874q0 -62 -40 -62q-44 0 -44 62v758l-686 -806h-98z" />
<glyph unicode="&#x439;" horiz-adv-x="1166" d="M150 0v874q0 62 40 62q44 0 44 -62v-766l692 814h92v-874q0 -62 -40 -62q-44 0 -44 62v758l-686 -806h-98zM306 1228v44h84v-76q0 -62 21 -85t83 -23h204q62 0 82 23t20 85v76h84v-44q0 -128 -36 -176t-136 -48h-234q-98 0 -135 49t-37 175z" />
<glyph unicode="&#x43a;" horiz-adv-x="1076" d="M148 40v840q0 56 42 56t42 -56v-376h138q78 0 159 19t148 68t67 119q0 138 51 183t153 45q62 0 62 -42t-62 -42q-68 0 -94 -30t-26 -100v-40q0 -76 -90 -146t-156 -80q66 -10 156 -78t90 -140v-40q0 -70 26 -100t94 -30q62 0 62 -42t-62 -42q-102 0 -153 45t-51 183 q0 66 -66 115t-149 70t-159 21h-138v-380q0 -54 -44 -54q-40 0 -40 54z" />
<glyph unicode="&#x43b;" horiz-adv-x="1092" d="M48 44q0 40 62 40q68 0 94 29t26 99v462q0 140 40 194t150 54h524v-874q0 -62 -44 -62q-40 0 -40 62v790h-426q-68 0 -94 -30t-26 -100v-460q0 -154 -50 -201t-154 -47q-62 0 -62 44z" />
<glyph unicode="&#x43c;" horiz-adv-x="1226" d="M148 46v828q0 62 38 62q30 0 52 -34l374 -568l376 568q22 34 50 34q40 0 40 -62v-828q0 -60 -44 -60q-40 0 -40 60v718l-356 -544q-10 -12 -26 -12q-14 0 -24 12l-356 544v-718q0 -60 -42 -60t-42 60z" />
<glyph unicode="&#x43d;" horiz-adv-x="1164" d="M148 46v828q0 62 38 62q46 0 46 -62v-344h700v344q0 62 40 62q44 0 44 -62v-828q0 -60 -40 -60q-44 0 -44 60v400h-700v-400q0 -60 -42 -60t-42 60z" />
<glyph unicode="&#x43e;" horiz-adv-x="1136" d="M124 350v222q0 210 102 280t314 70h58q210 0 312 -70t102 -280v-222q0 -210 -102 -280t-312 -70h-58q-212 0 -314 70t-102 280zM208 350q0 -90 19 -144t65 -81t99 -34t149 -7h58q94 0 147 7t99 34t65 81t19 144v222q0 90 -19 144t-65 81t-99 34t-147 7h-58q-96 0 -149 -7 t-99 -34t-65 -81t-19 -144v-222z" />
<glyph unicode="&#x43f;" horiz-adv-x="1164" d="M148 46v876h868v-876q0 -60 -40 -60q-44 0 -44 60v792h-700v-792q0 -60 -42 -60t-42 60z" />
<glyph unicode="&#x440;" horiz-adv-x="1162" d="M150 -304v1180q0 60 42 60t42 -60v-98q112 144 332 144h58q210 0 312 -70t102 -280v-222q0 -210 -102 -280t-312 -70h-390v-304q0 -60 -46 -60q-38 0 -38 60zM234 84h390q94 0 147 7t99 34t65 81t19 144v222q0 90 -19 144t-65 81t-99 34t-147 7h-58q-160 0 -246 -97 t-86 -277v-380z" />
<glyph unicode="&#x441;" horiz-adv-x="1128" d="M124 350v222q0 210 102 280t314 70h282q62 0 103 -18t58 -53t23 -66t6 -77q0 -60 -42 -60t-42 56q0 72 -26 103t-94 31h-268q-96 0 -149 -7t-99 -34t-65 -81t-19 -144v-222q0 -90 19 -144t65 -81t99 -34t149 -7h268q68 0 94 30t26 104q0 56 42 56t42 -62q0 -44 -6 -76 t-23 -66t-58 -52t-103 -18h-282q-212 0 -314 70t-102 280z" />
<glyph unicode="&#x442;" horiz-adv-x="874" d="M30 880q0 42 56 42h702q56 0 56 -44q0 -40 -56 -40h-308v-798q0 -54 -44 -54q-40 0 -40 54v798h-310q-56 0 -56 42z" />
<glyph unicode="&#x443;" horiz-adv-x="1178" d="M140 350v522q0 64 42 64t42 -64v-522q0 -90 19 -144t65 -81t99 -34t149 -7h58q158 0 244 96t86 276v416q0 64 44 64q40 0 40 -64v-1056q0 -128 -36 -177t-136 -49h-526q-62 0 -103 18t-58 53t-23 66t-6 77q0 60 42 60t42 -56q0 -72 26 -103t94 -31h498q62 0 82 23t20 87 v360q-108 -144 -330 -144h-58q-212 0 -314 70t-102 280z" />
<glyph unicode="&#x444;" horiz-adv-x="1500" d="M122 390v142q0 390 322 390q92 0 148 -33t116 -111v448q0 60 42 60t42 -60v-448q60 78 116 111t148 33q322 0 322 -390v-142q0 -390 -322 -390q-92 0 -148 33t-116 111v-448q0 -60 -42 -60t-42 60v448q-60 -78 -116 -111t-148 -33q-322 0 -322 390zM206 390q0 -50 3 -86 t17 -81t38 -72t70 -47t110 -20q142 0 203 112t61 266t-61 265t-203 111q-64 0 -110 -20t-70 -47t-38 -72t-17 -81t-3 -86v-142zM792 462q0 -154 61 -266t203 -112q64 0 110 20t70 47t38 72t17 81t3 86v142q0 50 -3 86t-17 81t-38 72t-70 47t-110 20q-142 0 -203 -111 t-61 -265z" />
<glyph unicode="&#x445;" horiz-adv-x="976" d="M76 16q0 16 18 42l340 402l-340 406q-18 22 -18 40q0 16 13 27t27 11q21 0 42 -24l332 -394l330 394q20 24 40 24q14 0 27 -11t13 -27q0 -18 -18 -40l-340 -406l340 -402q18 -26 18 -42t-13 -27t-27 -11q-20 0 -40 24l-330 394l-332 -394q-21 -24 -42 -24q-14 0 -27 11 t-13 27z" />
<glyph unicode="&#x446;" horiz-adv-x="1082" d="M150 0v876q0 60 40 60q44 0 44 -60v-792h584v792q0 60 42 60t42 -60v-792h24q92 0 92 -104v-104q0 -60 -42 -60t-42 60v124h-784z" />
<glyph unicode="&#x447;" horiz-adv-x="1134" d="M98 616v260q0 60 40 60q44 0 44 -60v-260q0 -90 19 -144t65 -81t99 -34t147 -7h58q160 0 246 97t86 277v152q0 60 42 60t42 -60v-828q0 -62 -38 -62q-46 0 -46 62v362q-112 -144 -332 -144h-58q-210 0 -312 70t-102 280z" />
<glyph unicode="&#x448;" horiz-adv-x="1232" d="M150 0v876q0 60 40 60q44 0 44 -60v-792h340v792q0 60 40 60q44 0 44 -60v-792h340v792q0 60 42 60t42 -60v-876h-932z" />
<glyph unicode="&#x449;" horiz-adv-x="1262" d="M150 0v876q0 60 40 60q44 0 44 -60v-792h340v792q0 60 40 60q44 0 44 -60v-792h340v792q0 60 42 60t42 -60v-792h24q92 0 92 -104v-104q0 -60 -42 -60t-42 60v124h-964z" />
<glyph unicode="&#x44a;" horiz-adv-x="1112" d="M46 884q0 38 62 38h286v-404h342q126 0 215 -59t89 -199q0 -142 -89 -201t-215 -59h-426v838h-202q-62 0 -62 46zM394 84h328q236 0 236 176q0 32 -6 56t-27 54t-72 47t-131 17h-328v-350z" />
<glyph unicode="&#x44b;" horiz-adv-x="1324" d="M150 0v874q0 62 40 62q44 0 44 -62v-356h424q126 0 215 -59t89 -199q0 -142 -89 -201t-215 -59h-508zM234 84h410q236 0 236 176q0 32 -6 56t-27 54t-72 47t-131 17h-410v-350zM1092 40v840q0 56 42 56t42 -56v-840q0 -54 -44 -54q-40 0 -40 54z" />
<glyph unicode="&#x44c;" horiz-adv-x="1032" d="M150 0v874q0 62 40 62q44 0 44 -62v-356h424q126 0 215 -59t89 -199q0 -142 -89 -201t-215 -59h-508zM234 84h410q236 0 236 176q0 32 -6 56t-27 54t-72 47t-131 17h-410v-350z" />
<glyph unicode="&#x44d;" horiz-adv-x="1126" d="M114 214q0 60 42 60t42 -56q0 -72 26 -103t94 -31h268q96 0 149 7t99 34t65 81t19 144v84h-398q-62 0 -62 38q0 46 62 46h398v54q0 90 -19 144t-65 81t-99 34t-149 7h-268q-68 0 -94 -30t-26 -104q0 -56 -42 -56t-42 62q0 44 6 76t23 66t58 52t103 18h282q212 0 314 -70 t102 -280v-222q0 -210 -102 -280t-314 -70h-282q-62 0 -103 18t-58 53t-23 66t-6 77z" />
<glyph unicode="&#x44e;" horiz-adv-x="1336" d="M148 40v840q0 56 42 56t42 -56v-362h150v54q0 210 102 280t314 70q210 0 312 -70t102 -280v-222q0 -210 -102 -280t-312 -70q-212 0 -314 70t-102 280v84h-150v-394q0 -54 -44 -54q-40 0 -40 54zM466 350q0 -90 19 -144t65 -81t99 -34t149 -7q94 0 147 7t99 34t65 81 t19 144v222q0 90 -19 144t-65 81t-99 34t-147 7q-96 0 -149 -7t-99 -34t-65 -81t-19 -144v-222z" />
<glyph unicode="&#x44f;" horiz-adv-x="1064" d="M38 26q0 42 62 42q54 0 96 46t56 92l10 36q28 106 110 172q-112 16 -160 71t-48 171q0 74 20 124t51 78t89 42t112 18t142 4h298q38 0 38 -62v-820q0 -54 -40 -54q-44 0 -44 54v364h-240q-110 0 -166 -46t-82 -140q-30 -104 -95 -169t-147 -65q-62 0 -62 42zM248 662 q0 -116 57 -145t211 -29h314v350h-314q-154 0 -211 -30t-57 -146z" />
<glyph unicode="&#x450;" horiz-adv-x="1132" d="M124 350v222q0 210 102 280t314 70h58q210 0 312 -70t102 -280v-72h-804v-150q0 -90 19 -144t65 -81t99 -34t149 -7h268q68 0 94 30t26 104q0 56 42 56t42 -62q0 -44 -6 -76t-23 -66t-58 -52t-103 -18h-282q-212 0 -314 70t-102 280zM208 584h720q0 162 -74 208t-256 46 h-58q-184 0 -258 -46t-74 -208zM362 1314q0 18 13 30t27 12q18 0 42 -26l192 -230q16 -18 16 -40q0 -16 -13 -28t-27 -12q-18 0 -42 26l-192 230q-16 18 -16 38z" />
<glyph unicode="&#x451;" horiz-adv-x="1132" d="M124 350v222q0 210 102 280t314 70h58q210 0 312 -70t102 -280v-72h-804v-150q0 -90 19 -144t65 -81t99 -34t149 -7h268q68 0 94 30t26 104q0 56 42 56t42 -62q0 -44 -6 -76t-23 -66t-58 -52t-103 -18h-282q-212 0 -314 70t-102 280zM208 584h720q0 162 -74 208t-256 46 h-58q-184 0 -258 -46t-74 -208zM332 1116q0 28 30 50t62 22q30 0 61 -22t31 -50t-31 -50t-61 -22q-32 0 -62 22t-30 50zM624 1116q0 28 30 50t62 22q30 0 61 -22t31 -50t-31 -50t-61 -22q-32 0 -62 22t-30 50z" />
<glyph unicode="&#x452;" horiz-adv-x="1178" d="M98 1064q0 42 50 42v118q0 62 38 62q46 0 46 -62v-118h408q58 0 58 -46q0 -40 -58 -40h-408v-242q112 144 332 144h58q210 0 312 -70t102 -280v-734q0 -154 -50 -201t-154 -47q-62 0 -62 42t62 42q68 0 94 30t26 100v768q0 90 -19 144t-65 81t-99 34t-147 7h-58 q-160 0 -246 -97t-86 -277v-418q0 -60 -42 -60t-42 60v974q-50 0 -50 44z" />
<glyph unicode="&#x453;" horiz-adv-x="916" d="M146 46v628q0 140 40 194t150 54h488q60 0 60 -42t-60 -42h-474q-68 0 -94 -30t-26 -100v-662q0 -60 -44 -60q-40 0 -40 60zM462 1060q0 22 16 40l192 230q24 26 42 26q14 0 27 -12t13 -30q0 -20 -16 -38l-192 -230q-24 -26 -42 -26q-14 0 -27 12t-13 28z" />
<glyph unicode="&#x454;" horiz-adv-x="1126" d="M124 350v222q0 210 102 280t314 70h282q62 0 103 -18t58 -52t23 -66t6 -76q0 -62 -42 -62t-42 56q0 74 -26 104t-94 30h-268q-96 0 -149 -7t-99 -34t-65 -81t-19 -144v-54h398q62 0 62 -46q0 -38 -62 -38h-398v-84q0 -90 19 -144t65 -81t99 -34t149 -7h268q68 0 94 31 t26 103q0 56 42 56t42 -60q0 -46 -6 -77t-23 -66t-58 -53t-103 -18h-282q-212 0 -314 70t-102 280z" />
<glyph unicode="&#x455;" horiz-adv-x="1132" d="M120 686q0 116 57 176t191 60h450q62 0 103 -18t58 -53t23 -66t6 -77q0 -60 -42 -60t-42 56q0 72 -26 103t-94 31h-472q-128 0 -128 -152q0 -82 36 -127t92 -45h434q246 0 246 -268q0 -246 -246 -246h-456q-62 0 -103 18t-58 52t-23 66t-6 76q0 62 42 62t42 -56 q0 -74 26 -104t94 -30h476q128 0 128 162q0 84 -36 134t-92 50h-432q-248 0 -248 256z" />
<glyph unicode="&#x456;" horiz-adv-x="380" d="M98 1202q0 28 30 50t62 22q30 0 61 -22t31 -50t-31 -50t-61 -22q-32 0 -62 22t-30 50zM148 40v840q0 56 42 56t42 -56v-840q0 -54 -44 -54q-40 0 -40 54z" />
<glyph unicode="&#x457;" horiz-adv-x="380" d="M-48 1130q0 28 30 50t62 22q30 0 61 -22t31 -50t-31 -50t-61 -22q-32 0 -62 22t-30 50zM148 40v840q0 56 42 56t42 -56v-840q0 -54 -44 -54q-40 0 -40 54zM244 1130q0 28 30 50t62 22q30 0 61 -22t31 -50t-31 -50t-61 -22q-32 0 -62 22t-30 50z" />
<glyph unicode="&#x458;" horiz-adv-x="384" d="M-244 -306q0 40 62 40q96 0 149 7t99 34t65 81t19 144v874q0 62 44 62q40 0 40 -62v-874q0 -112 -28 -184t-88 -107t-128 -47t-172 -12q-62 0 -62 44zM100 1202q0 28 31 50t61 22q32 0 62 -22t30 -50t-30 -50t-62 -22q-30 0 -61 22t-31 50z" />
<glyph unicode="&#x459;" horiz-adv-x="1450" d="M60 44q0 40 62 40q68 0 94 29t26 99v462q0 140 40 194t150 54h438v-404h202q126 0 215 -59t89 -199q0 -142 -89 -201t-215 -59h-286v838h-340q-68 0 -94 -30t-26 -100v-460q0 -154 -50 -201t-154 -47q-62 0 -62 44zM870 84h188q236 0 236 176q0 32 -6 56t-27 54t-72 47 t-131 17h-188v-350z" />
<glyph unicode="&#x45a;" horiz-adv-x="1538" d="M148 46v828q0 62 38 62q46 0 46 -62v-356h642v356q0 62 40 62q44 0 44 -62v-356h202q126 0 215 -59t89 -199q0 -142 -89 -201t-215 -59h-286v434h-642v-388q0 -60 -42 -60t-42 60zM958 84h188q236 0 236 176q0 32 -6 56t-27 54t-72 47t-131 17h-188v-350z" />
<glyph unicode="&#x45b;" horiz-adv-x="1176" d="M98 1064q0 42 50 42v118q0 62 38 62q46 0 46 -62v-118h408q58 0 58 -46q0 -40 -58 -40h-408v-242q112 144 332 144h58q210 0 312 -70t102 -280v-526q0 -60 -40 -60q-44 0 -44 60v526q0 90 -19 144t-65 81t-99 34t-147 7h-58q-160 0 -246 -97t-86 -277v-418q0 -60 -42 -60 t-42 60v974q-50 0 -50 44z" />
<glyph unicode="&#x45c;" horiz-adv-x="1076" d="M148 40v840q0 56 42 56t42 -56v-376h138q78 0 159 19t148 68t67 119q0 138 51 183t153 45q62 0 62 -42t-62 -42q-68 0 -94 -30t-26 -100v-40q0 -76 -90 -146t-156 -80q66 -10 156 -78t90 -140v-40q0 -70 26 -100t94 -30q62 0 62 -42t-62 -42q-102 0 -153 45t-51 183 q0 66 -66 115t-149 70t-159 21h-138v-380q0 -54 -44 -54q-40 0 -40 54zM440 1060q0 22 16 40l192 230q24 26 42 26q14 0 27 -12t13 -30q0 -20 -16 -38l-192 -230q-24 -26 -42 -26q-14 0 -27 12t-13 28z" />
<glyph unicode="&#x45d;" horiz-adv-x="1166" d="M150 0v874q0 62 40 62q44 0 44 -62v-766l692 814h92v-874q0 -62 -40 -62q-44 0 -44 62v758l-686 -806h-98zM394 1314q0 18 13 30t27 12q18 0 42 -26l192 -230q16 -18 16 -40q0 -16 -13 -28t-27 -12q-18 0 -42 26l-192 230q-16 18 -16 38z" />
<glyph unicode="&#x45e;" horiz-adv-x="1178" d="M140 350v522q0 64 42 64t42 -64v-522q0 -90 19 -144t65 -81t99 -34t149 -7h58q158 0 244 96t86 276v416q0 64 44 64q40 0 40 -64v-1056q0 -128 -36 -177t-136 -49h-526q-62 0 -103 18t-58 53t-23 66t-6 77q0 60 42 60t42 -56q0 -72 26 -103t94 -31h498q62 0 82 23t20 87 v360q-108 -144 -330 -144h-58q-212 0 -314 70t-102 280zM304 1228v44h84v-76q0 -62 21 -85t83 -23h204q62 0 82 23t20 85v76h84v-44q0 -128 -36 -176t-136 -48h-234q-98 0 -135 49t-37 175z" />
<glyph unicode="&#x45f;" horiz-adv-x="1168" d="M150 0v876q0 60 40 60q44 0 44 -60v-792h700v792q0 60 42 60t42 -60v-876h-392v-124q0 -60 -42 -60t-42 60v124h-392z" />
<glyph unicode="&#x462;" horiz-adv-x="1262" d="M60 964q0 42 56 42h294v218q0 62 40 62q44 0 44 -62v-218h300q56 0 56 -44q0 -40 -56 -40h-300v-120h282q186 0 300 -112t114 -296q0 -186 -114 -297t-300 -111h-324q-42 0 -42 62v874h-294q-56 0 -56 42zM494 70h282q162 0 246 89t84 235t-85 235t-245 89h-282v-648z " />
<glyph unicode="&#x463;" horiz-adv-x="1260" d="M36 880q0 42 56 42h284v310q0 54 40 54q44 0 44 -54v-310h284q56 0 56 -44q0 -40 -56 -40h-284v-240h390q156 0 243 -76t87 -222q0 -172 -104 -236t-310 -64h-352q-38 0 -38 62v776h-284q-56 0 -56 42zM460 84h306q180 0 255 42t75 174q0 130 -75 172t-255 42h-306v-430z " />
<glyph unicode="&#x472;" horiz-adv-x="1148" d="M130 454v364q0 220 125 346t319 126t319 -126t125 -346v-364q0 -220 -125 -346t-319 -126t-319 126t-125 346zM214 678q58 46 126 46q72 0 238 -40t200 -40q30 0 69 17t63 34l24 17v106q0 182 -96 285t-264 103t-264 -103t-96 -285v-140zM214 454q0 -182 96 -285 t264 -103t264 103t96 285v152q-62 -46 -130 -46q-72 0 -238 40t-200 40q-30 0 -68 -16t-61 -33l-23 -17v-120z" />
<glyph unicode="&#x473;" horiz-adv-x="1108" d="M124 350v222q0 210 102 280t314 70h30q210 0 312 -70t102 -280v-222q0 -210 -102 -280t-312 -70h-30q-212 0 -314 70t-102 280zM208 500q58 46 126 46q72 0 224 -40t186 -40q30 0 69 17t63 34l24 17v38q0 90 -19 144t-65 81t-99 34t-147 7h-30q-96 0 -149 -7t-99 -34 t-65 -81t-19 -144v-72zM208 350q0 -90 19 -144t65 -81t99 -34t149 -7h30q94 0 147 7t99 34t65 81t19 144v78q-62 -46 -130 -46q-72 0 -224 40t-186 40q-30 0 -68 -17t-61 -33l-23 -16v-46z" />
<glyph unicode="&#x490;" horiz-adv-x="1078" d="M164 46v978q0 140 40 194t150 54h586v164q0 60 44 60q40 0 40 -60v-248h-656q-68 0 -94 -30t-26 -100v-1012q0 -60 -44 -60q-40 0 -40 60z" />
<glyph unicode="&#x491;" horiz-adv-x="922" d="M146 46v628q0 140 40 194t150 54h464v164q0 60 44 60q40 0 40 -60v-248h-534q-68 0 -94 -30t-26 -100v-662q0 -60 -44 -60q-40 0 -40 60z" />
<glyph unicode="&#x1e02;" horiz-adv-x="1168" d="M168 62v1148q0 62 38 62h352q206 0 310 -64t104 -236q0 -168 -110 -238q98 -30 146 -106t48 -220v-58q0 -210 -102 -280t-312 -70h-436q-38 0 -38 62zM252 84h390q94 0 147 7t99 34t65 81t19 144v58q0 90 -19 144t-65 81t-99 34t-147 7h-390v-590zM252 758h306 q180 0 255 42t75 172q0 132 -75 174t-255 42h-306v-430zM476 1484q0 28 30 50t62 22q30 0 61 -22t31 -50t-31 -50t-61 -22q-32 0 -62 22t-30 50z" />
<glyph unicode="&#x1e03;" horiz-adv-x="1160" d="M148 46v1178q0 62 38 62q46 0 46 -62v-446q112 144 332 144h58q210 0 312 -70t102 -280v-222q0 -210 -102 -280t-312 -70h-58q-220 0 -332 144v-98q0 -60 -42 -60t-42 60zM232 456q0 -180 86 -276t246 -96h58q94 0 147 7t99 34t65 81t19 144v222q0 90 -19 144t-65 81 t-99 34t-147 7h-58q-160 0 -246 -97t-86 -277v-8zM500 1116q0 28 30 50t62 22q30 0 61 -22t31 -50t-31 -50t-61 -22q-32 0 -62 22t-30 50z" />
<glyph unicode="&#x1e0a;" horiz-adv-x="1200" d="M168 62v1148q0 62 38 62h436q210 0 312 -70t102 -280v-572q0 -210 -102 -280t-312 -70h-436q-38 0 -38 62zM252 84h390q94 0 147 7t99 34t65 81t19 144v572q0 90 -19 144t-65 81t-99 34t-147 7h-390v-1104zM476 1484q0 28 30 50t62 22q30 0 61 -22t31 -50t-31 -50 t-61 -22q-32 0 -62 22t-30 50z" />
<glyph unicode="&#x1e0b;" horiz-adv-x="1160" d="M124 350v222q0 210 102 280t314 70h388v302q0 62 46 62q38 0 38 -62v-1178q0 -60 -42 -60t-42 60v98q-108 -144 -330 -144h-58q-212 0 -314 70t-102 280zM208 350q0 -90 19 -144t65 -81t99 -34t149 -7h58q158 0 244 96t86 276v382h-388q-96 0 -149 -7t-99 -34t-65 -81 t-19 -144v-222zM476 1116q0 28 30 50t62 22q30 0 61 -22t31 -50t-31 -50t-61 -22q-32 0 -62 22t-30 50z" />
<glyph unicode="&#x1e1e;" horiz-adv-x="1116" d="M168 46v1164q0 62 38 62h792q58 0 58 -46q0 -38 -58 -38h-746v-430h510q60 0 60 -46q0 -38 -60 -38h-510v-628q0 -60 -42 -60t-42 60zM510 1484q0 28 30 50t62 22q30 0 61 -22t31 -50t-31 -50t-61 -22q-32 0 -62 22t-30 50z" />
<glyph unicode="&#x1e1f;" horiz-adv-x="626" d="M96 882q0 40 62 40q0 112 28 183t88 107t128 48t172 12q62 0 62 -46q0 -38 -62 -38q-96 0 -149 -7t-99 -34t-65 -81t-19 -144h286q62 0 62 -46q0 -38 -62 -38h-286v-790q0 -62 -46 -62q-38 0 -38 62v790q-62 0 -62 44zM294 1428q0 28 30 50t62 22q30 0 61 -22t31 -50 t-31 -50t-61 -22q-32 0 -62 22t-30 50z" />
<glyph unicode="&#x1e40;" horiz-adv-x="1266" d="M168 46v1178q0 62 38 62q30 0 52 -34l374 -568l376 568q22 34 50 34q40 0 40 -62v-1178q0 -60 -44 -60q-40 0 -40 60v1068l-356 -544q-10 -12 -26 -12q-14 0 -24 12l-356 544v-1068q0 -60 -42 -60t-42 60zM540 1344q0 28 30 50t62 22q30 0 61 -22t31 -50t-31 -50t-61 -22 q-32 0 -62 22t-30 50z" />
<glyph unicode="&#x1e41;" horiz-adv-x="1624" d="M148 46v828q0 62 38 62q46 0 46 -62v-96q60 78 118 111t152 33q134 0 216 -36t116 -138q94 174 292 174q178 0 267 -70t89 -280v-526q0 -60 -42 -60t-42 60v526q0 90 -14 144t-52 81t-82 34t-124 7q-128 0 -199 -97t-71 -277v-418q0 -60 -40 -60q-44 0 -44 60v526 q0 90 -14 144t-52 81t-81 34t-123 7q-128 0 -199 -97t-71 -277v-418q0 -60 -42 -60t-42 60zM726 1130q0 28 30 50t62 22q30 0 61 -22t31 -50t-31 -50t-61 -22q-32 0 -62 22t-30 50z" />
<glyph unicode="&#x1e56;" horiz-adv-x="1040" d="M168 40v1170q0 62 38 62h352q206 0 310 -64t104 -236q0 -146 -87 -222t-243 -76h-390v-634q0 -54 -44 -54q-40 0 -40 54zM252 758h306q180 0 255 42t75 172q0 132 -75 174t-255 42h-306v-430zM422 1484q0 28 30 50t62 22q30 0 61 -22t31 -50t-31 -50t-61 -22 q-32 0 -62 22t-30 50z" />
<glyph unicode="&#x1e57;" horiz-adv-x="1162" d="M150 -304v1180q0 60 42 60t42 -60v-98q112 144 332 144h58q210 0 312 -70t102 -280v-222q0 -210 -102 -280t-312 -70h-390v-304q0 -60 -46 -60q-38 0 -38 60zM234 84h390q94 0 147 7t99 34t65 81t19 144v222q0 90 -19 144t-65 81t-99 34t-147 7h-58q-160 0 -246 -97 t-86 -277v-380zM536 1130q0 28 30 50t62 22q30 0 61 -22t31 -50t-31 -50t-61 -22q-32 0 -62 22t-30 50z" />
<glyph unicode="&#x1e60;" horiz-adv-x="1140" d="M124 334q0 56 46 56q40 0 40 -56q0 -172 72 -219t260 -47h186q106 0 155 76t49 164q0 102 -41 168t-87 76l-432 106q-136 32 -192 104t-56 206q0 132 76 226t248 94h152q104 0 172 -12t128 -47t88 -106t28 -181q0 -56 -44 -56q-42 0 -42 56q0 90 -18 144t-65 79t-99 32 t-148 7h-188q-106 0 -155 -75t-49 -161q0 -84 37 -143t91 -73l434 -104q246 -62 246 -340q0 -132 -75 -228t-247 -96h-152q-104 0 -173 12t-129 48t-88 108t-28 182zM488 1484q0 28 30 50t62 22q30 0 61 -22t31 -50t-31 -50t-61 -22q-32 0 -62 22t-30 50z" />
<glyph unicode="&#x1e61;" horiz-adv-x="1132" d="M120 686q0 116 57 176t191 60h450q62 0 103 -18t58 -53t23 -66t6 -77q0 -60 -42 -60t-42 56q0 72 -26 103t-94 31h-472q-128 0 -128 -152q0 -82 36 -127t92 -45h434q246 0 246 -268q0 -246 -246 -246h-456q-62 0 -103 18t-58 52t-23 66t-6 76q0 62 42 62t42 -56 q0 -74 26 -104t94 -30h476q128 0 128 162q0 84 -36 134t-92 50h-432q-248 0 -248 256zM500 1116q0 28 30 50t62 22q30 0 61 -22t31 -50t-31 -50t-61 -22q-32 0 -62 22t-30 50z" />
<glyph unicode="&#x1e6a;" horiz-adv-x="920" d="M52 1230q0 42 56 42h702q56 0 56 -44q0 -40 -56 -40h-308v-1148q0 -54 -44 -54q-40 0 -40 54v1148h-310q-56 0 -56 42zM366 1484q0 28 30 50t62 22q30 0 61 -22t31 -50t-31 -50t-61 -22q-32 0 -62 22t-30 50z" />
<glyph unicode="&#x1e6b;" horiz-adv-x="660" d="M92 882q0 40 62 40v218q0 62 38 62q46 0 46 -62v-218h286q62 0 62 -46q0 -38 -62 -38h-286v-488q0 -90 19 -144t65 -81t99 -34t149 -7q60 0 60 -38q0 -46 -60 -46q-102 0 -172 13t-129 49t-87 107t-28 181v488q-62 0 -62 44zM104 1396q0 28 30 50t62 22q30 0 61 -22 t31 -50t-31 -50t-61 -22q-32 0 -62 22t-30 50z" />
<glyph unicode="&#x1e80;" horiz-adv-x="1784" d="M48 1264q0 14 11 24t21 13t16 3q26 0 38 -40l356 -1144l352 1140q14 44 46 44q36 0 50 -44l354 -1140l352 1144q16 40 40 40q6 0 16 -3t20 -13t10 -24q0 -12 -6 -30l-384 -1234h-100l-352 1130l-350 -1130h-98l-376 1234q-2 6 -9 16t-7 14zM686 1598q0 12 13 26t29 14 q20 0 40 -22l140 -138q22 -26 22 -44q0 -12 -12 -25t-28 -13q-22 0 -42 22l-138 138q-24 24 -24 42z" />
<glyph unicode="&#x1e81;" horiz-adv-x="1542" d="M62 898q0 14 20 26t34 12q20 0 34 -38l278 -806h12l288 808q6 34 46 34q32 0 42 -34l276 -808h12l290 808q12 36 34 36q16 0 35 -11t19 -25q0 -16 -6 -22l-310 -878h-142l-252 768l-272 -768h-142l-290 878q-6 4 -6 20zM518 1316q0 18 13 30t27 12q18 0 42 -26l192 -230 q16 -18 16 -40q0 -16 -13 -28t-27 -12q-18 0 -42 26l-192 230q-16 18 -16 38z" />
<glyph unicode="&#x1e82;" horiz-adv-x="1784" d="M48 1264q0 14 11 24t21 13t16 3q26 0 38 -40l356 -1144l352 1140q14 44 46 44q36 0 50 -44l354 -1140l352 1144q16 40 40 40q6 0 16 -3t20 -13t10 -24q0 -12 -6 -30l-384 -1234h-100l-352 1130l-350 -1130h-98l-376 1234q-2 6 -9 16t-7 14zM848 1434q0 20 24 44l138 138 q20 22 42 22q16 0 28 -14t12 -26q0 -16 -22 -42l-140 -138q-20 -22 -40 -22q-16 0 -29 13t-13 25z" />
<glyph unicode="&#x1e83;" horiz-adv-x="1542" d="M62 898q0 14 20 26t34 12q20 0 34 -38l278 -806h12l288 808q6 34 46 34q32 0 42 -34l276 -808h12l290 808q12 36 34 36q16 0 35 -11t19 -25q0 -16 -6 -22l-310 -878h-142l-252 768l-272 -768h-142l-290 878q-6 4 -6 20zM748 1060q0 22 16 40l192 230q24 26 42 26 q14 0 27 -12t13 -30q0 -20 -16 -38l-192 -230q-24 -26 -42 -26q-14 0 -27 12t-13 28z" />
<glyph unicode="&#x1e84;" horiz-adv-x="1784" d="M48 1264q0 14 11 24t21 13t16 3q26 0 38 -40l356 -1144l352 1140q14 44 46 44q36 0 50 -44l354 -1140l352 1144q16 40 40 40q6 0 16 -3t20 -13t10 -24q0 -12 -6 -30l-384 -1234h-100l-352 1130l-350 -1130h-98l-376 1234q-2 6 -9 16t-7 14zM652 1498q0 28 30 50t62 22 q30 0 61 -22t31 -50t-31 -50t-61 -22q-32 0 -62 22t-30 50zM944 1498q0 28 30 50t62 22q30 0 61 -22t31 -50t-31 -50t-61 -22q-32 0 -62 22t-30 50z" />
<glyph unicode="&#x1e85;" horiz-adv-x="1542" d="M62 898q0 14 20 26t34 12q20 0 34 -38l278 -806h12l288 808q6 34 46 34q32 0 42 -34l276 -808h12l290 808q12 36 34 36q16 0 35 -11t19 -25q0 -16 -6 -22l-310 -878h-142l-252 768l-272 -768h-142l-290 878q-6 4 -6 20zM534 1130q0 28 30 50t62 22q30 0 61 -22t31 -50 t-31 -50t-61 -22q-32 0 -62 22t-30 50zM826 1130q0 28 30 50t62 22q30 0 61 -22t31 -50t-31 -50t-61 -22q-32 0 -62 22t-30 50z" />
<glyph unicode="&#x1ea0;" horiz-adv-x="1096" d="M46 8q0 12 6 28l450 1236h92l450 -1236q6 -16 6 -28q0 -40 -42 -40q-28 0 -44 40l-144 400h-544l-144 -400q-18 -40 -44 -40q-42 0 -42 40zM308 492h480l-242 658zM456 -208q0 28 30 50t62 22q30 0 61 -22t31 -50t-31 -50t-61 -22q-32 0 -62 22t-30 50z" />
<glyph unicode="&#x1ea1;" horiz-adv-x="1070" d="M120 240q0 84 20 146t54 99t88 58t114 29t140 8h304v128q0 70 -26 100t-94 30h-282q-234 0 -234 -130q0 -60 -44 -60q-40 0 -40 60q0 108 85 161t219 53h310q110 0 150 -54t40 -194v-628q0 -60 -42 -60t-42 60v98q-108 -144 -330 -144h-186q-90 0 -147 65t-57 175z M204 230q0 -56 37 -101t83 -45h186q158 0 244 96t86 276v40h-304q-96 0 -149 -7t-99 -34t-65 -81t-19 -144zM426 -208q0 28 30 50t62 22q30 0 61 -22t31 -50t-31 -50t-61 -22q-32 0 -62 22t-30 50z" />
<glyph unicode="&#x1ea2;" horiz-adv-x="1096" d="M46 8q0 12 6 28l450 1236h92l450 -1236q6 -16 6 -28q0 -40 -42 -40q-28 0 -44 40l-144 400h-544l-144 -400q-18 -40 -44 -40q-42 0 -42 40zM308 492h480l-242 658zM442 1538q0 46 41 76t89 30q50 0 83 -34t33 -92q0 -48 -54 -80t-54 -66q0 -28 -30 -28q-14 0 -26 8 t-12 20q0 52 54 85t54 71q0 22 -16 36t-36 14q-58 0 -58 -40q0 -26 -34 -26t-34 26z" />
<glyph unicode="&#x1ea3;" horiz-adv-x="1068" d="M120 240q0 84 20 146t54 99t88 58t114 29t140 8h304v128q0 70 -26 100t-94 30h-282q-234 0 -234 -130q0 -60 -44 -60q-40 0 -40 60q0 108 85 161t219 53h310q110 0 150 -54t40 -194v-628q0 -60 -42 -60t-42 60v98q-108 -144 -330 -144h-186q-90 0 -147 65t-57 175z M204 230q0 -56 37 -101t83 -45h186q158 0 244 96t86 276v40h-304q-96 0 -149 -7t-99 -34t-65 -81t-19 -144zM436 1236q0 46 41 76t89 30q50 0 83 -34t33 -92q0 -48 -54 -80t-54 -66q0 -28 -30 -28q-14 0 -26 8t-12 20q0 52 54 85t54 71q0 22 -16 36t-36 14q-58 0 -58 -40 q0 -26 -34 -26t-34 26z" />
<glyph unicode="&#x1ea4;" horiz-adv-x="1100" d="M48 20q0 12 6 24l450 1060h92l450 -1060q6 -12 6 -24q0 -34 -42 -34q-34 0 -50 34l-144 344h-532l-144 -344q-14 -34 -50 -34q-42 0 -42 34zM276 1162q0 18 8 26l208 274h110l212 -274q8 -10 8 -26q0 -36 -36 -36q-8 0 -15 3t-10 6t-11 13t-12 14l-188 208h-6l-184 -208 q-32 -36 -48 -36q-36 0 -36 36zM320 448h460l-232 546zM716 1356q0 20 24 44l138 138q20 22 42 22q16 0 28 -14t12 -26q0 -16 -22 -42l-140 -138q-20 -22 -40 -22q-16 0 -29 13t-13 25z" />
<glyph unicode="&#x1ea5;" horiz-adv-x="1068" d="M120 240q0 84 20 146t54 99t88 58t114 29t140 8h304v128q0 70 -26 100t-94 30h-282q-234 0 -234 -130q0 -60 -44 -60q-40 0 -40 60q0 108 85 161t219 53h310q110 0 150 -54t40 -194v-628q0 -60 -42 -60t-42 60v98q-108 -144 -330 -144h-186q-90 0 -147 65t-57 175z M204 230q0 -56 37 -101t83 -45h186q158 0 244 96t86 276v40h-304q-96 0 -149 -7t-99 -34t-65 -81t-19 -144zM250 1072q0 18 8 26l208 274h110l212 -274q8 -10 8 -26q0 -36 -36 -36q-8 0 -15 3t-10 6t-11 13t-12 14l-188 208h-6l-184 -208q-4 -4 -11 -12t-10 -11t-8 -7t-9 -5 t-10 -1q-36 0 -36 36zM690 1266q0 20 24 44l138 138q20 22 42 22q16 0 28 -14t12 -26q0 -16 -22 -42l-140 -138q-20 -22 -40 -22q-16 0 -29 13t-13 25z" />
<glyph unicode="&#x1ea6;" horiz-adv-x="1092" d="M48 20q0 12 6 24l450 1060h92l450 -1060q6 -12 6 -24q0 -34 -42 -34q-34 0 -50 34l-144 344h-532l-144 -344q-14 -34 -50 -34q-42 0 -42 34zM136 1504q0 12 13 26t29 14q20 0 40 -22l140 -138q22 -26 22 -44q0 -12 -12 -25t-28 -13q-22 0 -42 22l-138 138q-24 24 -24 42z M276 1146q0 18 8 26l208 274h110l212 -274q8 -10 8 -26q0 -36 -36 -36q-8 0 -15 3t-10 6t-11 13t-12 14l-188 208h-6l-184 -208q-32 -36 -48 -36q-36 0 -36 36zM320 448h460l-232 546z" />
<glyph unicode="&#x1ea7;" horiz-adv-x="1068" d="M110 1430q0 12 13 26t29 14q20 0 40 -22l140 -138q22 -26 22 -44q0 -12 -12 -25t-28 -13q-22 0 -42 22l-138 138q-24 24 -24 42zM120 240q0 84 20 146t54 99t88 58t114 29t140 8h304v128q0 70 -26 100t-94 30h-282q-234 0 -234 -130q0 -60 -44 -60q-40 0 -40 60 q0 108 85 161t219 53h310q110 0 150 -54t40 -194v-628q0 -60 -42 -60t-42 60v98q-108 -144 -330 -144h-186q-90 0 -147 65t-57 175zM204 230q0 -56 37 -101t83 -45h186q158 0 244 96t86 276v40h-304q-96 0 -149 -7t-99 -34t-65 -81t-19 -144zM250 1072q0 18 8 26l208 274 h110l212 -274q8 -10 8 -26q0 -36 -36 -36q-8 0 -15 3t-10 6t-11 13t-12 14l-188 208h-6l-184 -208q-4 -4 -11 -12t-10 -11t-8 -7t-9 -5t-10 -1q-36 0 -36 36z" />
<glyph unicode="&#x1ea8;" horiz-adv-x="1100" d="M48 20q0 12 6 24l450 1060h92l450 -1060q6 -12 6 -24q0 -34 -42 -34q-34 0 -50 34l-144 344h-532l-144 -344q-14 -34 -50 -34q-42 0 -42 34zM276 1162q0 18 8 26l208 274h110l212 -274q8 -10 8 -26q0 -36 -36 -36q-8 0 -15 3t-10 6t-11 13t-12 14l-188 208h-6l-184 -208 q-32 -36 -48 -36q-36 0 -36 36zM320 448h460l-232 546zM710 1538q0 46 41 76t89 30q50 0 83 -34t33 -92q0 -48 -54 -80t-54 -66q0 -28 -30 -28q-14 0 -26 8t-12 20q0 52 54 85t54 71q0 22 -16 36t-36 14q-58 0 -58 -40q0 -26 -34 -26t-34 26z" />
<glyph unicode="&#x1ea9;" horiz-adv-x="1068" d="M120 240q0 84 20 146t54 99t88 58t114 29t140 8h304v128q0 70 -26 100t-94 30h-282q-234 0 -234 -130q0 -60 -44 -60q-40 0 -40 60q0 108 85 161t219 53h310q110 0 150 -54t40 -194v-628q0 -60 -42 -60t-42 60v98q-108 -144 -330 -144h-186q-90 0 -147 65t-57 175z M204 230q0 -56 37 -101t83 -45h186q158 0 244 96t86 276v40h-304q-96 0 -149 -7t-99 -34t-65 -81t-19 -144zM250 1072q0 18 8 26l208 274h110l212 -274q8 -10 8 -26q0 -36 -36 -36q-8 0 -15 3t-10 6t-11 13t-12 14l-188 208h-6l-184 -208q-4 -4 -11 -12t-10 -11t-8 -7t-9 -5 t-10 -1q-36 0 -36 36zM684 1448q0 46 41 76t89 30q50 0 83 -34t33 -92q0 -48 -54 -80t-54 -66q0 -28 -30 -28q-14 0 -26 8t-12 20q0 52 54 85t54 71q0 22 -16 36t-36 14q-58 0 -58 -40q0 -26 -34 -26t-34 26z" />
<glyph unicode="&#x1eaa;" horiz-adv-x="1100" d="M48 20q0 12 6 24l450 1060h92l450 -1060q6 -12 6 -24q0 -34 -42 -34q-34 0 -50 34l-144 344h-532l-144 -344q-14 -34 -50 -34q-42 0 -42 34zM276 1162q0 18 8 26l208 274h110l212 -274q8 -10 8 -26q0 -36 -36 -36q-8 0 -15 3t-10 6t-11 13t-12 14l-188 208h-6l-184 -208 q-32 -36 -48 -36q-36 0 -36 36zM276 1500q0 26 24 44l94 78q10 14 30 14q6 0 22 -4l196 -72q8 -4 14 -4q8 0 22 10l62 56q22 16 38 16t29 -10t13 -26q0 -24 -24 -46l-94 -78q-14 -14 -32 -14q-8 0 -20 4l-196 72q-8 4 -16 4t-22 -10l-62 -56q-22 -16 -38 -16q-14 0 -27 11 t-13 27zM320 448h460l-232 546z" />
<glyph unicode="&#x1eab;" horiz-adv-x="1068" d="M120 240q0 84 20 146t54 99t88 58t114 29t140 8h304v128q0 70 -26 100t-94 30h-282q-234 0 -234 -130q0 -60 -44 -60q-40 0 -40 60q0 108 85 161t219 53h310q110 0 150 -54t40 -194v-628q0 -60 -42 -60t-42 60v98q-108 -144 -330 -144h-186q-90 0 -147 65t-57 175z M204 230q0 -56 37 -101t83 -45h186q158 0 244 96t86 276v40h-304q-96 0 -149 -7t-99 -34t-65 -81t-19 -144zM250 1072q0 18 8 26l208 274h110l212 -274q8 -10 8 -26q0 -36 -36 -36q-8 0 -15 3t-10 6t-11 13t-12 14l-188 208h-6l-184 -208q-4 -4 -11 -12t-10 -11t-8 -7t-9 -5 t-10 -1q-36 0 -36 36zM250 1410q0 26 24 44l94 78q10 14 30 14q6 0 22 -4l196 -72q8 -4 14 -4q8 0 22 10l62 56q22 16 38 16t29 -10t13 -26q0 -24 -24 -46l-94 -78q-14 -14 -32 -14q-8 0 -20 4l-196 72q-8 4 -16 4t-22 -10l-62 -56q-22 -16 -38 -16q-14 0 -27 11t-13 27z " />
<glyph unicode="&#x1eac;" horiz-adv-x="1096" d="M46 8q0 12 6 28l450 1236h92l450 -1236q6 -16 6 -28q0 -40 -42 -40q-28 0 -44 40l-144 400h-544l-144 -400q-18 -40 -44 -40q-42 0 -42 40zM276 1338q0 18 8 26l208 274h110l212 -274q8 -10 8 -26q0 -36 -36 -36q-8 0 -15 3t-10 6t-11 13t-12 14l-188 208h-6l-184 -208 q-32 -36 -48 -36q-36 0 -36 36zM308 492h480l-242 658zM456 -208q0 28 30 50t62 22q30 0 61 -22t31 -50t-31 -50t-61 -22q-32 0 -62 22t-30 50z" />
<glyph unicode="&#x1ead;" horiz-adv-x="1068" d="M120 240q0 84 20 146t54 99t88 58t114 29t140 8h304v128q0 70 -26 100t-94 30h-282q-234 0 -234 -130q0 -60 -44 -60q-40 0 -40 60q0 108 85 161t219 53h310q110 0 150 -54t40 -194v-628q0 -60 -42 -60t-42 60v98q-108 -144 -330 -144h-186q-90 0 -147 65t-57 175z M204 230q0 -56 37 -101t83 -45h186q158 0 244 96t86 276v40h-304q-96 0 -149 -7t-99 -34t-65 -81t-19 -144zM282 1072q0 18 8 26l208 274h110l212 -274q8 -10 8 -26q0 -36 -36 -36q-8 0 -15 3t-10 6t-11 13t-12 14l-188 208h-6l-184 -208q-4 -4 -11 -12t-10 -11t-8 -7t-9 -5 t-10 -1q-36 0 -36 36zM426 -208q0 28 30 50t62 22q30 0 61 -22t31 -50t-31 -50t-61 -22q-32 0 -62 22t-30 50z" />
<glyph unicode="&#x1eae;" horiz-adv-x="1084" d="M40 20q0 12 6 24l450 1060h92l450 -1060q6 -12 6 -24q0 -34 -42 -34q-34 0 -50 34l-144 344h-532l-144 -344q-14 -34 -50 -34q-42 0 -42 34zM310 1400h86q0 -68 39 -111t105 -43t105 43t39 111h86q0 -96 -68 -169t-162 -73t-162 73t-68 169zM312 448h460l-232 546z M502 1396q0 20 24 44l138 138q20 22 42 22q16 0 28 -14t12 -26q0 -16 -22 -42l-140 -138q-20 -22 -40 -22q-16 0 -29 13t-13 25z" />
<glyph unicode="&#x1eaf;" horiz-adv-x="1068" d="M120 240q0 84 20 146t54 99t88 58t114 29t140 8h304v128q0 70 -26 100t-94 30h-282q-234 0 -234 -130q0 -60 -44 -60q-40 0 -40 60q0 108 85 161t219 53h310q110 0 150 -54t40 -194v-628q0 -60 -42 -60t-42 60v98q-108 -144 -330 -144h-186q-90 0 -147 65t-57 175z M204 230q0 -56 37 -101t83 -45h186q158 0 244 96t86 276v40h-304q-96 0 -149 -7t-99 -34t-65 -81t-19 -144zM292 1286h86q0 -68 39 -111t105 -43t105 43t39 111h86q0 -96 -68 -169t-162 -73t-162 73t-68 169zM484 1282q0 20 24 44l138 138q20 22 42 22q16 0 28 -14t12 -26 q0 -16 -22 -42l-140 -138q-20 -22 -40 -22q-16 0 -29 13t-13 25z" />
<glyph unicode="&#x1eb0;" horiz-adv-x="1084" d="M40 20q0 12 6 24l450 1060h92l450 -1060q6 -12 6 -24q0 -34 -42 -34q-34 0 -50 34l-144 344h-532l-144 -344q-14 -34 -50 -34q-42 0 -42 34zM310 1400h86q0 -68 39 -111t105 -43t105 43t39 111h86q0 -96 -68 -169t-162 -73t-162 73t-68 169zM312 448h460l-232 546z M332 1560q0 12 13 26t29 14q20 0 40 -22l140 -138q22 -26 22 -44q0 -12 -12 -25t-28 -13q-22 0 -42 22l-138 138q-24 24 -24 42z" />
<glyph unicode="&#x1eb1;" horiz-adv-x="1068" d="M120 240q0 84 20 146t54 99t88 58t114 29t140 8h304v128q0 70 -26 100t-94 30h-282q-234 0 -234 -130q0 -60 -44 -60q-40 0 -40 60q0 108 85 161t219 53h310q110 0 150 -54t40 -194v-628q0 -60 -42 -60t-42 60v98q-108 -144 -330 -144h-186q-90 0 -147 65t-57 175z M204 230q0 -56 37 -101t83 -45h186q158 0 244 96t86 276v40h-304q-96 0 -149 -7t-99 -34t-65 -81t-19 -144zM292 1286h86q0 -68 39 -111t105 -43t105 43t39 111h86q0 -96 -68 -169t-162 -73t-162 73t-68 169zM314 1446q0 12 13 26t29 14q20 0 40 -22l140 -138q22 -26 22 -44 q0 -12 -12 -25t-28 -13q-22 0 -42 22l-138 138q-24 24 -24 42z" />
<glyph unicode="&#x1eb2;" horiz-adv-x="1084" d="M40 20q0 12 6 24l450 1060h92l450 -1060q6 -12 6 -24q0 -34 -42 -34q-34 0 -50 34l-144 344h-532l-144 -344q-14 -34 -50 -34q-42 0 -42 34zM310 1400h86q0 -68 39 -111t105 -43t105 43t39 111h86q0 -96 -68 -169t-162 -73t-162 73t-68 169zM312 448h460l-232 546z M432 1540q0 46 41 76t89 30q50 0 83 -34t33 -92q0 -48 -54 -80t-54 -66q0 -28 -30 -28q-14 0 -26 8t-12 20q0 52 54 85t54 71q0 22 -16 36t-36 14q-58 0 -58 -40q0 -26 -34 -26t-34 26z" />
<glyph unicode="&#x1eb3;" horiz-adv-x="1068" d="M120 240q0 84 20 146t54 99t88 58t114 29t140 8h304v128q0 70 -26 100t-94 30h-282q-234 0 -234 -130q0 -60 -44 -60q-40 0 -40 60q0 108 85 161t219 53h310q110 0 150 -54t40 -194v-628q0 -60 -42 -60t-42 60v98q-108 -144 -330 -144h-186q-90 0 -147 65t-57 175z M204 230q0 -56 37 -101t83 -45h186q158 0 244 96t86 276v40h-304q-96 0 -149 -7t-99 -34t-65 -81t-19 -144zM292 1286h86q0 -68 39 -111t105 -43t105 43t39 111h86q0 -96 -68 -169t-162 -73t-162 73t-68 169zM414 1426q0 46 41 76t89 30q50 0 83 -34t33 -92q0 -48 -54 -80 t-54 -66q0 -28 -30 -28q-14 0 -26 8t-12 20q0 52 54 85t54 71q0 22 -16 36t-36 14q-58 0 -58 -40q0 -26 -34 -26t-34 26z" />
<glyph unicode="&#x1eb4;" horiz-adv-x="1084" d="M40 20q0 12 6 24l450 1060h92l450 -1060q6 -12 6 -24q0 -34 -42 -34q-34 0 -50 34l-144 344h-532l-144 -344q-14 -34 -50 -34q-42 0 -42 34zM272 1500q0 26 24 44l94 78q10 14 30 14q6 0 22 -4l196 -72q8 -4 14 -4q8 0 22 10l62 56q22 16 38 16t29 -10t13 -26 q0 -24 -24 -46l-94 -78q-14 -14 -32 -14q-8 0 -20 4l-196 72q-8 4 -16 4t-22 -10l-62 -56q-22 -16 -38 -16q-14 0 -27 11t-13 27zM310 1400h86q0 -68 39 -111t105 -43t105 43t39 111h86q0 -96 -68 -169t-162 -73t-162 73t-68 169zM312 448h460l-232 546z" />
<glyph unicode="&#x1eb5;" horiz-adv-x="1068" d="M120 240q0 84 20 146t54 99t88 58t114 29t140 8h304v128q0 70 -26 100t-94 30h-282q-234 0 -234 -130q0 -60 -44 -60q-40 0 -40 60q0 108 85 161t219 53h310q110 0 150 -54t40 -194v-628q0 -60 -42 -60t-42 60v98q-108 -144 -330 -144h-186q-90 0 -147 65t-57 175z M204 230q0 -56 37 -101t83 -45h186q158 0 244 96t86 276v40h-304q-96 0 -149 -7t-99 -34t-65 -81t-19 -144zM292 1386q0 26 24 44l94 78q10 14 30 14q6 0 22 -4l196 -72q8 -4 14 -4q8 0 22 10l62 56q22 16 38 16t29 -10t13 -26q0 -24 -24 -46l-94 -78q-14 -14 -32 -14 q-8 0 -20 4l-196 72q-8 4 -16 4t-22 -10l-62 -56q-22 -16 -38 -16q-14 0 -27 11t-13 27zM330 1286h86q0 -68 39 -111t105 -43t105 43t39 111h86q0 -96 -68 -169t-162 -73t-162 73t-68 169z" />
<glyph unicode="&#x1eb6;" horiz-adv-x="1096" d="M46 8q0 12 6 28l450 1236h92l450 -1236q6 -16 6 -28q0 -40 -42 -40q-28 0 -44 40l-144 400h-544l-144 -400q-18 -40 -44 -40q-42 0 -42 40zM308 492h480l-242 658zM318 1638h86q0 -68 39 -111t105 -43t105 43t39 111h86q0 -96 -68 -169t-162 -73t-162 73t-68 169z M456 -208q0 28 30 50t62 22q30 0 61 -22t31 -50t-31 -50t-61 -22q-32 0 -62 22t-30 50z" />
<glyph unicode="&#x1eb7;" horiz-adv-x="1068" d="M120 240q0 84 20 146t54 99t88 58t114 29t140 8h304v128q0 70 -26 100t-94 30h-282q-234 0 -234 -130q0 -60 -44 -60q-40 0 -40 60q0 108 85 161t219 53h310q110 0 150 -54t40 -194v-628q0 -60 -42 -60t-42 60v98q-108 -144 -330 -144h-186q-90 0 -147 65t-57 175z M204 230q0 -56 37 -101t83 -45h186q158 0 244 96t86 276v40h-304q-96 0 -149 -7t-99 -34t-65 -81t-19 -144zM292 1286h86q0 -68 39 -111t105 -43t105 43t39 111h86q0 -96 -68 -169t-162 -73t-162 73t-68 169zM426 -208q0 28 30 50t62 22q30 0 61 -22t31 -50t-31 -50t-61 -22 q-32 0 -62 22t-30 50z" />
<glyph unicode="&#x1eb8;" horiz-adv-x="1154" d="M168 62v1148q0 62 38 62h792q58 0 58 -46q0 -38 -58 -38h-746v-430h510q60 0 60 -46q0 -38 -60 -38h-510v-590h746q58 0 58 -46q0 -38 -58 -38h-792q-38 0 -38 62zM510 -194q0 28 30 50t62 22q30 0 61 -22t31 -50t-31 -50t-61 -22q-32 0 -62 22t-30 50z" />
<glyph unicode="&#x1eb9;" horiz-adv-x="1132" d="M124 350v222q0 210 102 280t314 70h58q210 0 312 -70t102 -280v-72h-804v-150q0 -90 19 -144t65 -81t99 -34t149 -7h268q68 0 94 30t26 104q0 56 42 56t42 -62q0 -44 -6 -76t-23 -66t-58 -52t-103 -18h-282q-212 0 -314 70t-102 280zM208 584h720q0 162 -74 208t-256 46 h-58q-184 0 -258 -46t-74 -208zM476 -194q0 28 30 50t62 22q30 0 61 -22t31 -50t-31 -50t-61 -22q-32 0 -62 22t-30 50z" />
<glyph unicode="&#x1eba;" horiz-adv-x="1154" d="M168 62v1148q0 62 38 62h792q58 0 58 -46q0 -38 -58 -38h-746v-430h510q60 0 60 -46q0 -38 -60 -38h-510v-590h746q58 0 58 -46q0 -38 -58 -38h-792q-38 0 -38 62zM498 1538q0 46 41 76t89 30q50 0 83 -34t33 -92q0 -48 -54 -80t-54 -66q0 -28 -30 -28q-14 0 -26 8 t-12 20q0 52 54 85t54 71q0 22 -16 36t-36 14q-58 0 -58 -40q0 -26 -34 -26t-34 26z" />
<glyph unicode="&#x1ebb;" horiz-adv-x="1132" d="M124 350v222q0 210 102 280t314 70h58q210 0 312 -70t102 -280v-72h-804v-150q0 -90 19 -144t65 -81t99 -34t149 -7h268q68 0 94 30t26 104q0 56 42 56t42 -62q0 -44 -6 -76t-23 -66t-58 -52t-103 -18h-282q-212 0 -314 70t-102 280zM208 584h720q0 162 -74 208t-256 46 h-58q-184 0 -258 -46t-74 -208zM464 1236q0 46 41 76t89 30q50 0 83 -34t33 -92q0 -48 -54 -80t-54 -66q0 -28 -30 -28q-14 0 -26 8t-12 20q0 52 54 85t54 71q0 22 -16 36t-36 14q-58 0 -58 -40q0 -26 -34 -26t-34 26z" />
<glyph unicode="&#x1ebc;" horiz-adv-x="1154" d="M168 62v1148q0 62 38 62h792q58 0 58 -46q0 -38 -58 -38h-746v-430h510q60 0 60 -46q0 -38 -60 -38h-510v-590h746q58 0 58 -46q0 -38 -58 -38h-792q-38 0 -38 62zM330 1450q0 26 24 44l94 78q10 14 30 14q6 0 22 -4l196 -72q8 -4 14 -4q8 0 22 10l62 56q22 16 38 16 t29 -10t13 -26q0 -24 -24 -46l-94 -78q-14 -14 -32 -14q-8 0 -20 4l-196 72q-8 4 -16 4t-22 -10l-62 -56q-22 -16 -38 -16q-14 0 -27 11t-13 27z" />
<glyph unicode="&#x1ebd;" horiz-adv-x="1132" d="M124 350v222q0 210 102 280t314 70h58q210 0 312 -70t102 -280v-72h-804v-150q0 -90 19 -144t65 -81t99 -34t149 -7h268q68 0 94 30t26 104q0 56 42 56t42 -62q0 -44 -6 -76t-23 -66t-58 -52t-103 -18h-282q-212 0 -314 70t-102 280zM208 584h720q0 162 -74 208t-256 46 h-58q-184 0 -258 -46t-74 -208zM296 1082q0 26 24 44l94 78q10 14 30 14q6 0 22 -4l196 -72q8 -4 14 -4q8 0 22 10l62 56q22 16 38 16t29 -10t13 -26q0 -24 -24 -46l-94 -78q-14 -14 -32 -14q-8 0 -20 4l-196 72q-8 4 -16 4t-22 -10l-62 -56q-22 -16 -38 -16q-14 0 -27 11 t-13 27z" />
<glyph unicode="&#x1ebe;" horiz-adv-x="1158" d="M160 62v980q0 62 38 62h792q58 0 58 -46q0 -38 -58 -38h-746v-384h510q60 0 60 -46q0 -38 -60 -38h-510v-468h746q58 0 58 -46q0 -38 -58 -38h-792q-38 0 -38 62zM306 1202q0 18 8 26l208 274h110l212 -274q8 -10 8 -26q0 -36 -36 -36q-8 0 -15 3t-10 6t-11 13t-12 14 l-188 208h-6l-184 -208q-4 -4 -11 -12t-10 -11t-8 -7t-9 -5t-10 -1q-36 0 -36 36zM746 1396q0 20 24 44l138 138q20 22 42 22q16 0 28 -14t12 -26q0 -16 -22 -42l-140 -138q-20 -22 -40 -22q-16 0 -29 13t-13 25z" />
<glyph unicode="&#x1ebf;" horiz-adv-x="1132" d="M124 350v222q0 210 102 280t314 70h58q210 0 312 -70t102 -280v-72h-804v-150q0 -90 19 -144t65 -81t99 -34t149 -7h268q68 0 94 30t26 104q0 56 42 56t42 -62q0 -44 -6 -76t-23 -66t-58 -52t-103 -18h-282q-212 0 -314 70t-102 280zM208 584h720q0 162 -74 208t-256 46 h-58q-184 0 -258 -46t-74 -208zM294 1072q0 18 8 26l208 274h110l212 -274q8 -10 8 -26q0 -36 -36 -36q-8 0 -15 3t-10 6t-11 13t-12 14l-188 208h-6l-184 -208q-4 -4 -11 -12t-10 -11t-8 -7t-9 -5t-10 -1q-36 0 -36 36zM734 1266q0 20 24 44l138 138q20 22 42 22 q16 0 28 -14t12 -26q0 -16 -22 -42l-140 -138q-20 -22 -40 -22q-16 0 -29 13t-13 25z" />
<glyph unicode="&#x1ec0;" horiz-adv-x="1156" d="M160 62v980q0 62 38 62h792q58 0 58 -46q0 -38 -58 -38h-746v-384h510q60 0 60 -46q0 -38 -60 -38h-510v-468h746q58 0 58 -46q0 -38 -58 -38h-792q-38 0 -38 62zM166 1544q0 12 13 26t29 14q20 0 40 -22l140 -138q22 -26 22 -44q0 -12 -12 -25t-28 -13q-22 0 -42 22 l-138 138q-24 24 -24 42zM306 1186q0 18 8 26l208 274h110l212 -274q8 -10 8 -26q0 -36 -36 -36q-8 0 -15 3t-10 6t-11 13t-12 14l-188 208h-6l-184 -208q-4 -4 -11 -12t-10 -11t-8 -7t-9 -5t-10 -1q-36 0 -36 36z" />
<glyph unicode="&#x1ec1;" horiz-adv-x="1132" d="M124 350v222q0 210 102 280t314 70h58q210 0 312 -70t102 -280v-72h-804v-150q0 -90 19 -144t65 -81t99 -34t149 -7h268q68 0 94 30t26 104q0 56 42 56t42 -62q0 -44 -6 -76t-23 -66t-58 -52t-103 -18h-282q-212 0 -314 70t-102 280zM154 1430q0 12 13 26t29 14 q20 0 40 -22l140 -138q22 -26 22 -44q0 -12 -12 -25t-28 -13q-22 0 -42 22l-138 138q-24 24 -24 42zM208 584h720q0 162 -74 208t-256 46h-58q-184 0 -258 -46t-74 -208zM294 1072q0 18 8 26l208 274h110l212 -274q8 -10 8 -26q0 -36 -36 -36q-8 0 -15 3t-10 6t-11 13 t-12 14l-188 208h-6l-184 -208q-4 -4 -11 -12t-10 -11t-8 -7t-9 -5t-10 -1q-36 0 -36 36z" />
<glyph unicode="&#x1ec2;" horiz-adv-x="1156" d="M162 62v980q0 62 38 62h792q58 0 58 -46q0 -38 -58 -38h-746v-384h510q60 0 60 -46q0 -38 -60 -38h-510v-468h746q58 0 58 -46q0 -38 -58 -38h-792q-38 0 -38 62zM308 1162q0 18 8 26l208 274h110l212 -274q8 -10 8 -26q0 -36 -36 -36q-8 0 -15 3t-10 6t-11 13t-12 14 l-188 208h-6l-184 -208q-32 -36 -48 -36q-36 0 -36 36zM742 1538q0 46 41 76t89 30q50 0 83 -34t33 -92q0 -48 -54 -80t-54 -66q0 -28 -30 -28q-14 0 -26 8t-12 20q0 52 54 85t54 71q0 22 -16 36t-36 14q-58 0 -58 -40q0 -26 -34 -26t-34 26z" />
<glyph unicode="&#x1ec3;" horiz-adv-x="1132" d="M124 350v222q0 210 102 280t314 70h58q210 0 312 -70t102 -280v-72h-804v-150q0 -90 19 -144t65 -81t99 -34t149 -7h268q68 0 94 30t26 104q0 56 42 56t42 -62q0 -44 -6 -76t-23 -66t-58 -52t-103 -18h-282q-212 0 -314 70t-102 280zM208 584h720q0 162 -74 208t-256 46 h-58q-184 0 -258 -46t-74 -208zM294 1072q0 18 8 26l208 274h110l212 -274q8 -10 8 -26q0 -36 -36 -36q-8 0 -15 3t-10 6t-11 13t-12 14l-188 208h-6l-184 -208q-4 -4 -11 -12t-10 -11t-8 -7t-9 -5t-10 -1q-36 0 -36 36zM728 1448q0 46 41 76t89 30q50 0 83 -34t33 -92 q0 -48 -54 -80t-54 -66q0 -28 -30 -28q-14 0 -26 8t-12 20q0 52 54 85t54 71q0 22 -16 36t-36 14q-58 0 -58 -40q0 -26 -34 -26t-34 26z" />
<glyph unicode="&#x1ec4;" horiz-adv-x="1156" d="M162 62v980q0 62 38 62h792q58 0 58 -46q0 -38 -58 -38h-746v-384h510q60 0 60 -46q0 -38 -60 -38h-510v-468h746q58 0 58 -46q0 -38 -58 -38h-792q-38 0 -38 62zM308 1162q0 18 8 26l208 274h110l212 -274q8 -10 8 -26q0 -36 -36 -36q-8 0 -15 3t-10 6t-11 13t-12 14 l-188 208h-6l-184 -208q-32 -36 -48 -36q-36 0 -36 36zM308 1500q0 26 24 44l94 78q10 14 30 14q6 0 22 -4l196 -72q8 -4 14 -4q8 0 22 10l62 56q22 16 38 16t29 -10t13 -26q0 -24 -24 -46l-94 -78q-14 -14 -32 -14q-8 0 -20 4l-196 72q-8 4 -16 4t-22 -10l-62 -56 q-22 -16 -38 -16q-14 0 -27 11t-13 27z" />
<glyph unicode="&#x1ec5;" horiz-adv-x="1132" d="M124 350v222q0 210 102 280t314 70h58q210 0 312 -70t102 -280v-72h-804v-150q0 -90 19 -144t65 -81t99 -34t149 -7h268q68 0 94 30t26 104q0 56 42 56t42 -62q0 -44 -6 -76t-23 -66t-58 -52t-103 -18h-282q-212 0 -314 70t-102 280zM208 584h720q0 162 -74 208t-256 46 h-58q-184 0 -258 -46t-74 -208zM294 1072q0 18 8 26l208 274h110l212 -274q8 -10 8 -26q0 -36 -36 -36q-8 0 -15 3t-10 6t-11 13t-12 14l-188 208h-6l-184 -208q-4 -4 -11 -12t-10 -11t-8 -7t-9 -5t-10 -1q-36 0 -36 36zM294 1410q0 26 24 44l94 78q10 14 30 14q6 0 22 -4 l196 -72q8 -4 14 -4q8 0 22 10l62 56q22 16 38 16t29 -10t13 -26q0 -24 -24 -46l-94 -78q-14 -14 -32 -14q-8 0 -20 4l-196 72q-8 4 -16 4t-22 -10l-62 -56q-22 -16 -38 -16q-14 0 -27 11t-13 27z" />
<glyph unicode="&#x1ec6;" horiz-adv-x="1154" d="M168 62v1148q0 62 38 62h792q58 0 58 -46q0 -38 -58 -38h-746v-430h510q60 0 60 -46q0 -38 -60 -38h-510v-590h746q58 0 58 -46q0 -38 -58 -38h-792q-38 0 -38 62zM328 1338q0 18 8 26l208 274h110l212 -274q8 -10 8 -26q0 -36 -36 -36q-8 0 -15 3t-10 6t-11 13t-12 14 l-188 208h-6l-184 -208q-32 -36 -48 -36q-36 0 -36 36zM510 -194q0 28 30 50t62 22q30 0 61 -22t31 -50t-31 -50t-61 -22q-32 0 -62 22t-30 50z" />
<glyph unicode="&#x1ec7;" horiz-adv-x="1132" d="M124 350v222q0 210 102 280t314 70h58q210 0 312 -70t102 -280v-72h-804v-150q0 -90 19 -144t65 -81t99 -34t149 -7h268q68 0 94 30t26 104q0 56 42 56t42 -62q0 -44 -6 -76t-23 -66t-58 -52t-103 -18h-282q-212 0 -314 70t-102 280zM208 584h720q0 162 -74 208t-256 46 h-58q-184 0 -258 -46t-74 -208zM296 1080q0 18 8 26l208 274h110l212 -274q8 -10 8 -26q0 -36 -36 -36q-8 0 -15 3t-10 6t-11 13t-12 14l-188 208h-6l-184 -208q-32 -36 -48 -36q-36 0 -36 36zM476 -194q0 28 30 50t62 22q30 0 61 -22t31 -50t-31 -50t-61 -22q-32 0 -62 22 t-30 50z" />
<glyph unicode="&#x1ec8;" horiz-adv-x="420" d="M106 1538q0 46 41 76t89 30q50 0 83 -34t33 -92q0 -48 -54 -80t-54 -66q0 -28 -30 -28q-14 0 -26 8t-12 20q0 52 54 85t54 71q0 22 -16 36t-36 14q-58 0 -58 -40q0 -26 -34 -26t-34 26zM168 40v1190q0 56 42 56t42 -56v-1190q0 -54 -44 -54q-40 0 -40 54z" />
<glyph unicode="&#x1ec9;" horiz-adv-x="380" d="M84 1250q0 46 41 76t89 30q50 0 83 -34t33 -92q0 -48 -54 -80t-54 -66q0 -28 -30 -28q-14 0 -26 8t-12 20q0 52 54 85t54 71q0 22 -16 36t-36 14q-58 0 -58 -40q0 -26 -34 -26t-34 26zM148 40v840q0 56 42 56t42 -56v-840q0 -54 -44 -54q-40 0 -40 54z" />
<glyph unicode="&#x1eca;" horiz-adv-x="420" d="M116 -208q0 28 30 50t62 22q30 0 61 -22t31 -50t-31 -50t-61 -22q-32 0 -62 22t-30 50zM168 40v1190q0 56 42 56t42 -56v-1190q0 -54 -44 -54q-40 0 -40 54z" />
<glyph unicode="&#x1ecb;" horiz-adv-x="380" d="M96 -208q0 28 30 50t62 22q30 0 61 -22t31 -50t-31 -50t-61 -22q-32 0 -62 22t-30 50zM98 1202q0 28 30 50t62 22q30 0 61 -22t31 -50t-31 -50t-61 -22q-32 0 -62 22t-30 50zM148 40v840q0 56 42 56t42 -56v-840q0 -54 -44 -54q-40 0 -40 54z" />
<glyph unicode="&#x1ecc;" horiz-adv-x="1148" d="M130 454v364q0 220 125 346t319 126t319 -126t125 -346v-364q0 -220 -125 -346t-319 -126t-319 126t-125 346zM214 454q0 -182 96 -285t264 -103t264 103t96 285v364q0 182 -96 285t-264 103t-264 -103t-96 -285v-364zM482 -212q0 28 30 50t62 22q30 0 61 -22t31 -50 t-31 -50t-61 -22q-32 0 -62 22t-30 50z" />
<glyph unicode="&#x1ecd;" horiz-adv-x="1136" d="M124 350v222q0 210 102 280t314 70h58q210 0 312 -70t102 -280v-222q0 -210 -102 -280t-312 -70h-58q-212 0 -314 70t-102 280zM208 350q0 -90 19 -144t65 -81t99 -34t149 -7h58q94 0 147 7t99 34t65 81t19 144v222q0 90 -19 144t-65 81t-99 34t-147 7h-58q-96 0 -149 -7 t-99 -34t-65 -81t-19 -144v-222zM476 -194q0 28 30 50t62 22q30 0 61 -22t31 -50t-31 -50t-61 -22q-32 0 -62 22t-30 50z" />
<glyph unicode="&#x1ece;" horiz-adv-x="1148" d="M130 454v364q0 220 125 346t319 126t319 -126t125 -346v-364q0 -220 -125 -346t-319 -126t-319 126t-125 346zM214 454q0 -182 96 -285t264 -103t264 103t96 285v364q0 182 -96 285t-264 103t-264 -103t-96 -285v-364zM468 1538q0 46 41 76t89 30q50 0 83 -34t33 -92 q0 -48 -54 -80t-54 -66q0 -28 -30 -28q-14 0 -26 8t-12 20q0 52 54 85t54 71q0 22 -16 36t-36 14q-58 0 -58 -40q0 -26 -34 -26t-34 26z" />
<glyph unicode="&#x1ecf;" horiz-adv-x="1136" d="M124 350v222q0 210 102 280t314 70h58q210 0 312 -70t102 -280v-222q0 -210 -102 -280t-312 -70h-58q-212 0 -314 70t-102 280zM208 350q0 -90 19 -144t65 -81t99 -34t149 -7h58q94 0 147 7t99 34t65 81t19 144v222q0 90 -19 144t-65 81t-99 34t-147 7h-58q-96 0 -149 -7 t-99 -34t-65 -81t-19 -144v-222zM464 1236q0 46 41 76t89 30q50 0 83 -34t33 -92q0 -48 -54 -80t-54 -66q0 -28 -30 -28q-14 0 -26 8t-12 20q0 52 54 85t54 71q0 22 -16 36t-36 14q-58 0 -58 -40q0 -26 -34 -26t-34 26z" />
<glyph unicode="&#x1ed0;" horiz-adv-x="1108" d="M110 454v196q0 220 125 346t319 126t319 -126t125 -346v-196q0 -220 -125 -346t-319 -126t-319 126t-125 346zM194 454q0 -182 96 -285t264 -103t264 103t96 285v196q0 182 -96 285t-264 103t-264 -103t-96 -285v-196zM280 1162q0 18 8 26l208 274h110l212 -274 q8 -10 8 -26q0 -36 -36 -36q-8 0 -15 3t-10 6t-11 13t-12 14l-188 208h-6l-184 -208q-32 -36 -48 -36q-36 0 -36 36zM720 1356q0 20 24 44l138 138q20 22 42 22q16 0 28 -14t12 -26q0 -16 -22 -42l-140 -138q-20 -22 -40 -22q-16 0 -29 13t-13 25z" />
</font>
</defs>
</svg>
