<?xml version="1.0" standalone="no"?>
<!DOCTYPE svg PUBLIC "-//W3C//DTD SVG 1.1//EN" "http://www.w3.org/Graphics/SVG/1.1/DTD/svg11.dtd" >
<svg xmlns="http://www.w3.org/2000/svg">
<metadata>
This is a custom SVG webfont generated by Font Squirrel.
Copyright   : Copyright 2009 2010 2011 by Daniel Johnson  Released under the terms of the Open Font License
</metadata>
<defs>
<font id="JuraBook" horiz-adv-x="1196" >
<font-face units-per-em="2048" ascent="1638" descent="-410" />
<missing-glyph horiz-adv-x="520" />
<glyph unicode=" "  horiz-adv-x="520" />
<glyph unicode="&#x09;" horiz-adv-x="520" />
<glyph unicode="&#xa0;" horiz-adv-x="520" />
<glyph unicode="!" horiz-adv-x="488" d="M142 58q0 34 35 58t67 24q34 0 69 -24t35 -58t-34 -58t-70 -24q-32 0 -67 24t-35 58zM192 394v838q0 66 52 66t52 -66v-838q0 -66 -54 -66q-50 0 -50 66z" />
<glyph unicode="&#x22;" horiz-adv-x="590" d="M142 932v298q0 66 52 66q50 0 50 -66v-298q0 -66 -52 -66q-50 0 -50 66zM344 932v298q0 66 52 66t52 -66v-298q0 -66 -54 -66q-50 0 -50 66z" />
<glyph unicode="#" horiz-adv-x="1206" d="M88 452q0 52 66 52h170l96 264h-206q-64 0 -64 54q0 50 64 50h244l124 340q20 48 52 48q52 0 52 -50q0 -10 -6 -34l-114 -304h248l124 340q18 48 54 48q24 0 38 -16t14 -36q0 -14 -6 -32l-112 -304h126q66 0 66 -52t-66 -52h-164l-96 -264h198q66 0 66 -54q0 -50 -66 -50 h-236l-124 -340q-16 -48 -54 -48q-52 0 -52 52q0 14 6 32l114 304h-250l-122 -340q-16 -48 -54 -48q-50 0 -50 50q0 10 6 34l112 304h-132q-66 0 -66 52zM434 504h246l96 264h-246z" />
<glyph unicode="$" horiz-adv-x="1174" d="M122 400q0 68 52 68t52 -64q0 -70 24 -96t86 -26h208v320h-164q-258 0 -258 262q0 118 59 180t199 62h164v114q0 66 52 66t52 -64v-114h202q64 0 106 -18t62 -53t26 -69t6 -82q0 -68 -52 -68t-52 64q0 70 -24 95t-86 25h-188v-296h150q140 0 198 -78t58 -196 q0 -252 -256 -252h-150v-130q0 -64 -54 -64q-50 0 -50 62v130h-222q-64 0 -106 18t-62 53t-26 69t-6 82zM226 868q0 -78 33 -120t85 -42h200v296h-200q-118 0 -118 -134zM648 282h184q118 0 118 146q0 76 -33 125t-85 49h-184v-320z" />
<glyph unicode="%" horiz-adv-x="1118" d="M138 292q0 24 24 48l722 692q26 24 48 24q16 0 33 -15t17 -35q0 -22 -24 -48l-720 -692q-26 -24 -50 -24q-16 0 -33 15t-17 35zM162 932q0 68 49 116t117 48q70 0 119 -48t49 -116t-49 -116t-119 -48q-68 0 -117 48t-49 116zM268 932q0 -24 18 -42t42 -18q22 0 41 17 t19 43t-19 43t-41 17q-24 0 -42 -18t-18 -42zM624 366q0 68 50 116t120 48q68 0 116 -48t48 -116t-48 -116t-116 -48q-70 0 -120 48t-50 116zM734 366q0 -24 18 -42t42 -18q26 0 43 18t17 42q0 26 -18 43t-42 17t-42 -17t-18 -43z" />
<glyph unicode="&#x26;" horiz-adv-x="1016" d="M78 364q0 98 41 194t127 156l-22 26q-96 116 -96 212q0 152 113 252t245 100q64 0 121 -34t91 -79t54 -83t20 -52q0 -20 -15 -35t-37 -15q-24 0 -47 30t-42 67t-58 67t-89 30q-94 0 -171 -68t-77 -180q0 -72 76 -158l472 -544q58 86 58 204q0 72 54 72q48 0 48 -72 q0 -160 -90 -286l92 -104q14 -16 14 -42q0 -24 -14 -35t-30 -11q-30 0 -60 32l-70 82q-134 -118 -290 -118q-68 0 -137 21t-134 64t-106 123t-41 184zM182 364q0 -150 96 -219t218 -69q118 0 222 92l-404 470q-132 -84 -132 -274z" />
<glyph unicode="'" horiz-adv-x="388" d="M142 932v298q0 66 52 66q50 0 50 -66v-298q0 -66 -52 -66q-50 0 -50 66z" />
<glyph unicode="(" horiz-adv-x="496" d="M146 266v740q0 122 15 196t53 109t79 45t113 10v-104q-42 0 -62 -1t-42 -10t-29 -22t-14 -46t-8 -71t-1 -106v-740q0 -68 1 -106t8 -71t14 -46t29 -22t42 -10t62 -1v-104q-72 0 -113 10t-79 45t-53 109t-15 196z" />
<glyph unicode=")" horiz-adv-x="496" d="M90 10q42 0 62 1t42 10t29 22t14 46t8 71t1 106v740q0 68 -1 106t-8 71t-14 46t-29 22t-42 10t-62 1v104q72 0 113 -10t79 -45t53 -109t15 -196v-740q0 -122 -15 -196t-53 -109t-79 -45t-113 -10v104z" />
<glyph unicode="*" horiz-adv-x="794" d="M130 858q0 30 36 52l126 74l-126 70q-36 22 -36 52q0 14 12 32t36 18q16 0 40 -12l126 -72v144q0 66 54 66q50 0 50 -66v-144l126 72q24 12 40 12q22 0 36 -16t14 -34q0 -28 -38 -52l-124 -70l124 -74q38 -24 38 -52q0 -14 -13 -32t-37 -18q-16 0 -40 12l-126 72v-144 q0 -66 -52 -66t-52 66v144l-126 -72q-24 -12 -40 -12q-20 0 -34 16t-14 34z" />
<glyph unicode="+" horiz-adv-x="1036" d="M76 462q0 52 62 52h328v366q0 66 54 66q50 0 50 -66v-366h324q68 0 68 -56q0 -22 -19 -36t-49 -14h-324v-368q0 -64 -52 -64t-52 64v368h-328q-62 0 -62 54z" />
<glyph unicode="," horiz-adv-x="420" d="M98 -120q0 8 6 32l48 174q14 46 50 46q22 0 52 -12t30 -38q0 -20 -10 -38l-82 -166q-20 -48 -50 -48q-44 0 -44 50z" />
<glyph unicode="-" horiz-adv-x="912" d="M146 462q0 52 62 52h490q68 0 68 -56q0 -22 -19 -36t-49 -14h-490q-62 0 -62 54z" />
<glyph unicode="." horiz-adv-x="464" d="M130 58q0 34 34 58t68 24q32 0 67 -24t35 -58t-35 -58t-67 -24q-34 0 -68 24t-34 58z" />
<glyph unicode="/" horiz-adv-x="718" d="M86 22q0 12 6 36l436 1196q16 46 50 46q18 0 36 -11t18 -37q0 -15 -6 -36l-436 -1196q-16 -46 -52 -46q-18 0 -35 11t-17 37z" />
<glyph unicode="0" horiz-adv-x="1232" d="M152 308v656q0 140 101 229t255 89h216q154 0 255 -89t101 -229v-656q0 -140 -101 -229t-255 -89h-216q-154 0 -255 89t-101 229zM256 276q0 -68 67 -125t167 -57h252q100 0 167 57t67 125v718q0 68 -67 125t-167 57h-252q-100 0 -167 -57t-67 -125v-718z" />
<glyph unicode="1" horiz-adv-x="506" d="M70 1168q0 26 28 52l122 124q30 26 56 26q18 0 36 -14t18 -42v-1264q0 -64 -52 -64t-52 64v1150l-50 -48q-26 -28 -58 -28q-26 0 -37 14t-11 30z" />
<glyph unicode="2" horiz-adv-x="1174" d="M126 -10v98q0 142 85 251t205 176t241 124t206 127t85 154q0 166 -70 212t-258 46h-282q-64 0 -86 -27t-22 -93q0 -70 -54 -70q-50 0 -50 70q0 120 46 172t152 52h296q222 0 327 -73t105 -289q0 -100 -83 -181t-203 -142l-240 -126q-120 -65 -206 -161t-90 -216h752 q70 0 70 -54q0 -50 -70 -50h-856z" />
<glyph unicode="3" horiz-adv-x="1192" d="M124 212q0 72 52 72t52 -66q0 -56 91 -90t185 -34h168q158 0 218 61t60 177q0 106 -128 186t-244 80q-78 0 -78 54q0 52 78 52q124 0 248 66t124 170q0 116 -60 177t-218 61h-168q-94 0 -185 -34t-91 -90q0 -66 -52 -66t-52 70q0 90 99 157t267 67h160q218 0 310 -85 t92 -295q0 -66 -88 -144t-166 -106q74 -22 164 -117t90 -165q0 -210 -92 -295t-310 -85h-160q-168 0 -267 67t-99 155z" />
<glyph unicode="4" horiz-adv-x="1070" d="M66 340v126l628 816h132v-838h112q64 0 64 -52t-64 -52h-112v-292q0 -62 -52 -62q-54 0 -54 62v292h-654zM170 444h550v714z" />
<glyph unicode="5" horiz-adv-x="1138" d="M128 190q0 20 16 36t32 16q10 0 65 -39t145 -78t186 -39q172 0 266 98t94 274q0 86 -31 151t-81 99t-99 50t-97 16h-484l18 250q10 144 62 201t166 57h502q64 0 64 -54q0 -50 -64 -50h-514q-50 0 -76 -26t-32 -94l-12 -180h352q168 0 299 -114t131 -306q0 -222 -129 -349 t-335 -127q-126 0 -285 70t-159 138z" />
<glyph unicode="6" horiz-adv-x="1112" d="M104 418q0 174 44 327t106 249t132 165t122 99t76 30q58 0 58 -46q0 -32 -44 -54q-104 -54 -199 -165t-145 -273q128 106 314 106q200 0 332 -123t132 -313q0 -192 -132 -315t-332 -123q-202 0 -333 122t-131 314zM208 420q0 -152 96 -243t264 -91t264 91t96 243 q0 150 -96 241t-264 91t-264 -91t-96 -241z" />
<glyph unicode="7" horiz-adv-x="996" d="M58 1068q0 120 47 172t153 52h640q52 0 52 -46q0 -18 -8 -42l-436 -1172q-20 -52 -54 -52q-20 0 -39 11t-19 37q0 20 10 42l422 1118h-552q-64 0 -88 -27t-24 -93q0 -70 -52 -70t-52 70z" />
<glyph unicode="8" horiz-adv-x="1220" d="M146 348q0 224 128 304q-128 70 -128 292q0 92 22 156t55 99t94 54t117 24t146 5h62q88 0 144 -5t117 -24t94 -54t55 -99t22 -156q0 -222 -126 -292q126 -80 126 -304q0 -112 -29 -185t-90 -110t-133 -50t-180 -13h-62q-86 0 -147 7t-118 30t-92 61t-56 103t-21 157z M250 944q0 -70 14 -114t33 -69t68 -37t89 -14t126 -2h62q72 0 106 1t81 8t66 21t40 40t28 67t7 99q0 50 -7 86t-16 62t-33 42t-43 25t-62 13t-74 5t-93 1h-62q-88 0 -126 -2t-88 -13t-69 -36t-33 -69t-14 -114zM250 348q0 -86 17 -138t63 -77t99 -32t151 -7h62q98 0 150 7 t98 32t63 77t17 138q0 164 -70 210t-258 46h-62q-96 0 -150 -7t-100 -33t-63 -78t-17 -138z" />
<glyph unicode="9" horiz-adv-x="1112" d="M84 942q0 90 38 156t91 100t128 54t128 25t111 5q432 0 432 -342q0 -212 -63 -398t-164 -309t-229 -194t-260 -71q-62 0 -62 54q0 52 62 52q70 0 153 35t169 102t158 187t106 270q-102 -64 -302 -64q-496 0 -496 338zM188 942q0 -76 35 -127t99 -72t121 -28t137 -7 q178 0 253 60t75 172q0 238 -328 238q-392 0 -392 -236z" />
<glyph unicode=":" horiz-adv-x="496" d="M146 160q0 34 34 58t68 24q32 0 67 -24t35 -58t-35 -58t-67 -24q-34 0 -68 24t-34 58zM146 866q0 34 34 58t68 24q32 0 67 -24t35 -58t-35 -58t-67 -24q-34 0 -68 24t-34 58z" />
<glyph unicode=";" horiz-adv-x="502" d="M146 866q0 34 34 58t68 24q32 0 67 -24t35 -58t-35 -58t-67 -24q-34 0 -68 24t-34 58zM160 -18q0 8 6 32l48 174q14 46 50 46q22 0 52 -12t30 -38q0 -20 -10 -38l-82 -166q-20 -48 -50 -48q-44 0 -44 50z" />
<glyph unicode="&#x3c;" horiz-adv-x="1060" d="M66 666q0 30 36 50l728 420q16 12 40 12q22 0 36 -13t14 -33q0 -16 -12 -33t-26 -23l-662 -380l660 -384q40 -20 40 -50q0 -14 -12 -34t-36 -20q-20 0 -42 14l-728 420q-36 22 -36 54z" />
<glyph unicode="=" horiz-adv-x="936" d="M158 562q0 52 62 52h490q68 0 68 -56q0 -22 -19 -36t-49 -14h-490q-62 0 -62 54zM158 768q0 52 62 52h490q68 0 68 -56q0 -22 -19 -36t-49 -14h-490q-62 0 -62 54z" />
<glyph unicode="&#x3e;" horiz-adv-x="1060" d="M140 232q0 30 40 50l660 384l-662 380q-14 6 -26 23t-12 33q0 20 14 33t36 13q24 0 40 -12l728 -420q36 -20 36 -50q0 -32 -36 -54l-728 -420q-22 -14 -42 -14q-24 0 -36 20t-12 34z" />
<glyph unicode="?" horiz-adv-x="1072" d="M76 942q0 112 29 185t91 109t132 49t176 13h152q176 0 254 -97t78 -233q0 -134 -57 -208t-197 -112l-180 -50v-210q0 -66 -52 -66t-52 66v288l314 86q52 14 86 70t34 136q0 84 -47 155t-147 71h-186q-76 0 -121 -4t-89 -17t-65 -41t-34 -74t-13 -116q0 -66 -52 -66 q-54 0 -54 66zM400 58q0 34 34 58t68 24q32 0 67 -24t35 -58t-35 -58t-67 -24q-34 0 -68 24t-34 58z" />
<glyph unicode="@" horiz-adv-x="1186" d="M140 482v308q0 230 116 361t310 131h58q194 0 310 -131t116 -361q0 -64 -2 -104t-12 -89t-28 -79t-51 -61t-80 -48t-116 -28t-159 -11q-146 0 -199 68t-53 226q0 156 53 224t199 68t200 -68t54 -224q0 -102 -20 -164q64 18 87 74t23 216q0 184 -82 286t-240 102h-58 q-160 0 -241 -102t-81 -286v-308q0 -184 81 -286t241 -102h268q62 0 87 27t25 97q0 66 50 66q54 0 54 -72q0 -46 -7 -80t-26 -69t-62 -54t-107 -19h-282q-194 0 -310 131t-116 361zM454 664q0 -116 26 -153t122 -37q98 0 124 38t26 152t-26 151t-124 37q-96 0 -122 -37 t-26 -151z" />
<glyph unicode="A" horiz-adv-x="1140" d="M48 18q0 14 6 32l454 1222h124l454 -1222q6 -18 6 -32q0 -26 -18 -38t-34 -12q-34 0 -54 46l-142 384h-548l-142 -384q-20 -46 -54 -46q-16 0 -34 12t-18 38zM336 502h468l-236 618z" />
<glyph unicode="B" horiz-adv-x="1210" d="M168 1200q0 72 48 72h360q222 0 329 -62t107 -238q0 -152 -98 -224q92 -34 137 -111t45 -219v-58q0 -216 -107 -288t-337 -72h-436q-48 0 -48 72v1128zM272 768h304q184 0 258 38t74 156q0 126 -73 161t-259 35h-304v-390zM272 104h380q196 0 268 45t72 207v56 q0 162 -70 207t-258 45h-392v-560z" />
<glyph unicode="C" horiz-adv-x="1184" d="M144 360v552q0 216 106 288t328 72h294q64 0 107 -19t62 -54t25 -69t6 -82q0 -70 -52 -70t-52 66q0 70 -24 97t-86 27h-280q-96 0 -150 -7t-100 -33t-63 -78t-17 -138v-552q0 -166 72 -211t270 -45h268q64 0 87 28t23 96q0 66 52 66t52 -72q0 -46 -6 -80t-25 -69t-62 -54 t-107 -19h-282q-232 0 -339 72t-107 288z" />
<glyph unicode="D" horiz-adv-x="1240" d="M168 72v1128q0 72 48 72h448q108 0 180 -13t133 -51t90 -111t29 -185v-552q0 -216 -107 -288t-337 -72h-436q-48 0 -48 72zM272 104h380q196 0 268 45t72 211v552q0 164 -70 210t-258 46h-392v-1064z" />
<glyph unicode="E" d="M168 72v1128q0 72 48 72h812q68 0 68 -56q0 -48 -68 -48h-756v-400h518q72 0 72 -56q0 -48 -72 -48h-518v-560h756q68 0 68 -56q0 -48 -68 -48h-812q-48 0 -48 72z" />
<glyph unicode="F" horiz-adv-x="1154" d="M168 56v1144q0 72 48 72h812q68 0 68 -56q0 -48 -68 -48h-756v-400h518q72 0 72 -56q0 -48 -72 -48h-518v-610q0 -68 -52 -68t-52 70z" />
<glyph unicode="G" horiz-adv-x="1212" d="M144 354v564q0 212 107 283t339 71h282q64 0 107 -19t62 -54t25 -69t6 -80q0 -72 -52 -72t-52 68q0 66 -23 94t-87 28h-268q-198 0 -270 -45t-72 -207v-560q0 -162 71 -207t259 -45h280q64 0 87 27t23 93v268h-262q-72 0 -72 50q0 54 72 54h366v-378q0 -98 -39 -158 t-161 -60h-294q-110 0 -182 13t-133 49t-90 108t-29 184z" />
<glyph unicode="H" horiz-adv-x="1264" d="M168 54v1162q0 70 48 70q56 0 56 -70v-478h720v478q0 70 50 70q54 0 54 -70v-1162q0 -68 -50 -68q-54 0 -54 68v580h-720v-580q0 -68 -52 -68t-52 68z" />
<glyph unicode="I" horiz-adv-x="440" d="M168 50v1170q0 66 52 66t52 -66v-1170q0 -64 -54 -64q-50 0 -50 64z" />
<glyph unicode="J" horiz-adv-x="1100" d="M64 344q0 66 56 66q50 0 50 -66q0 -166 70 -211t262 -45q190 0 261 45t71 207v882q0 64 52 64t52 -66v-882q0 -112 -29 -184t-90 -108t-134 -49t-183 -13t-183 13t-135 50t-91 110t-29 187z" />
<glyph unicode="K" horiz-adv-x="1036" d="M168 50v1170q0 66 52 66t52 -66v-560l522 596q22 30 50 30q16 0 33 -14t17 -34q0 -22 -20 -48l-426 -478l558 -630q22 -26 22 -46t-18 -35t-34 -15q-26 0 -50 30l-548 628l-106 -128v-466q0 -64 -54 -64q-50 0 -50 64z" />
<glyph unicode="L" horiz-adv-x="1032" d="M168 70v1152q0 64 52 64t52 -64v-1118h646q66 0 66 -54q0 -50 -66 -50h-702q-48 0 -48 70z" />
<glyph unicode="M" horiz-adv-x="1306" d="M168 54v1162q0 70 48 70q36 0 60 -38l376 -556l378 556q26 38 58 38q50 0 50 -70v-1162q0 -68 -54 -68q-50 0 -50 70v1034l-346 -516q-12 -16 -36 -16q-22 0 -34 16l-346 516v-1034q0 -70 -52 -70t-52 68z" />
<glyph unicode="N" horiz-adv-x="1264" d="M168 54v1162q0 70 48 70q36 0 60 -38l716 -1056v1022q0 72 50 72q54 0 54 -70v-1162q0 -68 -50 -68q-28 0 -40 14l-734 1086v-1034q0 -66 -52 -66t-52 68z" />
<glyph unicode="O" horiz-adv-x="1188" d="M130 456v360q0 222 130 348t334 126t334 -127t130 -347v-360q0 -220 -130 -347t-334 -127t-334 126t-130 348zM234 458q0 -176 94 -274t266 -98t266 98t94 274v356q0 176 -94 274t-266 98t-266 -98t-94 -274v-356z" />
<glyph unicode="P" horiz-adv-x="1080" d="M168 50v1150q0 72 48 72h362q216 0 325 -66t109 -244q0 -150 -91 -229t-255 -79h-394v-604q0 -64 -54 -64q-50 0 -50 64zM272 758h306q184 0 257 40t73 164q0 128 -74 167t-256 39h-306v-410z" />
<glyph unicode="Q" horiz-adv-x="1188" d="M130 456v360q0 222 130 348t334 126t334 -127t130 -347v-360q0 -194 -98 -314l70 -68q22 -26 22 -48q0 -18 -14 -34t-34 -16q-26 0 -48 22l-70 70q-120 -86 -292 -86q-204 0 -334 126t-130 348zM234 458q0 -176 94 -274t266 -98q136 0 218 58l-112 104q-26 22 -26 46 q0 20 15 36t37 16q24 0 52 -26l108 -106q68 92 68 244v356q0 176 -94 274t-266 98t-266 -98t-94 -274v-356z" />
<glyph unicode="R" horiz-adv-x="1138" d="M168 50v1150q0 72 48 72h360q218 0 327 -66t109 -244q0 -250 -234 -298q66 -64 128 -214t92 -264t30 -136q0 -28 -15 -46t-39 -18t-37 19t-13 45t-28 132t-96 252t-152 210h-376v-594q0 -64 -54 -64q-50 0 -50 64zM272 748h304q186 0 259 40t73 164q0 128 -74 167 t-258 39h-304v-410z" />
<glyph unicode="S" horiz-adv-x="1198" d="M122 344q0 66 56 66q50 0 50 -66q0 -166 71 -211t269 -45h204q106 0 152 72t46 154q0 98 -39 159t-81 71l-470 104q-140 30 -199 105t-59 211q0 134 82 229t272 95h152q114 0 187 -13t137 -49t93 -108t29 -186q0 -66 -54 -66q-52 0 -52 66q0 166 -70 209t-270 43h-196 q-108 0 -157 -70t-49 -152q0 -80 35 -137t85 -67l474 -102q134 -30 194 -124t60 -220q0 -134 -79 -231t-261 -97h-166q-114 0 -188 13t-137 50t-92 110t-29 187z" />
<glyph unicode="T" horiz-adv-x="962" d="M54 1220q0 52 66 52h722q66 0 66 -54q0 -50 -66 -50h-304v-1118q0 -64 -58 -64q-52 0 -52 64v1118h-308q-66 0 -66 52z" />
<glyph unicode="U" horiz-adv-x="1240" d="M156 456v764q0 66 52 66t52 -64v-764q0 -176 94 -274t266 -98t266 98t94 274v764q0 64 54 64q50 0 50 -66v-764q0 -220 -130 -347t-334 -127t-334 126t-130 348z" />
<glyph unicode="V" horiz-adv-x="1140" d="M48 1254q0 26 18 38t34 12q34 0 54 -46l418 -1106l414 1106q20 46 54 46q16 0 34 -12t18 -38q0 -14 -6 -32l-454 -1222h-124l-454 1222q-6 18 -6 32z" />
<glyph unicode="W" horiz-adv-x="1830" d="M54 1268q0 38 48 38q40 0 56 -44l348 -1118l350 1108q18 52 58 52q46 0 62 -52l352 -1108l344 1110q16 44 56 44q48 0 48 -38q0 -12 -8 -36l-384 -1224h-116l-354 1106l-352 -1106h-114l-386 1232q-8 24 -8 36z" />
<glyph unicode="X" horiz-adv-x="1118" d="M72 34q0 22 16 44l406 556l-406 558q-16 18 -16 42q0 28 18 40t32 12q26 0 52 -36l384 -534l386 534q28 36 50 36q16 0 34 -12t18 -40q0 -24 -16 -42l-406 -558l406 -556q16 -22 16 -44t-17 -35t-35 -13q-26 0 -50 32l-386 536l-384 -536q-24 -32 -52 -32q-18 0 -34 14 t-16 34z" />
<glyph unicode="Y" horiz-adv-x="1042" d="M34 1236q0 22 16 36t34 14q22 0 50 -36l386 -534l384 534q26 36 52 36q16 0 33 -15t17 -35q0 -18 -16 -42l-416 -578v-568q0 -62 -54 -62q-52 0 -52 62v568l-418 578q-16 24 -16 42z" />
<glyph unicode="Z" horiz-adv-x="1110" d="M90 1240q0 52 72 52h856v-106l-798 -1082h728q70 0 70 -54q0 -50 -70 -50h-856v102l802 1086h-732q-72 0 -72 52z" />
<glyph unicode="[" horiz-adv-x="510" d="M160 -94v1460h260v-104h-156v-1252h156v-104h-260z" />
<glyph unicode="\" horiz-adv-x="718" d="M86 1252q0 26 17 37t35 11q36 0 52 -46l436 -1196q6 -24 6 -36q0 -26 -18 -37t-36 -11q-34 0 -50 46l-436 1196q-6 21 -6 36z" />
<glyph unicode="]" horiz-adv-x="510" d="M90 10h156v1252h-156v104h260v-1460h-260v104z" />
<glyph unicode="^" horiz-adv-x="886" d="M160 766q0 8 4 24l220 492h120l218 -492q4 -8 4 -24q0 -46 -46 -46q-36 0 -58 42l-178 400l-180 -400q-22 -42 -58 -42q-20 0 -33 13t-13 33z" />
<glyph unicode="_" horiz-adv-x="950" d="M-10 -40q0 50 66 50h838q66 0 66 -54q0 -50 -66 -50h-838q-66 0 -66 54z" />
<glyph unicode="`" horiz-adv-x="424" d="M58 1314q0 22 16 37t34 15q24 0 50 -30l192 -230q18 -22 18 -46q0 -22 -16 -36t-34 -14q-22 0 -50 30l-192 230q-18 22 -18 44z" />
<glyph unicode="a" horiz-adv-x="1108" d="M120 246q0 202 109 273t337 71h294v114q0 62 -23 88t-87 26h-282q-244 0 -244 -120q0 -70 -54 -70q-50 0 -50 70q0 116 92 170t242 54h310q116 0 158 -56t42 -196v-616q0 -68 -52 -68t-52 70v70q-114 -126 -340 -126h-186q-94 0 -154 67t-60 179zM224 236q0 -52 34 -92 t76 -40h186q168 0 254 91t86 261v30h-294q-102 0 -157 -7t-103 -32t-65 -75t-17 -136z" />
<glyph unicode="b" horiz-adv-x="1222" d="M150 54v1160q0 72 48 72q56 0 56 -72v-418q118 126 342 126h58q230 0 337 -71t107 -281v-218q0 -210 -107 -281t-337 -71h-58q-224 0 -342 126v-70q0 -70 -52 -70t-52 68zM254 456q0 -352 342 -352h58q102 0 157 7t102 32t64 75t17 136v214q0 86 -17 136t-64 75t-102 32 t-157 7h-58q-342 0 -342 -354v-8z" />
<glyph unicode="c" horiz-adv-x="1168" d="M124 352v218q0 210 108 281t338 71h282q64 0 107 -19t62 -55t25 -70t6 -80q0 -70 -52 -70t-52 66q0 70 -24 97t-86 27h-268q-102 0 -157 -7t-103 -32t-65 -75t-17 -136v-214q0 -86 17 -136t65 -75t103 -32t157 -7h268q64 0 87 28t23 96q0 66 52 66t52 -72q0 -46 -6 -80 t-25 -69t-62 -54t-107 -19h-282q-230 0 -338 71t-108 281z" />
<glyph unicode="d" horiz-adv-x="1222" d="M124 352v218q0 210 107 281t337 71h400v292q0 72 56 72q48 0 48 -72v-1160q0 -68 -52 -68t-52 70v70q-118 -126 -342 -126h-58q-230 0 -337 71t-107 281zM228 354q0 -86 17 -136t64 -75t102 -32t157 -7h58q342 0 342 352v362h-400q-102 0 -157 -7t-102 -32t-64 -75 t-17 -136v-214z" />
<glyph unicode="e" horiz-adv-x="1184" d="M124 352v218q0 210 108 281t338 71h58q230 0 337 -71t107 -281v-80h-844v-136q0 -86 17 -136t65 -75t103 -32t157 -7h268q64 0 87 28t23 96q0 66 52 66t52 -72q0 -46 -6 -80t-25 -69t-62 -54t-107 -19h-282q-230 0 -338 71t-108 281zM228 594h740q-2 142 -75 183t-265 41 h-58q-194 0 -267 -41t-75 -183z" />
<glyph unicode="f" horiz-adv-x="646" d="M98 874q0 44 62 48q2 110 31 182t90 108t130 48t175 12q72 0 72 -56q0 -48 -72 -48q-94 0 -145 -7t-96 -31t-63 -74t-18 -134h276q72 0 72 -56q0 -48 -72 -48h-276v-762q0 -70 -56 -70q-48 0 -48 70v764q-62 4 -62 54z" />
<glyph unicode="g" horiz-adv-x="1222" d="M124 -186q0 70 52 70t52 -66q0 -70 24 -97t86 -27h538q58 0 75 20t17 80v206h-400q-230 0 -337 71t-107 281v218q0 210 107 281t337 71h58q224 0 342 -126v70q0 70 52 70t52 -68v-1042q0 -130 -38 -183t-144 -53h-566q-64 0 -107 19t-62 55t-25 70t-6 80zM228 354 q0 -86 17 -136t64 -75t102 -32t157 -7h400v362q0 352 -342 352h-58q-102 0 -157 -7t-102 -32t-64 -75t-17 -136v-214z" />
<glyph unicode="h" horiz-adv-x="1238" d="M150 54v1160q0 72 48 72q56 0 56 -72v-418q118 126 342 126h58q230 0 337 -71t107 -281v-516q0 -68 -50 -68q-54 0 -54 68v514q0 86 -17 136t-64 75t-102 32t-157 7h-58q-170 0 -256 -91t-86 -265v-408q0 -68 -52 -68t-52 68z" />
<glyph unicode="i" horiz-adv-x="400" d="M98 1202q0 34 34 58t68 24q32 0 67 -24t35 -58t-35 -58t-67 -24q-34 0 -68 24t-34 58zM148 40v840q0 66 52 66t52 -66v-840q0 -64 -54 -64q-50 0 -50 64z" />
<glyph unicode="j" horiz-adv-x="404" d="M-244 -296q0 50 72 50q184 0 253 44t69 202v864q0 72 54 72q50 0 50 -72v-864q0 -112 -29 -183t-90 -107t-131 -48t-176 -12q-72 0 -72 54zM96 1202q0 34 34 58t68 24q32 0 67 -24t35 -58t-35 -58t-67 -24q-34 0 -68 24t-34 58z" />
<glyph unicode="k" horiz-adv-x="908" d="M150 48v1172q0 66 52 66t52 -66v-682l388 370q26 24 48 24q18 0 34 -15t16 -37t-24 -46l-332 -304l478 -444q22 -26 22 -48q0 -18 -14 -34t-34 -16q-22 0 -50 24l-474 458l-58 -58v-362q0 -64 -54 -64q-50 0 -50 62z" />
<glyph unicode="l" horiz-adv-x="542" d="M180 254v962q0 70 52 70t52 -70v-996q0 -64 23 -90t87 -26q70 0 70 -54q0 -50 -70 -50h-14q-116 0 -158 57t-42 197z" />
<glyph unicode="m" horiz-adv-x="1660" d="M148 54v812q0 70 48 70q56 0 56 -72v-68q56 68 114 97t148 29q136 0 220 -33t122 -127q102 160 294 160q184 0 276 -72t92 -280v-516q0 -68 -52 -68t-52 68v514q0 86 -13 136t-49 75t-79 32t-123 7q-126 0 -196 -92t-70 -264v-408q0 -68 -50 -68q-54 0 -54 68v514 q0 162 -55 206t-211 44q-124 0 -193 -92t-69 -264v-408q0 -68 -52 -68t-52 68z" />
<glyph unicode="n" horiz-adv-x="1234" d="M148 54v812q0 70 48 70q56 0 56 -72v-68q118 126 342 126h58q230 0 337 -71t107 -281v-516q0 -68 -50 -68q-54 0 -54 68v514q0 86 -17 136t-64 75t-102 32t-157 7h-58q-170 0 -256 -91t-86 -265v-408q0 -68 -52 -68t-52 68z" />
<glyph unicode="o" d="M124 352v218q0 210 108 281t338 71h58q230 0 337 -71t107 -281v-218q0 -210 -107 -281t-337 -71h-58q-230 0 -338 71t-108 281zM228 354q0 -86 17 -136t65 -75t103 -32t157 -7h58q102 0 157 7t102 32t64 75t17 136v214q0 86 -17 136t-64 75t-102 32t-157 7h-58 q-102 0 -157 -7t-103 -32t-65 -75t-17 -136v-214z" />
<glyph unicode="p" horiz-adv-x="1222" d="M150 -294v1162q0 68 52 68t52 -70v-70q118 126 342 126h58q230 0 337 -71t107 -281v-218q0 -210 -107 -281t-335 -71h-402v-294q0 -70 -56 -70q-48 0 -48 70zM254 104h402q196 0 267 44t71 206v214q0 86 -17 136t-64 75t-102 32t-157 7h-58q-342 0 -342 -354v-360z" />
<glyph unicode="q" horiz-adv-x="1222" d="M124 570q0 210 108 281t338 71h58q226 0 340 -126v70q0 70 52 70t52 -68v-1162q0 -70 -48 -70q-56 0 -56 70v294h-400q-230 0 -337 71t-107 281v218zM228 568v-214q0 -86 17 -136t64 -75t102 -32t157 -7h400v360q0 354 -340 354h-58q-102 0 -157 -7t-103 -32t-65 -75 t-17 -136z" />
<glyph unicode="r" horiz-adv-x="766" d="M148 54v812q0 70 48 70q56 0 56 -72v-68q118 126 322 126h92q70 0 70 -52t-70 -52h-92q-156 0 -239 -92t-83 -264v-408q0 -68 -52 -68t-52 68z" />
<glyph unicode="s" horiz-adv-x="1172" d="M120 222q0 72 52 72t52 -66q0 -68 23 -96t87 -28h496q118 0 118 148q0 74 -33 121t-85 47h-452q-258 0 -258 260q0 120 62 181t216 61h450q64 0 107 -19t62 -55t25 -70t6 -80q0 -70 -52 -70t-52 66q0 70 -24 97t-86 27h-492q-118 0 -118 -138q0 -76 33 -116t85 -40h454 q140 0 198 -78t58 -194q0 -124 -63 -188t-213 -64h-456q-64 0 -107 19t-62 54t-25 69t-6 80z" />
<glyph unicode="t" horiz-adv-x="688" d="M94 874q0 44 62 48v208q0 72 48 72q56 0 56 -72v-208h276q72 0 72 -56q0 -48 -72 -48h-276v-464q0 -162 69 -206t253 -44q70 0 70 -48q0 -56 -70 -56q-216 0 -321 72t-105 280v468q-62 4 -62 54z" />
<glyph unicode="u" horiz-adv-x="1236" d="M140 352v516q0 68 50 68q54 0 54 -68v-514q0 -86 17 -136t64 -75t102 -32t157 -7h58q170 0 256 91t86 265v408q0 68 52 68t52 -68v-812q0 -70 -48 -70q-56 0 -56 72v68q-118 -126 -342 -126h-58q-230 0 -337 71t-107 281z" />
<glyph unicode="v" horiz-adv-x="1018" d="M56 904q0 42 48 42q36 0 56 -44l344 -800l356 802q18 42 56 42q48 0 48 -40q0 -16 -8 -34l-384 -872h-148l-360 872q-8 18 -8 32z" />
<glyph unicode="w" horiz-adv-x="1584" d="M62 908q0 38 48 38q40 0 56 -44l280 -806l292 796q16 42 58 42q40 0 54 -42l280 -796l290 806q16 44 56 44q48 0 48 -38q0 -12 -8 -36l-310 -872h-158l-254 748l-274 -748h-158l-292 872q-8 24 -8 36z" />
<glyph unicode="x" horiz-adv-x="1024" d="M80 24q0 8 20 48l342 388l-342 390q-20 24 -20 46q0 20 16 34t34 14q22 0 50 -24l334 -386l332 386q24 24 48 24q18 0 34 -14t16 -34q0 -22 -20 -46l-342 -390l342 -388q20 -30 20 -48q0 -20 -16 -33t-34 -13q-24 0 -48 24l-332 386l-334 -386q-28 -24 -50 -24 q-18 0 -34 13t-16 33z" />
<glyph unicode="y" horiz-adv-x="1238" d="M140 -186q0 70 52 70t52 -66q0 -70 24 -97t86 -27h538q58 0 75 20t17 80v332q-118 -126 -342 -126h-58q-230 0 -337 71t-107 281v516q0 68 50 68q54 0 54 -68v-514q0 -86 17 -136t64 -75t102 -32t157 -7h58q170 0 256 91t86 265v408q0 68 52 68t52 -68v-1042 q0 -130 -38 -183t-144 -53h-566q-64 0 -107 19t-62 55t-25 70t-6 80z" />
<glyph unicode="z" horiz-adv-x="1104" d="M118 0v128l714 690h-500q-70 0 -90 -36t-20 -118q0 -72 -54 -72q-50 0 -50 72q0 142 42 200t158 58h642v-134l-708 -684h534q72 0 92 36t20 118q0 72 52 72t52 -72q0 -140 -42 -199t-158 -59h-684z" />
<glyph unicode="{" horiz-adv-x="524" d="M76 626v16q42 22 94 68t52 90q0 34 -28 126t-28 130q0 190 60 250t200 60v-104q-104 0 -130 -34t-26 -172q0 -20 28 -112t28 -144q0 -80 -142 -166q142 -78 142 -162q0 -52 -28 -144t-28 -112q0 -140 25 -173t131 -33v-104q-140 0 -200 60t-60 250q0 38 28 130t28 126 q0 44 -52 89t-94 65z" />
<glyph unicode="|" horiz-adv-x="428" d="M162 50v1170q0 66 52 66t52 -66v-1170q0 -64 -54 -64q-50 0 -50 64z" />
<glyph unicode="}" horiz-adv-x="524" d="M98 10q106 0 131 33t25 173q0 20 -28 112t-28 144q0 84 142 162q-142 86 -142 166q0 52 28 144t28 112q0 138 -26 172t-130 34v104q140 0 200 -60t60 -250q0 -38 -28 -130t-28 -126q0 -44 52 -90t94 -68v-16q-42 -20 -94 -65t-52 -89q0 -34 28 -126t28 -130 q0 -190 -60 -250t-200 -60v104z" />
<glyph unicode="~" horiz-adv-x="850" d="M142 402q0 30 28 52l92 76q14 18 38 18q4 0 14 -2t12 -2l196 -72l10 -4q6 0 16 8l62 56q26 18 44 18q20 0 36 -12t16 -34q0 -28 -28 -54l-94 -78q-16 -16 -38 -16q-4 0 -8 1t-7 1t-6 1l-3 1l-196 72q-4 4 -12 4q-6 0 -16 -8l-62 -56q-26 -18 -44 -18t-34 13t-16 35z" />
<glyph unicode="&#xa1;" horiz-adv-x="460" d="M126 900q0 34 35 58t67 24q36 0 70 -24t34 -58t-35 -58t-69 -24q-32 0 -67 24t-35 58zM178 -276v840q0 66 52 66t52 -66v-840q0 -64 -54 -64q-50 0 -50 64z" />
<glyph unicode="&#xa2;" horiz-adv-x="956" d="M98 596v84q0 190 86 269t252 89v192q0 66 54 66q50 0 50 -66v-190h104q64 0 106 -19t61 -54t25 -68t6 -81q0 -72 -50 -72q-54 0 -54 68q0 70 -23 96t-85 26h-90v-596h86q62 0 87 26t25 96q0 68 50 68q54 0 54 -72q0 -46 -7 -80t-26 -69t-62 -54t-107 -19h-100v-196 q0 -64 -54 -64q-50 0 -50 64v196q-170 10 -254 88t-84 272zM202 596q0 -146 52 -197t182 -57v592q-126 -6 -180 -59t-54 -195v-84z" />
<glyph unicode="&#xa3;" horiz-adv-x="1002" d="M130 46q0 12 2 18l76 872q10 112 43 187t88 111t110 49t127 13q142 0 224 -61t82 -233q0 -66 -54 -66q-50 0 -50 66q0 122 -50 156t-160 34q-118 0 -180 -48t-76 -208l-18 -198h68q64 0 64 -54q0 -50 -64 -50h-76l-48 -540h582q66 0 66 -54q0 -50 -66 -50h-646 q-44 0 -44 56z" />
<glyph unicode="&#xa4;" horiz-adv-x="990" d="M136 152q0 24 24 50l90 90q-52 74 -52 168q0 96 52 170l-90 90q-24 28 -24 48q0 18 17 34t33 16q20 0 48 -24l90 -90q76 54 172 54t170 -54l88 90q26 24 50 24q16 0 33 -13t17 -35q0 -26 -28 -50l-88 -90q54 -72 54 -170q0 -96 -54 -170l88 -88q28 -28 28 -48 q0 -16 -17 -34t-35 -18q-22 0 -48 28l-88 88q-74 -54 -170 -54t-172 54l-90 -88q-24 -28 -50 -28q-16 0 -32 14t-16 36zM286 460q0 -86 62 -147t148 -61t147 61t61 147t-61 148t-147 62q-88 0 -149 -61t-61 -149z" />
<glyph unicode="&#xa5;" horiz-adv-x="1076" d="M62 1246q0 22 16 36t34 14q22 0 50 -36l376 -534l374 534q24 36 52 36q16 0 33 -15t17 -35t-16 -44l-408 -586v-62h188q66 0 66 -54q0 -50 -66 -50h-188v-74h188q66 0 66 -54q0 -50 -66 -50h-188v-232q0 -64 -52 -64q-50 0 -50 64v232h-200q-64 0 -64 54q0 50 64 50h200 v74h-200q-64 0 -64 54q0 50 64 50h200v62l-410 586q-16 24 -16 44z" />
<glyph unicode="&#xa6;" horiz-adv-x="426" d="M162 44v430q0 62 52 62q50 0 50 -62v-430q0 -68 -54 -68q-48 0 -48 68zM162 802v430q0 64 52 64q50 0 50 -64v-430q0 -66 -54 -66q-48 0 -48 66z" />
<glyph unicode="&#xa7;" horiz-adv-x="1040" d="M150 172q0 60 54 60q22 0 36 -16t14 -40q0 -52 14 -67t66 -15h368q48 0 66 24t18 80q0 130 -78 140l-350 50q-208 28 -208 224q0 142 92 188q-92 54 -92 190q0 208 210 208h370q68 0 105 -29t46 -64t9 -89q0 -60 -52 -60q-24 0 -38 16t-14 40q0 52 -14 67t-66 15h-368 q-48 0 -66 -25t-18 -79q0 -130 78 -140l350 -50q208 -28 208 -222q0 -144 -92 -190q92 -54 92 -190q0 -208 -210 -208h-368q-98 0 -130 49t-32 133zM254 612q0 -80 105 -120t265 -40q104 0 133 20t29 106q0 84 -113 121t-257 37q-104 0 -133 -20t-29 -104z" />
<glyph unicode="&#xa8;" horiz-adv-x="734" d="M120 1260q0 34 34 58t68 24q32 0 67 -24t35 -58t-35 -58t-67 -24q-34 0 -68 24t-34 58zM412 1260q0 34 34 58t68 24q32 0 67 -24t35 -58t-35 -58t-67 -24q-34 0 -68 24t-34 58z" />
<glyph unicode="&#xa9;" horiz-adv-x="1224" d="M158 524v222q0 112 29 185t89 111t131 51t177 13h58q216 0 320 -73t104 -287v-222q0 -214 -104 -287t-320 -73h-58q-106 0 -177 13t-131 51t-89 111t-29 185zM262 524q0 -164 69 -210t253 -46h58q182 0 251 46t69 210v222q0 164 -69 210t-251 46h-58q-184 0 -253 -46 t-69 -210v-222zM412 596v78q0 82 56 125t134 43h100q60 0 85 -36t25 -80q0 -34 -42 -34q-36 0 -36 30q0 22 -7 30t-29 8h-96q-48 0 -79 -23t-31 -63v-78q0 -40 31 -63t79 -23h96q32 0 35 27t11 33q10 8 26 8t29 -10t13 -24q0 -42 -24 -79t-86 -37h-100q-78 0 -134 43 t-56 125z" />
<glyph unicode="&#xaa;" horiz-adv-x="760" d="M130 364q0 44 52 44h392q56 0 56 -48q0 -42 -56 -42h-392q-52 0 -52 46zM180 808q0 52 32 88t82 36h170q116 0 116 -138v-278q-4 -34 -40 -34q-42 0 -42 34v24q-36 -52 -124 -52h-74q-52 0 -86 41t-34 93q0 90 50 124t154 34h114v28q0 24 -9 33t-31 9h-158q-24 0 -31 -9 t-7 -26t-4 -23q-14 -18 -36 -18q-42 0 -42 34zM262 618q0 -18 11 -33t27 -15h74q118 0 124 128h-114q-70 0 -96 -15t-26 -65z" />
<glyph unicode="&#xab;" horiz-adv-x="1006" d="M72 666q0 18 36 50l364 338q16 16 46 16q40 0 40 -40q0 -34 -28 -64l-310 -300l310 -302q28 -30 28 -64q0 -40 -40 -40q-32 0 -46 14l-364 338q-36 28 -36 54zM380 666q0 18 36 50l364 338q16 16 46 16q40 0 40 -40q0 -34 -28 -64l-310 -300l310 -302q28 -30 28 -64 q0 -40 -40 -40q-32 0 -46 14l-364 338q-36 28 -36 54z" />
<glyph unicode="&#xac;" horiz-adv-x="1044" d="M160 462q0 52 62 52h596q68 0 68 -64v-168q0 -66 -56 -66q-50 0 -50 66v126h-558q-62 0 -62 54z" />
<glyph unicode="&#xad;" horiz-adv-x="912" d="M146 462q0 52 62 52h490q68 0 68 -56q0 -22 -19 -36t-49 -14h-490q-62 0 -62 54z" />
<glyph unicode="&#xae;" horiz-adv-x="1224" d="M158 524v222q0 112 29 185t89 111t131 51t177 13h58q216 0 320 -73t104 -287v-222q0 -214 -104 -287t-320 -73h-58q-106 0 -177 13t-131 51t-89 111t-29 185zM262 524q0 -164 69 -210t253 -46h58q182 0 251 46t69 210v222q0 164 -69 210t-251 46h-58q-184 0 -253 -46 t-69 -210v-222zM404 434v388q0 12 12 21t26 9h168q218 0 218 -130q0 -40 -26 -73t-70 -47q28 -24 65 -83t37 -85q0 -12 -13 -20t-27 -8q-18 0 -30 9t-12 17q-6 24 -42 80t-82 84h-142v-162q0 -28 -42 -28q-16 0 -28 8t-12 20zM486 678h124q78 0 107 8t29 36q0 30 -28 39 t-108 9h-124v-92z" />
<glyph unicode="&#xaf;" horiz-adv-x="858" d="M120 1400q0 52 62 52h490q68 0 68 -56q0 -22 -19 -36t-49 -14h-490q-62 0 -62 54z" />
<glyph unicode="&#xb0;" horiz-adv-x="806" d="M106 1070q0 122 87 209t209 87t210 -87t88 -209t-88 -210t-210 -88t-209 88t-87 210zM208 1070q0 -80 57 -138t137 -58q82 0 139 57t57 139q0 80 -58 137t-138 57t-137 -57t-57 -137z" />
<glyph unicode="&#xb1;" horiz-adv-x="1158" d="M136 56q0 50 62 50h756q68 0 68 -56q0 -22 -19 -36t-49 -14h-756q-62 0 -62 56zM136 586q0 50 62 50h328v244q0 66 54 66q50 0 50 -66v-244h324q68 0 68 -54q0 -52 -68 -52h-324v-244q0 -64 -52 -64t-52 64v244h-328q-62 0 -62 56z" />
<glyph unicode="&#xb2;" horiz-adv-x="650" d="M90 1406q0 60 48 99t112 39h60q62 0 100 -5t76 -22t56 -55t18 -98q0 -56 -57 -107t-125 -82t-128 -78t-66 -99h322q22 -2 38 -15t16 -29q0 -12 -17 -27t-37 -15h-416v54q0 72 40 129t96 91t112 62t96 57t40 59q0 64 -32 79t-132 15h-52q-76 0 -76 -52q0 -20 -14 -33 t-32 -13q-16 0 -31 13t-15 33z" />
<glyph unicode="&#xb3;" horiz-adv-x="590" d="M64 1050q0 40 44 40q48 0 48 -36q0 -24 37 -40t83 -16h24q80 0 103 20t23 64q0 42 -57 76t-117 34q-24 0 -35 14t-11 30q0 18 13 30t33 12q60 0 117 28t57 68q0 28 -6 44t-35 28t-85 12h-24q-46 0 -83 -16t-37 -40q0 -36 -48 -36q-44 0 -44 40q0 48 57 93t147 45h24 q118 0 168 -41t50 -135q0 -82 -118 -132q46 -20 82 -61t36 -95q0 -88 -50 -128t-168 -40h-24q-90 0 -147 45t-57 93z" />
<glyph unicode="&#xb4;" horiz-adv-x="424" d="M58 1060q0 24 18 46l192 230q28 30 50 30q18 0 34 -15t16 -37t-18 -44l-192 -230q-26 -30 -50 -30q-16 0 -33 15t-17 35z" />
<glyph unicode="&#xb5;" horiz-adv-x="1148" d="M164 -338v1214q0 70 50 70q54 0 54 -70v-420q0 -176 83 -269t239 -93q154 0 238 93t84 269v420q0 70 50 70q54 0 54 -70v-828q0 -72 -50 -72q-54 0 -54 72v68q-118 -126 -322 -126t-322 126v-454q0 -72 -56 -72q-48 0 -48 72z" />
<glyph unicode="&#xb6;" horiz-adv-x="934" d="M70 972q0 178 107 244t317 66h260v-1242q0 -64 -50 -64q-54 0 -54 64v1138h-62v-1138q0 -64 -50 -64q-54 0 -54 64v624h-74q-160 0 -250 79t-90 229z" />
<glyph unicode="&#xb7;" horiz-adv-x="484" d="M140 774q0 34 34 58t68 24q32 0 67 -24t35 -58t-35 -58t-67 -24q-34 0 -68 24t-34 58z" />
<glyph unicode="&#xb8;" horiz-adv-x="484" d="M74 -250q0 36 30 36q12 0 58 -18t74 -18q84 0 84 52q0 20 -22 41t-47 39t-47 54t-22 84h104q0 -32 22 -57t47 -39t47 -43t22 -69q0 -72 -56 -117t-136 -45q-50 0 -104 24t-54 76z" />
<glyph unicode="&#xb9;" horiz-adv-x="308" d="M-14 1384q0 24 24 44l96 100q26 22 46 22q16 0 31 -11t15 -37v-542q0 -54 -44 -54t-44 54v446l-36 -36q-20 -24 -48 -24q-18 0 -29 12t-11 26z" />
<glyph unicode="&#xba;" horiz-adv-x="760" d="M130 364q0 44 52 44h392q56 0 56 -48q0 -42 -56 -42h-392q-52 0 -52 46zM180 666v88q0 104 42 141t148 37h18q108 0 150 -37t42 -141v-88q0 -104 -42 -141t-150 -37h-18q-108 0 -149 37t-41 141zM262 666q0 -64 20 -80t88 -16h18q68 0 89 16t21 80v88q0 64 -21 80t-89 16 h-18q-68 0 -88 -16t-20 -80v-88z" />
<glyph unicode="&#xbb;" horiz-adv-x="1006" d="M140 300q0 34 28 64l310 302l-310 300q-28 30 -28 64q0 40 40 40q30 0 46 -16l364 -338q36 -32 36 -50q0 -26 -36 -54l-364 -338q-14 -14 -46 -14q-40 0 -40 40zM448 300q0 34 28 64l310 302l-310 300q-28 30 -28 64q0 40 40 40q30 0 46 -16l364 -338q36 -32 36 -50 q0 -26 -36 -54l-364 -338q-14 -14 -46 -14q-40 0 -40 40z" />
<glyph unicode="&#xbc;" horiz-adv-x="1168" d="M86 186q0 24 24 50l820 818q24 24 48 24q40 0 40 -40q0 -24 -24 -48l-818 -820q-26 -24 -50 -24q-40 0 -40 40zM178 1116q0 24 24 44l96 100q26 22 46 22q16 0 31 -11t15 -37v-542q0 -54 -44 -54t-44 54v446l-36 -36q-20 -24 -48 -24q-18 0 -29 12t-11 26zM588 190v104 l244 326h108v-344h88q52 0 52 -42q0 -44 -52 -44h-88v-154q0 -54 -44 -54t-44 54v154h-264zM676 276h176v236z" />
<glyph unicode="&#xbd;" horiz-adv-x="1224" d="M80 186q0 24 24 50l820 818q24 24 48 24q40 0 40 -40q0 -24 -24 -48l-818 -820q-26 -24 -50 -24q-40 0 -40 40zM194 1116q0 24 24 44l96 100q26 22 46 22q16 0 31 -11t15 -37v-542q0 -54 -44 -54t-44 54v446l-36 -36q-20 -24 -48 -24q-18 0 -29 12t-11 26zM648 482 q0 60 48 99t112 39h60q62 0 100 -5t76 -22t56 -55t18 -98q0 -56 -57 -107t-125 -82t-128 -78t-66 -99h322q22 -2 38 -15t16 -29q0 -12 -17 -27t-37 -15h-416v54q0 72 40 129t96 91t112 62t96 57t40 59q0 64 -32 79t-132 15h-52q-76 0 -76 -52q0 -20 -14 -33t-32 -13 q-16 0 -31 13t-15 33z" />
<glyph unicode="&#xbe;" horiz-adv-x="1262" d="M126 788q0 40 44 40q48 0 48 -36q0 -24 37 -40t83 -16h24q80 0 103 20t23 64q0 42 -57 76t-117 34q-24 0 -35 14t-11 30q0 18 13 30t33 12q60 0 117 28t57 68q0 28 -6 44t-35 28t-85 12h-24q-46 0 -83 -16t-37 -40q0 -36 -48 -36q-44 0 -44 40q0 48 57 93t147 45h24 q118 0 168 -41t50 -135q0 -82 -118 -132q46 -20 82 -61t36 -95q0 -88 -50 -128t-168 -40h-24q-90 0 -147 45t-57 93zM188 186q0 24 24 50l820 818q24 24 48 24q40 0 40 -40q0 -24 -24 -48l-818 -820q-26 -24 -50 -24q-40 0 -40 40zM680 190v104l244 326h108v-344h88 q52 0 52 -42q0 -44 -52 -44h-88v-154q0 -54 -44 -54t-44 54v154h-264zM768 276h176v236z" />
<glyph unicode="&#xbf;" horiz-adv-x="1058" d="M76 -10q0 134 58 208t198 112l178 50v210q0 66 54 66q50 0 50 -66v-288l-314 -86q-52 -14 -86 -71t-34 -135q0 -84 47 -155t147 -71h188q96 0 147 7t95 31t61 76t17 138q0 66 52 66q54 0 54 -66q0 -112 -29 -185t-90 -109t-131 -49t-176 -13h-152q-176 0 -255 97t-79 233 zM460 900q0 34 34 58t70 24q32 0 67 -24t35 -58t-35 -58t-67 -24q-34 0 -69 24t-35 58z" />
<glyph unicode="&#xc0;" horiz-adv-x="1140" d="M48 18q0 14 6 32l454 1222h124l454 -1222q6 -18 6 -32q0 -26 -18 -38t-34 -12q-34 0 -54 46l-142 384h-548l-142 -384q-20 -46 -54 -46q-16 0 -34 12t-18 38zM336 502h468l-236 618zM354 1588q0 16 16 33t36 17q24 0 48 -26l140 -138q24 -28 24 -50q0 -16 -14 -32 t-36 -16q-26 0 -50 26l-138 136q-26 30 -26 50z" />
<glyph unicode="&#xc1;" horiz-adv-x="1140" d="M48 18q0 14 6 32l454 1222h124l454 -1222q6 -18 6 -32q0 -26 -18 -38t-34 -12q-34 0 -54 46l-142 384h-548l-142 -384q-20 -46 -54 -46q-16 0 -34 12t-18 38zM336 502h468l-236 618zM482 1424q0 22 26 52l138 136q24 26 50 26q22 0 36 -17t14 -33q0 -20 -24 -48 l-140 -138q-24 -26 -48 -26q-20 0 -36 15t-16 33z" />
<glyph unicode="&#xc2;" horiz-adv-x="1140" d="M48 18q0 14 6 32l454 1222h124l454 -1222q6 -18 6 -32q0 -26 -18 -38t-34 -12q-34 0 -54 46l-142 384h-548l-142 -384q-20 -46 -54 -46q-16 0 -34 12t-18 38zM288 1338q0 20 12 36l210 264h118l214 -264q12 -16 12 -36q0 -46 -46 -46q-10 0 -19 4t-12 7t-13 15t-12 14 l-182 192l-180 -192q-4 -4 -10 -12t-10 -11t-9 -8t-12 -7t-15 -2q-46 0 -46 46zM336 502h468l-236 618z" />
<glyph unicode="&#xc3;" horiz-adv-x="1140" d="M48 18q0 14 6 32l454 1222h124l454 -1222q6 -18 6 -32q0 -26 -18 -38t-34 -12q-34 0 -54 46l-142 384h-548l-142 -384q-20 -46 -54 -46q-16 0 -34 12t-18 38zM288 1450q0 30 28 52l92 76q16 18 38 18q4 0 14 -2t12 -2l196 -72l10 -4q6 0 16 8l62 56q26 18 44 18 q20 0 36 -12t16 -34q0 -28 -28 -54l-94 -78q-16 -16 -38 -16q-4 0 -8 1t-7 1t-6 1l-3 1l-196 72q-4 4 -12 4q-6 0 -16 -8l-62 -56q-26 -18 -44 -18t-34 13t-16 35zM336 502h468l-236 618z" />
<glyph unicode="&#xc4;" horiz-adv-x="1140" d="M48 18q0 14 6 32l454 1222h124l454 -1222q6 -18 6 -32q0 -26 -18 -38t-34 -12q-34 0 -54 46l-142 384h-548l-142 -384q-20 -46 -54 -46q-16 0 -34 12t-18 38zM322 1486q0 34 34 58t68 24q32 0 67 -24t35 -58t-35 -58t-67 -24q-34 0 -68 24t-34 58zM336 502h468l-236 618z M614 1486q0 34 34 58t68 24q32 0 67 -24t35 -58t-35 -58t-67 -24q-34 0 -68 24t-34 58z" />
<glyph unicode="&#xc5;" horiz-adv-x="1140" d="M48 18q0 14 6 32l454 1222h124l454 -1222q6 -18 6 -32q0 -26 -18 -38t-34 -12q-34 0 -54 46l-142 384h-548l-142 -384q-20 -46 -54 -46q-16 0 -34 12t-18 38zM336 502h468l-236 618zM408 1476q0 68 47 115t115 47t115 -47t47 -115t-47 -115t-115 -47t-115 47t-47 115z M482 1476q0 -36 26 -62t62 -26q34 0 61 26t27 62t-27 62t-61 26q-36 0 -62 -27t-26 -61z" />
<glyph unicode="&#xc6;" horiz-adv-x="1734" d="M18 4q0 20 16 46l776 1212q14 20 38 20h722q68 0 68 -56q0 -48 -68 -48h-666v-410h428q72 0 72 -56q0 -48 -72 -48h-428v-560h666q68 0 68 -56q0 -48 -68 -48h-722q-48 0 -48 72v326h-430l-246 -384q-30 -46 -66 -46q-40 0 -40 36zM438 502h362v564z" />
<glyph unicode="&#xc7;" horiz-adv-x="1180" d="M142 360v572q0 216 106 288t328 72h294q64 0 107 -19t62 -54t25 -69t6 -82q0 -70 -52 -70t-52 66q0 70 -24 97t-86 27h-280q-96 0 -150 -7t-100 -33t-63 -78t-17 -138v-572q0 -166 72 -211t270 -45h268q64 0 87 28t23 96q0 66 52 66t52 -72q0 -46 -6 -80t-25 -69t-62 -54 t-107 -19h-198q6 -26 29 -47t46 -34t42 -41t19 -66q0 -72 -56 -117t-136 -45q-50 0 -104 24t-54 76q0 36 30 36q12 0 58 -18t74 -18q84 0 84 52q0 22 -32 47t-66 62t-40 89q-220 2 -322 75t-102 285z" />
<glyph unicode="&#xc8;" d="M168 72v1128q0 72 48 72h812q68 0 68 -56q0 -48 -68 -48h-756v-400h518q72 0 72 -56q0 -48 -72 -48h-518v-560h756q68 0 68 -56q0 -48 -68 -48h-812q-48 0 -48 72zM408 1588q0 16 16 33t36 17q24 0 48 -26l140 -138q24 -28 24 -50q0 -16 -14 -32t-36 -16q-26 0 -50 26 l-138 136q-26 30 -26 50z" />
<glyph unicode="&#xc9;" d="M168 72v1128q0 72 48 72h812q68 0 68 -56q0 -48 -68 -48h-756v-400h518q72 0 72 -56q0 -48 -72 -48h-518v-560h756q68 0 68 -56q0 -48 -68 -48h-812q-48 0 -48 72zM510 1424q0 22 26 52l138 136q24 26 50 26q22 0 36 -17t14 -33q0 -20 -24 -48l-140 -138q-24 -26 -48 -26 q-20 0 -36 15t-16 33z" />
<glyph unicode="&#xca;" d="M168 72v1128q0 72 48 72h812q68 0 68 -56q0 -48 -68 -48h-756v-400h518q72 0 72 -56q0 -48 -72 -48h-518v-560h756q68 0 68 -56q0 -48 -68 -48h-812q-48 0 -48 72zM340 1338q0 20 12 36l210 264h118l214 -264q12 -16 12 -36q0 -46 -46 -46q-10 0 -19 4t-12 7t-13 15 t-12 14l-182 192l-180 -192q-4 -4 -10 -12t-10 -11t-9 -8t-12 -7t-15 -2q-46 0 -46 46z" />
<glyph unicode="&#xcb;" d="M168 72v1128q0 72 48 72h812q68 0 68 -56q0 -48 -68 -48h-756v-400h518q72 0 72 -56q0 -48 -72 -48h-518v-560h756q68 0 68 -56q0 -48 -68 -48h-812q-48 0 -48 72zM376 1486q0 34 34 58t68 24q32 0 67 -24t35 -58t-35 -58t-67 -24q-34 0 -68 24t-34 58zM668 1486 q0 34 34 58t68 24q32 0 67 -24t35 -58t-35 -58t-67 -24q-34 0 -68 24t-34 58z" />
<glyph unicode="&#xcc;" horiz-adv-x="440" d="M8 1588q0 16 16 33t36 17q24 0 48 -26l140 -138q24 -28 24 -50q0 -16 -14 -32t-36 -16q-26 0 -50 26l-138 136q-26 30 -26 50zM168 50v1170q0 66 52 66t52 -66v-1170q0 -64 -54 -64q-50 0 -50 64z" />
<glyph unicode="&#xcd;" horiz-adv-x="440" d="M168 50v1170q0 66 52 66t52 -66v-1170q0 -64 -54 -64q-50 0 -50 64zM170 1424q0 22 26 52l138 136q24 26 50 26q22 0 36 -17t14 -33q0 -20 -24 -48l-140 -138q-24 -26 -48 -26q-20 0 -36 15t-16 33z" />
<glyph unicode="&#xce;" horiz-adv-x="440" d="M-60 1338q0 20 12 36l210 264h118l214 -264q12 -16 12 -36q0 -46 -46 -46q-10 0 -19 4t-12 7t-13 15t-12 14l-182 192l-180 -192q-4 -4 -10 -12t-10 -11t-9 -8t-12 -7t-15 -2q-46 0 -46 46zM168 50v1170q0 66 52 66t52 -66v-1170q0 -64 -54 -64q-50 0 -50 64z" />
<glyph unicode="&#xcf;" horiz-adv-x="440" d="M-26 1486q0 34 34 58t68 24q32 0 67 -24t35 -58t-35 -58t-67 -24q-34 0 -68 24t-34 58zM168 50v1170q0 66 52 66t52 -66v-1170q0 -64 -54 -64q-50 0 -50 64zM266 1486q0 34 34 58t68 24q32 0 67 -24t35 -58t-35 -58t-67 -24q-34 0 -68 24t-34 58z" />
<glyph unicode="&#xd0;" horiz-adv-x="1240" d="M104 652q0 50 64 50v498q0 72 48 72h448q108 0 180 -13t133 -51t90 -111t29 -185v-552q0 -216 -107 -288t-337 -72h-436q-48 0 -48 72v524q-64 0 -64 56zM272 104h380q196 0 268 45t72 211v552q0 164 -70 210t-258 46h-392v-466h208q68 0 68 -54q0 -52 -68 -52h-208v-492 z" />
<glyph unicode="&#xd1;" horiz-adv-x="1264" d="M168 54v1162q0 70 48 70q36 0 60 -38l716 -1056v1022q0 72 50 72q54 0 54 -70v-1162q0 -68 -50 -68q-28 0 -40 14l-734 1086v-1034q0 -66 -52 -66t-52 68zM348 1450q0 30 28 52l92 76q16 18 38 18q4 0 14 -2t12 -2l196 -72l10 -4q6 0 16 8l62 56q26 18 44 18q20 0 36 -12 t16 -34q0 -28 -28 -54l-94 -78q-16 -16 -38 -16q-4 0 -8 1t-7 1t-6 1l-3 1l-196 72q-4 4 -12 4q-6 0 -16 -8l-62 -56q-26 -18 -44 -18t-34 13t-16 35z" />
<glyph unicode="&#xd2;" horiz-adv-x="1188" d="M130 456v360q0 222 130 348t334 126t334 -127t130 -347v-360q0 -220 -130 -347t-334 -127t-334 126t-130 348zM234 458q0 -176 94 -274t266 -98t266 98t94 274v356q0 176 -94 274t-266 98t-266 -98t-94 -274v-356zM380 1588q0 16 16 33t36 17q24 0 48 -26l140 -138 q24 -28 24 -50q0 -16 -14 -32t-36 -16q-26 0 -50 26l-138 136q-26 30 -26 50z" />
<glyph unicode="&#xd3;" horiz-adv-x="1188" d="M130 456v360q0 222 130 348t334 126t334 -127t130 -347v-360q0 -220 -130 -347t-334 -127t-334 126t-130 348zM234 458q0 -176 94 -274t266 -98t266 98t94 274v356q0 176 -94 274t-266 98t-266 -98t-94 -274v-356zM542 1424q0 22 26 52l138 136q24 26 50 26q22 0 36 -17 t14 -33q0 -20 -24 -48l-140 -138q-24 -26 -48 -26q-20 0 -36 15t-16 33z" />
<glyph unicode="&#xd4;" horiz-adv-x="1188" d="M130 456v360q0 222 130 348t334 126t334 -127t130 -347v-360q0 -220 -130 -347t-334 -127t-334 126t-130 348zM234 458q0 -176 94 -274t266 -98t266 98t94 274v356q0 176 -94 274t-266 98t-266 -98t-94 -274v-356zM312 1338q0 20 12 36l210 264h118l214 -264 q12 -16 12 -36q0 -46 -46 -46q-10 0 -19 4t-12 7t-13 15t-12 14l-182 192l-180 -192q-4 -4 -10 -12t-10 -11t-9 -8t-12 -7t-15 -2q-46 0 -46 46z" />
<glyph unicode="&#xd5;" horiz-adv-x="1188" d="M130 456v360q0 222 130 348t334 126t334 -127t130 -347v-360q0 -220 -130 -347t-334 -127t-334 126t-130 348zM234 458q0 -176 94 -274t266 -98t266 98t94 274v356q0 176 -94 274t-266 98t-266 -98t-94 -274v-356zM312 1450q0 30 28 52l92 76q16 18 38 18q4 0 14 -2 t12 -2l196 -72l10 -4q6 0 16 8l62 56q26 18 44 18q20 0 36 -12t16 -34q0 -28 -28 -54l-94 -78q-16 -16 -38 -16q-4 0 -8 1t-7 1t-6 1l-3 1l-196 72q-4 4 -12 4q-6 0 -16 -8l-62 -56q-26 -18 -44 -18t-34 13t-16 35z" />
<glyph unicode="&#xd6;" horiz-adv-x="1188" d="M130 456v360q0 222 130 348t334 126t334 -127t130 -347v-360q0 -220 -130 -347t-334 -127t-334 126t-130 348zM234 458q0 -176 94 -274t266 -98t266 98t94 274v356q0 176 -94 274t-266 98t-266 -98t-94 -274v-356zM348 1486q0 34 34 58t68 24q32 0 67 -24t35 -58t-35 -58 t-67 -24q-34 0 -68 24t-34 58zM640 1486q0 34 34 58t68 24q32 0 67 -24t35 -58t-35 -58t-67 -24q-34 0 -68 24t-34 58z" />
<glyph unicode="&#xd7;" horiz-adv-x="986" d="M140 158q0 24 24 48l256 254l-254 256q-24 24 -24 48q0 18 14 33t34 15q24 0 48 -24l254 -256l256 254q24 24 48 24q18 0 33 -14t15 -34q0 -24 -24 -48l-256 -254l254 -256q26 -22 26 -48q0 -18 -15 -33t-35 -15q-24 0 -48 24l-254 256l-256 -254q-22 -26 -48 -26 q-18 0 -33 15t-15 35z" />
<glyph unicode="&#xd8;" horiz-adv-x="1188" d="M130 456v360q0 222 130 348t334 126q174 0 286 -86l20 34q18 38 50 38q14 0 33 -12t19 -38q0 -16 -12 -40l-34 -54q102 -124 102 -316v-360q0 -220 -130 -347t-334 -127q-170 0 -282 84l-20 -32q-20 -38 -52 -38q-14 0 -32 12t-18 36q0 18 12 42l30 50q-102 124 -102 320 zM234 444q0 -140 56 -228l540 900q-94 70 -236 70q-172 0 -266 -100t-94 -278v-364zM360 154q92 -68 234 -68q172 0 266 99t94 279v364q0 136 -54 224z" />
<glyph unicode="&#xd9;" horiz-adv-x="1240" d="M156 456v764q0 66 52 66t52 -64v-764q0 -176 94 -274t266 -98t266 98t94 274v764q0 64 54 64q50 0 50 -66v-764q0 -220 -130 -347t-334 -127t-334 126t-130 348zM408 1566q0 22 16 37t34 15q22 0 50 -30l192 -230q18 -22 18 -46q0 -22 -16 -36t-34 -14q-24 0 -50 30 l-192 230q-18 22 -18 44z" />
<glyph unicode="&#xda;" horiz-adv-x="1240" d="M156 456v764q0 66 52 66t52 -64v-764q0 -176 94 -274t266 -98t266 98t94 274v764q0 64 54 64q50 0 50 -66v-764q0 -220 -130 -347t-334 -127t-334 126t-130 348zM570 1312q0 24 18 46l192 230q28 30 50 30q18 0 34 -15t16 -37t-18 -44l-192 -230q-26 -30 -50 -30 q-16 0 -33 15t-17 35z" />
<glyph unicode="&#xdb;" horiz-adv-x="1240" d="M156 456v764q0 66 52 66t52 -64v-764q0 -176 94 -274t266 -98t266 98t94 274v764q0 64 54 64q50 0 50 -66v-764q0 -220 -130 -347t-334 -127t-334 126t-130 348zM338 1338q0 20 12 36l210 264h118l214 -264q12 -16 12 -36q0 -46 -46 -46q-10 0 -19 4t-12 7t-13 15t-12 14 l-182 192l-180 -192q-4 -4 -10 -12t-10 -11t-9 -8t-12 -7t-15 -2q-46 0 -46 46z" />
<glyph unicode="&#xdc;" horiz-adv-x="1240" d="M156 456v764q0 66 52 66t52 -64v-764q0 -176 94 -274t266 -98t266 98t94 274v764q0 64 54 64q50 0 50 -66v-764q0 -220 -130 -347t-334 -127t-334 126t-130 348zM374 1486q0 34 34 58t68 24q32 0 67 -24t35 -58t-35 -58t-67 -24q-34 0 -68 24t-34 58zM666 1486 q0 34 34 58t68 24q32 0 67 -24t35 -58t-35 -58t-67 -24q-34 0 -68 24t-34 58z" />
<glyph unicode="&#xdd;" horiz-adv-x="1042" d="M34 1236q0 22 16 36t34 14q22 0 50 -36l386 -534l384 534q26 36 52 36q16 0 33 -15t17 -35q0 -18 -16 -42l-416 -578v-568q0 -62 -54 -62q-52 0 -52 62v568l-418 578q-16 24 -16 42zM470 1312q0 24 18 46l192 230q28 30 50 30q18 0 34 -15t16 -37t-18 -44l-192 -230 q-26 -30 -50 -30q-16 0 -33 15t-17 35z" />
<glyph unicode="&#xde;" horiz-adv-x="1040" d="M168 50v1096q0 66 52 66t52 -66v-214h350q164 0 256 -78t92 -228t-93 -229t-257 -79h-348v-268q0 -64 -54 -64q-50 0 -50 64zM272 416h258q188 0 261 39t73 167q0 124 -73 165t-259 41h-260v-412z" />
<glyph unicode="&#xdf;" horiz-adv-x="928" d="M64 874q0 44 62 48q2 108 30 181t78 108t100 48t116 13q128 0 197 -69t69 -163q0 -178 -148 -274q284 -82 284 -374q0 -234 -89 -333t-213 -99q-88 0 -167 58t-79 164q0 72 56 72t56 -68q0 -66 46 -94t106 -28q72 0 126 71t54 259q0 52 -18 102t-61 100t-131 80t-212 30 v102q88 0 149 23t88 61t38 74t11 78q0 56 -43 90t-119 34q-116 0 -168 -45t-52 -201v-864q0 -72 -56 -72q-48 0 -48 72v762q-62 4 -62 54z" />
<glyph unicode="&#xe0;" horiz-adv-x="1108" d="M120 246q0 202 109 273t337 71h294v114q0 62 -23 88t-87 26h-282q-244 0 -244 -120q0 -70 -54 -70q-50 0 -50 70q0 116 92 170t242 54h310q116 0 158 -56t42 -196v-616q0 -68 -52 -68t-52 70v70q-114 -126 -340 -126h-186q-94 0 -154 67t-60 179zM224 236q0 -52 34 -92 t76 -40h186q168 0 254 91t86 261v30h-294q-102 0 -157 -7t-103 -32t-65 -75t-17 -136zM330 1308q0 22 16 37t34 15q24 0 50 -30l192 -230q18 -20 18 -46q0 -22 -16 -36t-34 -14q-22 0 -50 30l-192 230q-18 20 -18 44z" />
<glyph unicode="&#xe1;" horiz-adv-x="1108" d="M120 246q0 202 109 273t337 71h294v114q0 62 -23 88t-87 26h-282q-244 0 -244 -120q0 -70 -54 -70q-50 0 -50 70q0 116 92 170t242 54h310q116 0 158 -56t42 -196v-616q0 -68 -52 -68t-52 70v70q-114 -126 -340 -126h-186q-94 0 -154 67t-60 179zM224 236q0 -52 34 -92 t76 -40h186q168 0 254 91t86 261v30h-294q-102 0 -157 -7t-103 -32t-65 -75t-17 -136zM492 1060q0 24 18 46l192 230q26 30 50 30q18 0 34 -15t16 -37t-18 -44l-192 -230q-28 -30 -50 -30q-16 0 -33 15t-17 35z" />
<glyph unicode="&#xe2;" horiz-adv-x="1108" d="M120 246q0 202 109 273t337 71h294v114q0 62 -23 88t-87 26h-282q-244 0 -244 -120q0 -70 -54 -70q-50 0 -50 70q0 116 92 170t242 54h310q116 0 158 -56t42 -196v-616q0 -68 -52 -68t-52 70v70q-114 -126 -340 -126h-186q-94 0 -154 67t-60 179zM224 236q0 -52 34 -92 t76 -40h186q168 0 254 91t86 261v30h-294q-102 0 -157 -7t-103 -32t-65 -75t-17 -136zM260 1080q0 20 12 36l210 264h118l214 -264q12 -16 12 -36q0 -46 -46 -46q-10 0 -19 4t-12 7t-13 15t-12 14l-182 192l-180 -192q-4 -4 -10 -12t-10 -11t-9 -8t-12 -7t-15 -2 q-46 0 -46 46z" />
<glyph unicode="&#xe3;" horiz-adv-x="1108" d="M120 246q0 202 109 273t337 71h294v114q0 62 -23 88t-87 26h-282q-244 0 -244 -120q0 -70 -54 -70q-50 0 -50 70q0 116 92 170t242 54h310q116 0 158 -56t42 -196v-616q0 -68 -52 -68t-52 70v70q-114 -126 -340 -126h-186q-94 0 -154 67t-60 179zM224 236q0 -52 34 -92 t76 -40h186q168 0 254 91t86 261v30h-294q-102 0 -157 -7t-103 -32t-65 -75t-17 -136zM262 1082q0 30 28 52l92 76q14 18 38 18q4 0 14 -2t12 -2l196 -72l10 -4q6 0 16 8l62 56q26 18 44 18q20 0 36 -12t16 -34q0 -28 -28 -54l-94 -78q-16 -16 -38 -16q-4 0 -8 1t-7 1t-6 1 l-3 1l-196 72q-4 4 -12 4q-6 0 -16 -8l-62 -56q-26 -18 -44 -18t-34 13t-16 35z" />
<glyph unicode="&#xe4;" horiz-adv-x="1108" d="M120 246q0 202 109 273t337 71h294v114q0 62 -23 88t-87 26h-282q-244 0 -244 -120q0 -70 -54 -70q-50 0 -50 70q0 116 92 170t242 54h310q116 0 158 -56t42 -196v-616q0 -68 -52 -68t-52 70v70q-114 -126 -340 -126h-186q-94 0 -154 67t-60 179zM224 236q0 -52 34 -92 t76 -40h186q168 0 254 91t86 261v30h-294q-102 0 -157 -7t-103 -32t-65 -75t-17 -136zM294 1116q0 34 34 58t68 24q32 0 67 -24t35 -58t-35 -58t-67 -24q-34 0 -68 24t-34 58zM586 1116q0 34 34 58t68 24q32 0 67 -24t35 -58t-35 -58t-67 -24q-34 0 -68 24t-34 58z" />
<glyph unicode="&#xe5;" horiz-adv-x="1108" d="M120 246q0 202 109 273t337 71h294v114q0 62 -23 88t-87 26h-282q-244 0 -244 -120q0 -70 -54 -70q-50 0 -50 70q0 116 92 170t242 54h310q116 0 158 -56t42 -196v-616q0 -68 -52 -68t-52 70v70q-114 -126 -340 -126h-186q-94 0 -154 67t-60 179zM224 236q0 -52 34 -92 t76 -40h186q168 0 254 91t86 261v30h-294q-102 0 -157 -7t-103 -32t-65 -75t-17 -136zM382 1196q0 68 47 115t115 47t115 -47t47 -115t-47 -115t-115 -47t-115 47t-47 115zM456 1196q0 -36 26 -62t62 -26q34 0 61 26t27 62t-27 62t-61 26q-36 0 -62 -27t-26 -61z" />
<glyph unicode="&#xe6;" horiz-adv-x="1888" d="M120 246q0 202 109 273t337 71h294v114q0 62 -23 88t-87 26h-282q-244 0 -244 -120q0 -70 -54 -70q-50 0 -50 70q0 116 92 170t242 54h310q142 0 180 -94q92 94 364 94h16q230 0 337 -71t107 -281v-84h-802v-132q0 -86 17 -136t65 -75t103 -32t157 -7h246q64 0 87 28 t23 96q0 66 52 66t52 -72q0 -46 -6 -80t-25 -69t-62 -54t-107 -19h-260q-166 0 -265 33t-145 123q-54 -72 -166 -114t-212 -42h-186q-94 0 -154 67t-60 179zM224 236q0 -52 34 -92t76 -40h186q168 0 254 91t86 261v30h-294q-102 0 -157 -7t-103 -32t-65 -75t-17 -136z M966 590h698q-2 144 -76 186t-264 42h-16q-192 0 -266 -42t-76 -186z" />
<glyph unicode="&#xe7;" horiz-adv-x="1168" d="M124 352v218q0 210 108 281t338 71h282q64 0 107 -19t62 -55t25 -70t6 -80q0 -70 -52 -70t-52 66q0 70 -24 97t-86 27h-268q-102 0 -157 -7t-103 -32t-65 -75t-17 -136v-214q0 -86 17 -136t65 -75t103 -32t157 -7h268q64 0 87 28t23 96q0 66 52 66t52 -72q0 -46 -6 -80 t-25 -69t-62 -54t-107 -19h-210q6 -26 29 -47t46 -34t42 -41t19 -66q0 -72 -56 -117t-136 -45q-50 0 -104 24t-54 76q0 36 30 36q12 0 58 -18t74 -18q84 0 84 52q0 22 -32 47t-66 62t-40 89q-212 4 -312 77t-100 275z" />
<glyph unicode="&#xe8;" horiz-adv-x="1184" d="M124 352v218q0 210 108 281t338 71h58q230 0 337 -71t107 -281v-80h-844v-136q0 -86 17 -136t65 -75t103 -32t157 -7h268q64 0 87 28t23 96q0 66 52 66t52 -72q0 -46 -6 -80t-25 -69t-62 -54t-107 -19h-282q-230 0 -338 71t-108 281zM228 594h740q-2 142 -75 183t-265 41 h-58q-194 0 -267 -41t-75 -183zM382 1314q0 22 16 37t34 15q24 0 50 -30l192 -230q18 -22 18 -46q0 -22 -16 -36t-34 -14q-22 0 -50 30l-192 230q-18 22 -18 44z" />
<glyph unicode="&#xe9;" horiz-adv-x="1184" d="M124 352v218q0 210 108 281t338 71h58q230 0 337 -71t107 -281v-80h-844v-136q0 -86 17 -136t65 -75t103 -32t157 -7h268q64 0 87 28t23 96q0 66 52 66t52 -72q0 -46 -6 -80t-25 -69t-62 -54t-107 -19h-282q-230 0 -338 71t-108 281zM228 594h740q-2 142 -75 183t-265 41 h-58q-194 0 -267 -41t-75 -183zM550 1060q0 24 18 46l192 230q28 30 50 30q18 0 34 -15t16 -37t-18 -44l-192 -230q-26 -30 -50 -30q-16 0 -33 15t-17 35z" />
<glyph unicode="&#xea;" horiz-adv-x="1184" d="M124 352v218q0 210 108 281t338 71h58q230 0 337 -71t107 -281v-80h-844v-136q0 -86 17 -136t65 -75t103 -32t157 -7h268q64 0 87 28t23 96q0 66 52 66t52 -72q0 -46 -6 -80t-25 -69t-62 -54t-107 -19h-282q-230 0 -338 71t-108 281zM228 594h740q-2 142 -75 183t-265 41 h-58q-194 0 -267 -41t-75 -183zM316 1080q0 20 12 36l210 264h118l214 -264q12 -16 12 -36q0 -46 -46 -46q-10 0 -19 4t-12 7t-13 15t-12 14l-182 192l-180 -192q-4 -4 -10 -12t-10 -11t-9 -8t-12 -7t-15 -2q-46 0 -46 46z" />
<glyph unicode="&#xeb;" horiz-adv-x="1184" d="M124 352v218q0 210 108 281t338 71h58q230 0 337 -71t107 -281v-80h-844v-136q0 -86 17 -136t65 -75t103 -32t157 -7h268q64 0 87 28t23 96q0 66 52 66t52 -72q0 -46 -6 -80t-25 -69t-62 -54t-107 -19h-282q-230 0 -338 71t-108 281zM228 594h740q-2 142 -75 183t-265 41 h-58q-194 0 -267 -41t-75 -183zM352 1116q0 34 34 58t68 24q32 0 67 -24t35 -58t-35 -58t-67 -24q-34 0 -68 24t-34 58zM644 1116q0 34 34 58t68 24q32 0 67 -24t35 -58t-35 -58t-67 -24q-34 0 -68 24t-34 58z" />
<glyph unicode="&#xec;" horiz-adv-x="400" d="M-58 1316q0 22 16 37t34 15q24 0 50 -30l192 -230q18 -20 18 -46q0 -22 -16 -36t-34 -14q-22 0 -50 30l-192 230q-18 20 -18 44zM148 40v840q0 66 52 66t52 -66v-840q0 -64 -54 -64q-50 0 -50 64z" />
<glyph unicode="&#xed;" horiz-adv-x="400" d="M148 40v840q0 66 52 66t52 -66v-840q0 -64 -54 -64q-50 0 -50 64zM148 1060q0 24 18 46l192 230q26 30 50 30q18 0 34 -15t16 -37t-18 -44l-192 -230q-28 -30 -50 -30q-16 0 -33 15t-17 35z" />
<glyph unicode="&#xee;" horiz-adv-x="400" d="M-82 1094q0 20 12 36l210 264h118l214 -264q12 -16 12 -36q0 -46 -46 -46q-10 0 -19 4t-12 7t-13 15t-12 14l-182 192l-180 -192q-4 -4 -10 -12t-10 -11t-9 -8t-12 -7t-15 -2q-46 0 -46 46zM148 40v840q0 66 52 66t52 -66v-840q0 -64 -54 -64q-50 0 -50 64z" />
<glyph unicode="&#xef;" horiz-adv-x="400" d="M-48 1130q0 34 34 58t68 24q32 0 67 -24t35 -58t-35 -58t-67 -24q-34 0 -68 24t-34 58zM148 40v840q0 66 52 66t52 -66v-840q0 -64 -54 -64q-50 0 -50 64zM244 1130q0 34 34 58t68 24q32 0 67 -24t35 -58t-35 -58t-67 -24q-34 0 -68 24t-34 58z" />
<glyph unicode="&#xf0;" horiz-adv-x="1132" d="M94 440q0 222 138 347t358 125q152 0 252 -78q-82 174 -244 258l-100 -94q-24 -24 -48 -24q-18 0 -37 15t-19 35t28 48l68 64q-88 30 -184 30q-62 0 -62 50q0 56 62 56q142 0 270 -52l66 64q28 24 52 24q18 0 35 -14t17 -34q0 -24 -26 -50l-42 -40q344 -212 344 -726 q0 -196 -116 -336t-316 -140q-220 0 -358 126t-138 346zM198 440q0 -162 106 -265t286 -103q160 0 244 116t84 254q0 152 -82 259t-246 107q-180 0 -286 -103t-106 -265z" />
<glyph unicode="&#xf1;" horiz-adv-x="1236" d="M148 54v812q0 70 48 70q56 0 56 -72v-68q118 126 342 126h58q230 0 337 -71t107 -281v-516q0 -68 -50 -68q-54 0 -54 68v514q0 86 -17 136t-64 75t-102 32t-157 7h-58q-170 0 -256 -91t-86 -265v-408q0 -68 -52 -68t-52 68zM340 1096q0 30 28 52l92 76q16 18 38 18 q4 0 14 -2t12 -2l196 -72l10 -4q6 0 16 8l62 56q26 18 44 18q20 0 36 -12t16 -34q0 -28 -28 -54l-94 -78q-16 -16 -38 -16q-4 0 -8 1t-7 1t-6 1l-3 1l-196 72q-4 4 -12 4q-6 0 -16 -8l-62 -56q-26 -18 -44 -18t-34 13t-16 35z" />
<glyph unicode="&#xf2;" d="M124 352v218q0 210 108 281t338 71h58q230 0 337 -71t107 -281v-218q0 -210 -107 -281t-337 -71h-58q-230 0 -338 71t-108 281zM228 354q0 -86 17 -136t65 -75t103 -32t157 -7h58q102 0 157 7t102 32t64 75t17 136v214q0 86 -17 136t-64 75t-102 32t-157 7h-58 q-102 0 -157 -7t-103 -32t-65 -75t-17 -136v-214zM386 1314q0 22 16 37t34 15q24 0 50 -30l192 -230q18 -22 18 -46q0 -22 -16 -36t-34 -14q-22 0 -50 30l-192 230q-18 22 -18 44z" />
<glyph unicode="&#xf3;" d="M124 352v218q0 210 108 281t338 71h58q230 0 337 -71t107 -281v-218q0 -210 -107 -281t-337 -71h-58q-230 0 -338 71t-108 281zM228 354q0 -86 17 -136t65 -75t103 -32t157 -7h58q102 0 157 7t102 32t64 75t17 136v214q0 86 -17 136t-64 75t-102 32t-157 7h-58 q-102 0 -157 -7t-103 -32t-65 -75t-17 -136v-214zM546 1060q0 24 18 46l192 230q28 30 50 30q18 0 34 -15t16 -37t-18 -44l-192 -230q-26 -30 -50 -30q-16 0 -33 15t-17 35z" />
<glyph unicode="&#xf4;" d="M124 352v218q0 210 108 281t338 71h58q230 0 337 -71t107 -281v-218q0 -210 -107 -281t-337 -71h-58q-230 0 -338 71t-108 281zM228 354q0 -86 17 -136t65 -75t103 -32t157 -7h58q102 0 157 7t102 32t64 75t17 136v214q0 86 -17 136t-64 75t-102 32t-157 7h-58 q-102 0 -157 -7t-103 -32t-65 -75t-17 -136v-214zM316 1080q0 20 12 36l210 264h118l214 -264q12 -16 12 -36q0 -46 -46 -46q-10 0 -19 4t-12 7t-13 15t-12 14l-182 192l-180 -192q-4 -4 -10 -12t-10 -11t-9 -8t-12 -7t-15 -2q-46 0 -46 46z" />
<glyph unicode="&#xf5;" d="M124 352v218q0 210 108 281t338 71h58q230 0 337 -71t107 -281v-218q0 -210 -107 -281t-337 -71h-58q-230 0 -338 71t-108 281zM228 354q0 -86 17 -136t65 -75t103 -32t157 -7h58q102 0 157 7t102 32t64 75t17 136v214q0 86 -17 136t-64 75t-102 32t-157 7h-58 q-102 0 -157 -7t-103 -32t-65 -75t-17 -136v-214zM316 1082q0 30 28 52l92 76q16 18 38 18q4 0 14 -2t12 -2l196 -72l10 -4q6 0 16 8l62 56q26 18 44 18q20 0 36 -12t16 -34q0 -28 -28 -54l-94 -78q-16 -16 -38 -16q-4 0 -8 1t-7 1t-6 1l-3 1l-196 72q-4 4 -12 4 q-6 0 -16 -8l-62 -56q-26 -18 -44 -18t-34 13t-16 35z" />
<glyph unicode="&#xf6;" d="M124 352v218q0 210 108 281t338 71h58q230 0 337 -71t107 -281v-218q0 -210 -107 -281t-337 -71h-58q-230 0 -338 71t-108 281zM228 354q0 -86 17 -136t65 -75t103 -32t157 -7h58q102 0 157 7t102 32t64 75t17 136v214q0 86 -17 136t-64 75t-102 32t-157 7h-58 q-102 0 -157 -7t-103 -32t-65 -75t-17 -136v-214zM352 1116q0 34 34 58t68 24q32 0 67 -24t35 -58t-35 -58t-67 -24q-34 0 -68 24t-34 58zM644 1116q0 34 34 58t68 24q32 0 67 -24t35 -58t-35 -58t-67 -24q-34 0 -68 24t-34 58z" />
<glyph unicode="&#xf7;" horiz-adv-x="878" d="M128 462q0 52 62 52h490q68 0 68 -56q0 -22 -19 -36t-49 -14h-490q-62 0 -62 54zM328 256q0 34 34 58t68 24q32 0 67 -24t35 -58t-35 -58t-67 -24q-34 0 -68 24t-34 58zM328 666q0 34 34 58t68 24q32 0 67 -24t35 -58t-35 -58t-67 -24q-34 0 -68 24t-34 58z" />
<glyph unicode="&#xf8;" d="M124 352v218q0 210 108 281t338 71h58q198 0 286 -42l20 28q24 30 50 30q20 0 36 -14t16 -36q0 -16 -20 -46l-18 -20q74 -84 74 -252v-218q0 -210 -107 -281t-337 -71h-58q-192 0 -284 38l-22 -24q-26 -30 -50 -30q-18 0 -35 15t-17 35q0 18 22 46l16 18q-76 86 -76 254z M228 340q0 -122 40 -180l574 640q-66 18 -214 18h-58q-198 0 -270 -45t-72 -211v-222zM356 122q66 -18 214 -18h58q196 0 268 45t72 211v222q0 122 -38 178z" />
<glyph unicode="&#xf9;" horiz-adv-x="1236" d="M140 352v516q0 68 50 68q54 0 54 -68v-514q0 -86 17 -136t64 -75t102 -32t157 -7h58q170 0 256 91t86 265v408q0 68 52 68t52 -68v-812q0 -70 -48 -70q-56 0 -56 72v68q-118 -126 -342 -126h-58q-230 0 -337 71t-107 281zM400 1314q0 22 16 37t34 15q22 0 50 -30 l192 -230q18 -22 18 -46q0 -22 -16 -36t-34 -14q-24 0 -50 30l-192 230q-18 22 -18 44z" />
<glyph unicode="&#xfa;" horiz-adv-x="1236" d="M140 352v516q0 68 50 68q54 0 54 -68v-514q0 -86 17 -136t64 -75t102 -32t157 -7h58q170 0 256 91t86 265v408q0 68 52 68t52 -68v-812q0 -70 -48 -70q-56 0 -56 72v68q-118 -126 -342 -126h-58q-230 0 -337 71t-107 281zM564 1060q0 24 18 46l192 230q26 30 50 30 q18 0 34 -15t16 -37t-18 -44l-192 -230q-28 -30 -50 -30q-16 0 -33 15t-17 35z" />
<glyph unicode="&#xfb;" horiz-adv-x="1236" d="M140 352v516q0 68 50 68q54 0 54 -68v-514q0 -86 17 -136t64 -75t102 -32t157 -7h58q170 0 256 91t86 265v408q0 68 52 68t52 -68v-812q0 -70 -48 -70q-56 0 -56 72v68q-118 -126 -342 -126h-58q-230 0 -337 71t-107 281zM330 1094q0 20 12 36l210 264h118l214 -264 q12 -16 12 -36q0 -46 -46 -46q-10 0 -19 4t-12 7t-13 15t-12 14l-182 192l-180 -192q-4 -4 -10 -12t-10 -11t-9 -8t-12 -7t-15 -2q-46 0 -46 46z" />
<glyph unicode="&#xfc;" horiz-adv-x="1236" d="M140 352v516q0 68 50 68q54 0 54 -68v-514q0 -86 17 -136t64 -75t102 -32t157 -7h58q170 0 256 91t86 265v408q0 68 52 68t52 -68v-812q0 -70 -48 -70q-56 0 -56 72v68q-118 -126 -342 -126h-58q-230 0 -337 71t-107 281zM366 1130q0 34 34 58t68 24q32 0 67 -24t35 -58 t-35 -58t-67 -24q-34 0 -68 24t-34 58zM658 1130q0 34 34 58t68 24q32 0 67 -24t35 -58t-35 -58t-67 -24q-34 0 -68 24t-34 58z" />
<glyph unicode="&#xfd;" horiz-adv-x="1238" d="M140 -186q0 70 52 70t52 -66q0 -70 24 -97t86 -27h538q58 0 75 20t17 80v332q-118 -126 -342 -126h-58q-230 0 -337 71t-107 281v516q0 68 50 68q54 0 54 -68v-514q0 -86 17 -136t64 -75t102 -32t157 -7h58q170 0 256 91t86 265v408q0 68 52 68t52 -68v-1042 q0 -130 -38 -183t-144 -53h-566q-64 0 -107 19t-62 55t-25 70t-6 80zM566 1060q0 24 18 46l192 230q28 30 50 30q18 0 34 -15t16 -37t-18 -44l-192 -230q-26 -30 -50 -30q-16 0 -33 15t-17 35z" />
<glyph unicode="&#xfe;" horiz-adv-x="1222" d="M150 -294v1510q0 70 52 70t52 -70v-420q118 126 342 126h58q230 0 337 -71t107 -281v-218q0 -210 -107 -281t-335 -71h-402v-294q0 -70 -56 -70q-48 0 -48 70zM254 104h402q196 0 267 44t71 206v214q0 86 -17 136t-64 75t-102 32t-157 7h-58q-342 0 -342 -354v-360z" />
<glyph unicode="&#xff;" horiz-adv-x="1238" d="M140 -186q0 70 52 70t52 -66q0 -70 24 -97t86 -27h538q58 0 75 20t17 80v332q-118 -126 -342 -126h-58q-230 0 -337 71t-107 281v516q0 68 50 68q54 0 54 -68v-514q0 -86 17 -136t64 -75t102 -32t157 -7h58q170 0 256 91t86 265v408q0 68 52 68t52 -68v-1042 q0 -130 -38 -183t-144 -53h-566q-64 0 -107 19t-62 55t-25 70t-6 80zM366 1140q0 34 34 58t68 24q32 0 67 -24t35 -58t-35 -58t-67 -24q-34 0 -68 24t-34 58zM658 1140q0 34 34 58t68 24q32 0 67 -24t35 -58t-35 -58t-67 -24q-34 0 -68 24t-34 58z" />
<glyph unicode="&#x100;" horiz-adv-x="1140" d="M48 18q0 14 6 32l454 1222h124l454 -1222q6 -18 6 -32q0 -26 -18 -38t-34 -12q-34 0 -54 46l-142 384h-548l-142 -384q-20 -46 -54 -46q-16 0 -34 12t-18 38zM260 1468q0 52 62 52h490q68 0 68 -56q0 -22 -19 -36t-49 -14h-490q-62 0 -62 54zM336 502h468l-236 618z" />
<glyph unicode="&#x101;" horiz-adv-x="1108" d="M120 246q0 202 109 273t337 71h294v114q0 62 -23 88t-87 26h-282q-244 0 -244 -120q0 -70 -54 -70q-50 0 -50 70q0 116 92 170t242 54h310q116 0 158 -56t42 -196v-616q0 -68 -52 -68t-52 70v70q-114 -126 -340 -126h-186q-94 0 -154 67t-60 179zM224 236q0 -52 34 -92 t76 -40h186q168 0 254 91t86 261v30h-294q-102 0 -157 -7t-103 -32t-65 -75t-17 -136zM232 1098q0 52 62 52h490q68 0 68 -56q0 -22 -19 -36t-49 -14h-490q-62 0 -62 54z" />
<glyph unicode="&#x102;" horiz-adv-x="1140" d="M48 18q0 14 6 32l454 1222h124l454 -1222q6 -18 6 -32q0 -26 -18 -38t-34 -12q-34 0 -54 46l-142 384h-548l-142 -384q-20 -46 -54 -46q-16 0 -34 12t-18 38zM328 1638h106q0 -86 41 -120t93 -34t93 34t41 120h106q0 -122 -75 -192t-165 -70q-92 0 -166 71t-74 191z M336 502h468l-236 618z" />
<glyph unicode="&#x103;" horiz-adv-x="1108" d="M120 246q0 202 109 273t337 71h294v114q0 62 -23 88t-87 26h-282q-244 0 -244 -120q0 -70 -54 -70q-50 0 -50 70q0 116 92 170t242 54h310q116 0 158 -56t42 -196v-616q0 -68 -52 -68t-52 70v70q-114 -126 -340 -126h-186q-94 0 -154 67t-60 179zM224 236q0 -52 34 -92 t76 -40h186q168 0 254 91t86 261v30h-294q-102 0 -157 -7t-103 -32t-65 -75t-17 -136zM304 1306h106q0 -86 41 -120t93 -34t93 34t41 120h106q0 -122 -75 -192t-165 -70q-92 0 -166 71t-74 191z" />
<glyph unicode="&#x104;" horiz-adv-x="1138" d="M48 18q0 14 6 32l462 1242h108l462 -1242q6 -18 6 -32q0 -20 -22 -42q-40 -38 -70 -96t-30 -82q0 -108 84 -108q32 0 76 17t56 17q30 0 30 -34q0 -52 -54 -76t-104 -24q-82 0 -137 58t-55 150q0 86 116 228l-138 372h-548l-142 -384q-20 -46 -54 -46q-16 0 -34 12t-18 38 zM336 502h468l-236 618z" />
<glyph unicode="&#x105;" horiz-adv-x="1108" d="M120 246q0 202 109 273t337 71h294v114q0 62 -23 88t-87 26h-282q-244 0 -244 -120q0 -70 -54 -70q-50 0 -50 70q0 116 92 170t242 54h310q116 0 158 -56t42 -196v-616q0 -46 -26 -62q-46 -28 -80 -94t-34 -98q0 -108 84 -108q32 0 76 17t56 17q30 0 30 -34 q0 -52 -54 -76t-104 -24q-82 0 -137 58t-55 150q0 48 45 124t95 134v68q-114 -126 -340 -126h-186q-94 0 -154 67t-60 179zM224 236q0 -52 34 -92t76 -40h186q168 0 254 91t86 261v30h-294q-102 0 -157 -7t-103 -32t-65 -75t-17 -136z" />
<glyph unicode="&#x106;" horiz-adv-x="1184" d="M144 360v552q0 216 106 288t328 72h294q64 0 107 -19t62 -54t25 -69t6 -82q0 -70 -52 -70t-52 66q0 70 -24 97t-86 27h-280q-96 0 -150 -7t-100 -33t-63 -78t-17 -138v-552q0 -166 72 -211t270 -45h268q64 0 87 28t23 96q0 66 52 66t52 -72q0 -46 -6 -80t-25 -69t-62 -54 t-107 -19h-282q-232 0 -339 72t-107 288zM572 1426q0 22 26 52l138 136q24 26 50 26q22 0 36 -17t14 -33q0 -20 -24 -48l-140 -138q-24 -26 -48 -26q-20 0 -36 15t-16 33z" />
<glyph unicode="&#x107;" horiz-adv-x="1168" d="M124 352v218q0 210 108 281t338 71h282q64 0 107 -19t62 -55t25 -70t6 -80q0 -70 -52 -70t-52 66q0 70 -24 97t-86 27h-268q-102 0 -157 -7t-103 -32t-65 -75t-17 -136v-214q0 -86 17 -136t65 -75t103 -32t157 -7h268q64 0 87 28t23 96q0 66 52 66t52 -72q0 -46 -6 -80 t-25 -69t-62 -54t-107 -19h-282q-230 0 -338 71t-108 281zM516 1060q0 24 18 46l192 230q26 30 50 30q18 0 34 -15t16 -37t-18 -44l-192 -230q-28 -30 -50 -30q-16 0 -33 15t-17 35z" />
<glyph unicode="&#x108;" horiz-adv-x="1184" d="M144 360v552q0 216 106 288t328 72h294q64 0 107 -19t62 -54t25 -69t6 -82q0 -70 -52 -70t-52 66q0 70 -24 97t-86 27h-280q-96 0 -150 -7t-100 -33t-63 -78t-17 -138v-552q0 -166 72 -211t270 -45h268q64 0 87 28t23 96q0 66 52 66t52 -72q0 -46 -6 -80t-25 -69t-62 -54 t-107 -19h-282q-232 0 -339 72t-107 288zM338 1338q0 20 12 36l210 264h118l214 -264q12 -16 12 -36q0 -46 -46 -46q-10 0 -19 4t-12 7t-13 15t-12 14l-182 192l-180 -192q-4 -4 -10 -12t-10 -11t-9 -8t-12 -7t-15 -2q-46 0 -46 46z" />
<glyph unicode="&#x109;" horiz-adv-x="1168" d="M124 352v218q0 210 108 281t338 71h282q64 0 107 -19t62 -55t25 -70t6 -80q0 -70 -52 -70t-52 66q0 70 -24 97t-86 27h-268q-102 0 -157 -7t-103 -32t-65 -75t-17 -136v-214q0 -86 17 -136t65 -75t103 -32t157 -7h268q64 0 87 28t23 96q0 66 52 66t52 -72q0 -46 -6 -80 t-25 -69t-62 -54t-107 -19h-282q-230 0 -338 71t-108 281zM294 1080q0 20 12 36l210 264h118l214 -264q12 -16 12 -36q0 -46 -46 -46q-10 0 -19 4t-12 7t-13 15t-12 14l-182 192l-180 -192q-4 -4 -10 -12t-10 -11t-9 -8t-12 -7t-15 -2q-46 0 -46 46z" />
<glyph unicode="&#x10a;" horiz-adv-x="1184" d="M144 360v552q0 216 106 288t328 72h294q64 0 107 -19t62 -54t25 -69t6 -82q0 -70 -52 -70t-52 66q0 70 -24 97t-86 27h-280q-96 0 -150 -7t-100 -33t-63 -78t-17 -138v-552q0 -166 72 -211t270 -45h268q64 0 87 28t23 96q0 66 52 66t52 -72q0 -46 -6 -80t-25 -69t-62 -54 t-107 -19h-282q-232 0 -339 72t-107 288zM480 1484q0 34 34 58t68 24q32 0 67 -24t35 -58t-35 -58t-67 -24q-34 0 -68 24t-34 58z" />
<glyph unicode="&#x10b;" horiz-adv-x="1168" d="M124 352v218q0 210 108 281t338 71h282q64 0 107 -19t62 -55t25 -70t6 -80q0 -70 -52 -70t-52 66q0 70 -24 97t-86 27h-268q-102 0 -157 -7t-103 -32t-65 -75t-17 -136v-214q0 -86 17 -136t65 -75t103 -32t157 -7h268q64 0 87 28t23 96q0 66 52 66t52 -72q0 -46 -6 -80 t-25 -69t-62 -54t-107 -19h-282q-230 0 -338 71t-108 281zM468 1116q0 34 34 58t68 24q32 0 67 -24t35 -58t-35 -58t-67 -24q-34 0 -68 24t-34 58z" />
<glyph unicode="&#x10c;" horiz-adv-x="1184" d="M144 360v552q0 216 106 288t328 72h294q64 0 107 -19t62 -54t25 -69t6 -82q0 -70 -52 -70t-52 66q0 70 -24 97t-86 27h-280q-96 0 -150 -7t-100 -33t-63 -78t-17 -138v-552q0 -166 72 -211t270 -45h268q64 0 87 28t23 96q0 66 52 66t52 -72q0 -46 -6 -80t-25 -69t-62 -54 t-107 -19h-282q-232 0 -339 72t-107 288zM316 1604q0 40 46 40q24 0 64 -34l168 -140l168 140q40 34 64 34q46 0 46 -40q0 -16 -14 -30l-208 -218h-112l-208 218q-14 14 -14 30z" />
<glyph unicode="&#x10d;" horiz-adv-x="1168" d="M124 352v218q0 210 108 281t338 71h282q64 0 107 -19t62 -55t25 -70t6 -80q0 -70 -52 -70t-52 66q0 70 -24 97t-86 27h-268q-102 0 -157 -7t-103 -32t-65 -75t-17 -136v-214q0 -86 17 -136t65 -75t103 -32t157 -7h268q64 0 87 28t23 96q0 66 52 66t52 -72q0 -46 -6 -80 t-25 -69t-62 -54t-107 -19h-282q-230 0 -338 71t-108 281zM314 1292q0 40 46 40q24 0 64 -34l168 -140l168 140q40 34 64 34q46 0 46 -40q0 -16 -14 -30l-208 -218h-112l-208 218q-14 14 -14 30z" />
<glyph unicode="&#x10e;" horiz-adv-x="1240" d="M168 72v1128q0 72 48 72h448q108 0 180 -13t133 -51t90 -111t29 -185v-552q0 -216 -107 -288t-337 -72h-436q-48 0 -48 72zM272 104h380q196 0 268 45t72 211v552q0 164 -70 210t-258 46h-392v-1064zM302 1598q0 40 46 40q24 0 64 -34l168 -140l168 140q40 34 64 34 q46 0 46 -40q0 -16 -14 -30l-208 -218h-112l-208 218q-14 14 -14 30z" />
<glyph unicode="&#x10f;" horiz-adv-x="1222" d="M124 352v218q0 210 107 281t337 71h400v292q0 72 56 72q48 0 48 -72v-1160q0 -68 -52 -68t-52 70v70q-118 -126 -342 -126h-58q-230 0 -337 71t-107 281zM228 354q0 -86 17 -136t64 -75t102 -32t157 -7h58q342 0 342 352v362h-400q-102 0 -157 -7t-102 -32t-64 -75 t-17 -136v-214zM1126 1044q0 8 6 32l48 174q14 46 50 46q22 0 52 -12t30 -38q0 -20 -10 -38l-82 -166q-20 -48 -50 -48q-44 0 -44 50z" />
<glyph unicode="&#x110;" horiz-adv-x="1240" d="M104 652q0 50 64 50v498q0 72 48 72h448q108 0 180 -13t133 -51t90 -111t29 -185v-552q0 -216 -107 -288t-337 -72h-436q-48 0 -48 72v524q-64 0 -64 56zM272 104h380q196 0 268 45t72 211v552q0 164 -70 210t-258 46h-392v-466h208q68 0 68 -54q0 -52 -68 -52h-208v-492 z" />
<glyph unicode="&#x111;" horiz-adv-x="1222" d="M124 352v218q0 210 107 281t337 71h400v102h-384q-62 0 -62 54q0 52 62 52h384v84q0 72 56 72q48 0 48 -72v-84h2q68 0 68 -56q0 -22 -19 -36t-49 -14h-2v-970q0 -68 -52 -68t-52 70v70q-118 -126 -342 -126h-58q-230 0 -337 71t-107 281zM228 354q0 -86 17 -136t64 -75 t102 -32t157 -7h58q342 0 342 352v362h-400q-102 0 -157 -7t-102 -32t-64 -75t-17 -136v-214z" />
<glyph unicode="&#x112;" d="M168 72v1128q0 72 48 72h812q68 0 68 -56q0 -48 -68 -48h-756v-400h518q72 0 72 -56q0 -48 -72 -48h-518v-560h756q68 0 68 -56q0 -48 -68 -48h-812q-48 0 -48 72zM312 1466q0 52 62 52h490q68 0 68 -56q0 -22 -19 -36t-49 -14h-490q-62 0 -62 54z" />
<glyph unicode="&#x113;" horiz-adv-x="1184" d="M124 352v218q0 210 108 281t338 71h58q230 0 337 -71t107 -281v-80h-844v-136q0 -86 17 -136t65 -75t103 -32t157 -7h268q64 0 87 28t23 96q0 66 52 66t52 -72q0 -46 -6 -80t-25 -69t-62 -54t-107 -19h-282q-230 0 -338 71t-108 281zM228 594h740q-2 142 -75 183t-265 41 h-58q-194 0 -267 -41t-75 -183zM290 1098q0 52 62 52h490q68 0 68 -56q0 -22 -19 -36t-49 -14h-490q-62 0 -62 54z" />
<glyph unicode="&#x116;" d="M168 72v1128q0 72 48 72h812q68 0 68 -56q0 -48 -68 -48h-756v-400h518q72 0 72 -56q0 -48 -72 -48h-518v-560h756q68 0 68 -56q0 -48 -68 -48h-812q-48 0 -48 72zM520 1494q0 34 34 58t68 24q32 0 67 -24t35 -58t-35 -58t-67 -24q-34 0 -68 24t-34 58z" />
<glyph unicode="&#x117;" horiz-adv-x="1184" d="M124 352v218q0 210 108 281t338 71h58q230 0 337 -71t107 -281v-80h-844v-136q0 -86 17 -136t65 -75t103 -32t157 -7h268q64 0 87 28t23 96q0 66 52 66t52 -72q0 -46 -6 -80t-25 -69t-62 -54t-107 -19h-282q-230 0 -338 71t-108 281zM228 594h740q-2 142 -75 183t-265 41 h-58q-194 0 -267 -41t-75 -183zM498 1126q0 34 34 58t68 24q32 0 67 -24t35 -58t-35 -58t-67 -24q-34 0 -68 24t-34 58z" />
<glyph unicode="&#x118;" horiz-adv-x="1194" d="M168 72v1138q0 72 48 72h812q68 0 68 -56q0 -48 -68 -48h-756v-410h518q72 0 72 -56q0 -48 -72 -48h-518v-560h756q68 0 68 -56q0 -48 -68 -48h-334q-48 -32 -88 -101t-40 -101q0 -108 84 -108q32 0 76 17t56 17q30 0 30 -34q0 -52 -54 -76t-104 -24q-82 0 -137 58 t-55 150q0 74 96 202h-342q-48 0 -48 72z" />
<glyph unicode="&#x119;" horiz-adv-x="1184" d="M124 352v218q0 210 108 281t338 71h58q230 0 337 -71t107 -281v-80h-844v-136q0 -86 17 -136t65 -75t103 -32t157 -7h268q64 0 87 28t23 96q0 66 52 66t52 -72q0 -46 -6 -80t-25 -69t-62 -54t-107 -19h-98q-48 -32 -88 -101t-40 -101q0 -108 84 -108q32 0 76 17t56 17 q30 0 30 -34q0 -52 -54 -76t-104 -24q-82 0 -137 58t-55 150q0 74 96 202h-48q-230 0 -338 71t-108 281zM228 594h740q-2 142 -75 183t-265 41h-58q-194 0 -267 -41t-75 -183z" />
<glyph unicode="&#x11a;" d="M168 72v1128q0 72 48 72h812q68 0 68 -56q0 -48 -68 -48h-756v-400h518q72 0 72 -56q0 -48 -72 -48h-518v-560h756q68 0 68 -56q0 -48 -68 -48h-812q-48 0 -48 72zM318 1598q0 40 46 40q24 0 64 -34l168 -140l168 140q40 34 64 34q46 0 46 -40q0 -16 -14 -30l-208 -218 h-112l-208 218q-14 14 -14 30z" />
<glyph unicode="&#x11b;" horiz-adv-x="1184" d="M124 352v218q0 210 108 281t338 71h58q230 0 337 -71t107 -281v-80h-844v-136q0 -86 17 -136t65 -75t103 -32t157 -7h268q64 0 87 28t23 96q0 66 52 66t52 -72q0 -46 -6 -80t-25 -69t-62 -54t-107 -19h-282q-230 0 -338 71t-108 281zM228 594h740q-2 142 -75 183t-265 41 h-58q-194 0 -267 -41t-75 -183zM322 1292q0 40 46 40q24 0 64 -34l168 -140l168 140q40 34 64 34q46 0 46 -40q0 -16 -14 -30l-208 -218h-112l-208 218q-14 14 -14 30z" />
<glyph unicode="&#x11c;" horiz-adv-x="1212" d="M144 354v564q0 212 107 283t339 71h282q64 0 107 -19t62 -54t25 -69t6 -80q0 -72 -52 -72t-52 68q0 66 -23 94t-87 28h-268q-198 0 -270 -45t-72 -207v-560q0 -162 71 -207t259 -45h280q64 0 87 27t23 93v268h-262q-72 0 -72 50q0 54 72 54h366v-378q0 -98 -39 -158 t-161 -60h-294q-110 0 -182 13t-133 49t-90 108t-29 184zM324 1338q0 20 12 36l210 264h118l214 -264q12 -16 12 -36q0 -46 -46 -46q-10 0 -19 4t-12 7t-13 15t-12 14l-182 192l-180 -192q-4 -4 -10 -12t-10 -11t-9 -8t-12 -7t-15 -2q-46 0 -46 46z" />
<glyph unicode="&#x11d;" horiz-adv-x="1222" d="M124 -186q0 70 52 70t52 -66q0 -70 24 -97t86 -27h538q58 0 75 20t17 80v206h-400q-230 0 -337 71t-107 281v218q0 210 107 281t337 71h58q224 0 342 -126v70q0 70 52 70t52 -68v-1042q0 -130 -38 -183t-144 -53h-566q-64 0 -107 19t-62 55t-25 70t-6 80zM228 354 q0 -86 17 -136t64 -75t102 -32t157 -7h400v362q0 352 -342 352h-58q-102 0 -157 -7t-102 -32t-64 -75t-17 -136v-214zM316 1094q0 20 12 36l210 264h118l214 -264q12 -16 12 -36q0 -46 -46 -46q-10 0 -19 4t-12 7t-13 15t-12 14l-182 192l-180 -192q-4 -4 -10 -12t-10 -11 t-9 -8t-12 -7t-15 -2q-46 0 -46 46z" />
<glyph unicode="&#x11e;" horiz-adv-x="1212" d="M144 354v564q0 212 107 283t339 71h282q64 0 107 -19t62 -54t25 -69t6 -80q0 -72 -52 -72t-52 68q0 66 -23 94t-87 28h-268q-198 0 -270 -45t-72 -207v-560q0 -162 71 -207t259 -45h280q64 0 87 27t23 93v268h-262q-72 0 -72 50q0 54 72 54h366v-378q0 -98 -39 -158 t-161 -60h-294q-110 0 -182 13t-133 49t-90 108t-29 184zM370 1638h106q0 -86 41 -120t93 -34t93 34t41 120h106q0 -122 -75 -192t-165 -70q-92 0 -166 71t-74 191z" />
<glyph unicode="&#x11f;" horiz-adv-x="1222" d="M124 -186q0 70 52 70t52 -66q0 -70 24 -97t86 -27h538q58 0 75 20t17 80v206h-400q-230 0 -337 71t-107 281v218q0 210 107 281t337 71h58q224 0 342 -126v70q0 70 52 70t52 -68v-1042q0 -130 -38 -183t-144 -53h-566q-64 0 -107 19t-62 55t-25 70t-6 80zM228 354 q0 -86 17 -136t64 -75t102 -32t157 -7h400v362q0 352 -342 352h-58q-102 0 -157 -7t-102 -32t-64 -75t-17 -136v-214zM326 1320h106q0 -86 41 -120t93 -34t93 34t41 120h106q0 -122 -75 -192t-165 -70q-92 0 -166 71t-74 191z" />
<glyph unicode="&#x120;" horiz-adv-x="1212" d="M144 354v564q0 212 107 283t339 71h282q64 0 107 -19t62 -54t25 -69t6 -80q0 -72 -52 -72t-52 68q0 66 -23 94t-87 28h-268q-198 0 -270 -45t-72 -207v-560q0 -162 71 -207t259 -45h280q64 0 87 27t23 93v268h-262q-72 0 -72 50q0 54 72 54h366v-378q0 -98 -39 -158 t-161 -60h-294q-110 0 -182 13t-133 49t-90 108t-29 184zM476 1484q0 34 34 58t68 24q32 0 67 -24t35 -58t-35 -58t-67 -24q-34 0 -68 24t-34 58z" />
<glyph unicode="&#x121;" horiz-adv-x="1222" d="M124 -186q0 70 52 70t52 -66q0 -70 24 -97t86 -27h538q58 0 75 20t17 80v206h-400q-230 0 -337 71t-107 281v218q0 210 107 281t337 71h58q224 0 342 -126v70q0 70 52 70t52 -68v-1042q0 -130 -38 -183t-144 -53h-566q-64 0 -107 19t-62 55t-25 70t-6 80zM228 354 q0 -86 17 -136t64 -75t102 -32t157 -7h400v362q0 352 -342 352h-58q-102 0 -157 -7t-102 -32t-64 -75t-17 -136v-214zM496 1130q0 34 34 58t68 24q32 0 67 -24t35 -58t-35 -58t-67 -24q-34 0 -68 24t-34 58z" />
<glyph unicode="&#x122;" horiz-adv-x="1212" d="M144 354v564q0 212 107 283t339 71h282q64 0 107 -19t62 -54t25 -69t6 -80q0 -72 -52 -72t-52 68q0 66 -23 94t-87 28h-268q-198 0 -270 -45t-72 -207v-560q0 -162 71 -207t259 -45h280q64 0 87 27t23 93v268h-262q-72 0 -72 50q0 54 72 54h366v-378q0 -98 -39 -158 t-161 -60h-294q-110 0 -182 13t-133 49t-90 108t-29 184zM524 -360q0 8 6 32l48 174q14 46 50 46q22 0 52 -12t30 -38q0 -20 -10 -38l-82 -166q-20 -48 -50 -48q-44 0 -44 50z" />
<glyph unicode="&#x123;" horiz-adv-x="1222" d="M124 -186q0 70 52 70t52 -66q0 -70 24 -97t86 -27h538q58 0 75 20t17 80v206h-400q-230 0 -337 71t-107 281v218q0 210 107 281t337 71h58q224 0 342 -126v70q0 70 52 70t52 -68v-1042q0 -130 -38 -183t-144 -53h-566q-64 0 -107 19t-62 55t-25 70t-6 80zM228 354 q0 -86 17 -136t64 -75t102 -32t157 -7h400v362q0 352 -342 352h-58q-102 0 -157 -7t-102 -32t-64 -75t-17 -136v-214zM544 1108q0 20 10 38l82 166q20 48 50 48q44 0 44 -50q0 -8 -6 -32l-48 -172q-14 -48 -50 -48q-22 0 -52 12t-30 38z" />
<glyph unicode="&#x124;" horiz-adv-x="1264" d="M168 54v1162q0 70 48 70q56 0 56 -70v-478h720v478q0 70 50 70q54 0 54 -70v-1162q0 -68 -50 -68q-54 0 -54 68v580h-720v-580q0 -68 -52 -68t-52 68zM354 1338q0 20 12 36l210 264h118l214 -264q12 -16 12 -36q0 -46 -46 -46q-10 0 -19 4t-12 7t-13 15t-12 14l-182 192 l-180 -192q-4 -4 -10 -12t-10 -11t-9 -8t-12 -7t-15 -2q-46 0 -46 46z" />
<glyph unicode="&#x125;" horiz-adv-x="1238" d="M150 54v1160q0 72 48 72q56 0 56 -72v-418q118 126 342 126h58q230 0 337 -71t107 -281v-516q0 -68 -50 -68q-54 0 -54 68v514q0 86 -17 136t-64 75t-102 32t-157 7h-58q-170 0 -256 -91t-86 -265v-408q0 -68 -52 -68t-52 68zM342 1338q0 20 12 36l210 264h118l214 -264 q12 -16 12 -36q0 -46 -46 -46q-10 0 -19 4t-12 7t-13 15t-12 14l-182 192l-180 -192q-4 -4 -10 -12t-10 -11t-9 -8t-12 -7t-15 -2q-46 0 -46 46z" />
<glyph unicode="&#x126;" horiz-adv-x="1272" d="M56 1060q0 42 52 42h64v114q0 70 48 70q56 0 56 -70v-114h720v114q0 70 50 70q54 0 54 -70v-114h58q58 0 58 -46q0 -40 -58 -40h-58v-962q0 -68 -50 -68q-54 0 -54 68v580h-720v-580q0 -68 -52 -68t-52 68v962h-64q-52 0 -52 44zM276 738h720v278h-720v-278z" />
<glyph unicode="&#x127;" horiz-adv-x="1238" d="M74 1056q0 50 76 50v108q0 72 48 72q56 0 56 -72v-108h420q76 0 76 -56q0 -50 -76 -50h-420v-204q118 126 342 126h58q230 0 337 -71t107 -281v-516q0 -68 -50 -68q-54 0 -54 68v514q0 86 -17 136t-64 75t-102 32t-157 7h-58q-168 0 -255 -91t-87 -265v-408 q0 -68 -52 -68t-52 68v946q-76 0 -76 56z" />
<glyph unicode="&#x128;" horiz-adv-x="440" d="M-62 1460q0 30 28 52l92 76q14 18 38 18q4 0 14 -2t12 -2l196 -72l10 -4q6 0 16 8l62 56q26 18 44 18q20 0 36 -12t16 -34q0 -28 -28 -54l-94 -78q-16 -16 -38 -16q-4 0 -8 1t-7 1t-6 1l-3 1l-196 72q-4 4 -12 4q-6 0 -16 -8l-62 -56q-26 -18 -44 -18t-34 13t-16 35z M168 50v1170q0 66 52 66t52 -66v-1170q0 -64 -54 -64q-50 0 -50 64z" />
<glyph unicode="&#x129;" horiz-adv-x="400" d="M-82 1116q0 30 28 52l92 76q14 18 38 18q4 0 14 -2t12 -2l196 -72l10 -4q6 0 16 8l62 56q26 18 44 18q20 0 36 -12t16 -34q0 -28 -28 -54l-94 -78q-16 -16 -38 -16q-4 0 -8 1t-7 1t-6 1l-3 1l-196 72q-4 4 -12 4q-6 0 -16 -8l-62 -56q-26 -18 -44 -18t-34 13t-16 35z M148 40v840q0 66 52 66t52 -66v-840q0 -64 -54 -64q-50 0 -50 64z" />
<glyph unicode="&#x12a;" horiz-adv-x="440" d="M-90 1466q0 52 62 52h490q68 0 68 -56q0 -22 -19 -36t-49 -14h-490q-62 0 -62 54zM168 50v1170q0 66 52 66t52 -66v-1170q0 -64 -54 -64q-50 0 -50 64z" />
<glyph unicode="&#x12b;" horiz-adv-x="400" d="M-110 1122q0 52 62 52h490q68 0 68 -56q0 -22 -19 -36t-49 -14h-490q-62 0 -62 54zM148 40v840q0 66 52 66t52 -66v-840q0 -64 -54 -64q-50 0 -50 64z" />
<glyph unicode="&#x12e;" horiz-adv-x="442" d="M52 -182q0 88 118 232v1170q0 66 52 66t52 -66v-1170q0 -36 -22 -56q-40 -34 -68 -92t-28 -84q0 -108 84 -108q32 0 76 17t56 17q30 0 30 -34q0 -52 -54 -76t-104 -24q-82 0 -137 58t-55 150z" />
<glyph unicode="&#x12f;" horiz-adv-x="402" d="M20 -202q0 46 40 117t90 129v836q0 66 52 66t52 -66v-840q0 -38 -14 -48q-44 -34 -80 -100t-36 -94q0 -108 84 -108q32 0 76 17t56 17q30 0 30 -34q0 -52 -54 -76t-104 -24q-82 0 -137 58t-55 150zM100 1202q0 34 34 58t68 24q32 0 67 -24t35 -58t-35 -58t-67 -24 q-34 0 -68 24t-34 58z" />
<glyph unicode="&#x130;" horiz-adv-x="440" d="M108 1484q0 34 34 58t68 24q32 0 67 -24t35 -58t-35 -58t-67 -24q-34 0 -68 24t-34 58zM168 50v1170q0 66 52 66t52 -66v-1170q0 -64 -54 -64q-50 0 -50 64z" />
<glyph unicode="&#x131;" horiz-adv-x="400" d="M148 40v840q0 66 52 66t52 -66v-840q0 -64 -54 -64q-50 0 -50 64z" />
<glyph unicode="&#x134;" horiz-adv-x="1100" d="M64 344q0 66 56 66q50 0 50 -66q0 -166 70 -211t262 -45q190 0 261 45t71 207v882q0 64 52 64t52 -66v-882q0 -112 -29 -184t-90 -108t-134 -49t-183 -13t-183 13t-135 50t-91 110t-29 187zM574 1340q0 20 12 36l210 264h118l214 -264q12 -16 12 -36q0 -46 -46 -46 q-10 0 -19 4t-12 7t-13 15t-12 14l-182 192l-180 -192q-4 -4 -10 -12t-10 -11t-9 -8t-12 -7t-15 -2q-46 0 -46 46z" />
<glyph unicode="&#x135;" horiz-adv-x="404" d="M-244 -296q0 50 72 50q184 0 253 44t69 202v864q0 72 54 72q50 0 50 -72v-864q0 -112 -29 -183t-90 -107t-131 -48t-176 -12q-72 0 -72 54zM-86 1094q0 20 12 36l210 264h118l214 -264q12 -16 12 -36q0 -46 -46 -46q-10 0 -19 4t-12 7t-13 15t-12 14l-182 192l-180 -192 q-4 -4 -10 -12t-10 -11t-9 -8t-12 -7t-15 -2q-46 0 -46 46z" />
<glyph unicode="&#x136;" horiz-adv-x="1036" d="M168 50v1170q0 66 52 66t52 -66v-560l522 596q22 30 50 30q16 0 33 -14t17 -34q0 -22 -20 -48l-426 -478l558 -630q22 -26 22 -46t-18 -35t-34 -15q-26 0 -50 30l-548 628l-106 -128v-466q0 -64 -54 -64q-50 0 -50 64zM504 -252q0 8 6 32l48 174q14 46 50 46q22 0 52 -12 t30 -38q0 -20 -10 -38l-82 -166q-20 -48 -50 -48q-44 0 -44 50z" />
<glyph unicode="&#x137;" horiz-adv-x="908" d="M150 48v1172q0 66 52 66t52 -66v-682l388 370q26 24 48 24q18 0 34 -15t16 -37t-24 -46l-332 -304l478 -444q22 -26 22 -48q0 -18 -14 -34t-34 -16q-22 0 -50 24l-474 458l-58 -58v-362q0 -64 -54 -64q-50 0 -50 62zM386 -252q0 8 6 32l48 174q14 46 50 46q22 0 52 -12 t30 -38q0 -20 -10 -38l-82 -166q-20 -48 -50 -48q-44 0 -44 50z" />
<glyph unicode="&#x138;" horiz-adv-x="918" d="M148 48v824q0 64 52 64t52 -64v-358l508 408q24 20 48 20q20 0 34 -18t14 -34q0 -28 -30 -48l-480 -378l482 -380q28 -20 28 -46q0 -18 -14 -35t-34 -17q-24 0 -46 18l-510 410v-366q0 -62 -54 -62q-50 0 -50 62z" />
<glyph unicode="&#x139;" horiz-adv-x="1032" d="M158 1424q0 22 26 52l138 136q24 26 50 26q22 0 36 -17t14 -33q0 -20 -24 -48l-140 -138q-24 -26 -48 -26q-20 0 -36 15t-16 33zM168 70v1152q0 64 52 64t52 -64v-1118h646q66 0 66 -54q0 -50 -66 -50h-702q-48 0 -48 70z" />
<glyph unicode="&#x13a;" horiz-adv-x="542" d="M170 1446q0 22 26 52l138 136q24 26 50 26q22 0 36 -17t14 -33q0 -20 -24 -48l-140 -138q-24 -26 -48 -26q-20 0 -36 15t-16 33zM180 254v962q0 70 52 70t52 -70v-996q0 -64 23 -90t87 -26q70 0 70 -54q0 -50 -70 -50h-14q-116 0 -158 57t-42 197z" />
<glyph unicode="&#x13b;" horiz-adv-x="1032" d="M168 70v1152q0 64 52 64t52 -64v-1118h646q66 0 66 -54q0 -50 -66 -50h-702q-48 0 -48 70zM474 -360q0 8 6 32l48 174q14 46 50 46q22 0 52 -12t30 -38q0 -20 -10 -38l-82 -166q-20 -48 -50 -48q-44 0 -44 50z" />
<glyph unicode="&#x13c;" horiz-adv-x="542" d="M180 254v962q0 70 52 70t52 -70v-996q0 -64 23 -90t87 -26q70 0 70 -54q0 -50 -70 -50h-14q-116 0 -158 57t-42 197zM186 -360q0 8 6 32l48 174q14 46 50 46q22 0 52 -12t30 -38q0 -20 -10 -38l-82 -166q-20 -48 -50 -48q-44 0 -44 50z" />
<glyph unicode="&#x13d;" horiz-adv-x="1032" d="M168 70v1152q0 64 52 64t52 -64v-1118h646q66 0 66 -54q0 -50 -66 -50h-702q-48 0 -48 70zM368 1048q0 8 6 32l48 174q14 46 50 46q22 0 52 -12t30 -38q0 -20 -10 -38l-82 -166q-20 -48 -50 -48q-44 0 -44 50z" />
<glyph unicode="&#x13e;" horiz-adv-x="542" d="M180 254v962q0 70 52 70t52 -70v-996q0 -64 23 -90t87 -26q70 0 70 -54q0 -50 -70 -50h-14q-116 0 -158 57t-42 197zM394 1044q0 8 6 32l48 174q14 46 50 46q22 0 52 -12t30 -38q0 -20 -10 -38l-82 -166q-20 -48 -50 -48q-44 0 -44 50z" />
<glyph unicode="&#x141;" horiz-adv-x="1050" d="M-2 612q0 26 44 48l144 72v490q0 64 52 64t52 -64v-438l92 46q30 6 34 6q24 0 39 -15t15 -37q0 -28 -50 -54l-130 -64v-562h646q66 0 66 -54q0 -50 -66 -50h-702q-48 0 -48 70v544l-106 -52q-15 -6 -30 -6q-28 0 -40 18t-12 38z" />
<glyph unicode="&#x142;" horiz-adv-x="634" d="M66 612q0 26 44 48l150 76v480q0 70 52 70t52 -70v-428l86 42q30 6 34 6q24 0 39 -15t15 -37q0 -28 -50 -54l-124 -62v-448q0 -64 23 -90t87 -26q70 0 70 -54q0 -50 -70 -50h-14q-116 0 -158 57t-42 197v364l-112 -56q-15 -6 -30 -6q-28 0 -40 18t-12 38z" />
<glyph unicode="&#x143;" horiz-adv-x="1264" d="M168 54v1162q0 70 48 70q36 0 60 -38l716 -1056v1022q0 72 50 72q54 0 54 -70v-1162q0 -68 -50 -68q-28 0 -40 14l-734 1086v-1034q0 -66 -52 -66t-52 68zM502 1312q0 24 18 46l192 230q28 30 50 30q18 0 34 -15t16 -37t-18 -44l-192 -230q-26 -30 -50 -30q-16 0 -33 15 t-17 35z" />
<glyph unicode="&#x144;" horiz-adv-x="1236" d="M148 54v812q0 70 48 70q56 0 56 -72v-68q118 126 342 126h58q230 0 337 -71t107 -281v-516q0 -68 -50 -68q-54 0 -54 68v514q0 86 -17 136t-64 75t-102 32t-157 7h-58q-170 0 -256 -91t-86 -265v-408q0 -68 -52 -68t-52 68zM500 1060q0 24 18 46l192 230q26 30 50 30 q18 0 34 -15t16 -37t-18 -44l-192 -230q-28 -30 -50 -30q-16 0 -33 15t-17 35z" />
<glyph unicode="&#x145;" horiz-adv-x="1264" d="M168 54v1162q0 70 48 70q36 0 60 -38l716 -1056v1022q0 72 50 72q54 0 54 -70v-1162q0 -68 -50 -68q-28 0 -40 14l-734 1086v-1034q0 -66 -52 -66t-52 68zM540 -252q0 8 6 32l48 174q14 46 50 46q22 0 52 -12t30 -38q0 -20 -10 -38l-82 -166q-20 -48 -50 -48 q-44 0 -44 50z" />
<glyph unicode="&#x146;" horiz-adv-x="1234" d="M148 54v812q0 70 48 70q56 0 56 -72v-68q118 126 342 126h58q230 0 337 -71t107 -281v-516q0 -68 -50 -68q-54 0 -54 68v514q0 86 -17 136t-64 75t-102 32t-157 7h-58q-170 0 -256 -91t-86 -265v-408q0 -68 -52 -68t-52 68zM530 -252q0 8 6 32l48 174q14 46 50 46 q22 0 52 -12t30 -38q0 -20 -10 -38l-82 -166q-20 -48 -50 -48q-44 0 -44 50z" />
<glyph unicode="&#x147;" horiz-adv-x="1264" d="M168 54v1162q0 70 48 70q36 0 60 -38l716 -1056v1022q0 72 50 72q54 0 54 -70v-1162q0 -68 -50 -68q-28 0 -40 14l-734 1086v-1034q0 -66 -52 -66t-52 68zM340 1544q0 40 46 40q24 0 64 -34l168 -140l168 140q40 34 64 34q46 0 46 -40q0 -16 -14 -30l-208 -218h-112 l-208 218q-14 14 -14 30z" />
<glyph unicode="&#x148;" horiz-adv-x="1236" d="M148 54v812q0 70 48 70q56 0 56 -72v-68q118 126 342 126h58q230 0 337 -71t107 -281v-516q0 -68 -50 -68q-54 0 -54 68v514q0 86 -17 136t-64 75t-102 32t-157 7h-58q-170 0 -256 -91t-86 -265v-408q0 -68 -52 -68t-52 68zM344 1306q0 40 46 40q24 0 64 -34l168 -140 l168 140q40 34 64 34q46 0 46 -40q0 -16 -14 -30l-208 -218h-112l-208 218q-14 14 -14 30z" />
<glyph unicode="&#x14a;" horiz-adv-x="1266" d="M168 54v1162q0 70 48 70q36 0 60 -38l716 -1056v1022q0 72 50 72q54 0 54 -70v-1216q0 -112 -29 -183t-90 -107t-131 -48t-176 -12q-72 0 -72 54q0 50 72 50q184 0 253 44t69 202v20l-720 1066v-1034q0 -66 -52 -66t-52 68z" />
<glyph unicode="&#x14b;" horiz-adv-x="1238" d="M148 54v812q0 70 48 70q56 0 56 -72v-68q118 126 342 126h58q230 0 337 -71t107 -281v-570q0 -112 -29 -183t-90 -107t-131 -48t-176 -12q-72 0 -72 54q0 50 72 50q184 0 253 44t69 202v568q0 86 -17 136t-64 75t-102 32t-157 7h-58q-170 0 -256 -91t-86 -265v-408 q0 -68 -52 -68t-52 68z" />
<glyph unicode="&#x14c;" horiz-adv-x="1188" d="M130 456v360q0 222 130 348t334 126t334 -127t130 -347v-360q0 -220 -130 -347t-334 -127t-334 126t-130 348zM234 458q0 -176 94 -274t266 -98t266 98t94 274v356q0 176 -94 274t-266 98t-266 -98t-94 -274v-356zM284 1466q0 52 62 52h490q68 0 68 -56q0 -22 -19 -36 t-49 -14h-490q-62 0 -62 54z" />
<glyph unicode="&#x14d;" d="M124 352v218q0 210 108 281t338 71h58q230 0 337 -71t107 -281v-218q0 -210 -107 -281t-337 -71h-58q-230 0 -338 71t-108 281zM228 354q0 -86 17 -136t65 -75t103 -32t157 -7h58q102 0 157 7t102 32t64 75t17 136v214q0 86 -17 136t-64 75t-102 32t-157 7h-58 q-102 0 -157 -7t-103 -32t-65 -75t-17 -136v-214zM290 1098q0 52 62 52h490q68 0 68 -56q0 -22 -19 -36t-49 -14h-490q-62 0 -62 54z" />
<glyph unicode="&#x150;" horiz-adv-x="1188" d="M130 456v360q0 222 130 348t334 126t334 -127t130 -347v-360q0 -220 -130 -347t-334 -127t-334 126t-130 348zM234 458q0 -176 94 -274t266 -98t266 98t94 274v356q0 176 -94 274t-266 98t-266 -98t-94 -274v-356zM436 1424q0 22 26 52l138 136q24 26 50 26q22 0 36 -17 t14 -33q0 -20 -24 -48l-140 -138q-24 -26 -48 -26q-20 0 -36 15t-16 33zM636 1424q0 22 26 52l138 136q24 26 50 26q22 0 36 -17t14 -33q0 -20 -24 -48l-140 -138q-24 -26 -48 -26q-20 0 -36 15t-16 33z" />
<glyph unicode="&#x151;" d="M124 352v218q0 210 108 281t338 71h58q230 0 337 -71t107 -281v-218q0 -210 -107 -281t-337 -71h-58q-230 0 -338 71t-108 281zM228 354q0 -86 17 -136t65 -75t103 -32t157 -7h58q102 0 157 7t102 32t64 75t17 136v214q0 86 -17 136t-64 75t-102 32t-157 7h-58 q-102 0 -157 -7t-103 -32t-65 -75t-17 -136v-214zM398 1084q0 24 18 46l192 230q28 30 50 30q18 0 34 -15t16 -37t-18 -44l-192 -230q-26 -30 -50 -30q-16 0 -33 15t-17 35zM638 1084q0 24 18 46l192 230q28 30 50 30q18 0 34 -15t16 -37t-18 -44l-192 -230q-26 -30 -50 -30 q-16 0 -33 15t-17 35z" />
<glyph unicode="&#x152;" horiz-adv-x="1452" d="M128 456v360q0 212 134 343t286 131q124 0 216 -50q8 32 44 32h486q70 0 70 -48q0 -54 -70 -54h-428v-402h190q72 0 72 -56q0 -48 -72 -48h-190v-560h428q70 0 70 -56q0 -48 -70 -48h-478q-40 0 -48 30q-92 -48 -216 -48q-154 0 -289 131t-135 343zM230 458 q0 -166 100 -269t222 -103q136 0 210 66v968q-72 66 -214 66q-120 0 -219 -103t-99 -269v-356z" />
<glyph unicode="&#x153;" horiz-adv-x="1494" d="M124 352v218q0 182 78 267t266 85q212 0 300 -130q78 130 280 130q72 0 125 -14t102 -49t74 -108t25 -181v-80h-552v-136q0 -82 24 -136t69 -77t83 -30t88 -7q184 0 184 124q0 66 50 66q54 0 54 -72q0 -58 -18 -100t-45 -65t-68 -36t-76 -17t-81 -4q-236 0 -314 136 q-42 -70 -112 -103t-192 -33q-188 0 -266 84t-78 268zM228 354q0 -134 45 -192t195 -58q154 0 202 59t48 191v214q0 132 -48 191t-202 59q-150 0 -195 -58t-45 -192v-214zM822 594h448q-2 140 -54 182t-168 42q-118 0 -171 -42t-55 -182z" />
<glyph unicode="&#x154;" horiz-adv-x="1138" d="M168 50v1150q0 72 48 72h360q218 0 327 -66t109 -244q0 -250 -234 -298q66 -64 128 -214t92 -264t30 -136q0 -28 -15 -46t-39 -18t-37 19t-13 45t-28 132t-96 252t-152 210h-376v-594q0 -64 -54 -64q-50 0 -50 64zM272 748h304q186 0 259 40t73 164q0 128 -74 167 t-258 39h-304v-410zM406 1424q0 22 26 52l138 136q24 26 50 26q22 0 36 -17t14 -33q0 -20 -24 -48l-140 -138q-24 -26 -48 -26q-20 0 -36 15t-16 33z" />
<glyph unicode="&#x155;" horiz-adv-x="766" d="M148 54v812q0 70 48 70q56 0 56 -72v-68q118 126 322 126h92q70 0 70 -52t-70 -52h-92q-156 0 -239 -92t-83 -264v-408q0 -68 -52 -68t-52 68zM306 1060q0 24 18 46l192 230q28 30 50 30q18 0 34 -15t16 -37t-18 -44l-192 -230q-26 -30 -50 -30q-16 0 -33 15t-17 35z" />
<glyph unicode="&#x156;" horiz-adv-x="1138" d="M168 50v1150q0 72 48 72h360q218 0 327 -66t109 -244q0 -250 -234 -298q66 -64 128 -214t92 -264t30 -136q0 -28 -15 -46t-39 -18t-37 19t-13 45t-28 132t-96 252t-152 210h-376v-594q0 -64 -54 -64q-50 0 -50 64zM272 748h304q186 0 259 40t73 164q0 128 -74 167 t-258 39h-304v-410zM504 -252q0 8 6 32l48 174q14 46 50 46q22 0 52 -12t30 -38q0 -20 -10 -38l-82 -166q-20 -48 -50 -48q-44 0 -44 50z" />
<glyph unicode="&#x157;" horiz-adv-x="766" d="M108 -360q0 8 6 32l48 174q14 46 50 46q22 0 52 -12t30 -38q0 -20 -10 -38l-82 -166q-20 -48 -50 -48q-44 0 -44 50zM148 54v812q0 70 48 70q56 0 56 -72v-68q118 126 322 126h92q70 0 70 -52t-70 -52h-92q-156 0 -239 -92t-83 -264v-408q0 -68 -52 -68t-52 68z" />
<glyph unicode="&#x158;" horiz-adv-x="1138" d="M168 50v1150q0 72 48 72h360q218 0 327 -66t109 -244q0 -250 -234 -298q66 -64 128 -214t92 -264t30 -136q0 -28 -15 -46t-39 -18t-37 19t-13 45t-28 132t-96 252t-152 210h-376v-594q0 -64 -54 -64q-50 0 -50 64zM262 1598q0 40 46 40q24 0 64 -34l168 -140l168 140 q40 34 64 34q46 0 46 -40q0 -16 -14 -30l-208 -218h-112l-208 218q-14 14 -14 30zM272 748h304q186 0 259 40t73 164q0 128 -74 167t-258 39h-304v-410z" />
<glyph unicode="&#x159;" horiz-adv-x="766" d="M148 54v812q0 70 48 70q56 0 56 -72v-68q118 126 322 126h92q70 0 70 -52t-70 -52h-92q-156 0 -239 -92t-83 -264v-408q0 -68 -52 -68t-52 68zM164 1306q0 40 46 40q24 0 64 -34l168 -140l168 140q40 34 64 34q46 0 46 -40q0 -16 -14 -30l-208 -218h-112l-208 218 q-14 14 -14 30z" />
<glyph unicode="&#x15a;" horiz-adv-x="1198" d="M122 344q0 66 56 66q50 0 50 -66q0 -166 71 -211t269 -45h204q106 0 152 72t46 154q0 98 -39 159t-81 71l-470 104q-140 30 -199 105t-59 211q0 134 82 229t272 95h152q114 0 187 -13t137 -49t93 -108t29 -186q0 -66 -54 -66q-52 0 -52 66q0 166 -70 209t-270 43h-196 q-108 0 -157 -70t-49 -152q0 -80 35 -137t85 -67l474 -102q134 -30 194 -124t60 -220q0 -134 -79 -231t-261 -97h-166q-114 0 -188 13t-137 50t-92 110t-29 187zM470 1424q0 22 26 52l138 136q24 26 50 26q22 0 36 -17t14 -33q0 -20 -24 -48l-140 -138q-24 -26 -48 -26 q-20 0 -36 15t-16 33z" />
<glyph unicode="&#x15b;" horiz-adv-x="1172" d="M120 222q0 72 52 72t52 -66q0 -68 23 -96t87 -28h496q118 0 118 148q0 74 -33 121t-85 47h-452q-258 0 -258 260q0 120 62 181t216 61h450q64 0 107 -19t62 -55t25 -70t6 -80q0 -70 -52 -70t-52 66q0 70 -24 97t-86 27h-492q-118 0 -118 -138q0 -76 33 -116t85 -40h454 q140 0 198 -78t58 -194q0 -124 -63 -188t-213 -64h-456q-64 0 -107 19t-62 54t-25 69t-6 80zM512 1060q0 24 18 46l192 230q26 30 50 30q18 0 34 -15t16 -37t-18 -44l-192 -230q-28 -30 -50 -30q-16 0 -33 15t-17 35z" />
<glyph unicode="&#x15c;" horiz-adv-x="1198" d="M122 344q0 66 56 66q50 0 50 -66q0 -166 71 -211t269 -45h204q106 0 152 72t46 154q0 98 -39 159t-81 71l-470 104q-140 30 -199 105t-59 211q0 134 82 229t272 95h152q114 0 187 -13t137 -49t93 -108t29 -186q0 -66 -54 -66q-52 0 -52 66q0 166 -70 209t-270 43h-196 q-108 0 -157 -70t-49 -152q0 -80 35 -137t85 -67l474 -102q134 -30 194 -124t60 -220q0 -134 -79 -231t-261 -97h-166q-114 0 -188 13t-137 50t-92 110t-29 187zM312 1338q0 20 12 36l210 264h118l214 -264q12 -16 12 -36q0 -46 -46 -46q-10 0 -19 4t-12 7t-13 15t-12 14 l-182 192l-180 -192q-4 -4 -10 -12t-10 -11t-9 -8t-12 -7t-15 -2q-46 0 -46 46z" />
<glyph unicode="&#x15d;" horiz-adv-x="1172" d="M120 222q0 72 52 72t52 -66q0 -68 23 -96t87 -28h496q118 0 118 148q0 74 -33 121t-85 47h-452q-258 0 -258 260q0 120 62 181t216 61h450q64 0 107 -19t62 -55t25 -70t6 -80q0 -70 -52 -70t-52 66q0 70 -24 97t-86 27h-492q-118 0 -118 -138q0 -76 33 -116t85 -40h454 q140 0 198 -78t58 -194q0 -124 -63 -188t-213 -64h-456q-64 0 -107 19t-62 54t-25 69t-6 80zM310 1080q0 20 12 36l210 264h118l214 -264q12 -16 12 -36q0 -46 -46 -46q-10 0 -19 4t-12 7t-13 15t-12 14l-182 192l-180 -192q-4 -4 -10 -12t-10 -11t-9 -8t-12 -7t-15 -2 q-46 0 -46 46z" />
<glyph unicode="&#x15e;" horiz-adv-x="1198" d="M122 344q0 66 56 66q50 0 50 -66q0 -166 71 -211t269 -45h204q106 0 152 72t46 154q0 98 -39 159t-81 71l-470 104q-140 30 -199 105t-59 211q0 134 82 229t272 95h152q114 0 187 -13t137 -49t93 -108t29 -186q0 -66 -54 -66q-52 0 -52 66q0 166 -70 209t-270 43h-196 q-108 0 -157 -70t-49 -152q0 -80 35 -137t85 -67l474 -102q134 -30 194 -124t60 -220q0 -134 -79 -231t-261 -97h-124q8 -20 69 -67t61 -105q0 -72 -56 -117t-136 -45q-50 0 -104 24t-54 76q0 36 30 36q12 0 58 -18t74 -18q84 0 84 52q0 22 -29 46t-63 58t-42 80 q-194 6 -287 82t-93 276z" />
<glyph unicode="&#x15f;" horiz-adv-x="1172" d="M120 222q0 72 52 72t52 -66q0 -68 23 -96t87 -28h496q118 0 118 148q0 74 -33 121t-85 47h-452q-258 0 -258 260q0 120 62 181t216 61h450q64 0 107 -19t62 -55t25 -70t6 -80q0 -70 -52 -70t-52 66q0 70 -24 97t-86 27h-492q-118 0 -118 -138q0 -76 33 -116t85 -40h454 q140 0 198 -78t58 -194q0 -124 -63 -188t-213 -64h-186q6 -26 29 -47t46 -34t42 -41t19 -66q0 -72 -56 -117t-136 -45q-50 0 -104 24t-54 76q0 36 30 36q12 0 58 -18t74 -18q84 0 84 52q0 22 -32 47t-66 62t-40 89h-164q-64 0 -107 19t-62 54t-25 69t-6 80z" />
<glyph unicode="&#x160;" horiz-adv-x="1198" d="M122 344q0 66 56 66q50 0 50 -66q0 -166 71 -211t269 -45h204q106 0 152 72t46 154q0 98 -39 159t-81 71l-470 104q-140 30 -199 105t-59 211q0 134 82 229t272 95h152q114 0 187 -13t137 -49t93 -108t29 -186q0 -66 -54 -66q-52 0 -52 66q0 166 -70 209t-270 43h-196 q-108 0 -157 -70t-49 -152q0 -80 35 -137t85 -67l474 -102q134 -30 194 -124t60 -220q0 -134 -79 -231t-261 -97h-166q-114 0 -188 13t-137 50t-92 110t-29 187zM314 1598q0 40 46 40q24 0 64 -34l168 -140l168 140q40 34 64 34q46 0 46 -40q0 -16 -14 -30l-208 -218h-112 l-208 218q-14 14 -14 30z" />
<glyph unicode="&#x161;" horiz-adv-x="1172" d="M120 222q0 72 52 72t52 -66q0 -68 23 -96t87 -28h496q118 0 118 148q0 74 -33 121t-85 47h-452q-258 0 -258 260q0 120 62 181t216 61h450q64 0 107 -19t62 -55t25 -70t6 -80q0 -70 -52 -70t-52 66q0 70 -24 97t-86 27h-492q-118 0 -118 -138q0 -76 33 -116t85 -40h454 q140 0 198 -78t58 -194q0 -124 -63 -188t-213 -64h-456q-64 0 -107 19t-62 54t-25 69t-6 80zM294 1292q0 40 46 40q24 0 64 -34l168 -140l168 140q40 34 64 34q46 0 46 -40q0 -16 -14 -30l-208 -218h-112l-208 218q-14 14 -14 30z" />
<glyph unicode="&#x162;" horiz-adv-x="962" d="M54 1220q0 52 66 52h722q66 0 66 -54q0 -50 -66 -50h-304v-1148q0 -32 21 -57t45 -39t45 -43t21 -69q0 -72 -56 -117t-136 -45q-50 0 -104 24t-54 76q0 36 30 36q12 0 58 -18t74 -18q84 0 84 52q0 20 -22 41t-47 39t-47 54t-22 84v1148h-308q-66 0 -66 52z" />
<glyph unicode="&#x163;" horiz-adv-x="686" d="M92 874q0 44 62 48v208q0 72 48 72q56 0 56 -72v-208h276q72 0 72 -56q0 -48 -72 -48h-276v-464q0 -162 69 -206t253 -44q70 0 70 -48q0 -56 -70 -56q-64 0 -118 6q6 -32 40 -58t65 -57t31 -79q0 -72 -56 -117t-136 -45q-50 0 -104 24t-54 76q0 36 30 36q12 0 58 -18 t74 -18q84 0 84 52q0 20 -22 41t-47 39t-47 54t-22 84v4q-202 60 -202 328v468q-62 4 -62 54z" />
<glyph unicode="&#x164;" horiz-adv-x="962" d="M54 1220q0 52 66 52h722q66 0 66 -54q0 -50 -66 -50h-304v-1118q0 -64 -58 -64q-52 0 -52 64v1118h-308q-66 0 -66 52zM204 1604q0 40 46 40q24 0 64 -34l168 -140l168 140q40 34 64 34q46 0 46 -40q0 -16 -14 -30l-208 -218h-112l-208 218q-14 14 -14 30z" />
<glyph unicode="&#x165;" horiz-adv-x="688" d="M94 874q0 44 62 48v208q0 72 48 72q56 0 56 -72v-208h276q72 0 72 -56q0 -48 -72 -48h-276v-464q0 -162 69 -206t253 -44q70 0 70 -48q0 -56 -70 -56q-216 0 -321 72t-105 280v468q-62 4 -62 54zM354 1020q0 8 6 32l48 174q14 46 50 46q22 0 52 -12t30 -38q0 -20 -10 -38 l-82 -166q-20 -48 -50 -48q-44 0 -44 50z" />
<glyph unicode="&#x166;" horiz-adv-x="962" d="M54 1220q0 52 66 52h722q66 0 66 -54q0 -50 -66 -50h-304v-436h184q68 0 68 -56q0 -22 -19 -36t-49 -14h-184v-576q0 -64 -58 -64q-52 0 -52 64v576h-196q-62 0 -62 54q0 52 62 52h196v436h-308q-66 0 -66 52z" />
<glyph unicode="&#x167;" horiz-adv-x="698" d="M94 594q0 52 62 52v174q-62 4 -62 54q0 44 62 48v208q0 72 48 72q56 0 56 -72v-208h276q72 0 72 -56q0 -48 -72 -48h-276v-172h324q68 0 68 -56q0 -22 -19 -36t-49 -14h-324v-186q0 -162 69 -206t253 -44q70 0 70 -48q0 -56 -70 -56q-216 0 -321 72t-105 280v188 q-62 0 -62 54z" />
<glyph unicode="&#x168;" horiz-adv-x="1240" d="M156 456v764q0 66 52 66t52 -64v-764q0 -176 94 -274t266 -98t266 98t94 274v764q0 64 54 64q50 0 50 -66v-764q0 -220 -130 -347t-334 -127t-334 126t-130 348zM340 1460q0 30 28 52l92 76q16 18 38 18q4 0 14 -2t12 -2l196 -72l10 -4q6 0 16 8l62 56q26 18 44 18 q20 0 36 -12t16 -34q0 -28 -28 -54l-94 -78q-16 -16 -38 -16q-4 0 -8 1t-7 1t-6 1l-3 1l-196 72q-4 4 -12 4q-6 0 -16 -8l-62 -56q-26 -18 -44 -18t-34 13t-16 35z" />
<glyph unicode="&#x169;" horiz-adv-x="1236" d="M140 352v516q0 68 50 68q54 0 54 -68v-514q0 -86 17 -136t64 -75t102 -32t157 -7h58q170 0 256 91t86 265v408q0 68 52 68t52 -68v-812q0 -70 -48 -70q-56 0 -56 72v68q-118 -126 -342 -126h-58q-230 0 -337 71t-107 281zM330 1106q0 30 28 52l92 76q14 18 38 18 q4 0 14 -2t12 -2l196 -72l10 -4q6 0 16 8l62 56q26 18 44 18q20 0 36 -12t16 -34q0 -28 -28 -54l-94 -78q-16 -16 -38 -16q-4 0 -8 1t-7 1t-6 1l-3 1l-196 72q-4 4 -12 4q-6 0 -16 -8l-62 -56q-26 -18 -44 -18t-34 13t-16 35z" />
<glyph unicode="&#x16a;" horiz-adv-x="1240" d="M156 456v764q0 66 52 66t52 -64v-764q0 -176 94 -274t266 -98t266 98t94 274v764q0 64 54 64q50 0 50 -66v-764q0 -220 -130 -347t-334 -127t-334 126t-130 348zM312 1466q0 52 62 52h490q68 0 68 -56q0 -22 -19 -36t-49 -14h-490q-62 0 -62 54z" />
<glyph unicode="&#x16b;" horiz-adv-x="1236" d="M140 352v516q0 68 50 68q54 0 54 -68v-514q0 -86 17 -136t64 -75t102 -32t157 -7h58q170 0 256 91t86 265v408q0 68 52 68t52 -68v-812q0 -70 -48 -70q-56 0 -56 72v68q-118 -126 -342 -126h-58q-230 0 -337 71t-107 281zM302 1112q0 52 62 52h490q68 0 68 -56 q0 -22 -19 -36t-49 -14h-490q-62 0 -62 54z" />
<glyph unicode="&#x16c;" horiz-adv-x="1240" d="M156 456v764q0 66 52 66t52 -64v-764q0 -176 94 -274t266 -98t266 98t94 274v764q0 64 54 64q50 0 50 -66v-764q0 -220 -130 -347t-334 -127t-334 126t-130 348zM386 1534h106q0 -86 41 -120t93 -34t93 34t41 120h106q0 -122 -75 -192t-165 -70q-92 0 -166 71t-74 191z " />
<glyph unicode="&#x16d;" horiz-adv-x="1236" d="M140 352v516q0 68 50 68q54 0 54 -68v-514q0 -86 17 -136t64 -75t102 -32t157 -7h58q170 0 256 91t86 265v408q0 68 52 68t52 -68v-812q0 -70 -48 -70q-56 0 -56 72v68q-118 -126 -342 -126h-58q-230 0 -337 71t-107 281zM372 1320h106q0 -86 41 -120t93 -34t93 34 t41 120h106q0 -122 -75 -192t-165 -70q-92 0 -166 71t-74 191z" />
<glyph unicode="&#x16e;" horiz-adv-x="1240" d="M156 456v764q0 66 52 66t52 -64v-764q0 -176 94 -274t266 -98t266 98t94 274v764q0 64 54 64q50 0 50 -66v-764q0 -220 -130 -347t-334 -127t-334 126t-130 348zM470 1432q0 68 47 115t115 47t115 -47t47 -115t-47 -115t-115 -47t-115 47t-47 115zM544 1432q0 -36 26 -62 t62 -26q34 0 61 26t27 62t-27 62t-61 26q-36 0 -62 -27t-26 -61z" />
<glyph unicode="&#x16f;" horiz-adv-x="1236" d="M140 352v516q0 68 50 68q54 0 54 -68v-514q0 -86 17 -136t64 -75t102 -32t157 -7h58q170 0 256 91t86 265v408q0 68 52 68t52 -68v-812q0 -70 -48 -70q-56 0 -56 72v68q-118 -126 -342 -126h-58q-230 0 -337 71t-107 281zM442 1196q0 68 47 115t115 47t115 -47t47 -115 t-47 -115t-115 -47t-115 47t-47 115zM516 1196q0 -36 26 -62t62 -26q34 0 61 26t27 62t-27 62t-61 26q-36 0 -62 -27t-26 -61z" />
<glyph unicode="&#x170;" horiz-adv-x="1240" d="M156 456v764q0 66 52 66t52 -64v-764q0 -176 94 -274t266 -98t266 98t94 274v764q0 64 54 64q50 0 50 -66v-764q0 -220 -130 -347t-334 -127t-334 126t-130 348zM416 1312q0 24 18 46l192 230q26 30 50 30q18 0 34 -15t16 -37t-18 -44l-192 -230q-28 -30 -50 -30 q-16 0 -33 15t-17 35zM656 1312q0 24 18 46l192 230q26 30 50 30q18 0 34 -15t16 -37t-18 -44l-192 -230q-28 -30 -50 -30q-16 0 -33 15t-17 35z" />
<glyph unicode="&#x171;" horiz-adv-x="1236" d="M140 352v516q0 68 50 68q54 0 54 -68v-514q0 -86 17 -136t64 -75t102 -32t157 -7h58q170 0 256 91t86 265v408q0 68 52 68t52 -68v-812q0 -70 -48 -70q-56 0 -56 72v68q-118 -126 -342 -126h-58q-230 0 -337 71t-107 281zM396 1098q0 26 18 46l192 230q26 30 50 30 q18 0 34 -15t16 -37q0 -24 -18 -44l-192 -230q-28 -30 -50 -30q-16 0 -33 15t-17 35zM636 1098q0 26 18 46l192 230q26 30 50 30q18 0 34 -15t16 -37q0 -24 -18 -44l-192 -230q-28 -30 -50 -30q-16 0 -33 15t-17 35z" />
<glyph unicode="&#x172;" horiz-adv-x="1244" d="M158 456v764q0 66 52 66t52 -64v-764q0 -176 94 -274t266 -98t266 98t94 274v764q0 64 54 64q50 0 50 -66v-764q0 -206 -114 -330t-298 -142q-42 -38 -75 -99t-33 -87q0 -108 84 -108q32 0 76 17t56 17q30 0 30 -34q0 -52 -54 -76t-104 -24q-82 0 -137 58t-55 150 q0 66 86 188q-176 24 -283 147t-107 323z" />
<glyph unicode="&#x173;" horiz-adv-x="1236" d="M140 352v516q0 68 50 68q54 0 54 -68v-514q0 -86 17 -136t64 -75t102 -32t157 -7h58q170 0 256 91t86 265v408q0 68 52 68t52 -68v-812q0 -60 -34 -68q-44 -36 -78 -99t-34 -91q0 -108 84 -108q32 0 76 17t56 17q30 0 30 -34q0 -52 -54 -76t-104 -24q-82 0 -137 58 t-55 150q0 50 48 130t98 134v64q-118 -126 -342 -126h-58q-230 0 -337 71t-107 281z" />
<glyph unicode="&#x174;" horiz-adv-x="1830" d="M54 1268q0 38 48 38q40 0 56 -44l348 -1118l350 1108q18 52 58 52q46 0 62 -52l352 -1108l344 1110q16 44 56 44q48 0 48 -38q0 -12 -8 -36l-384 -1224h-116l-354 1106l-352 -1106h-114l-386 1232q-8 24 -8 36zM632 1338q0 20 12 36l210 264h118l214 -264q12 -16 12 -36 q0 -46 -46 -46q-10 0 -19 4t-12 7t-13 15t-12 14l-182 192l-180 -192q-4 -4 -10 -12t-10 -11t-9 -8t-12 -7t-15 -2q-46 0 -46 46z" />
<glyph unicode="&#x175;" horiz-adv-x="1584" d="M62 908q0 38 48 38q40 0 56 -44l280 -806l292 796q16 42 58 42q40 0 54 -42l280 -796l290 806q16 44 56 44q48 0 48 -38q0 -12 -8 -36l-310 -872h-158l-254 748l-274 -748h-158l-292 872q-8 24 -8 36zM510 1114q0 20 12 36l210 264h118l214 -264q12 -16 12 -36 q0 -46 -46 -46q-10 0 -19 4t-12 7t-13 15t-12 14l-182 192l-180 -192q-4 -4 -10 -12t-10 -11t-9 -8t-12 -7t-15 -2q-46 0 -46 46z" />
<glyph unicode="&#x176;" horiz-adv-x="1042" d="M34 1236q0 22 16 36t34 14q22 0 50 -36l386 -534l384 534q26 36 52 36q16 0 33 -15t17 -35q0 -18 -16 -42l-416 -578v-568q0 -62 -54 -62q-52 0 -52 62v568l-418 578q-16 24 -16 42zM236 1338q0 20 12 36l210 264h118l214 -264q12 -16 12 -36q0 -46 -46 -46q-10 0 -19 4 t-12 7t-13 15t-12 14l-182 192l-180 -192q-4 -4 -10 -12t-10 -11t-9 -8t-12 -7t-15 -2q-46 0 -46 46z" />
<glyph unicode="&#x177;" horiz-adv-x="1238" d="M140 -186q0 70 52 70t52 -66q0 -70 24 -97t86 -27h538q58 0 75 20t17 80v332q-118 -126 -342 -126h-58q-230 0 -337 71t-107 281v516q0 68 50 68q54 0 54 -68v-514q0 -86 17 -136t64 -75t102 -32t157 -7h58q170 0 256 91t86 265v408q0 68 52 68t52 -68v-1042 q0 -130 -38 -183t-144 -53h-566q-64 0 -107 19t-62 55t-25 70t-6 80zM330 1104q0 20 12 36l210 264h118l214 -264q12 -16 12 -36q0 -46 -46 -46q-10 0 -19 4t-12 7t-13 15t-12 14l-182 192l-180 -192q-4 -4 -10 -12t-10 -11t-9 -8t-12 -7t-15 -2q-46 0 -46 46z" />
<glyph unicode="&#x178;" horiz-adv-x="1042" d="M34 1236q0 22 16 36t34 14q22 0 50 -36l386 -534l384 534q26 36 52 36q16 0 33 -15t17 -35q0 -18 -16 -42l-416 -578v-568q0 -62 -54 -62q-52 0 -52 62v568l-418 578q-16 24 -16 42zM274 1486q0 34 34 58t68 24q32 0 67 -24t35 -58t-35 -58t-67 -24q-34 0 -68 24t-34 58z M566 1486q0 34 34 58t68 24q32 0 67 -24t35 -58t-35 -58t-67 -24q-34 0 -68 24t-34 58z" />
<glyph unicode="&#x179;" horiz-adv-x="1110" d="M90 1240q0 52 72 52h856v-106l-798 -1082h728q70 0 70 -54q0 -50 -70 -50h-856v102l802 1086h-732q-72 0 -72 52zM474 1424q0 22 26 52l138 136q24 26 50 26q22 0 36 -17t14 -33q0 -20 -24 -48l-140 -138q-24 -26 -48 -26q-20 0 -36 15t-16 33z" />
<glyph unicode="&#x17a;" horiz-adv-x="1104" d="M118 0v128l714 690h-500q-70 0 -90 -36t-20 -118q0 -72 -54 -72q-50 0 -50 72q0 142 42 200t158 58h642v-134l-708 -684h534q72 0 92 36t20 118q0 72 52 72t52 -72q0 -140 -42 -199t-158 -59h-684zM510 1060q0 24 18 46l192 230q28 30 50 30q18 0 34 -15t16 -37t-18 -44 l-192 -230q-26 -30 -50 -30q-16 0 -33 15t-17 35z" />
<glyph unicode="&#x17b;" horiz-adv-x="1110" d="M90 1240q0 52 72 52h856v-106l-798 -1082h728q70 0 70 -54q0 -50 -70 -50h-856v102l802 1086h-732q-72 0 -72 52zM432 1484q0 34 34 58t68 24q32 0 67 -24t35 -58t-35 -58t-67 -24q-34 0 -68 24t-34 58z" />
<glyph unicode="&#x17c;" horiz-adv-x="1104" d="M118 0v128l714 690h-500q-70 0 -90 -36t-20 -118q0 -72 -54 -72q-50 0 -50 72q0 142 42 200t158 58h642v-134l-708 -684h534q72 0 92 36t20 118q0 72 52 72t52 -72q0 -140 -42 -199t-158 -59h-684zM444 1116q0 34 34 58t68 24q32 0 67 -24t35 -58t-35 -58t-67 -24 q-34 0 -68 24t-34 58z" />
<glyph unicode="&#x17d;" horiz-adv-x="1110" d="M90 1240q0 52 72 52h856v-106l-798 -1082h728q70 0 70 -54q0 -50 -70 -50h-856v102l802 1086h-732q-72 0 -72 52zM284 1598q0 40 46 40q24 0 64 -34l168 -140l168 140q40 34 64 34q46 0 46 -40q0 -16 -14 -30l-208 -218h-112l-208 218q-14 14 -14 30z" />
<glyph unicode="&#x17e;" horiz-adv-x="1104" d="M118 0v128l714 690h-500q-70 0 -90 -36t-20 -118q0 -72 -54 -72q-50 0 -50 72q0 142 42 200t158 58h642v-134l-708 -684h534q72 0 92 36t20 118q0 72 52 72t52 -72q0 -140 -42 -199t-158 -59h-684zM252 1292q0 40 46 40q24 0 64 -34l168 -140l168 140q40 34 64 34 q46 0 46 -40q0 -16 -14 -30l-208 -218h-112l-208 218q-14 14 -14 30z" />
<glyph unicode="&#x192;" horiz-adv-x="666" d="M-98 -156q0 50 72 50t104 5t54 34t25 72t3 141v674q-62 4 -62 52q0 46 62 50q2 110 33 182t95 107t137 48t181 13q72 0 72 -56q0 -48 -72 -48q-186 0 -259 -44t-75 -202h288q72 0 72 -56q0 -48 -72 -48h-288v-726q0 -186 -68 -244t-230 -58q-72 0 -72 54z" />
<glyph unicode="&#x1a0;" horiz-adv-x="1260" d="M130 456v360q0 222 130 348t334 126q256 0 384 -186q102 0 146 21t44 75q0 34 -46 70q-30 22 -30 52q0 22 17 36t33 14q24 0 46 -22q88 -74 88 -158q0 -170 -248 -188q30 -84 30 -188v-360q0 -220 -130 -347t-334 -127t-334 126t-130 348zM234 458q0 -176 94 -274 t266 -98t266 98t94 274v356q0 176 -94 274t-266 98t-266 -98t-94 -274v-356z" />
<glyph unicode="&#x1a1;" horiz-adv-x="1302" d="M124 352v218q0 210 108 281t338 71h58q180 0 282 -41t140 -155q84 4 122 26t38 70q0 34 -46 70q-30 22 -30 52q0 22 17 36t33 14q24 0 46 -22q88 -74 88 -158q0 -170 -248 -188q2 -18 2 -56v-218q0 -210 -107 -281t-337 -71h-58q-230 0 -338 71t-108 281zM228 354 q0 -86 17 -136t65 -75t103 -32t157 -7h58q102 0 157 7t102 32t64 75t17 136v214q0 86 -17 136t-64 75t-102 32t-157 7h-58q-102 0 -157 -7t-103 -32t-65 -75t-17 -136v-214z" />
<glyph unicode="&#x1af;" horiz-adv-x="1302" d="M156 456v764q0 66 52 66t52 -64v-764q0 -176 94 -274t266 -98t266 98t94 274v764q0 64 54 64q50 0 50 -66v-124q72 6 103 28t31 66q0 34 -46 70q-30 22 -30 52q0 22 17 36t33 14q24 0 46 -22q88 -74 88 -158q0 -170 -242 -188v-538q0 -220 -130 -347t-334 -127t-334 126 t-130 348z" />
<glyph unicode="&#x1b0;" horiz-adv-x="1314" d="M140 352v516q0 68 50 68q54 0 54 -68v-514q0 -86 17 -136t64 -75t102 -32t157 -7h58q170 0 256 91t86 265v408q0 68 52 68t52 -68v-126q74 4 107 26t33 68q0 34 -46 70q-30 22 -30 52q0 22 17 36t33 14q24 0 46 -22q88 -74 88 -158q0 -170 -248 -188v-584q0 -70 -48 -70 q-56 0 -56 72v68q-118 -126 -342 -126h-58q-230 0 -337 71t-107 281z" />
<glyph unicode="&#x218;" horiz-adv-x="1200" d="M124 344q0 66 56 66q50 0 50 -66q0 -166 71 -211t269 -45h204q106 0 152 72t46 154q0 98 -39 159t-81 71l-470 104q-140 30 -199 105t-59 211q0 134 82 229t272 95h152q114 0 187 -13t137 -49t93 -108t29 -186q0 -66 -54 -66q-52 0 -52 66q0 166 -70 209t-270 43h-196 q-108 0 -157 -70t-49 -152q0 -80 35 -137t85 -67l474 -102q134 -30 194 -124t60 -220q0 -134 -79 -231t-261 -97h-166q-114 0 -188 13t-137 50t-92 110t-29 187zM480 -360q0 8 6 32l48 174q14 46 50 46q22 0 52 -12t30 -38q0 -20 -10 -38l-82 -166q-20 -48 -50 -48 q-44 0 -44 50z" />
<glyph unicode="&#x219;" horiz-adv-x="1172" d="M120 222q0 72 52 72t52 -66q0 -68 23 -96t87 -28h496q118 0 118 148q0 74 -33 121t-85 47h-452q-258 0 -258 260q0 120 62 181t216 61h450q64 0 107 -19t62 -55t25 -70t6 -80q0 -70 -52 -70t-52 66q0 70 -24 97t-86 27h-492q-118 0 -118 -138q0 -76 33 -116t85 -40h454 q140 0 198 -78t58 -194q0 -124 -63 -188t-213 -64h-456q-64 0 -107 19t-62 54t-25 69t-6 80zM484 -360q0 8 6 32l48 174q14 46 50 46q22 0 52 -12t30 -38q0 -20 -10 -38l-82 -166q-20 -48 -50 -48q-44 0 -44 50z" />
<glyph unicode="&#x21a;" horiz-adv-x="962" d="M54 1220q0 52 66 52h722q66 0 66 -54q0 -50 -66 -50h-304v-1118q0 -64 -58 -64q-52 0 -52 64v1118h-308q-66 0 -66 52zM388 -360q0 8 6 32l48 174q14 46 50 46q22 0 52 -12t30 -38q0 -20 -10 -38l-82 -166q-20 -48 -50 -48q-44 0 -44 50z" />
<glyph unicode="&#x21b;" horiz-adv-x="688" d="M94 874q0 44 62 48v208q0 72 48 72q56 0 56 -72v-208h276q72 0 72 -56q0 -48 -72 -48h-276v-464q0 -162 69 -206t253 -44q70 0 70 -48q0 -56 -70 -56q-216 0 -321 72t-105 280v468q-62 4 -62 54zM260 -360q0 8 6 32l48 174q14 46 50 46q22 0 52 -12t30 -38q0 -20 -10 -38 l-82 -166q-20 -48 -50 -48q-44 0 -44 50z" />
<glyph unicode="&#x237;" horiz-adv-x="404" d="M-244 -296q0 50 72 50q184 0 253 44t69 202v864q0 72 54 72q50 0 50 -72v-864q0 -112 -29 -183t-90 -107t-131 -48t-176 -12q-72 0 -72 54z" />
<glyph unicode="&#x2c6;" horiz-adv-x="804" d="M120 1056q0 20 12 36l210 264h118l214 -264q12 -16 12 -36q0 -46 -46 -46q-10 0 -19 4t-12 7t-13 15t-12 14l-182 192l-180 -192q-4 -4 -10 -12t-10 -11t-9 -8t-12 -7t-15 -2q-46 0 -46 46z" />
<glyph unicode="&#x2c7;" horiz-adv-x="746" d="M100 1292q0 40 46 40q24 0 64 -34l168 -140l168 140q40 34 64 34q46 0 46 -40q0 -16 -14 -30l-208 -218h-112l-208 218q-14 14 -14 30z" />
<glyph unicode="&#x2d8;" horiz-adv-x="852" d="M186 1464h106q0 -86 41 -120t93 -34t93 34t41 120h106q0 -122 -75 -192t-165 -70q-92 0 -166 71t-74 191z" />
<glyph unicode="&#x2d9;" horiz-adv-x="442" d="M120 1260q0 34 34 58t68 24q32 0 67 -24t35 -58t-35 -58t-67 -24q-34 0 -68 24t-34 58z" />
<glyph unicode="&#x2da;" horiz-adv-x="564" d="M120 1196q0 68 47 115t115 47t115 -47t47 -115t-47 -115t-115 -47t-115 47t-47 115zM194 1196q0 -36 26 -62t62 -26q34 0 61 26t27 62t-27 62t-61 26q-36 0 -62 -27t-26 -61z" />
<glyph unicode="&#x2db;" horiz-adv-x="468" d="M80 -194q0 54 55 142t105 136l76 -74q-50 -30 -91 -101t-41 -103q0 -108 84 -108q32 0 76 17t56 17q30 0 30 -34q0 -52 -54 -76t-104 -24q-82 0 -137 58t-55 150z" />
<glyph unicode="&#x2dc;" horiz-adv-x="802" d="M120 402q0 30 28 52l92 76q16 18 38 18q4 0 14 -2t12 -2l196 -72l10 -4q6 0 16 8l62 56q26 18 44 18q20 0 36 -12t16 -34q0 -28 -28 -54l-94 -78q-16 -16 -38 -16q-4 0 -8 1t-7 1t-6 1l-3 1l-196 72q-4 4 -12 4q-6 0 -16 -8l-62 -56q-26 -18 -44 -18t-34 13t-16 35z" />
<glyph unicode="&#x2dd;" horiz-adv-x="666" d="M58 1060q0 24 18 46l192 230q28 30 50 30q18 0 34 -15t16 -37t-18 -44l-192 -230q-26 -30 -50 -30q-16 0 -33 15t-17 35zM298 1060q0 24 18 46l192 230q28 30 50 30q18 0 34 -15t16 -37t-18 -44l-192 -230q-26 -30 -50 -30q-16 0 -33 15t-17 35z" />
<glyph unicode="&#x300;" horiz-adv-x="0" d="M-750 1222q0 16 16 33t36 17q24 0 48 -26l140 -138q24 -28 24 -50q0 -16 -14 -32t-36 -16q-26 0 -50 26l-138 136q-26 30 -26 50z" />
<glyph unicode="&#x301;" horiz-adv-x="0" d="M-750 1058q0 22 26 52l138 136q24 26 50 26q22 0 36 -17t14 -33q0 -20 -24 -48l-140 -138q-24 -26 -48 -26q-20 0 -36 15t-16 33z" />
<glyph unicode="&#x302;" horiz-adv-x="0" d="M-886 1056q0 20 12 36l210 264h118l214 -264q12 -16 12 -36q0 -46 -46 -46q-10 0 -19 4t-12 7t-13 15t-12 14l-182 192l-180 -192q-4 -4 -10 -12t-10 -11t-9 -8t-12 -7t-15 -2q-46 0 -46 46z" />
<glyph unicode="&#x303;" horiz-adv-x="0" d="M-872 1026q0 30 28 52l92 76q16 18 38 18q4 0 14 -2t12 -2l196 -72l10 -4q6 0 16 8l62 56q26 18 44 18q20 0 36 -12t16 -34q0 -28 -28 -54l-94 -78q-16 -16 -38 -16q-4 0 -8 1t-7 1t-6 1l-3 1l-196 72q-4 4 -12 4q-6 0 -16 -8l-62 -56q-26 -18 -44 -18t-34 13t-16 35z " />
<glyph unicode="&#x304;" horiz-adv-x="0" d="M-912 1078q0 52 62 52h490q68 0 68 -56q0 -22 -19 -36t-49 -14h-490q-62 0 -62 54z" />
<glyph unicode="&#x306;" horiz-adv-x="0" d="M-850 1260h106q0 -86 41 -120t93 -34t93 34t41 120h106q0 -122 -75 -192t-165 -70q-92 0 -166 71t-74 191z" />
<glyph unicode="&#x307;" horiz-adv-x="0" d="M-716 1116q0 34 34 58t68 24q32 0 67 -24t35 -58t-35 -58t-67 -24q-34 0 -68 24t-34 58z" />
<glyph unicode="&#x308;" horiz-adv-x="0" d="M-864 1092q0 34 34 58t68 24q32 0 67 -24t35 -58t-35 -58t-67 -24q-34 0 -68 24t-34 58zM-572 1092q0 34 34 58t68 24q32 0 67 -24t35 -58t-35 -58t-67 -24q-34 0 -68 24t-34 58z" />
<glyph unicode="&#x309;" horiz-adv-x="0" d="M-700 1184q0 56 44 86t94 30q58 0 92 -38t34 -98q0 -36 -17 -60t-37 -33t-37 -22t-17 -31q0 -38 -40 -38q-22 0 -35 12t-13 26q0 40 17 65t37 33t37 23t17 35t-14 31t-28 11q-50 0 -50 -32q0 -36 -42 -36t-42 36z" />
<glyph unicode="&#x30a;" horiz-adv-x="0" d="M-776 1172q0 68 47 115t115 47t115 -47t47 -115t-47 -115t-115 -47t-115 47t-47 115zM-702 1172q0 -36 26 -62t62 -26q34 0 61 26t27 62t-27 62t-61 26q-36 0 -62 -27t-26 -61z" />
<glyph unicode="&#x30b;" horiz-adv-x="0" d="M-830 1058q0 22 26 52l138 136q24 26 50 26q22 0 36 -17t14 -33q0 -20 -24 -48l-140 -138q-24 -26 -48 -26q-20 0 -36 15t-16 33zM-630 1058q0 22 26 52l138 136q24 26 50 26q22 0 36 -17t14 -33q0 -20 -24 -48l-140 -138q-24 -26 -48 -26q-20 0 -36 15t-16 33z" />
<glyph unicode="&#x30c;" horiz-adv-x="0" d="M-876 1292q0 40 46 40q24 0 64 -34l168 -140l168 140q40 34 64 34q46 0 46 -40q0 -16 -14 -30l-208 -218h-112l-208 218q-14 14 -14 30z" />
<glyph unicode="&#x311;" horiz-adv-x="0" d="M-850 998q0 122 75 192t165 70q92 0 166 -71t74 -191h-106q0 86 -41 120t-93 34t-93 -34t-41 -120h-106z" />
<glyph unicode="&#x312;" horiz-adv-x="0" d="M-534 1092q0 20 10 38l82 166q20 48 50 48q44 0 44 -50q0 -8 -6 -32l-48 -172q-14 -48 -50 -48q-22 0 -52 12t-30 38z" />
<glyph unicode="&#x313;" horiz-adv-x="0" d="M-600 1244q0 42 34 70t68 28q38 0 70 -29t32 -69q0 -66 -53 -159t-89 -93q-34 0 -34 40q0 18 21 58t21 68q-30 8 -50 36t-20 50z" />
<glyph unicode="&#x31b;" horiz-adv-x="198" d="M-124 1002v102q104 0 149 21t45 75q0 34 -46 70q-30 22 -30 52q0 22 17 36t33 14q24 0 46 -22q88 -74 88 -158q0 -190 -302 -190z" />
<glyph unicode="&#x323;" horiz-adv-x="0" d="M-716 -196q0 34 34 58t68 24q32 0 67 -24t35 -58t-35 -58t-67 -24q-34 0 -68 24t-34 58z" />
<glyph unicode="&#x326;" horiz-adv-x="0" d="M-726 -348q0 8 6 32l48 174q14 46 50 46q22 0 52 -12t30 -38q0 -20 -10 -38l-82 -166q-20 -48 -50 -48q-44 0 -44 50z" />
<glyph unicode="&#x327;" horiz-adv-x="0" d="M-760 -250q0 36 30 36q12 0 58 -18t74 -18q84 0 84 52q0 20 -22 41t-47 39t-47 54t-22 84h104q0 -32 22 -57t47 -39t47 -43t22 -69q0 -72 -56 -117t-136 -45q-50 0 -104 24t-54 76z" />
<glyph unicode="&#x328;" horiz-adv-x="0" d="M-568 -194q0 54 55 142t105 136l76 -74q-50 -30 -91 -101t-41 -103q0 -108 84 -108q32 0 76 17t56 17q30 0 30 -34q0 -52 -54 -76t-104 -24q-82 0 -137 58t-55 150z" />
<glyph unicode="&#x334;" horiz-adv-x="802" d="M-998 402q0 40 80 93t132 53t172 -40t148 -40q40 0 88 41t78 41q24 0 46 -12t22 -34q0 -40 -81 -94t-135 -54q-52 0 -171 40t-147 40q-40 0 -89 -41t-79 -41q-22 0 -43 12t-21 36z" />
<glyph unicode="&#x335;" horiz-adv-x="0" d="M-912 478q0 52 62 52h490q68 0 68 -56q0 -22 -19 -36t-49 -14h-490q-62 0 -62 54z" />
<glyph unicode="&#x337;" horiz-adv-x="0" d="M-838 392q0 26 44 48l340 170q30 6 34 6q24 0 39 -15t15 -37q0 -28 -50 -54l-340 -168q-15 -6 -30 -6q-28 0 -40 18t-12 38z" />
<glyph unicode="&#x37a;" horiz-adv-x="532" d="M170 -22q0 60 52 60t52 -60v-114q0 -66 23 -92t87 -26q70 0 70 -54q0 -50 -70 -50h-14q-116 0 -158 58t-42 200v78z" />
<glyph unicode="&#x37e;" horiz-adv-x="502" d="M146 866q0 34 34 58t68 24q32 0 67 -24t35 -58t-35 -58t-67 -24q-34 0 -68 24t-34 58zM160 -18q0 8 6 32l48 174q14 46 50 46q22 0 52 -12t30 -38q0 -20 -10 -38l-82 -166q-20 -48 -50 -48q-44 0 -44 50z" />
<glyph unicode="&#x384;" horiz-adv-x="498" d="M150 908q0 12 4 24l88 314q16 50 56 50q50 0 50 -54q0 -14 -2 -22l-90 -314q-14 -70 -50 -70q-24 0 -40 20t-16 52z" />
<glyph unicode="&#x385;" horiz-adv-x="766" d="M96 1092q0 34 34 58t68 24q32 0 67 -24t35 -58t-35 -58t-67 -24q-34 0 -68 24t-34 58zM306 1240q0 12 4 24l88 314q16 50 56 50q50 0 50 -54q0 -14 -2 -22l-90 -314q-14 -70 -50 -70q-24 0 -40 20t-16 52zM388 1092q0 34 34 58t68 24q32 0 67 -24t35 -58t-35 -58t-67 -24 q-34 0 -68 24t-34 58z" />
<glyph unicode="&#x386;" horiz-adv-x="1152" d="M60 18q0 14 6 32l454 1222h124l454 -1222q6 -18 6 -32q0 -26 -18 -38t-34 -12q-34 0 -54 46l-142 384h-548l-142 -384q-20 -46 -54 -46q-16 0 -34 12t-18 38zM222 1112q0 12 4 24l88 314q16 50 56 50q50 0 50 -54q0 -14 -2 -22l-90 -314q-14 -70 -50 -70q-24 0 -40 20 t-16 52zM348 502h468l-236 618z" />
<glyph unicode="&#x387;" horiz-adv-x="484" d="M140 774q0 34 34 58t68 24q32 0 67 -24t35 -58t-35 -58t-67 -24q-34 0 -68 24t-34 58z" />
<glyph unicode="&#x388;" horiz-adv-x="1282" d="M38 1112q0 12 4 24l88 314q16 50 56 50q50 0 50 -54q0 -14 -2 -22l-90 -314q-14 -70 -50 -70q-24 0 -40 20t-16 52zM254 72v1128q0 72 48 72h812q68 0 68 -56q0 -48 -68 -48h-756v-400h518q72 0 72 -56q0 -48 -72 -48h-518v-560h756q68 0 68 -56q0 -48 -68 -48h-812 q-48 0 -48 72z" />
<glyph unicode="&#x389;" horiz-adv-x="1356" d="M36 1104q0 12 4 24l88 314q16 50 56 50q50 0 50 -54q0 -14 -2 -22l-90 -314q-14 -70 -50 -70q-24 0 -40 20t-16 52zM260 54v1162q0 70 48 70q56 0 56 -70v-478h720v478q0 70 50 70q54 0 54 -70v-1162q0 -68 -50 -68q-54 0 -54 68v580h-720v-580q0 -68 -52 -68t-52 68z " />
<glyph unicode="&#x38a;" horiz-adv-x="538" d="M34 1112q0 12 4 24l88 314q16 50 56 50q50 0 50 -54q0 -14 -2 -22l-90 -314q-14 -70 -50 -70q-24 0 -40 20t-16 52zM266 50v1170q0 66 52 66t52 -66v-1170q0 -64 -54 -64q-50 0 -50 64z" />
<glyph unicode="&#x38c;" horiz-adv-x="1248" d="M62 1112q0 12 4 24l88 314q16 50 56 50q50 0 50 -54q0 -14 -2 -22l-90 -314q-14 -70 -50 -70q-24 0 -40 20t-16 52zM190 456v360q0 222 130 348t334 126t334 -127t130 -347v-360q0 -220 -130 -347t-334 -127t-334 126t-130 348zM294 458q0 -176 94 -274t266 -98t266 98 t94 274v356q0 176 -94 274t-266 98t-266 -98t-94 -274v-356z" />
<glyph unicode="&#x38e;" horiz-adv-x="1266" d="M50 1104q0 12 4 24l88 314q16 50 56 50q50 0 50 -54q0 -14 -2 -22l-90 -314q-14 -70 -50 -70q-24 0 -40 20t-16 52zM258 1236q0 22 16 36t34 14q22 0 50 -36l386 -534l384 534q26 36 52 36q16 0 33 -15t17 -35q0 -18 -16 -42l-416 -578v-568q0 -62 -54 -62q-52 0 -52 62 v568l-418 578q-16 24 -16 42z" />
<glyph unicode="&#x38f;" horiz-adv-x="1244" d="M76 1112q0 12 4 24l88 314q16 50 56 50q50 0 50 -54q0 -14 -2 -22l-90 -314q-14 -70 -50 -70q-24 0 -40 20t-16 52zM188 52q0 52 70 52h100q66 0 79 9t13 55v52q-122 52 -192 163t-70 271v162q0 222 130 348t334 126t334 -127t130 -347v-162q0 -160 -70 -271t-192 -163 v-54q0 -46 12 -54t80 -8h100q70 0 70 -52t-70 -52h-114q-124 0 -155 30t-31 168v92q266 60 266 362v162q0 174 -95 273t-265 99t-265 -99t-95 -273v-162q0 -296 266 -364v-90q0 -138 -31 -168t-155 -30h-114q-70 0 -70 52z" />
<glyph unicode="&#x390;" horiz-adv-x="456" d="M-52 1104q0 34 34 58t68 24q32 0 67 -24t35 -58t-35 -58t-67 -24q-34 0 -68 24t-34 58zM144 252v616q0 68 52 68t52 -68v-648q0 -64 23 -90t87 -26q70 0 70 -54q0 -50 -70 -50h-14q-116 0 -158 56t-42 196zM158 1252q0 12 4 24l88 314q16 50 56 50q50 0 50 -54 q0 -14 -2 -22l-90 -314q-14 -70 -50 -70q-24 0 -40 20t-16 52zM240 1104q0 34 34 58t68 24q32 0 67 -24t35 -58t-35 -58t-67 -24q-34 0 -68 24t-34 58z" />
<glyph unicode="&#x391;" horiz-adv-x="1140" d="M48 18q0 14 6 32l454 1222h124l454 -1222q6 -18 6 -32q0 -26 -18 -38t-34 -12q-34 0 -54 46l-142 384h-548l-142 -384q-20 -46 -54 -46q-16 0 -34 12t-18 38zM336 502h468l-236 618z" />
<glyph unicode="&#x392;" horiz-adv-x="1210" d="M168 1200q0 72 48 72h360q222 0 329 -62t107 -238q0 -152 -98 -224q92 -34 137 -111t45 -219v-58q0 -216 -107 -288t-337 -72h-436q-48 0 -48 72v1128zM272 768h304q184 0 258 38t74 156q0 126 -73 161t-259 35h-304v-390zM272 104h380q196 0 268 45t72 207v56 q0 162 -70 207t-258 45h-392v-560z" />
<glyph unicode="&#x393;" horiz-adv-x="1114" d="M164 54v964q0 140 42 197t158 57h630q70 0 70 -52t-70 -52h-616q-64 0 -87 -27t-23 -91v-996q0 -68 -54 -68q-50 0 -50 68z" />
<glyph unicode="&#x394;" horiz-adv-x="1104" d="M50 50q0 14 6 30l438 1162q16 46 58 46t58 -46l438 -1162q6 -16 6 -30q0 -22 -15 -36t-39 -14h-896q-24 0 -39 14t-15 36zM176 106h752l-376 1002z" />
<glyph unicode="&#x395;" d="M168 72v1128q0 72 48 72h812q68 0 68 -56q0 -48 -68 -48h-756v-400h518q72 0 72 -56q0 -48 -72 -48h-518v-560h756q68 0 68 -56q0 -48 -68 -48h-812q-48 0 -48 72z" />
<glyph unicode="&#x396;" horiz-adv-x="1110" d="M90 1240q0 52 72 52h856v-106l-798 -1082h728q70 0 70 -54q0 -50 -70 -50h-856v102l802 1086h-732q-72 0 -72 52z" />
<glyph unicode="&#x397;" horiz-adv-x="1264" d="M168 54v1162q0 70 48 70q56 0 56 -70v-478h720v478q0 70 50 70q54 0 54 -70v-1162q0 -68 -50 -68q-54 0 -54 68v580h-720v-580q0 -68 -52 -68t-52 68z" />
<glyph unicode="&#x398;" horiz-adv-x="1188" d="M130 456v360q0 222 130 348t334 126t334 -127t130 -347v-360q0 -220 -130 -347t-334 -127t-334 126t-130 348zM234 458q0 -176 94 -274t266 -98t266 98t94 274v356q0 176 -94 274t-266 98t-266 -98t-94 -274v-356zM354 636q0 52 64 52h346q70 0 70 -52q0 -24 -20 -39 t-50 -15h-346q-32 0 -48 16t-16 38z" />
<glyph unicode="&#x399;" horiz-adv-x="440" d="M168 50v1170q0 66 52 66t52 -66v-1170q0 -64 -54 -64q-50 0 -50 64z" />
<glyph unicode="&#x39a;" horiz-adv-x="1036" d="M168 50v1170q0 66 52 66t52 -66v-560l522 596q22 30 50 30q16 0 33 -14t17 -34q0 -22 -20 -48l-426 -478l558 -630q22 -26 22 -46t-18 -35t-34 -15q-26 0 -50 30l-548 628l-106 -128v-466q0 -64 -54 -64q-50 0 -50 64z" />
<glyph unicode="&#x39b;" horiz-adv-x="1140" d="M48 8q0 15 6 36l462 1228h108l462 -1228q6 -21 6 -36q0 -14 -11 -24t-21 -13t-20 -3q-34 0 -54 40l-418 1110l-414 -1110q-16 -40 -54 -40q-10 0 -20 3t-21 13t-11 24z" />
<glyph unicode="&#x39c;" horiz-adv-x="1306" d="M168 54v1162q0 70 48 70q36 0 60 -38l376 -556l378 556q26 38 58 38q50 0 50 -70v-1162q0 -68 -54 -68q-50 0 -50 70v1034l-346 -516q-12 -16 -36 -16q-22 0 -34 16l-346 516v-1034q0 -70 -52 -70t-52 68z" />
<glyph unicode="&#x39d;" horiz-adv-x="1264" d="M168 54v1162q0 70 48 70q36 0 60 -38l716 -1056v1022q0 72 50 72q54 0 54 -70v-1162q0 -68 -50 -68q-28 0 -40 14l-734 1086v-1034q0 -66 -52 -66t-52 68z" />
<glyph unicode="&#x39e;" horiz-adv-x="1218" d="M106 52q0 52 62 52h880q68 0 68 -56q0 -48 -68 -48h-880q-62 0 -62 52zM106 1242q0 52 62 52h880q68 0 68 -56q0 -48 -68 -48h-880q-62 0 -62 52zM340 636q0 52 64 52h406q70 0 70 -52q0 -24 -20 -39t-50 -15h-406q-32 0 -48 16t-16 38z" />
<glyph unicode="&#x39f;" horiz-adv-x="1188" d="M130 456v360q0 222 130 348t334 126t334 -127t130 -347v-360q0 -220 -130 -347t-334 -127t-334 126t-130 348zM234 458q0 -176 94 -274t266 -98t266 98t94 274v356q0 176 -94 274t-266 98t-266 -98t-94 -274v-356z" />
<glyph unicode="&#x3a0;" horiz-adv-x="1248" d="M170 54v1218h908v-1218q0 -68 -50 -68q-54 0 -54 68v1114h-700v-1114q0 -68 -52 -68t-52 68z" />
<glyph unicode="&#x3a1;" horiz-adv-x="1084" d="M168 50v1150q0 72 48 72h362q216 0 325 -66t109 -244q0 -150 -91 -229t-255 -79h-394v-604q0 -64 -54 -64q-50 0 -50 64zM272 758h306q184 0 257 40t73 164q0 128 -74 167t-256 39h-306v-410z" />
<glyph unicode="&#x3a3;" horiz-adv-x="1154" d="M60 50q0 22 20 46l486 550l-486 552q-20 20 -20 46q0 50 62 50h880q68 0 68 -56q0 -48 -68 -48h-778l446 -500q22 -28 22 -44q0 -20 -20 -44l-448 -498h778q68 0 68 -56q0 -48 -68 -48h-892q-20 0 -35 14t-15 36z" />
<glyph unicode="&#x3a4;" horiz-adv-x="962" d="M54 1220q0 52 66 52h722q66 0 66 -54q0 -50 -66 -50h-304v-1118q0 -64 -58 -64q-52 0 -52 64v1118h-308q-66 0 -66 52z" />
<glyph unicode="&#x3a5;" horiz-adv-x="1042" d="M34 1236q0 22 16 36t34 14q22 0 50 -36l386 -534l384 534q26 36 52 36q16 0 33 -15t17 -35q0 -18 -16 -42l-416 -578v-568q0 -62 -54 -62q-52 0 -52 62v568l-418 578q-16 24 -16 42z" />
<glyph unicode="&#x3a6;" horiz-adv-x="1096" d="M84 624v24q0 208 114 332t300 140v100q0 66 54 66t54 -66v-100q182 -18 294 -142t112 -330v-24q0 -206 -112 -330t-294 -142v-102q0 -64 -56 -64q-52 0 -52 64v102q-186 16 -300 140t-114 332zM188 624q0 -166 81 -264t229 -112v776q-148 -14 -229 -113t-81 -263v-24z M606 250q144 14 223 113t79 261v24q0 160 -79 259t-223 115v-772z" />
<glyph unicode="&#x3a7;" horiz-adv-x="1118" d="M72 34q0 22 16 44l406 556l-406 558q-16 18 -16 42q0 28 18 40t32 12q26 0 52 -36l384 -534l386 534q28 36 50 36q16 0 34 -12t18 -40q0 -24 -16 -42l-406 -558l406 -556q16 -22 16 -44t-17 -35t-35 -13q-26 0 -50 32l-386 536l-384 -536q-24 -32 -52 -32q-18 0 -34 14 t-16 34z" />
<glyph unicode="&#x3a8;" horiz-adv-x="1120" d="M96 914v306q0 66 52 66t52 -66v-312q0 -164 80 -262t228 -114v688q0 66 54 66t54 -66v-686q146 14 225 112t79 262v312q0 66 54 66q50 0 50 -66v-306q0 -206 -113 -330t-295 -142v-392q0 -64 -56 -64q-52 0 -52 64v392q-186 16 -299 140t-113 332z" />
<glyph unicode="&#x3a9;" horiz-adv-x="1184" d="M128 52q0 52 70 52h100q66 0 79 9t13 55v52q-122 52 -192 163t-70 271v162q0 222 130 348t334 126t334 -127t130 -347v-162q0 -160 -70 -271t-192 -163v-54q0 -46 12 -54t80 -8h100q70 0 70 -52t-70 -52h-114q-124 0 -155 30t-31 168v92q266 60 266 362v162 q0 174 -95 273t-265 99t-265 -99t-95 -273v-162q0 -296 266 -364v-90q0 -138 -31 -168t-155 -30h-114q-70 0 -70 52z" />
<glyph unicode="&#x3aa;" horiz-adv-x="440" d="M-26 1486q0 34 34 58t68 24q32 0 67 -24t35 -58t-35 -58t-67 -24q-34 0 -68 24t-34 58zM168 50v1170q0 66 52 66t52 -66v-1170q0 -64 -54 -64q-50 0 -50 64zM266 1486q0 34 34 58t68 24q32 0 67 -24t35 -58t-35 -58t-67 -24q-34 0 -68 24t-34 58z" />
<glyph unicode="&#x3ab;" horiz-adv-x="1042" d="M34 1236q0 22 16 36t34 14q22 0 50 -36l386 -534l384 534q26 36 52 36q16 0 33 -15t17 -35q0 -18 -16 -42l-416 -578v-568q0 -62 -54 -62q-52 0 -52 62v568l-418 578q-16 24 -16 42zM274 1486q0 34 34 58t68 24q32 0 67 -24t35 -58t-35 -58t-67 -24q-34 0 -68 24t-34 58z M566 1486q0 34 34 58t68 24q32 0 67 -24t35 -58t-35 -58t-67 -24q-34 0 -68 24t-34 58z" />
<glyph unicode="&#x3ac;" horiz-adv-x="1170" d="M120 392v138q0 216 97 304t303 88q192 0 304 -106v50q0 70 54 70q52 0 52 -68v-648q0 -64 23 -90t87 -26q70 0 70 -54q0 -50 -70 -50h-14q-82 0 -126 28t-62 92q-110 -120 -318 -120q-206 0 -303 88t-97 304zM224 392q0 -170 63 -229t233 -59q304 0 304 288v138 q0 288 -304 288q-170 0 -233 -59t-63 -229v-138zM468 1110q0 12 4 24l88 314q16 50 56 50q50 0 50 -54q0 -14 -2 -22l-90 -314q-14 -70 -50 -70q-24 0 -40 20t-16 52z" />
<glyph unicode="&#x3ad;" horiz-adv-x="1186" d="M122 252q0 148 118 222q-118 52 -118 196q0 132 95 192t239 60h274q146 0 243 -62t97 -196q0 -70 -50 -70q-54 0 -54 70q0 50 -30 84t-77 47t-81 18t-62 5h-246q-246 0 -246 -124q0 -96 54 -131t184 -35h172q72 0 72 -56q0 -48 -72 -48h-172q-236 0 -236 -196 q0 -124 244 -124h246q28 0 61 5t80 18t78 47t31 84q0 70 54 70q50 0 50 -70q0 -134 -97 -196t-243 -62h-274q-144 0 -239 60t-95 192zM504 1096q0 12 4 24l88 314q16 50 56 50q50 0 50 -54q0 -14 -2 -22l-90 -314q-14 -70 -50 -70q-24 0 -40 20t-16 52z" />
<glyph unicode="&#x3ae;" horiz-adv-x="1238" d="M148 54v812q0 70 48 70q56 0 56 -72v-68q118 126 342 126h58q230 0 337 -71t107 -283v-908q0 -70 -50 -70q-54 0 -54 70v906q0 162 -72 207t-268 45h-58q-170 0 -256 -91t-86 -265v-408q0 -68 -52 -68t-52 68zM584 1110q0 12 4 24l88 314q16 50 56 50q50 0 50 -54 q0 -14 -2 -22l-90 -314q-14 -70 -50 -70q-24 0 -40 20t-16 52z" />
<glyph unicode="&#x3af;" horiz-adv-x="456" d="M144 252v616q0 68 52 68t52 -68v-648q0 -64 23 -90t87 -26q70 0 70 -54q0 -50 -70 -50h-14q-116 0 -158 56t-42 196zM164 1110q0 12 4 24l88 314q16 50 56 50q50 0 50 -54q0 -14 -2 -22l-90 -314q-14 -70 -50 -70q-24 0 -40 20t-16 52z" />
<glyph unicode="&#x3b0;" horiz-adv-x="1206" d="M138 352v516q0 68 50 68q54 0 54 -68v-514q0 -162 72 -206t270 -44h56q194 0 258 44t64 206v514q0 68 52 68t52 -68v-516q0 -212 -99 -282t-327 -70h-56q-230 0 -338 71t-108 281zM354 1140q0 34 34 58t68 24q32 0 67 -24t35 -58t-35 -58t-67 -24q-34 0 -68 24t-34 58z M564 1288q0 12 4 24l88 314q16 50 56 50q50 0 50 -54q0 -14 -2 -22l-90 -314q-14 -70 -50 -70q-24 0 -40 20t-16 52zM646 1140q0 34 34 58t68 24q32 0 67 -24t35 -58t-35 -58t-67 -24q-34 0 -68 24t-34 58z" />
<glyph unicode="&#x3b1;" horiz-adv-x="1170" d="M120 392v138q0 216 97 304t303 88q192 0 304 -106v50q0 70 54 70q52 0 52 -68v-648q0 -64 23 -90t87 -26q70 0 70 -54q0 -50 -70 -50h-14q-82 0 -126 28t-62 92q-110 -120 -318 -120q-206 0 -303 88t-97 304zM224 392q0 -170 63 -229t233 -59q304 0 304 288v138 q0 288 -304 288q-170 0 -233 -59t-63 -229v-138z" />
<glyph unicode="&#x3b2;" horiz-adv-x="972" d="M150 -222v1144q2 204 91 277t229 73t228 -80t88 -208q0 -178 -146 -274q94 -28 151 -98t71 -130t14 -124q0 -372 -342 -372q-168 0 -280 108v-316q0 -72 -56 -72q-48 0 -48 72zM254 248q134 -162 276 -162q42 0 71 5t75 28t71 84t25 157q0 128 -86 210t-292 82v102 q288 0 288 234q0 84 -63 132t-149 48q-114 0 -165 -45t-51 -201v-674z" />
<glyph unicode="&#x3b3;" horiz-adv-x="1050" d="M46 870q0 52 66 52q118 0 171 -101t180 -523q41 -130 63 -206l366 802q20 42 56 42q18 0 33 -13t15 -33q0 -10 -6 -24l-420 -918v-242q0 -70 -58 -70q-50 0 -50 70v240q-162 534 -227 703t-123 169q-66 0 -66 52z" />
<glyph unicode="&#x3b4;" horiz-adv-x="1130" d="M90 476q0 88 32 164t84 127t117 87t129 52t124 16q92 0 164 -30q-112 126 -340 212l-178 68q-32 14 -32 50q0 52 62 52h646q68 0 68 -56q0 -50 -68 -50h-406q536 -200 536 -758q0 -196 -126 -310t-338 -114q-118 0 -212 44t-149 117t-84 157t-29 172zM196 464 q0 -152 101 -262t275 -110q170 0 260 87t90 237q0 180 -91 291t-251 111q-82 0 -166 -34t-151 -119t-67 -201z" />
<glyph unicode="&#x3b5;" horiz-adv-x="1186" d="M122 252q0 148 118 222q-118 52 -118 196q0 132 95 192t239 60h274q146 0 243 -62t97 -196q0 -70 -50 -70q-54 0 -54 70q0 50 -30 84t-77 47t-81 18t-62 5h-246q-246 0 -246 -124q0 -96 54 -131t184 -35h172q72 0 72 -56q0 -48 -72 -48h-172q-236 0 -236 -196 q0 -124 244 -124h246q28 0 61 5t80 18t78 47t31 84q0 70 54 70q50 0 50 -70q0 -134 -97 -196t-243 -62h-274q-144 0 -239 60t-95 192z" />
<glyph unicode="&#x3b6;" horiz-adv-x="1006" d="M104 410q0 556 540 758h-410q-68 0 -68 50q0 56 68 56h646q62 0 62 -52q0 -48 -32 -60q-8 -4 -75 -27t-105 -38t-112 -52t-121 -72t-107 -93t-95 -122t-60 -152t-25 -188q0 -150 91 -238t263 -88q90 0 144 -3t113 -17t90 -41t51 -75t20 -120q0 -80 -51 -137t-99 -57 q-20 0 -33 16t-13 36q0 24 46 60t46 74q0 104 -60 131t-248 27q-212 0 -339 114t-127 310z" />
<glyph unicode="&#x3b7;" horiz-adv-x="1238" d="M148 54v812q0 70 48 70q56 0 56 -72v-68q118 126 342 126h58q230 0 337 -71t107 -283v-908q0 -70 -50 -70q-54 0 -54 70v906q0 162 -72 207t-268 45h-58q-170 0 -256 -91t-86 -265v-408q0 -68 -52 -68t-52 68z" />
<glyph unicode="&#x3b8;" horiz-adv-x="1048" d="M130 456v360q0 474 394 474q196 0 295 -122t99 -352v-360q0 -230 -99 -352t-295 -122q-394 0 -394 474zM234 456q0 -370 290 -370t290 370v126h-580v-126zM234 688h580v128q0 370 -290 370t-290 -370v-128z" />
<glyph unicode="&#x3b9;" horiz-adv-x="456" d="M144 252v616q0 68 52 68t52 -68v-648q0 -64 23 -90t87 -26q70 0 70 -54q0 -50 -70 -50h-14q-116 0 -158 56t-42 196z" />
<glyph unicode="&#x3ba;" horiz-adv-x="918" d="M148 48v824q0 64 52 64t52 -64v-358l508 408q24 20 48 20q20 0 34 -18t14 -34q0 -28 -30 -48l-480 -378l482 -380q28 -20 28 -46q0 -18 -14 -35t-34 -17q-24 0 -46 18l-510 410v-366q0 -62 -54 -62q-50 0 -50 62z" />
<glyph unicode="&#x3bb;" horiz-adv-x="1154" d="M54 32q0 8 6 24l406 892l-42 102q-24 54 -68 86t-88 32q-68 0 -68 50q0 56 68 56q76 0 141 -42t95 -114l406 -908q22 -52 64 -84t86 -32q68 0 68 -50q0 -56 -68 -56q-74 0 -138 42t-94 114l-302 692l-368 -808q-18 -42 -56 -42q-18 0 -33 13t-15 33z" />
<glyph unicode="&#x3bc;" horiz-adv-x="1148" d="M150 -338v1214q0 70 50 70q54 0 54 -70v-420q0 -176 83 -269t239 -93q154 0 238 93t84 269v420q0 70 50 70q54 0 54 -70v-828q0 -72 -50 -72q-54 0 -54 72v68q-118 -126 -322 -126t-322 126v-454q0 -72 -56 -72q-48 0 -48 72z" />
<glyph unicode="&#x3bd;" horiz-adv-x="1018" d="M56 904q0 42 48 42q36 0 56 -44l344 -800l356 802q18 42 56 42q48 0 48 -40q0 -16 -8 -34l-388 -882h-140l-364 882q-8 18 -8 32z" />
<glyph unicode="&#x3be;" horiz-adv-x="1004" d="M80 1222q0 50 62 50h642q68 0 68 -54q0 -50 -68 -50q-564 0 -564 -234q0 -106 59 -163t165 -57h180q76 0 76 -56q0 -46 -76 -46h-180q-98 0 -160 -87t-62 -203q0 -74 38 -124t100 -71t112 -28t102 -7q90 0 144 -3t113 -17t90 -41t51 -75t20 -120q0 -80 -51 -137t-99 -57 q-20 0 -33 16t-13 36q0 24 46 60t46 74q0 104 -60 131t-248 27q-78 0 -136 6t-123 28t-106 59t-69 105t-28 162q0 86 44 176t96 128q-52 30 -96 113t-44 171q0 150 122 234h-98q-62 0 -62 54z" />
<glyph unicode="&#x3bf;" d="M124 352v218q0 210 108 281t338 71h58q230 0 337 -71t107 -281v-218q0 -210 -107 -281t-337 -71h-58q-230 0 -338 71t-108 281zM228 354q0 -86 17 -136t65 -75t103 -32t157 -7h58q102 0 157 7t102 32t64 75t17 136v214q0 86 -17 136t-64 75t-102 32t-157 7h-58 q-102 0 -157 -7t-103 -32t-65 -75t-17 -136v-214z" />
<glyph unicode="&#x3c0;" horiz-adv-x="1212" d="M82 870q0 52 66 52h848q66 0 66 -54q0 -50 -66 -50h-30v-600q0 -64 23 -89t87 -25q70 0 70 -54q0 -50 -70 -50h-16q-116 0 -158 56t-42 196v566h-578v-764q0 -68 -52 -68t-52 68v764h-30q-66 0 -66 52z" />
<glyph unicode="&#x3c1;" horiz-adv-x="1200" d="M128 -294v724q0 492 446 492h58q230 0 337 -71t107 -281v-218q0 -210 -107 -281t-335 -71h-402v-294q0 -70 -56 -70q-48 0 -48 70zM232 104h402q196 0 267 44t71 206v214q0 86 -17 136t-64 75t-102 32t-157 7h-58q-342 0 -342 -354v-360z" />
<glyph unicode="&#x3c2;" horiz-adv-x="978" d="M94 452q0 222 188 353t554 131q68 0 68 -50q0 -56 -68 -56q-186 0 -317 -33t-197 -90t-94 -117t-28 -132q0 -366 286 -366q92 0 145 -3t113 -17t91 -41t51 -75t20 -120q0 -80 -51 -137t-99 -57q-20 0 -33 16t-13 36q0 24 46 60t46 74q0 104 -61 131t-249 27 q-200 0 -299 129t-99 337z" />
<glyph unicode="&#x3c3;" horiz-adv-x="1244" d="M124 352v218q0 210 108 281t338 71h536q70 0 70 -52t-70 -52h-180q126 -114 126 -314v-152q0 -212 -100 -282t-324 -70h-58q-230 0 -338 71t-108 281zM228 354q0 -86 17 -136t65 -75t103 -32t157 -7h58q190 0 255 43t65 207v150q0 152 -94 233t-270 81h-14 q-102 0 -157 -7t-103 -32t-65 -75t-17 -136v-214z" />
<glyph unicode="&#x3c4;" horiz-adv-x="956" d="M40 870q0 52 66 52h722q66 0 66 -54q0 -50 -66 -50h-304v-600q0 -64 24 -89t92 -25q48 0 69 -11t21 -43q0 -50 -90 -50h-16q-122 0 -166 56t-44 196v566h-308q-66 0 -66 52z" />
<glyph unicode="&#x3c5;" horiz-adv-x="1210" d="M140 352v516q0 68 50 68q54 0 54 -68v-514q0 -162 72 -206t270 -44h56q194 0 258 44t64 206v514q0 68 52 68t52 -68v-516q0 -212 -99 -282t-327 -70h-56q-230 0 -338 71t-108 281z" />
<glyph unicode="&#x3c6;" horiz-adv-x="1256" d="M126 352v262q0 132 59 220t199 88q74 0 74 -50q0 -54 -74 -54h-36q-58 0 -88 -64t-30 -160v-254q0 -156 80 -205t262 -51v338q0 70 1 110t6 100t15 95t30 77t49 65t72 38t99 15q146 0 216 -71t70 -281v-218q0 -94 -27 -162t-66 -104t-104 -56t-119 -25t-134 -5v-294 q0 -70 -56 -70q-52 0 -52 70v294q-216 4 -331 78t-115 274zM680 84q100 0 153 6t103 31t70 78t20 141v222q0 88 -10 140t-35 77t-52 32t-75 7q-100 0 -137 -83t-37 -281v-370z" />
<glyph unicode="&#x3c7;" horiz-adv-x="1034" d="M68 880q0 56 68 56q74 0 138 -42t94 -114l158 -356l282 474q24 38 52 38q16 0 34 -15t18 -35q0 -18 -14 -40l-318 -530l198 -442q22 -54 64 -86t86 -32q68 0 68 -50q0 -56 -68 -56q-74 0 -138 42t-94 114l-182 410l-318 -534q-18 -38 -50 -38q-16 0 -35 12t-19 38 q0 20 14 40l354 594l-174 386q-22 52 -64 84t-86 32q-68 0 -68 50z" />
<glyph unicode="&#x3c8;" horiz-adv-x="1180" d="M126 456v416q0 64 52 64t52 -66v-424q0 -164 80 -262t228 -114v1052q0 66 54 66t54 -66v-1050q146 14 225 112t79 262v424q0 66 54 66q50 0 50 -64v-416q0 -204 -113 -329t-295 -141v-202q0 -64 -56 -64q-52 0 -52 64v202q-184 16 -298 140t-114 330z" />
<glyph unicode="&#x3c9;" horiz-adv-x="1332" d="M124 294v330q0 128 63 220t195 92q72 0 72 -50q0 -54 -72 -54q-48 0 -82 -28t-48 -70t-19 -72t-5 -54v-298q0 -102 50 -161t120 -59q208 0 208 218v202q0 70 58 70q60 0 60 -70v-202q0 -218 208 -218q70 0 120 59t50 161v298q0 24 -5 54t-19 72t-48 70t-82 28 q-72 0 -72 54q0 50 72 50q132 0 195 -92t63 -220v-330q0 -122 -82 -215t-218 -93q-162 0 -240 122q-78 -122 -242 -122q-136 0 -218 93t-82 215z" />
<glyph unicode="&#x3ca;" horiz-adv-x="456" d="M-52 1130q0 34 34 58t68 24q32 0 67 -24t35 -58t-35 -58t-67 -24q-34 0 -68 24t-34 58zM144 252v616q0 68 52 68t52 -68v-648q0 -64 23 -90t87 -26q70 0 70 -54q0 -50 -70 -50h-14q-116 0 -158 56t-42 196zM240 1130q0 34 34 58t68 24q32 0 67 -24t35 -58t-35 -58 t-67 -24q-34 0 -68 24t-34 58z" />
<glyph unicode="&#x3cb;" horiz-adv-x="1206" d="M138 352v516q0 68 50 68q54 0 54 -68v-514q0 -162 72 -206t270 -44h56q194 0 258 44t64 206v514q0 68 52 68t52 -68v-516q0 -212 -99 -282t-327 -70h-56q-230 0 -338 71t-108 281zM354 1140q0 34 34 58t68 24q32 0 67 -24t35 -58t-35 -58t-67 -24q-34 0 -68 24t-34 58z M646 1140q0 34 34 58t68 24q32 0 67 -24t35 -58t-35 -58t-67 -24q-34 0 -68 24t-34 58z" />
<glyph unicode="&#x3cc;" d="M124 352v218q0 210 108 281t338 71h58q230 0 337 -71t107 -281v-218q0 -210 -107 -281t-337 -71h-58q-230 0 -338 71t-108 281zM228 354q0 -86 17 -136t65 -75t103 -32t157 -7h58q102 0 157 7t102 32t64 75t17 136v214q0 86 -17 136t-64 75t-102 32t-157 7h-58 q-102 0 -157 -7t-103 -32t-65 -75t-17 -136v-214zM500 1116q0 12 4 24l88 314q16 50 56 50q50 0 50 -54q0 -14 -2 -22l-90 -314q-14 -70 -50 -70q-24 0 -40 20t-16 52z" />
<glyph unicode="&#x3cd;" horiz-adv-x="1210" d="M140 352v516q0 68 50 68q54 0 54 -68v-514q0 -162 72 -206t270 -44h56q194 0 258 44t64 206v514q0 68 52 68t52 -68v-516q0 -212 -99 -282t-327 -70h-56q-230 0 -338 71t-108 281zM504 1130q0 12 4 24l88 314q16 50 56 50q50 0 50 -54q0 -14 -2 -22l-90 -314 q-14 -70 -50 -70q-24 0 -40 20t-16 52z" />
<glyph unicode="&#x3ce;" horiz-adv-x="1332" d="M124 294v330q0 128 63 220t195 92q72 0 72 -50q0 -54 -72 -54q-48 0 -82 -28t-48 -70t-19 -72t-5 -54v-298q0 -102 50 -161t120 -59q208 0 208 218v202q0 70 58 70q60 0 60 -70v-202q0 -218 208 -218q70 0 120 59t50 161v298q0 24 -5 54t-19 72t-48 70t-82 28 q-72 0 -72 54q0 50 72 50q132 0 195 -92t63 -220v-330q0 -122 -82 -215t-218 -93q-162 0 -240 122q-78 -122 -242 -122q-136 0 -218 93t-82 215zM566 1130q0 12 4 24l88 314q16 50 56 50q50 0 50 -54q0 -14 -2 -22l-90 -314q-14 -70 -50 -70q-24 0 -40 20t-16 52z" />
<glyph unicode="&#x400;" d="M168 72v1128q0 72 48 72h812q68 0 68 -56q0 -48 -68 -48h-756v-400h518q72 0 72 -56q0 -48 -72 -48h-518v-560h756q68 0 68 -56q0 -48 -68 -48h-812q-48 0 -48 72zM408 1588q0 16 16 33t36 17q24 0 48 -26l140 -138q24 -28 24 -50q0 -16 -14 -32t-36 -16q-26 0 -50 26 l-138 136q-26 30 -26 50z" />
<glyph unicode="&#x401;" d="M168 72v1128q0 72 48 72h812q68 0 68 -56q0 -48 -68 -48h-756v-400h518q72 0 72 -56q0 -48 -72 -48h-518v-560h756q68 0 68 -56q0 -48 -68 -48h-812q-48 0 -48 72zM376 1486q0 34 34 58t68 24q32 0 67 -24t35 -58t-35 -58t-67 -24q-34 0 -68 24t-34 58zM668 1486 q0 34 34 58t68 24q32 0 67 -24t35 -58t-35 -58t-67 -24q-34 0 -68 24t-34 58z" />
<glyph unicode="&#x402;" horiz-adv-x="1406" d="M54 1220q0 52 66 52h714q68 0 68 -54q0 -50 -68 -50h-304v-362q120 126 332 126q218 0 323 -72t105 -284v-728q0 -86 -16 -140t-48 -78t-65 -32t-85 -8q-74 0 -74 52t74 52q64 0 87 27t23 93v760q0 164 -70 209t-254 45q-160 0 -246 -92t-86 -268v-412q0 -70 -54 -70 q-52 0 -52 68v1114h-304q-66 0 -66 52z" />
<glyph unicode="&#x403;" horiz-adv-x="1114" d="M164 54v964q0 140 42 197t158 57h630q70 0 70 -52t-70 -52h-616q-64 0 -87 -27t-23 -91v-996q0 -68 -54 -68q-50 0 -50 68zM548 1424q0 22 26 52l138 136q24 26 50 26q22 0 36 -17t14 -33q0 -20 -24 -48l-140 -138q-24 -26 -48 -26q-20 0 -36 15t-16 33z" />
<glyph unicode="&#x404;" horiz-adv-x="1180" d="M144 354v564q0 212 108 283t338 71h282q64 0 107 -19t62 -54t25 -69t6 -80q0 -72 -52 -72t-52 66q0 68 -23 96t-87 28h-268q-198 0 -270 -44t-72 -206v-200h518q70 0 70 -48q0 -56 -70 -56h-518v-258q0 -162 72 -207t270 -45h268q62 0 86 27t24 97q0 66 52 66t52 -70 q0 -48 -6 -82t-25 -69t-62 -54t-107 -19h-282q-230 0 -338 71t-108 283z" />
<glyph unicode="&#x405;" horiz-adv-x="1198" d="M122 344q0 66 56 66q50 0 50 -66q0 -166 71 -211t269 -45h204q106 0 152 72t46 154q0 98 -39 159t-81 71l-470 104q-140 30 -199 105t-59 211q0 134 82 229t272 95h152q114 0 187 -13t137 -49t93 -108t29 -186q0 -66 -54 -66q-52 0 -52 66q0 166 -70 209t-270 43h-196 q-108 0 -157 -70t-49 -152q0 -80 35 -137t85 -67l474 -102q134 -30 194 -124t60 -220q0 -134 -79 -231t-261 -97h-166q-114 0 -188 13t-137 50t-92 110t-29 187z" />
<glyph unicode="&#x406;" horiz-adv-x="440" d="M168 50v1170q0 66 52 66t52 -66v-1170q0 -64 -54 -64q-50 0 -50 64z" />
<glyph unicode="&#x407;" horiz-adv-x="440" d="M-26 1486q0 34 34 58t68 24q32 0 67 -24t35 -58t-35 -58t-67 -24q-34 0 -68 24t-34 58zM168 50v1170q0 66 52 66t52 -66v-1170q0 -64 -54 -64q-50 0 -50 64zM266 1486q0 34 34 58t68 24q32 0 67 -24t35 -58t-35 -58t-67 -24q-34 0 -68 24t-34 58z" />
<glyph unicode="&#x408;" horiz-adv-x="1100" d="M64 344q0 66 56 66q50 0 50 -66q0 -166 70 -211t262 -45q190 0 261 45t71 207v882q0 64 52 64t52 -66v-882q0 -112 -29 -184t-90 -108t-134 -49t-183 -13t-183 13t-135 50t-91 110t-29 187z" />
<glyph unicode="&#x409;" horiz-adv-x="1766" d="M42 54q0 48 72 48q64 0 87 26t23 90v800q0 140 45 197t175 57h534v-460h284q196 0 314 -113t118 -299t-117 -300t-313 -114h-336q-54 0 -54 70v1112h-416q-72 0 -101 -28t-29 -90v-796q0 -158 -54 -206t-160 -48q-72 0 -72 54zM978 90h286q162 0 244 84t82 226 q0 138 -83 223t-245 85h-284v-618z" />
<glyph unicode="&#x40a;" horiz-adv-x="1864" d="M168 54v1162q0 70 48 70q56 0 56 -70v-404h710v404q0 70 50 70q54 0 54 -70v-404h278q194 0 311 -114t117 -298q0 -186 -117 -300t-311 -114h-330q-52 0 -52 72v650h-710v-652q0 -70 -52 -70t-52 68zM1086 90h278q160 0 242 84t82 226q0 138 -82 223t-242 85h-278v-618z " />
<glyph unicode="&#x40b;" horiz-adv-x="1406" d="M54 1220q0 52 66 52h714q68 0 68 -54q0 -50 -68 -50h-304v-362q120 126 332 126q218 0 323 -72t105 -284v-520q0 -70 -50 -70q-54 0 -54 70v520q0 162 -70 207t-254 45q-160 0 -246 -92t-86 -268v-412q0 -70 -54 -70q-52 0 -52 68v1114h-304q-66 0 -66 52z" />
<glyph unicode="&#x40c;" horiz-adv-x="1148" d="M168 50v1090q0 66 52 66t52 -66v-496h246q114 0 189 40t75 100v166q0 86 16 140t48 78t65 32t85 8q72 0 72 -52t-72 -52q-64 0 -87 -27t-23 -93v-186q0 -146 -108 -210q108 -64 108 -198v-182q0 -66 23 -92t87 -26q72 0 72 -52t-72 -52q-106 0 -160 48t-54 206v162 q0 60 -74 99t-190 39h-246v-492q0 -62 -54 -62q-50 0 -50 64zM466 1228q0 24 18 46l192 230q28 30 50 30q18 0 34 -15t16 -37t-18 -44l-192 -230q-26 -30 -50 -30q-16 0 -33 15t-17 35z" />
<glyph unicode="&#x40d;" horiz-adv-x="1264" d="M168 54v1162q0 70 54 70q50 0 50 -72v-1022l716 1056q24 38 60 38q48 0 48 -70v-1162q0 -68 -52 -68t-52 66v1034l-734 -1086q-12 -14 -40 -14q-50 0 -50 68zM420 1566q0 22 16 37t34 15q22 0 50 -30l192 -230q18 -22 18 -46q0 -22 -16 -36t-34 -14q-24 0 -50 30 l-192 230q-18 22 -18 44z" />
<glyph unicode="&#x40e;" horiz-adv-x="1054" d="M84 1230q0 42 48 42q36 0 56 -44l354 -802l366 804q18 42 56 42q18 0 33 -13t15 -33q0 -10 -6 -26l-512 -1116q-20 -44 -66 -70t-104 -26q-64 0 -107 19t-62 55t-25 70t-6 80q0 70 52 70t52 -66q0 -72 21 -98t73 -26q54 0 80 56l74 154l-384 896q-8 18 -8 32zM248 1496 v54h104v-86q0 -58 19 -78t75 -20h204q56 0 74 19t18 79v86h104v-54q0 -130 -38 -182t-144 -52h-234q-106 0 -144 53t-38 181z" />
<glyph unicode="&#x40f;" horiz-adv-x="1252" d="M172 0v1152q0 70 50 70q54 0 54 -70v-1048h700v1048q0 70 52 70t52 -70v-1152h-400v-114q0 -70 -54 -70t-54 70v114h-400z" />
<glyph unicode="&#x410;" horiz-adv-x="1140" d="M48 18q0 14 6 32l454 1222h124l454 -1222q6 -18 6 -32q0 -26 -18 -38t-34 -12q-34 0 -54 46l-142 384h-548l-142 -384q-20 -46 -54 -46q-16 0 -34 12t-18 38zM336 502h468l-236 618z" />
<glyph unicode="&#x411;" horiz-adv-x="1110" d="M170 56v1216h708q70 0 70 -52t-70 -52h-604v-236h306q192 0 313 -140t121 -332q0 -194 -121 -334t-313 -140h-362q-48 0 -48 70zM274 90h306q158 0 244 110t86 260q0 148 -86 258t-244 110h-306v-738z" />
<glyph unicode="&#x412;" horiz-adv-x="1210" d="M168 1200q0 72 48 72h360q222 0 329 -62t107 -238q0 -152 -98 -224q92 -34 137 -111t45 -219v-58q0 -216 -107 -288t-337 -72h-436q-48 0 -48 72v1128zM272 768h304q184 0 258 38t74 156q0 126 -73 161t-259 35h-304v-390zM272 104h380q196 0 268 45t72 207v56 q0 162 -70 207t-258 45h-392v-560z" />
<glyph unicode="&#x413;" horiz-adv-x="1114" d="M164 54v964q0 140 42 197t158 57h630q70 0 70 -52t-70 -52h-616q-64 0 -87 -27t-23 -91v-996q0 -68 -54 -68q-50 0 -50 68z" />
<glyph unicode="&#x414;" horiz-adv-x="1144" d="M24 -10q0 114 102 114h20q60 108 130 487t70 681h598v-1168h18q102 0 102 -114v-104q0 -70 -52 -70t-52 70v114h-832v-114q0 -70 -52 -70t-52 70v104zM260 104h580v1064h-388q-2 -246 -67 -595t-125 -469z" />
<glyph unicode="&#x415;" d="M168 72v1128q0 72 48 72h812q68 0 68 -56q0 -48 -68 -48h-756v-400h518q72 0 72 -56q0 -48 -72 -48h-518v-560h756q68 0 68 -56q0 -48 -68 -48h-812q-48 0 -48 72z" />
<glyph unicode="&#x416;" horiz-adv-x="1336" d="M78 38q0 52 72 52q64 0 87 27t23 93v186q0 140 116 206q-116 66 -116 206v186q0 66 -23 93t-87 27q-72 0 -72 52t72 52q52 0 85 -8t65 -32t48 -78t16 -140v-166q0 -62 70 -100t184 -40v496q0 66 52 66t52 -66v-496q114 2 182 40t68 100v166q0 86 16 140t48 78t65 32t85 8 q72 0 72 -52t-72 -52q-64 0 -87 -27t-23 -93v-186q0 -148 -106 -210q106 -66 106 -202v-186q0 -66 23 -93t87 -27q72 0 72 -52t-72 -52q-52 0 -85 8t-65 32t-48 78t-16 140v166q0 52 -83 93t-167 47v-500q0 -64 -54 -64q-50 0 -50 64v500q-114 -2 -184 -40t-70 -100v-166 q0 -86 -16 -140t-48 -78t-65 -32t-85 -8q-72 0 -72 52z" />
<glyph unicode="&#x417;" horiz-adv-x="1168" d="M112 1014q0 142 42 200t158 58h394q146 0 240 -95t94 -237q0 -192 -150 -286q70 -50 110 -129t40 -173q0 -144 -95 -248t-239 -104h-394q-116 0 -158 58t-42 200q0 70 50 70q54 0 54 -70v-36q0 -66 23 -92t87 -26h366q110 0 177 85t67 165q0 104 -67 177t-169 73h-172 q-72 0 -72 52t72 52h172q104 0 170 64t66 166q0 78 -67 154t-177 76h-366q-64 0 -87 -26t-23 -92v-36q0 -70 -54 -70q-50 0 -50 70z" />
<glyph unicode="&#x418;" horiz-adv-x="1264" d="M168 54v1162q0 70 54 70q50 0 50 -72v-1022l716 1056q24 38 60 38q48 0 48 -70v-1162q0 -68 -52 -68t-52 66v1034l-734 -1086q-12 -14 -40 -14q-50 0 -50 68z" />
<glyph unicode="&#x419;" horiz-adv-x="1264" d="M168 54v1162q0 70 54 70q50 0 50 -72v-1022l716 1056q24 38 60 38q48 0 48 -70v-1162q0 -68 -52 -68t-52 66v1034l-734 -1086q-12 -14 -40 -14q-50 0 -50 68zM330 1496v54h104v-86q0 -58 19 -78t75 -20h204q56 0 74 19t18 79v86h104v-54q0 -130 -38 -182t-144 -52h-234 q-106 0 -144 53t-38 181z" />
<glyph unicode="&#x41a;" horiz-adv-x="1148" d="M168 50v1090q0 66 52 66t52 -66v-496h246q114 0 189 40t75 100v166q0 86 16 140t48 78t65 32t85 8q72 0 72 -52t-72 -52q-64 0 -87 -27t-23 -93v-186q0 -146 -108 -210q108 -64 108 -198v-182q0 -66 23 -92t87 -26q72 0 72 -52t-72 -52q-106 0 -160 48t-54 206v162 q0 60 -74 99t-190 39h-246v-492q0 -62 -54 -62q-50 0 -50 64z" />
<glyph unicode="&#x41b;" horiz-adv-x="1148" d="M42 54q0 50 72 50q64 0 87 26t23 90v798q0 140 45 197t175 57h534v-1216q0 -70 -54 -70q-50 0 -50 70v1112h-416q-72 0 -98 -27t-26 -91v-796q0 -156 -56 -205t-164 -49q-72 0 -72 54z" />
<glyph unicode="&#x41c;" horiz-adv-x="1306" d="M168 54v1162q0 70 48 70q36 0 60 -38l376 -556l378 556q26 38 58 38q50 0 50 -70v-1162q0 -68 -54 -68q-50 0 -50 70v1034l-346 -516q-12 -16 -36 -16q-22 0 -34 16l-346 516v-1034q0 -70 -52 -70t-52 68z" />
<glyph unicode="&#x41d;" horiz-adv-x="1264" d="M168 54v1162q0 70 48 70q56 0 56 -70v-478h720v478q0 70 50 70q54 0 54 -70v-1162q0 -68 -50 -68q-54 0 -54 68v580h-720v-580q0 -68 -52 -68t-52 68z" />
<glyph unicode="&#x41e;" horiz-adv-x="1188" d="M130 456v360q0 222 130 348t334 126t334 -127t130 -347v-360q0 -220 -130 -347t-334 -127t-334 126t-130 348zM234 458q0 -176 94 -274t266 -98t266 98t94 274v356q0 176 -94 274t-266 98t-266 -98t-94 -274v-356z" />
<glyph unicode="&#x41f;" horiz-adv-x="1248" d="M170 54v1218h908v-1218q0 -68 -50 -68q-54 0 -54 68v1114h-700v-1114q0 -68 -52 -68t-52 68z" />
<glyph unicode="&#x420;" horiz-adv-x="1084" d="M168 50v1150q0 72 48 72h362q216 0 325 -66t109 -244q0 -150 -91 -229t-255 -79h-394v-604q0 -64 -54 -64q-50 0 -50 64zM272 758h306q184 0 257 40t73 164q0 128 -74 167t-256 39h-306v-410z" />
<glyph unicode="&#x421;" horiz-adv-x="1184" d="M144 360v552q0 216 106 288t328 72h294q64 0 107 -19t62 -54t25 -69t6 -82q0 -70 -52 -70t-52 66q0 70 -24 97t-86 27h-280q-96 0 -150 -7t-100 -33t-63 -78t-17 -138v-552q0 -166 72 -211t270 -45h268q64 0 87 28t23 96q0 66 52 66t52 -72q0 -46 -6 -80t-25 -69t-62 -54 t-107 -19h-282q-232 0 -339 72t-107 288z" />
<glyph unicode="&#x422;" horiz-adv-x="962" d="M54 1220q0 52 66 52h722q66 0 66 -54q0 -50 -66 -50h-304v-1118q0 -64 -58 -64q-52 0 -52 64v1118h-308q-66 0 -66 52z" />
<glyph unicode="&#x423;" horiz-adv-x="1054" d="M84 1230q0 42 48 42q36 0 56 -44l354 -802l366 804q18 42 56 42q18 0 33 -13t15 -33q0 -10 -6 -26l-512 -1116q-20 -44 -66 -70t-104 -26q-64 0 -107 19t-62 55t-25 70t-6 80q0 70 52 70t52 -66q0 -72 21 -98t73 -26q54 0 80 56l74 154l-384 896q-8 18 -8 32z" />
<glyph unicode="&#x424;" horiz-adv-x="1096" d="M84 624v24q0 208 114 332t300 140v100q0 66 54 66t54 -66v-100q182 -18 294 -142t112 -330v-24q0 -206 -112 -330t-294 -142v-102q0 -64 -56 -64q-52 0 -52 64v102q-186 16 -300 140t-114 332zM188 624q0 -166 81 -264t229 -112v776q-148 -14 -229 -113t-81 -263v-24z M606 250q144 14 223 113t79 261v24q0 160 -79 259t-223 115v-772z" />
<glyph unicode="&#x425;" horiz-adv-x="1118" d="M72 34q0 22 16 44l406 556l-406 558q-16 18 -16 42q0 28 18 40t32 12q26 0 52 -36l384 -534l386 534q28 36 50 36q16 0 34 -12t18 -40q0 -24 -16 -42l-406 -558l406 -556q16 -22 16 -44t-17 -35t-35 -13q-26 0 -50 32l-386 536l-384 -536q-24 -32 -52 -32q-18 0 -34 14 t-16 34z" />
<glyph unicode="&#x426;" horiz-adv-x="1164" d="M172 0v1152q0 70 50 70q54 0 54 -70v-1048h584v1048q0 70 52 70t52 -70v-1048h14q102 0 102 -114v-104q0 -70 -52 -70t-52 70v114h-804z" />
<glyph unicode="&#x427;" horiz-adv-x="1210" d="M114 696v520q0 70 50 70q54 0 54 -70v-520q0 -162 70 -207t258 -45h62q162 0 246 92t84 268v412q0 70 52 70t52 -68v-1162q0 -70 -48 -70q-56 0 -56 70v410q-118 -126 -330 -126h-62q-108 0 -180 13t-133 50t-90 109t-29 184z" />
<glyph unicode="&#x428;" horiz-adv-x="1396" d="M172 0v1152q0 70 50 70q54 0 54 -70v-1048h370v1048q0 70 50 70q54 0 54 -70v-1048h370v1048q0 70 52 70t52 -70v-1152h-1052z" />
<glyph unicode="&#x429;" horiz-adv-x="1424" d="M172 0v1152q0 70 50 70q54 0 54 -70v-1048h368v1048q0 70 50 70q54 0 54 -70v-1048h372v1048q0 70 52 70t52 -70v-1048h14q102 0 102 -114v-104q0 -70 -52 -70t-52 70v114h-1064z" />
<glyph unicode="&#x42a;" horiz-adv-x="1234" d="M50 1224q0 48 72 48h296v-340h308q190 0 311 -140t121 -332q0 -194 -120 -334t-310 -140h-364q-50 0 -50 70v1112h-192q-72 0 -72 56zM418 90h310q156 0 241 110t85 260q0 146 -86 257t-242 111h-308v-738z" />
<glyph unicode="&#x42b;" horiz-adv-x="1346" d="M168 56v1152q0 64 50 64q54 0 54 -62v-278h306q192 0 313 -140t121 -332q0 -194 -121 -334t-313 -140h-362q-48 0 -48 70zM272 90h306q158 0 244 110t86 260q0 148 -86 258t-244 110h-306v-738zM1074 50v1170q0 66 52 66t52 -66v-1170q0 -64 -54 -64q-50 0 -50 64z" />
<glyph unicode="&#x42c;" horiz-adv-x="1088" d="M168 56v1152q0 64 50 64q54 0 54 -62v-278h306q192 0 313 -140t121 -332q0 -194 -121 -334t-313 -140h-362q-48 0 -48 70zM272 90h306q158 0 244 110t86 260q0 148 -86 258t-244 110h-306v-738z" />
<glyph unicode="&#x42d;" horiz-adv-x="1180" d="M108 224q0 70 52 70t52 -66q0 -70 24 -97t86 -27h268q198 0 270 45t72 207v258h-518q-70 0 -70 56q0 48 70 48h518v200q0 162 -72 206t-270 44h-268q-64 0 -87 -28t-23 -96q0 -66 -52 -66t-52 72q0 46 6 80t25 69t62 54t107 19h282q230 0 338 -71t108 -283v-564 q0 -212 -108 -283t-338 -71h-282q-64 0 -107 19t-62 54t-25 69t-6 82z" />
<glyph unicode="&#x42e;" horiz-adv-x="1440" d="M168 50v1170q0 66 52 66t52 -64v-524h112v118q0 222 130 348t336 126q202 0 331 -127t129 -347v-360q0 -220 -129 -347t-331 -127q-206 0 -336 126t-130 348v138h-112v-546q0 -62 -54 -62q-50 0 -50 64zM488 458q0 -176 96 -274t266 -98t263 98t93 274v356q0 174 -94 273 t-262 99q-170 0 -266 -99t-96 -273v-356z" />
<glyph unicode="&#x42f;" horiz-adv-x="1170" d="M14 38q0 52 72 52q50 0 90 44t52 86l62 228q28 110 114 174q-232 68 -232 322q0 348 434 348h348q48 0 48 -72v-1170q0 -64 -50 -64q-54 0 -54 64v548h-270q-104 0 -158 -40t-76 -122l-56 -208q-28 -108 -97 -175t-155 -67q-72 0 -72 52zM276 934q0 -132 79 -187t251 -55 h292v486h-292q-174 0 -252 -57t-78 -187z" />
<glyph unicode="&#x430;" horiz-adv-x="1108" d="M120 246q0 202 109 273t337 71h294v114q0 62 -23 88t-87 26h-282q-244 0 -244 -120q0 -70 -54 -70q-50 0 -50 70q0 116 92 170t242 54h310q116 0 158 -56t42 -196v-616q0 -68 -52 -68t-52 70v70q-114 -126 -340 -126h-186q-94 0 -154 67t-60 179zM224 236q0 -52 34 -92 t76 -40h186q168 0 254 91t86 261v30h-294q-102 0 -157 -7t-103 -32t-65 -75t-17 -136z" />
<glyph unicode="&#x431;" horiz-adv-x="1214" d="M142 354v556q0 100 33 167t87 106t160 59t211 25t281 5q72 0 72 -56q0 -48 -72 -48q-146 0 -220 -2t-165 -9t-131 -22t-81 -43t-54 -69t-15 -101h410q220 0 326 -71t106 -281v-218q0 -210 -107 -281t-337 -71h-60q-230 0 -337 71t-107 283zM246 354q0 -86 17 -136t64 -75 t102 -32t157 -7h60q102 0 157 7t102 32t64 75t17 136v214q0 162 -70 206t-258 44h-412v-464z" />
<glyph unicode="&#x432;" horiz-adv-x="1204" d="M150 0v922h610q134 0 226 -61t92 -191q0 -144 -118 -196q118 -74 118 -222q0 -130 -92 -191t-226 -61h-610zM254 104h492q96 0 162 33t66 103q0 102 -56 143t-164 41h-500v-320zM254 818v-290h500q122 0 172 30t50 124q0 62 -59 99t-171 37h-492z" />
<glyph unicode="&#x433;" horiz-adv-x="958" d="M146 54v616q0 140 42 196t158 56h508q70 0 70 -52t-70 -52h-494q-64 0 -87 -26t-23 -92v-646q0 -68 -54 -68q-50 0 -50 68z" />
<glyph unicode="&#x434;" horiz-adv-x="1118" d="M26 -10q0 114 102 114h20q200 336 200 818h530v-818h86q102 0 102 -114v-104q0 -70 -52 -70t-52 70v114h-832v-114q0 -70 -52 -70t-52 70v104zM264 104h508v714h-318q-2 -390 -190 -714z" />
<glyph unicode="&#x435;" horiz-adv-x="1184" d="M124 352v218q0 210 108 281t338 71h58q230 0 337 -71t107 -281v-80h-844v-136q0 -86 17 -136t65 -75t103 -32t157 -7h268q64 0 87 28t23 96q0 66 52 66t52 -72q0 -46 -6 -80t-25 -69t-62 -54t-107 -19h-282q-230 0 -338 71t-108 281zM228 594h740q-2 142 -75 183t-265 41 h-58q-194 0 -267 -41t-75 -183z" />
<glyph unicode="&#x436;" horiz-adv-x="1340" d="M80 38q0 52 72 52q64 0 87 26t23 90v56q0 136 116 200q-116 64 -116 200v56q0 64 -23 90t-87 26q-72 0 -72 52t72 52q52 0 85 -8t66 -32t49 -78t16 -140v-56q0 -116 250 -120v366q0 66 54 66t54 -66v-366q246 4 246 120v56q0 86 16 140t49 78t66 32t85 8q72 0 72 -52 t-72 -52q-64 0 -87 -26t-23 -90v-56q0 -142 -106 -204q106 -64 106 -196v-56q0 -64 23 -90t87 -26q72 0 72 -52t-72 -52q-52 0 -85 8t-66 32t-49 78t-16 140v56q0 52 -78 84t-168 36v-370q0 -64 -56 -64q-52 0 -52 64v370q-250 -4 -250 -120v-56q0 -86 -16 -140t-49 -78 t-66 -32t-85 -8q-72 0 -72 52z" />
<glyph unicode="&#x437;" horiz-adv-x="1170" d="M116 258q0 70 50 70q54 0 54 -70v-36q0 -66 23 -92t87 -26h366q244 0 244 124q0 196 -236 196h-172q-72 0 -72 48q0 56 72 56h172q130 0 184 35t54 131q0 124 -246 124h-366q-64 0 -87 -26t-23 -92v-36q0 -70 -54 -70q-50 0 -50 70q0 142 42 200t158 58h394 q144 0 239 -60t95 -192q0 -144 -118 -196q118 -74 118 -222q0 -132 -95 -192t-239 -60h-394q-116 0 -158 58t-42 200z" />
<glyph unicode="&#x438;" horiz-adv-x="1208" d="M150 0v866q0 70 50 70q54 0 54 -72v-738l698 796h106v-866q0 -70 -50 -70q-54 0 -54 72v730l-692 -788h-112z" />
<glyph unicode="&#x439;" horiz-adv-x="1208" d="M150 0v866q0 70 50 70q54 0 54 -72v-738l698 796h106v-866q0 -70 -50 -70q-54 0 -54 72v730l-692 -788h-112zM316 1228v54h104v-86q0 -58 19 -78t75 -20h204q56 0 74 19t18 79v86h104v-54q0 -130 -38 -182t-144 -52h-234q-106 0 -144 53t-38 181z" />
<glyph unicode="&#x43a;" horiz-adv-x="1124" d="M148 48v824q0 64 52 64t52 -64v-358h128q124 0 253 59t129 133q0 138 55 185t161 47q72 0 72 -52t-72 -52q-64 0 -87 -26t-23 -90v-40q0 -68 -73 -131t-153 -89q80 -28 153 -87t73 -125v-40q0 -64 23 -90t87 -26q72 0 72 -52t-72 -52q-106 0 -161 47t-55 185 q0 74 -130 133t-252 59h-128v-362q0 -62 -54 -62q-50 0 -50 62z" />
<glyph unicode="&#x43b;" horiz-adv-x="1138" d="M52 54q0 50 72 50q64 0 87 26t23 90v450q0 140 43 196t163 56h548v-864q0 -72 -54 -72q-50 0 -50 70v762h-428q-68 0 -92 -26t-24 -92v-448q0 -156 -54 -204t-162 -48q-72 0 -72 54z" />
<glyph unicode="&#x43c;" horiz-adv-x="1266" d="M148 54v812q0 70 48 70q36 0 60 -38l376 -556l378 556q26 38 58 38q50 0 50 -70v-812q0 -68 -54 -68q-50 0 -50 70v684l-346 -516q-10 -16 -36 -16q-22 0 -34 16l-346 516v-684q0 -70 -52 -70t-52 68z" />
<glyph unicode="&#x43d;" horiz-adv-x="1206" d="M148 54v812q0 70 48 70q56 0 56 -70v-326h700v326q0 70 50 70q54 0 54 -70v-812q0 -68 -50 -68q-54 0 -54 68v382h-700v-382q0 -68 -52 -68t-52 68z" />
<glyph unicode="&#x43e;" d="M124 352v218q0 210 108 281t338 71h58q230 0 337 -71t107 -281v-218q0 -210 -107 -281t-337 -71h-58q-230 0 -338 71t-108 281zM228 354q0 -86 17 -136t65 -75t103 -32t157 -7h58q102 0 157 7t102 32t64 75t17 136v214q0 86 -17 136t-64 75t-102 32t-157 7h-58 q-102 0 -157 -7t-103 -32t-65 -75t-17 -136v-214z" />
<glyph unicode="&#x43f;" horiz-adv-x="1208" d="M150 54v868h908v-868q0 -68 -50 -68q-54 0 -54 68v764h-700v-764q0 -68 -52 -68t-52 68z" />
<glyph unicode="&#x440;" horiz-adv-x="1222" d="M150 -294v1162q0 68 52 68t52 -70v-70q118 126 342 126h58q230 0 337 -71t107 -281v-218q0 -210 -107 -281t-335 -71h-402v-294q0 -70 -56 -70q-48 0 -48 70zM254 104h402q196 0 267 44t71 206v214q0 86 -17 136t-64 75t-102 32t-157 7h-58q-342 0 -342 -354v-360z" />
<glyph unicode="&#x441;" horiz-adv-x="1168" d="M124 352v218q0 210 108 281t338 71h282q64 0 107 -19t62 -55t25 -70t6 -80q0 -70 -52 -70t-52 66q0 70 -24 97t-86 27h-268q-102 0 -157 -7t-103 -32t-65 -75t-17 -136v-214q0 -86 17 -136t65 -75t103 -32t157 -7h268q64 0 87 28t23 96q0 66 52 66t52 -72q0 -46 -6 -80 t-25 -69t-62 -54t-107 -19h-282q-230 0 -338 71t-108 281z" />
<glyph unicode="&#x442;" horiz-adv-x="920" d="M32 870q0 52 66 52h722q66 0 66 -54q0 -50 -66 -50h-304v-770q0 -62 -58 -62q-52 0 -52 62v770h-308q-66 0 -66 52z" />
<glyph unicode="&#x443;" horiz-adv-x="1238" d="M140 -186q0 70 52 70t52 -66q0 -70 24 -97t86 -27h538q58 0 75 20t17 80v332q-118 -126 -342 -126h-58q-230 0 -337 71t-107 281v516q0 68 50 68q54 0 54 -68v-514q0 -86 17 -136t64 -75t102 -32t157 -7h58q170 0 256 91t86 265v408q0 68 52 68t52 -68v-1042 q0 -130 -38 -183t-144 -53h-566q-64 0 -107 19t-62 55t-25 70t-6 80z" />
<glyph unicode="&#x444;" horiz-adv-x="1536" d="M120 392v138q0 392 334 392q90 0 147 -29t113 -95v418q0 70 54 70t54 -70v-418q56 66 113 95t147 29q334 0 334 -392v-138q0 -392 -334 -392q-90 0 -147 29t-113 95v-418q0 -70 -54 -70t-54 70v418q-56 -66 -113 -95t-147 -29q-334 0 -334 392zM224 392q0 -60 6 -101 t27 -89t70 -73t127 -25q98 0 159 59t81 134t20 165t-20 165t-81 133t-159 58q-78 0 -127 -25t-70 -73t-27 -89t-6 -101v-138zM822 462q0 -90 20 -165t81 -134t159 -59q78 0 127 25t70 73t27 89t6 101v138q0 60 -6 101t-27 89t-70 73t-127 25q-98 0 -159 -58t-81 -133 t-20 -165z" />
<glyph unicode="&#x445;" horiz-adv-x="1024" d="M80 24q0 8 20 48l342 388l-342 390q-20 24 -20 46q0 20 16 34t34 14q22 0 50 -24l334 -386l332 386q24 24 48 24q18 0 34 -14t16 -34q0 -22 -20 -46l-342 -390l342 -388q20 -30 20 -48q0 -20 -16 -33t-34 -13q-24 0 -48 24l-332 386l-334 -386q-28 -24 -50 -24 q-18 0 -34 13t-16 33z" />
<glyph unicode="&#x446;" horiz-adv-x="1126" d="M150 0v868q0 68 50 68q54 0 54 -68v-764h584v764q0 68 52 68t52 -68v-764h14q102 0 102 -114v-104q0 -70 -52 -70t-52 70v114h-804z" />
<glyph unicode="&#x447;" horiz-adv-x="1178" d="M100 610v258q0 68 50 68q54 0 54 -68v-256q0 -162 70 -207t258 -45h62q162 0 246 92t84 266v150q0 68 52 68t52 -68v-812q0 -70 -48 -70q-56 0 -56 70v326q-118 -126 -330 -126h-62q-220 0 -326 71t-106 283z" />
<glyph unicode="&#x448;" horiz-adv-x="1272" d="M150 0v868q0 68 50 68q54 0 54 -68v-764h330v764q0 68 50 68q54 0 54 -68v-764h330v764q0 68 52 68t52 -68v-868h-972z" />
<glyph unicode="&#x449;" horiz-adv-x="1306" d="M150 0v868q0 68 50 68q54 0 54 -68v-764h328v764q0 68 50 68q54 0 54 -68v-764h332v764q0 68 52 68t52 -68v-764h14q102 0 102 -114v-104q0 -70 -52 -70t-52 70v114h-984z" />
<glyph unicode="&#x44a;" horiz-adv-x="1178" d="M54 874q0 48 72 48h296v-394h348q134 0 236 -61t102 -203q0 -144 -95 -204t-239 -60h-456v818h-192q-72 0 -72 56zM422 104h338q82 0 136 17t75 46t27 50t6 47q0 32 -6 53t-27 49t-75 43t-136 15h-338v-320z" />
<glyph unicode="&#x44b;" horiz-adv-x="1334" d="M150 0v866q0 70 50 70q54 0 54 -70v-338h430q132 0 225 -60t93 -204t-93 -204t-225 -60h-534zM254 104h416q78 0 128 17t69 46t25 50t6 47q0 32 -6 54t-26 49t-69 42t-127 15h-416v-320zM1082 40v840q0 66 52 66t52 -66v-840q0 -64 -54 -64q-50 0 -50 64z" />
<glyph unicode="&#x44c;" horiz-adv-x="1072" d="M150 0v866q0 70 50 70q54 0 54 -70v-338h430q132 0 225 -60t93 -204t-93 -204t-225 -60h-534zM254 104h416q78 0 128 17t69 46t25 50t6 47q0 32 -6 54t-26 49t-69 42t-127 15h-416v-320z" />
<glyph unicode="&#x44d;" horiz-adv-x="1166" d="M114 224q0 70 52 70t52 -66q0 -70 24 -97t86 -27h268q82 0 130 4t94 18t69 41t36 72t13 113v72h-408q-72 0 -72 48q0 56 72 56h408v42q0 68 -13 113t-36 72t-69 41t-94 18t-130 4h-268q-64 0 -87 -28t-23 -96q0 -66 -52 -66t-52 72q0 46 6 80t25 69t62 54t107 19h282 q230 0 338 -71t108 -281v-218q0 -210 -108 -281t-338 -71h-282q-64 0 -107 19t-62 55t-25 70t-6 80z" />
<glyph unicode="&#x44e;" horiz-adv-x="1376" d="M148 48v824q0 64 52 64t52 -64v-344h132v42q0 210 108 281t330 71q220 0 325 -71t105 -281v-218q0 -210 -105 -281t-325 -71q-222 0 -330 71t-108 281v72h-132v-376q0 -62 -54 -62q-50 0 -50 62zM488 354q0 -162 72 -206t262 -44q186 0 256 44t70 206v214q0 162 -70 206 t-256 44q-190 0 -262 -44t-72 -206v-214z" />
<glyph unicode="&#x44f;" horiz-adv-x="1104" d="M46 36q0 52 72 52q50 0 90 44t52 86l10 36q24 92 94 156q-108 20 -154 75t-46 167q0 74 22 126t55 80t95 43t116 18t146 3h308q48 0 48 -70v-804q0 -62 -50 -62q-54 0 -54 62v348h-242q-110 0 -162 -40t-76 -130q-30 -108 -98 -175t-154 -67q-72 0 -72 52zM268 662 q0 -112 55 -138t211 -26h316v330h-316q-158 0 -212 -27t-54 -139z" />
<glyph unicode="&#x450;" horiz-adv-x="1184" d="M124 352v218q0 210 108 281t338 71h58q230 0 337 -71t107 -281v-80h-844v-136q0 -86 17 -136t65 -75t103 -32t157 -7h268q64 0 87 28t23 96q0 66 52 66t52 -72q0 -46 -6 -80t-25 -69t-62 -54t-107 -19h-282q-230 0 -338 71t-108 281zM228 594h740q-2 142 -75 183t-265 41 h-58q-194 0 -267 -41t-75 -183zM382 1314q0 22 16 37t34 15q24 0 50 -30l192 -230q18 -22 18 -46q0 -22 -16 -36t-34 -14q-22 0 -50 30l-192 230q-18 22 -18 44z" />
<glyph unicode="&#x451;" horiz-adv-x="1184" d="M124 352v218q0 210 108 281t338 71h58q230 0 337 -71t107 -281v-80h-844v-136q0 -86 17 -136t65 -75t103 -32t157 -7h268q64 0 87 28t23 96q0 66 52 66t52 -72q0 -46 -6 -80t-25 -69t-62 -54t-107 -19h-282q-230 0 -338 71t-108 281zM228 594h740q-2 142 -75 183t-265 41 h-58q-194 0 -267 -41t-75 -183zM352 1116q0 34 34 58t68 24q32 0 67 -24t35 -58t-35 -58t-67 -24q-34 0 -68 24t-34 58zM644 1116q0 34 34 58t68 24q32 0 67 -24t35 -58t-35 -58t-67 -24q-34 0 -68 24t-34 58z" />
<glyph unicode="&#x452;" horiz-adv-x="1240" d="M74 1056q0 50 76 50v108q0 72 48 72q56 0 56 -72v-108h420q76 0 76 -56q0 -50 -76 -50h-420v-204q118 126 342 126h58q230 0 337 -71t107 -283v-720q0 -86 -16 -140t-48 -78t-65 -32t-85 -8q-76 0 -76 52t76 52q64 0 87 27t23 93v754q0 162 -72 206t-268 44h-58 q-168 0 -255 -91t-87 -265v-408q0 -68 -52 -68t-52 68v946q-76 0 -76 56z" />
<glyph unicode="&#x453;" horiz-adv-x="958" d="M146 54v616q0 140 42 196t158 56h508q70 0 70 -52t-70 -52h-494q-64 0 -87 -26t-23 -92v-646q0 -68 -54 -68q-50 0 -50 68zM472 1060q0 24 18 46l192 230q26 30 50 30q18 0 34 -15t16 -37t-18 -44l-192 -230q-28 -30 -50 -30q-16 0 -33 15t-17 35z" />
<glyph unicode="&#x454;" horiz-adv-x="1166" d="M124 352v218q0 210 108 281t338 71h282q64 0 107 -19t62 -54t25 -69t6 -80q0 -72 -52 -72t-52 66q0 68 -23 96t-87 28h-268q-82 0 -130 -4t-94 -18t-69 -41t-36 -72t-13 -113v-42h408q72 0 72 -56q0 -48 -72 -48h-408v-72q0 -68 13 -113t36 -72t69 -41t94 -18t130 -4h268 q62 0 86 27t24 97q0 66 52 66t52 -70q0 -46 -6 -80t-25 -70t-62 -55t-107 -19h-282q-230 0 -338 71t-108 281z" />
<glyph unicode="&#x455;" horiz-adv-x="1172" d="M120 222q0 72 52 72t52 -66q0 -68 23 -96t87 -28h496q118 0 118 148q0 74 -33 121t-85 47h-452q-258 0 -258 260q0 120 62 181t216 61h450q64 0 107 -19t62 -55t25 -70t6 -80q0 -70 -52 -70t-52 66q0 70 -24 97t-86 27h-492q-118 0 -118 -138q0 -76 33 -116t85 -40h454 q140 0 198 -78t58 -194q0 -124 -63 -188t-213 -64h-456q-64 0 -107 19t-62 54t-25 69t-6 80z" />
<glyph unicode="&#x456;" horiz-adv-x="400" d="M98 1202q0 34 34 58t68 24q32 0 67 -24t35 -58t-35 -58t-67 -24q-34 0 -68 24t-34 58zM148 40v840q0 66 52 66t52 -66v-840q0 -64 -54 -64q-50 0 -50 64z" />
<glyph unicode="&#x457;" horiz-adv-x="400" d="M-48 1130q0 34 34 58t68 24q32 0 67 -24t35 -58t-35 -58t-67 -24q-34 0 -68 24t-34 58zM148 40v840q0 66 52 66t52 -66v-840q0 -64 -54 -64q-50 0 -50 64zM244 1130q0 34 34 58t68 24q32 0 67 -24t35 -58t-35 -58t-67 -24q-34 0 -68 24t-34 58z" />
<glyph unicode="&#x458;" horiz-adv-x="404" d="M-244 -296q0 50 72 50q184 0 253 44t69 202v864q0 72 54 72q50 0 50 -72v-864q0 -112 -29 -183t-90 -107t-131 -48t-176 -12q-72 0 -72 54zM96 1202q0 34 34 58t68 24q32 0 67 -24t35 -58t-35 -58t-67 -24q-34 0 -68 24t-34 58z" />
<glyph unicode="&#x459;" horiz-adv-x="1508" d="M60 54q0 50 72 50q64 0 87 26t23 90v450q0 140 45 196t175 56h448v-394h206q134 0 227 -60t93 -204t-95 -204t-239 -60h-296v818h-330q-72 0 -98 -27t-26 -91l-4 -448q0 -156 -54 -204t-162 -48q-72 0 -72 54zM910 104h178q82 0 136 17t75 46t27 50t6 47q0 32 -6 53 t-27 49t-75 43t-136 15h-178v-320z" />
<glyph unicode="&#x45a;" horiz-adv-x="1596" d="M148 54v812q0 70 48 70q56 0 56 -70v-338h634v338q0 70 50 70q56 0 56 -70v-338h196q82 0 152 -20t127 -83t57 -161q0 -144 -95 -204t-239 -60h-296v424h-642v-370q0 -68 -52 -68t-52 68zM998 104h178q82 0 136 17t75 46t27 50t6 47q0 32 -6 53t-27 49t-75 43t-136 15 h-178v-320z" />
<glyph unicode="&#x45b;" horiz-adv-x="1238" d="M74 1056q0 50 76 50v108q0 72 48 72q56 0 56 -72v-108h420q76 0 76 -56q0 -50 -76 -50h-420v-204q118 126 342 126h58q230 0 337 -71t107 -281v-516q0 -68 -50 -68q-54 0 -54 68v514q0 86 -17 136t-64 75t-102 32t-157 7h-58q-168 0 -255 -91t-87 -265v-408 q0 -68 -52 -68t-52 68v946q-76 0 -76 56z" />
<glyph unicode="&#x45c;" horiz-adv-x="1124" d="M148 48v824q0 64 52 64t52 -64v-358h128q124 0 253 59t129 133q0 138 55 185t161 47q72 0 72 -52t-72 -52q-64 0 -87 -26t-23 -90v-40q0 -68 -73 -131t-153 -89q80 -28 153 -87t73 -125v-40q0 -64 23 -90t87 -26q72 0 72 -52t-72 -52q-106 0 -161 47t-55 185 q0 74 -130 133t-252 59h-128v-362q0 -62 -54 -62q-50 0 -50 62zM450 1060q0 24 18 46l192 230q28 30 50 30q18 0 34 -15t16 -37t-18 -44l-192 -230q-26 -30 -50 -30q-16 0 -33 15t-17 35z" />
<glyph unicode="&#x45d;" horiz-adv-x="1208" d="M150 0v866q0 70 50 70q54 0 54 -72v-738l698 796h106v-866q0 -70 -50 -70q-54 0 -54 72v730l-692 -788h-112zM404 1314q0 22 16 37t34 15q22 0 50 -30l192 -230q18 -22 18 -46q0 -22 -16 -36t-34 -14q-24 0 -50 30l-192 230q-18 22 -18 44z" />
<glyph unicode="&#x45e;" horiz-adv-x="1238" d="M140 -186q0 70 52 70t52 -66q0 -70 24 -97t86 -27h538q58 0 75 20t17 80v332q-118 -126 -342 -126h-58q-230 0 -337 71t-107 281v516q0 68 50 68q54 0 54 -68v-514q0 -86 17 -136t64 -75t102 -32t157 -7h58q170 0 256 91t86 265v408q0 68 52 68t52 -68v-1042 q0 -130 -38 -183t-144 -53h-566q-64 0 -107 19t-62 55t-25 70t-6 80zM318 1228v54h104v-86q0 -58 19 -78t75 -20h204q56 0 74 19t18 79v86h104v-54q0 -130 -38 -182t-144 -52h-234q-106 0 -144 53t-38 181z" />
<glyph unicode="&#x45f;" horiz-adv-x="1208" d="M150 0v868q0 68 50 68q54 0 54 -68v-764h700v764q0 68 52 68t52 -68v-868h-402v-114q0 -70 -52 -70t-52 70v114h-402z" />
<glyph unicode="&#x462;" horiz-adv-x="1300" d="M58 960q0 50 66 50h288v206q0 70 50 70q56 0 56 -70v-204h300q68 0 68 -54q0 -48 -68 -48h-300v-98h280q194 0 312 -113t118 -299t-117 -300t-313 -114h-334q-52 0 -52 70v852h-288q-66 0 -66 52zM518 90h280q162 0 244 84t82 226q0 138 -82 223t-244 85h-280v-618z" />
<glyph unicode="&#x463;" horiz-adv-x="1318" d="M36 870q0 52 66 52h278v300q0 64 50 64q54 0 54 -64v-300h284q68 0 68 -54q0 -50 -68 -50h-284v-210h394q164 0 263 -80t99 -224q0 -176 -110 -240t-334 -64h-362q-54 0 -54 70v748h-278q-66 0 -66 52zM484 104h312q190 0 265 38t75 162q0 122 -79 161t-267 39h-306v-400 z" />
<glyph unicode="&#x472;" horiz-adv-x="1188" d="M130 456v360q0 222 130 348t334 126t334 -127t130 -347v-360q0 -220 -130 -347t-334 -127t-334 126t-130 348zM234 464q0 -180 94 -279t266 -99t266 99t94 279v132q-62 -46 -130 -46q-72 0 -238 40t-200 40q-30 0 -68 -17t-61 -33l-23 -16v-100zM234 688q58 46 126 46 q72 0 238 -40t200 -40q30 0 69 17t63 34l24 17v86q0 178 -94 278t-266 100t-266 -100t-94 -278v-120z" />
<glyph unicode="&#x473;" horiz-adv-x="1172" d="M124 352v218q0 210 108 281t338 71h34q230 0 337 -71t107 -281v-218q0 -210 -107 -281t-337 -71h-34q-230 0 -338 71t-108 281zM228 354q0 -86 17 -136t65 -75t103 -32t157 -7h34q102 0 157 7t102 32t64 75t17 136v62q-62 -46 -130 -46q-72 0 -236 40t-198 40 q-30 0 -68 -17t-61 -33l-23 -16v-30zM228 508q58 46 126 46q72 0 236 -40t198 -40q30 0 69 17t63 34l24 17v26q0 86 -17 136t-64 75t-102 32t-157 7h-34q-102 0 -157 -7t-103 -32t-65 -75t-17 -136v-60z" />
<glyph unicode="&#x490;" horiz-adv-x="1120" d="M164 54v964q0 140 42 197t158 57h596v154q0 70 54 70q50 0 50 -70v-258h-686q-64 0 -87 -27t-23 -91v-996q0 -68 -54 -68q-50 0 -50 68z" />
<glyph unicode="&#x491;" horiz-adv-x="964" d="M146 54v616q0 140 42 196t158 56h474v154q0 70 54 70q50 0 50 -70v-258h-564q-64 0 -87 -26t-23 -92v-646q0 -68 -54 -68q-50 0 -50 68z" />
<glyph unicode="&#x1e02;" horiz-adv-x="1210" d="M168 1200q0 72 48 72h360q222 0 329 -62t107 -238q0 -152 -98 -224q92 -34 137 -111t45 -219v-58q0 -216 -107 -288t-337 -72h-436q-48 0 -48 72v1128zM272 768h304q184 0 258 38t74 156q0 126 -73 161t-259 35h-304v-390zM272 104h380q196 0 268 45t72 207v56 q0 162 -70 207t-258 45h-392v-560zM446 1496q0 34 34 58t68 24q32 0 67 -24t35 -58t-35 -58t-67 -24q-34 0 -68 24t-34 58z" />
<glyph unicode="&#x1e03;" horiz-adv-x="1222" d="M150 54v1160q0 72 48 72q56 0 56 -72v-418q118 126 342 126h58q230 0 337 -71t107 -281v-218q0 -210 -107 -281t-337 -71h-58q-224 0 -342 126v-70q0 -70 -52 -70t-52 68zM254 456q0 -352 342 -352h58q102 0 157 7t102 32t64 75t17 136v214q0 86 -17 136t-64 75t-102 32 t-157 7h-58q-342 0 -342 -354v-8zM522 1106q0 34 34 58t68 24q32 0 67 -24t35 -58t-35 -58t-67 -24q-34 0 -68 24t-34 58z" />
<glyph unicode="&#x1e0a;" horiz-adv-x="1240" d="M168 72v1128q0 72 48 72h448q108 0 180 -13t133 -51t90 -111t29 -185v-552q0 -216 -107 -288t-337 -72h-436q-48 0 -48 72zM272 104h380q196 0 268 45t72 211v552q0 164 -70 210t-258 46h-392v-1064zM498 1496q0 34 34 58t68 24q32 0 67 -24t35 -58t-35 -58t-67 -24 q-34 0 -68 24t-34 58z" />
<glyph unicode="&#x1e0b;" horiz-adv-x="1222" d="M124 352v218q0 210 107 281t337 71h400v292q0 72 56 72q48 0 48 -72v-1160q0 -68 -52 -68t-52 70v70q-118 -126 -342 -126h-58q-230 0 -337 71t-107 281zM228 354q0 -86 17 -136t64 -75t102 -32t157 -7h58q342 0 342 352v362h-400q-102 0 -157 -7t-102 -32t-64 -75 t-17 -136v-214zM496 1106q0 34 34 58t68 24q32 0 67 -24t35 -58t-35 -58t-67 -24q-34 0 -68 24t-34 58z" />
<glyph unicode="&#x1e1e;" horiz-adv-x="1154" d="M168 56v1144q0 72 48 72h812q68 0 68 -56q0 -48 -68 -48h-756v-400h518q72 0 72 -56q0 -48 -72 -48h-518v-610q0 -68 -52 -68t-52 70zM520 1494q0 34 34 58t68 24q32 0 67 -24t35 -58t-35 -58t-67 -24q-34 0 -68 24t-34 58z" />
<glyph unicode="&#x1e1f;" horiz-adv-x="646" d="M98 874q0 44 62 48q2 110 31 182t90 108t130 48t175 12q72 0 72 -56q0 -48 -72 -48q-94 0 -145 -7t-96 -31t-63 -74t-18 -134h276q72 0 72 -56q0 -48 -72 -48h-276v-762q0 -70 -56 -70q-48 0 -48 70v764q-62 4 -62 54zM324 1436q0 34 34 58t68 24q32 0 67 -24t35 -58 t-35 -58t-67 -24q-34 0 -68 24t-34 58z" />
<glyph unicode="&#x1e40;" horiz-adv-x="1306" d="M168 54v1162q0 70 48 70q36 0 60 -38l376 -556l378 556q26 38 58 38q50 0 50 -70v-1162q0 -68 -54 -68q-50 0 -50 70v1034l-346 -516q-12 -16 -36 -16q-22 0 -34 16l-346 516v-1034q0 -70 -52 -70t-52 68zM550 1354q0 34 34 58t68 24q32 0 67 -24t35 -58t-35 -58t-67 -24 q-34 0 -68 24t-34 58z" />
<glyph unicode="&#x1e41;" horiz-adv-x="1660" d="M148 54v812q0 70 48 70q56 0 56 -72v-68q56 68 114 97t148 29q136 0 220 -33t122 -127q102 160 294 160q184 0 276 -72t92 -280v-516q0 -68 -52 -68t-52 68v514q0 86 -13 136t-49 75t-79 32t-123 7q-126 0 -196 -92t-70 -264v-408q0 -68 -50 -68q-54 0 -54 68v514 q0 162 -55 206t-211 44q-124 0 -193 -92t-69 -264v-408q0 -68 -52 -68t-52 68zM728 1140q0 34 34 58t68 24q32 0 67 -24t35 -58t-35 -58t-67 -24q-34 0 -68 24t-34 58z" />
<glyph unicode="&#x1e56;" horiz-adv-x="1080" d="M168 50v1150q0 72 48 72h362q216 0 325 -66t109 -244q0 -150 -91 -229t-255 -79h-394v-604q0 -64 -54 -64q-50 0 -50 64zM272 758h306q184 0 257 40t73 164q0 128 -74 167t-256 39h-306v-410zM410 1494q0 34 34 58t68 24q32 0 67 -24t35 -58t-35 -58t-67 -24 q-34 0 -68 24t-34 58z" />
<glyph unicode="&#x1e57;" horiz-adv-x="1222" d="M150 -294v1162q0 68 52 68t52 -70v-70q118 126 342 126h58q230 0 337 -71t107 -281v-218q0 -210 -107 -281t-335 -71h-402v-294q0 -70 -56 -70q-48 0 -48 70zM254 104h402q196 0 267 44t71 206v214q0 86 -17 136t-64 75t-102 32t-157 7h-58q-342 0 -342 -354v-360z M564 1140q0 34 34 58t68 24q32 0 67 -24t35 -58t-35 -58t-67 -24q-34 0 -68 24t-34 58z" />
<glyph unicode="&#x1e60;" horiz-adv-x="1198" d="M122 344q0 66 56 66q50 0 50 -66q0 -166 71 -211t269 -45h204q106 0 152 72t46 154q0 98 -39 159t-81 71l-470 104q-140 30 -199 105t-59 211q0 134 82 229t272 95h152q114 0 187 -13t137 -49t93 -108t29 -186q0 -66 -54 -66q-52 0 -52 66q0 166 -70 209t-270 43h-196 q-108 0 -157 -70t-49 -152q0 -80 35 -137t85 -67l474 -102q134 -30 194 -124t60 -220q0 -134 -79 -231t-261 -97h-166q-114 0 -188 13t-137 50t-92 110t-29 187zM498 1494q0 34 34 58t68 24q32 0 67 -24t35 -58t-35 -58t-67 -24q-34 0 -68 24t-34 58z" />
<glyph unicode="&#x1e61;" horiz-adv-x="1172" d="M120 222q0 72 52 72t52 -66q0 -68 23 -96t87 -28h496q118 0 118 148q0 74 -33 121t-85 47h-452q-258 0 -258 260q0 120 62 181t216 61h450q64 0 107 -19t62 -55t25 -70t6 -80q0 -70 -52 -70t-52 66q0 70 -24 97t-86 27h-492q-118 0 -118 -138q0 -76 33 -116t85 -40h454 q140 0 198 -78t58 -194q0 -124 -63 -188t-213 -64h-456q-64 0 -107 19t-62 54t-25 69t-6 80zM494 1126q0 34 34 58t68 24q32 0 67 -24t35 -58t-35 -58t-67 -24q-34 0 -68 24t-34 58z" />
<glyph unicode="&#x1e6a;" horiz-adv-x="962" d="M54 1220q0 52 66 52h722q66 0 66 -54q0 -50 -66 -50h-304v-1118q0 -64 -58 -64q-52 0 -52 64v1118h-308q-66 0 -66 52zM378 1496q0 34 34 58t68 24q32 0 67 -24t35 -58t-35 -58t-67 -24q-34 0 -68 24t-34 58z" />
<glyph unicode="&#x1e6b;" horiz-adv-x="688" d="M94 874q0 44 62 48v208q0 72 48 72q56 0 56 -72v-208h276q72 0 72 -56q0 -48 -72 -48h-276v-464q0 -162 69 -206t253 -44q70 0 70 -48q0 -56 -70 -56q-216 0 -321 72t-105 280v468q-62 4 -62 54zM106 1406q0 34 34 58t68 24q32 0 67 -24t35 -58t-35 -58t-67 -24 q-34 0 -68 24t-34 58z" />
<glyph unicode="&#x1e80;" horiz-adv-x="1830" d="M54 1268q0 38 48 38q40 0 56 -44l348 -1118l350 1108q18 52 58 52q46 0 62 -52l352 -1108l344 1110q16 44 56 44q48 0 48 -38q0 -12 -8 -36l-384 -1224h-116l-354 1106l-352 -1106h-114l-386 1232q-8 24 -8 36zM684 1588q0 16 16 33t36 17q24 0 48 -26l140 -138 q24 -28 24 -50q0 -16 -14 -32t-36 -16q-26 0 -50 26l-138 136q-26 30 -26 50z" />
<glyph unicode="&#x1e81;" horiz-adv-x="1584" d="M62 908q0 38 48 38q40 0 56 -44l280 -806l292 796q16 42 58 42q40 0 54 -42l280 -796l290 806q16 44 56 44q48 0 48 -38q0 -12 -8 -36l-310 -872h-158l-254 748l-274 -748h-158l-292 872q-8 24 -8 36zM530 1316q0 22 16 37t34 15q24 0 50 -30l192 -230q18 -20 18 -46 q0 -22 -16 -36t-34 -14q-22 0 -50 30l-192 230q-18 20 -18 44z" />
<glyph unicode="&#x1e82;" horiz-adv-x="1830" d="M54 1268q0 38 48 38q40 0 56 -44l348 -1118l350 1108q18 52 58 52q46 0 62 -52l352 -1108l344 1110q16 44 56 44q48 0 48 -38q0 -12 -8 -36l-384 -1224h-116l-354 1106l-352 -1106h-114l-386 1232q-8 24 -8 36zM874 1424q0 22 26 52l138 136q24 26 50 26q22 0 36 -17 t14 -33q0 -20 -24 -48l-140 -138q-24 -26 -48 -26q-20 0 -36 15t-16 33z" />
<glyph unicode="&#x1e83;" horiz-adv-x="1584" d="M62 908q0 38 48 38q40 0 56 -44l280 -806l292 796q16 42 58 42q40 0 54 -42l280 -796l290 806q16 44 56 44q48 0 48 -38q0 -12 -8 -36l-310 -872h-158l-254 748l-274 -748h-158l-292 872q-8 24 -8 36zM764 1060q0 24 18 46l192 230q26 30 50 30q18 0 34 -15t16 -37 t-18 -44l-192 -230q-28 -30 -50 -30q-16 0 -33 15t-17 35z" />
<glyph unicode="&#x1e84;" horiz-adv-x="1830" d="M54 1268q0 38 48 38q40 0 56 -44l348 -1118l350 1108q18 52 58 52q46 0 62 -52l352 -1108l344 1110q16 44 56 44q48 0 48 -38q0 -12 -8 -36l-384 -1224h-116l-354 1106l-352 -1106h-114l-386 1232q-8 24 -8 36zM664 1510q0 34 34 58t68 24q32 0 67 -24t35 -58t-35 -58 t-67 -24q-34 0 -68 24t-34 58zM956 1510q0 34 34 58t68 24q32 0 67 -24t35 -58t-35 -58t-67 -24q-34 0 -68 24t-34 58z" />
<glyph unicode="&#x1e85;" horiz-adv-x="1584" d="M62 908q0 38 48 38q40 0 56 -44l280 -806l292 796q16 42 58 42q40 0 54 -42l280 -796l290 806q16 44 56 44q48 0 48 -38q0 -12 -8 -36l-310 -872h-158l-254 748l-274 -748h-158l-292 872q-8 24 -8 36zM544 1150q0 34 34 58t68 24q32 0 67 -24t35 -58t-35 -58t-67 -24 q-34 0 -68 24t-34 58zM836 1150q0 34 34 58t68 24q32 0 67 -24t35 -58t-35 -58t-67 -24q-34 0 -68 24t-34 58z" />
<glyph unicode="&#x1ea0;" horiz-adv-x="1140" d="M48 18q0 14 6 32l454 1222h124l454 -1222q6 -18 6 -32q0 -26 -18 -38t-34 -12q-34 0 -54 46l-142 384h-548l-142 -384q-20 -46 -54 -46q-16 0 -34 12t-18 38zM336 502h468l-236 618zM468 -236q0 34 34 58t68 24q32 0 67 -24t35 -58t-35 -58t-67 -24q-34 0 -68 24t-34 58z " />
<glyph unicode="&#x1ea1;" horiz-adv-x="1108" d="M120 246q0 202 109 273t337 71h294v114q0 62 -23 88t-87 26h-282q-244 0 -244 -120q0 -70 -54 -70q-50 0 -50 70q0 116 92 170t242 54h310q116 0 158 -56t42 -196v-616q0 -68 -52 -68t-52 70v70q-114 -126 -340 -126h-186q-94 0 -154 67t-60 179zM224 236q0 -52 34 -92 t76 -40h186q168 0 254 91t86 261v30h-294q-102 0 -157 -7t-103 -32t-65 -75t-17 -136zM436 -208q0 34 34 58t68 24q32 0 67 -24t35 -58t-35 -58t-67 -24q-34 0 -68 24t-34 58z" />
<glyph unicode="&#x1ea2;" horiz-adv-x="1140" d="M48 18q0 14 6 32l454 1222h124l454 -1222q6 -18 6 -32q0 -26 -18 -38t-34 -12q-34 0 -54 46l-142 384h-548l-142 -384q-20 -46 -54 -46q-16 0 -34 12t-18 38zM336 502h468l-236 618zM456 1528q0 56 44 86t94 30q58 0 92 -38t34 -98q0 -36 -17 -60t-37 -33t-37 -22 t-17 -31q0 -38 -40 -38q-22 0 -35 12t-13 26q0 40 17 65t37 33t37 23t17 35t-14 31t-28 11q-50 0 -50 -32q0 -36 -42 -36t-42 36z" />
<glyph unicode="&#x1ea3;" horiz-adv-x="1108" d="M120 246q0 202 109 273t337 71h294v114q0 62 -23 88t-87 26h-282q-244 0 -244 -120q0 -70 -54 -70q-50 0 -50 70q0 116 92 170t242 54h310q116 0 158 -56t42 -196v-616q0 -68 -52 -68t-52 70v70q-114 -126 -340 -126h-186q-94 0 -154 67t-60 179zM224 236q0 -52 34 -92 t76 -40h186q168 0 254 91t86 261v30h-294q-102 0 -157 -7t-103 -32t-65 -75t-17 -136zM448 1236q0 56 44 86t94 30q58 0 92 -38t34 -98q0 -36 -17 -60t-37 -33t-37 -22t-17 -31q0 -38 -40 -38q-22 0 -35 12t-13 26q0 40 17 65t37 33t37 23t17 35t-14 31t-28 11 q-50 0 -50 -32q0 -36 -42 -36t-42 36z" />
<glyph unicode="&#x1ea4;" horiz-adv-x="1124" d="M50 20q0 16 6 28l454 1056h104l454 -1056q6 -12 6 -28q0 -44 -52 -44q-42 0 -60 40l-140 338h-520l-140 -338q-18 -40 -60 -40q-52 0 -52 44zM278 1162q0 20 12 36l210 264h118l214 -264q12 -16 12 -36q0 -46 -46 -46q-10 0 -19 4t-12 7t-13 15t-12 14l-182 192 l-180 -192q-4 -4 -10 -12t-10 -11t-9 -8t-12 -7t-15 -2q-46 0 -46 46zM348 458h428l-216 500zM728 1366q0 22 26 52l138 136q24 26 50 26q22 0 36 -17t14 -33q0 -20 -24 -48l-140 -138q-24 -26 -48 -26q-20 0 -36 15t-16 33z" />
<glyph unicode="&#x1ea5;" horiz-adv-x="1108" d="M120 246q0 202 109 273t337 71h294v114q0 62 -23 88t-87 26h-282q-244 0 -244 -120q0 -70 -54 -70q-50 0 -50 70q0 116 92 170t242 54h310q116 0 158 -56t42 -196v-616q0 -68 -52 -68t-52 70v70q-114 -126 -340 -126h-186q-94 0 -154 67t-60 179zM224 236q0 -52 34 -92 t76 -40h186q168 0 254 91t86 261v30h-294q-102 0 -157 -7t-103 -32t-65 -75t-17 -136zM250 1072q0 20 12 36l210 264h118l214 -264q12 -16 12 -36q0 -46 -46 -46q-10 0 -19 4t-12 7t-13 15t-12 14l-182 192l-180 -192q-4 -4 -10 -12t-10 -11t-9 -8t-12 -7t-15 -2 q-46 0 -46 46zM700 1276q0 22 26 52l138 136q24 26 50 26q22 0 36 -17t14 -33q0 -20 -24 -48l-140 -138q-24 -26 -48 -26q-20 0 -36 15t-16 33z" />
<glyph unicode="&#x1ea6;" horiz-adv-x="1116" d="M50 20q0 16 6 28l454 1056h104l454 -1056q6 -12 6 -28q0 -44 -52 -44q-42 0 -60 40l-140 338h-520l-140 -338q-18 -40 -60 -40q-52 0 -52 44zM128 1514q0 16 16 33t36 17q24 0 48 -26l140 -138q24 -28 24 -50q0 -16 -14 -32t-36 -16q-26 0 -50 26l-138 136q-26 30 -26 50 zM278 1146q0 20 12 36l210 264h118l214 -264q12 -16 12 -36q0 -46 -46 -46q-10 0 -19 4t-12 7t-13 15t-12 14l-182 192l-180 -192q-4 -4 -10 -12t-10 -11t-9 -8t-12 -7t-15 -2q-46 0 -46 46zM348 458h428l-216 500z" />
<glyph unicode="&#x1ea7;" horiz-adv-x="1108" d="M100 1440q0 16 16 33t36 17q24 0 48 -26l140 -138q24 -28 24 -50q0 -16 -14 -32t-36 -16q-26 0 -50 26l-138 136q-26 30 -26 50zM120 246q0 202 109 273t337 71h294v114q0 62 -23 88t-87 26h-282q-244 0 -244 -120q0 -70 -54 -70q-50 0 -50 70q0 116 92 170t242 54h310 q116 0 158 -56t42 -196v-616q0 -68 -52 -68t-52 70v70q-114 -126 -340 -126h-186q-94 0 -154 67t-60 179zM224 236q0 -52 34 -92t76 -40h186q168 0 254 91t86 261v30h-294q-102 0 -157 -7t-103 -32t-65 -75t-17 -136zM250 1072q0 20 12 36l210 264h118l214 -264 q12 -16 12 -36q0 -46 -46 -46q-10 0 -19 4t-12 7t-13 15t-12 14l-182 192l-180 -192q-4 -4 -10 -12t-10 -11t-9 -8t-12 -7t-15 -2q-46 0 -46 46z" />
<glyph unicode="&#x1ea8;" horiz-adv-x="1122" d="M48 20q0 16 6 28l454 1056h104l454 -1056q6 -12 6 -28q0 -44 -52 -44q-42 0 -60 40l-140 338h-520l-140 -338q-18 -40 -60 -40q-52 0 -52 44zM286 1162q0 20 12 36l210 264h118l214 -264q12 -16 12 -36q0 -46 -46 -46q-10 0 -19 4t-12 7t-13 15t-12 14l-182 192 l-180 -192q-4 -4 -10 -12t-10 -11t-9 -8t-12 -7t-15 -2q-46 0 -46 46zM346 458h428l-216 500zM732 1528q0 56 44 86t94 30q58 0 92 -38t34 -98q0 -36 -17 -60t-37 -33t-37 -22t-17 -31q0 -38 -40 -38q-22 0 -35 12t-13 26q0 40 17 65t37 33t37 23t17 35t-14 31t-28 11 q-50 0 -50 -32q0 -36 -42 -36t-42 36z" />
<glyph unicode="&#x1ea9;" horiz-adv-x="1108" d="M120 246q0 202 109 273t337 71h294v114q0 62 -23 88t-87 26h-282q-244 0 -244 -120q0 -70 -54 -70q-50 0 -50 70q0 116 92 170t242 54h310q116 0 158 -56t42 -196v-616q0 -68 -52 -68t-52 70v70q-114 -126 -340 -126h-186q-94 0 -154 67t-60 179zM224 236q0 -52 34 -92 t76 -40h186q168 0 254 91t86 261v30h-294q-102 0 -157 -7t-103 -32t-65 -75t-17 -136zM250 1072q0 20 12 36l210 264h118l214 -264q12 -16 12 -36q0 -46 -46 -46q-10 0 -19 4t-12 7t-13 15t-12 14l-182 192l-180 -192q-4 -4 -10 -12t-10 -11t-9 -8t-12 -7t-15 -2 q-46 0 -46 46zM696 1438q0 56 44 86t94 30q58 0 92 -38t34 -98q0 -36 -17 -60t-37 -33t-37 -22t-17 -31q0 -38 -40 -38q-22 0 -35 12t-13 26q0 40 17 65t37 33t37 23t17 35t-14 31t-28 11q-50 0 -50 -32q0 -36 -42 -36t-42 36z" />
<glyph unicode="&#x1eaa;" horiz-adv-x="1112" d="M44 20q0 16 6 28l454 1056h104l454 -1056q6 -12 6 -28q0 -44 -52 -44q-42 0 -60 40l-140 338h-520l-140 -338q-18 -40 -60 -40q-52 0 -52 44zM282 1490q0 30 28 52l92 76q14 18 38 18q4 0 14 -2t12 -2l196 -72l10 -4q6 0 16 8l62 56q26 18 44 18q20 0 36 -12t16 -34 q0 -28 -28 -54l-94 -78q-16 -16 -38 -16q-4 0 -8 1t-7 1t-6 1l-3 1l-196 72q-4 4 -12 4q-6 0 -16 -8l-62 -56q-26 -18 -44 -18t-34 13t-16 35zM282 1162q0 24 12 36l210 234h118l214 -234q12 -12 12 -36q0 -46 -46 -46q-26 0 -66 40l-172 162l-170 -162q-40 -40 -66 -40 q-46 0 -46 46zM342 458h428l-216 500z" />
<glyph unicode="&#x1eab;" horiz-adv-x="1108" d="M120 246q0 202 109 273t337 71h294v114q0 62 -23 88t-87 26h-282q-244 0 -244 -120q0 -70 -54 -70q-50 0 -50 70q0 116 92 170t242 54h310q116 0 158 -56t42 -196v-616q0 -68 -52 -68t-52 70v70q-114 -126 -340 -126h-186q-94 0 -154 67t-60 179zM224 236q0 -52 34 -92 t76 -40h186q168 0 254 91t86 261v30h-294q-102 0 -157 -7t-103 -32t-65 -75t-17 -136zM250 1400q0 30 28 52l92 76q14 18 38 18q4 0 14 -2t12 -2l196 -72l10 -4q6 0 16 8l62 56q26 18 44 18q20 0 36 -12t16 -34q0 -28 -28 -54l-94 -78q-16 -16 -38 -16q-4 0 -8 1t-7 1t-6 1 l-3 1l-196 72q-4 4 -12 4q-6 0 -16 -8l-62 -56q-26 -18 -44 -18t-34 13t-16 35zM250 1072q0 24 12 36l210 234h118l214 -234q12 -12 12 -36q0 -46 -46 -46q-26 0 -66 40l-172 162l-170 -162q-40 -40 -66 -40q-46 0 -46 46z" />
<glyph unicode="&#x1eac;" horiz-adv-x="1140" d="M48 18q0 14 6 32l454 1222h124l454 -1222q6 -18 6 -32q0 -26 -18 -38t-34 -12q-34 0 -54 46l-142 384h-548l-142 -384q-20 -46 -54 -46q-16 0 -34 12t-18 38zM288 1338q0 20 12 36l210 264h118l214 -264q12 -16 12 -36q0 -46 -46 -46q-10 0 -19 4t-12 7t-13 15t-12 14 l-182 192l-180 -192q-4 -4 -10 -12t-10 -11t-9 -8t-12 -7t-15 -2q-46 0 -46 46zM336 502h468l-236 618zM468 -236q0 34 34 58t68 24q32 0 67 -24t35 -58t-35 -58t-67 -24q-34 0 -68 24t-34 58z" />
<glyph unicode="&#x1ead;" horiz-adv-x="1108" d="M120 246q0 202 109 273t337 71h294v114q0 62 -23 88t-87 26h-282q-244 0 -244 -120q0 -70 -54 -70q-50 0 -50 70q0 116 92 170t242 54h310q116 0 158 -56t42 -196v-616q0 -68 -52 -68t-52 70v70q-114 -126 -340 -126h-186q-94 0 -154 67t-60 179zM224 236q0 -52 34 -92 t76 -40h186q168 0 254 91t86 261v30h-294q-102 0 -157 -7t-103 -32t-65 -75t-17 -136zM262 1072q0 20 12 36l210 264h118l214 -264q12 -16 12 -36q0 -46 -46 -46q-10 0 -19 4t-12 7t-13 15t-12 14l-182 192l-180 -192q-4 -4 -10 -12t-10 -11t-9 -8t-12 -7t-15 -2 q-46 0 -46 46zM436 -208q0 34 34 58t68 24q32 0 67 -24t35 -58t-35 -58t-67 -24q-34 0 -68 24t-34 58z" />
<glyph unicode="&#x1eae;" horiz-adv-x="1108" d="M42 20q0 16 6 28l454 1056h104l454 -1056q6 -12 6 -28q0 -44 -52 -44q-42 0 -60 40l-140 338h-520l-140 -338q-18 -40 -60 -40q-52 0 -52 44zM310 1406h106q0 -86 41 -120t93 -34t93 34t41 120h106q0 -122 -75 -192t-165 -70q-92 0 -166 71t-74 191zM340 458h428 l-216 500zM504 1396q0 22 26 52l138 136q24 26 50 26q22 0 36 -17t14 -33q0 -20 -24 -48l-140 -138q-24 -26 -48 -26q-20 0 -36 15t-16 33z" />
<glyph unicode="&#x1eaf;" horiz-adv-x="1108" d="M120 246q0 202 109 273t337 71h294v114q0 62 -23 88t-87 26h-282q-244 0 -244 -120q0 -70 -54 -70q-50 0 -50 70q0 116 92 170t242 54h310q116 0 158 -56t42 -196v-616q0 -68 -52 -68t-52 70v70q-114 -126 -340 -126h-186q-94 0 -154 67t-60 179zM224 236q0 -52 34 -92 t76 -40h186q168 0 254 91t86 261v30h-294q-102 0 -157 -7t-103 -32t-65 -75t-17 -136zM290 1292h106q0 -86 41 -120t93 -34t93 34t41 120h106q0 -122 -75 -192t-165 -70q-92 0 -166 71t-74 191zM484 1282q0 22 26 52l138 136q24 26 50 26q22 0 36 -17t14 -33q0 -20 -24 -48 l-140 -138q-24 -26 -48 -26q-20 0 -36 15t-16 33z" />
<glyph unicode="&#x1eb0;" horiz-adv-x="1108" d="M42 20q0 16 6 28l454 1056h104l454 -1056q6 -12 6 -28q0 -44 -52 -44q-42 0 -60 40l-140 338h-520l-140 -338q-18 -40 -60 -40q-52 0 -52 44zM310 1406h106q0 -86 41 -120t93 -34t93 34t41 120h106q0 -122 -75 -192t-165 -70q-92 0 -166 71t-74 191zM334 1560q0 16 16 33 t36 17q24 0 48 -26l140 -138q24 -28 24 -50q0 -16 -14 -32t-36 -16q-26 0 -50 26l-138 136q-26 30 -26 50zM340 458h428l-216 500z" />
<glyph unicode="&#x1eb1;" horiz-adv-x="1108" d="M120 246q0 202 109 273t337 71h294v114q0 62 -23 88t-87 26h-282q-244 0 -244 -120q0 -70 -54 -70q-50 0 -50 70q0 116 92 170t242 54h310q116 0 158 -56t42 -196v-616q0 -68 -52 -68t-52 70v70q-114 -126 -340 -126h-186q-94 0 -154 67t-60 179zM224 236q0 -52 34 -92 t76 -40h186q168 0 254 91t86 261v30h-294q-102 0 -157 -7t-103 -32t-65 -75t-17 -136zM290 1292h106q0 -86 41 -120t93 -34t93 34t41 120h106q0 -122 -75 -192t-165 -70q-92 0 -166 71t-74 191zM314 1446q0 16 16 33t36 17q24 0 48 -26l140 -138q24 -28 24 -50 q0 -16 -14 -32t-36 -16q-26 0 -50 26l-138 136q-26 30 -26 50z" />
<glyph unicode="&#x1eb2;" horiz-adv-x="1108" d="M42 20q0 16 6 28l454 1056h104l454 -1056q6 -12 6 -28q0 -44 -52 -44q-42 0 -60 40l-140 338h-520l-140 -338q-18 -40 -60 -40q-52 0 -52 44zM310 1394h106q0 -86 41 -120t93 -34t93 34t41 120h106q0 -122 -75 -192t-165 -70q-92 0 -166 71t-74 191zM340 458h428 l-216 500zM436 1528q0 56 44 86t94 30q58 0 92 -38t34 -98q0 -36 -17 -60t-37 -33t-37 -22t-17 -31q0 -38 -40 -38q-22 0 -35 12t-13 26q0 40 17 65t37 33t37 23t17 35t-14 31t-28 11q-50 0 -50 -32q0 -36 -42 -36t-42 36z" />
<glyph unicode="&#x1eb3;" horiz-adv-x="1108" d="M120 246q0 202 109 273t337 71h294v114q0 62 -23 88t-87 26h-282q-244 0 -244 -120q0 -70 -54 -70q-50 0 -50 70q0 116 92 170t242 54h310q116 0 158 -56t42 -196v-616q0 -68 -52 -68t-52 70v70q-114 -126 -340 -126h-186q-94 0 -154 67t-60 179zM224 236q0 -52 34 -92 t76 -40h186q168 0 254 91t86 261v30h-294q-102 0 -157 -7t-103 -32t-65 -75t-17 -136zM290 1292h106q0 -86 41 -120t93 -34t93 34t41 120h106q0 -122 -75 -192t-165 -70q-92 0 -166 71t-74 191zM416 1426q0 56 44 86t94 30q58 0 92 -38t34 -98q0 -36 -17 -60t-37 -33 t-37 -22t-17 -31q0 -38 -40 -38q-22 0 -35 12t-13 26q0 40 17 65t37 33t37 23t17 35t-14 31t-28 11q-50 0 -50 -32q0 -36 -42 -36t-42 36z" />
<glyph unicode="&#x1eb4;" horiz-adv-x="1108" d="M42 20q0 16 6 28l454 1056h104l454 -1056q6 -12 6 -28q0 -44 -52 -44q-42 0 -60 40l-140 338h-520l-140 -338q-18 -40 -60 -40q-52 0 -52 44zM276 1490q0 30 28 52l92 76q16 18 38 18q4 0 14 -2t12 -2l196 -72l10 -4q6 0 16 8l62 56q26 18 44 18q20 0 36 -12t16 -34 q0 -28 -28 -54l-94 -78q-16 -16 -38 -16q-4 0 -8 1t-7 1t-6 1l-3 1l-196 72q-4 4 -12 4q-6 0 -16 -8l-62 -56q-26 -18 -44 -18t-34 13t-16 35zM312 1396h106q0 -86 41 -120t93 -34t93 34t41 120h106q0 -122 -75 -192t-165 -70q-92 0 -166 71t-74 191zM340 458h428l-216 500z " />
<glyph unicode="&#x1eb5;" horiz-adv-x="1108" d="M120 246q0 202 109 273t337 71h294v114q0 62 -23 88t-87 26h-282q-244 0 -244 -120q0 -70 -54 -70q-50 0 -50 70q0 116 92 170t242 54h310q116 0 158 -56t42 -196v-616q0 -68 -52 -68t-52 70v70q-114 -126 -340 -126h-186q-94 0 -154 67t-60 179zM224 236q0 -52 34 -92 t76 -40h186q168 0 254 91t86 261v30h-294q-102 0 -157 -7t-103 -32t-65 -75t-17 -136zM292 1386q0 30 28 52l92 76q16 18 38 18q4 0 14 -2t12 -2l196 -72l10 -4q6 0 16 8l62 56q26 18 44 18q20 0 36 -12t16 -34q0 -28 -28 -54l-94 -78q-16 -16 -38 -16q-4 0 -8 1t-7 1t-6 1 l-3 1l-196 72q-4 4 -12 4q-6 0 -16 -8l-62 -56q-26 -18 -44 -18t-34 13t-16 35zM328 1292h106q0 -86 41 -120t93 -34t93 34t41 120h106q0 -122 -75 -192t-165 -70q-92 0 -166 71t-74 191z" />
<glyph unicode="&#x1eb6;" horiz-adv-x="1140" d="M48 18q0 14 6 32l454 1222h124l454 -1222q6 -18 6 -32q0 -26 -18 -38t-34 -12q-34 0 -54 46l-142 384h-548l-142 -384q-20 -46 -54 -46q-16 0 -34 12t-18 38zM324 1638h106q0 -86 41 -120t93 -34t93 34t41 120h106q0 -122 -75 -192t-165 -70q-92 0 -166 71t-74 191z M336 502h468l-236 618zM468 -236q0 34 34 58t68 24q32 0 67 -24t35 -58t-35 -58t-67 -24q-34 0 -68 24t-34 58z" />
<glyph unicode="&#x1eb7;" horiz-adv-x="1108" d="M120 246q0 202 109 273t337 71h294v114q0 62 -23 88t-87 26h-282q-244 0 -244 -120q0 -70 -54 -70q-50 0 -50 70q0 116 92 170t242 54h310q116 0 158 -56t42 -196v-616q0 -68 -52 -68t-52 70v70q-114 -126 -340 -126h-186q-94 0 -154 67t-60 179zM224 236q0 -52 34 -92 t76 -40h186q168 0 254 91t86 261v30h-294q-102 0 -157 -7t-103 -32t-65 -75t-17 -136zM296 1292h106q0 -86 41 -120t93 -34t93 34t41 120h106q0 -122 -75 -192t-165 -70q-92 0 -166 71t-74 191zM436 -208q0 34 34 58t68 24q32 0 67 -24t35 -58t-35 -58t-67 -24q-34 0 -68 24 t-34 58z" />
<glyph unicode="&#x1eb8;" d="M168 72v1128q0 72 48 72h812q68 0 68 -56q0 -48 -68 -48h-756v-400h518q72 0 72 -56q0 -48 -72 -48h-518v-560h756q68 0 68 -56q0 -48 -68 -48h-812q-48 0 -48 72zM500 -194q0 34 34 58t68 24q32 0 67 -24t35 -58t-35 -58t-67 -24q-34 0 -68 24t-34 58z" />
<glyph unicode="&#x1eb9;" horiz-adv-x="1184" d="M124 352v218q0 210 108 281t338 71h58q230 0 337 -71t107 -281v-80h-844v-136q0 -86 17 -136t65 -75t103 -32t157 -7h268q64 0 87 28t23 96q0 66 52 66t52 -72q0 -46 -6 -80t-25 -69t-62 -54t-107 -19h-282q-230 0 -338 71t-108 281zM228 594h740q-2 142 -75 183t-265 41 h-58q-194 0 -267 -41t-75 -183zM466 -194q0 34 34 58t68 24q32 0 67 -24t35 -58t-35 -58t-67 -24q-34 0 -68 24t-34 58z" />
<glyph unicode="&#x1eba;" d="M168 72v1128q0 72 48 72h812q68 0 68 -56q0 -48 -68 -48h-756v-400h518q72 0 72 -56q0 -48 -72 -48h-518v-560h756q68 0 68 -56q0 -48 -68 -48h-812q-48 0 -48 72zM490 1528q0 56 44 86t94 30q58 0 92 -38t34 -98q0 -36 -17 -60t-37 -33t-37 -22t-17 -31q0 -38 -40 -38 q-22 0 -35 12t-13 26q0 40 17 65t37 33t37 23t17 35t-14 31t-28 11q-50 0 -50 -32q0 -36 -42 -36t-42 36z" />
<glyph unicode="&#x1ebb;" horiz-adv-x="1184" d="M124 352v218q0 210 108 281t338 71h58q230 0 337 -71t107 -281v-80h-844v-136q0 -86 17 -136t65 -75t103 -32t157 -7h268q64 0 87 28t23 96q0 66 52 66t52 -72q0 -46 -6 -80t-25 -69t-62 -54t-107 -19h-282q-230 0 -338 71t-108 281zM228 594h740q-2 142 -75 183t-265 41 h-58q-194 0 -267 -41t-75 -183zM486 1246q0 56 44 86t94 30q58 0 92 -38t34 -98q0 -36 -17 -60t-37 -33t-37 -22t-17 -31q0 -38 -40 -38q-22 0 -35 12t-13 26q0 40 17 65t37 33t37 23t17 35t-14 31t-28 11q-50 0 -50 -32q0 -36 -42 -36t-42 36z" />
<glyph unicode="&#x1ebc;" d="M168 72v1128q0 72 48 72h812q68 0 68 -56q0 -48 -68 -48h-756v-400h518q72 0 72 -56q0 -48 -72 -48h-518v-560h756q68 0 68 -56q0 -48 -68 -48h-812q-48 0 -48 72zM340 1460q0 30 28 52l92 76q16 18 38 18q4 0 14 -2t12 -2l196 -72l10 -4q6 0 16 8l62 56q26 18 44 18 q20 0 36 -12t16 -34q0 -28 -28 -54l-94 -78q-16 -16 -38 -16q-4 0 -8 1t-7 1t-6 1l-3 1l-196 72q-4 4 -12 4q-6 0 -16 -8l-62 -56q-26 -18 -44 -18t-34 13t-16 35z" />
<glyph unicode="&#x1ebd;" horiz-adv-x="1184" d="M124 352v218q0 210 108 281t338 71h58q230 0 337 -71t107 -281v-80h-844v-136q0 -86 17 -136t65 -75t103 -32t157 -7h268q64 0 87 28t23 96q0 66 52 66t52 -72q0 -46 -6 -80t-25 -69t-62 -54t-107 -19h-282q-230 0 -338 71t-108 281zM228 594h740q-2 142 -75 183t-265 41 h-58q-194 0 -267 -41t-75 -183zM318 1092q0 30 28 52l92 76q14 18 38 18q4 0 14 -2t12 -2l196 -72l10 -4q6 0 16 8l62 56q26 18 44 18q20 0 36 -12t16 -34q0 -28 -28 -54l-94 -78q-16 -16 -38 -16q-4 0 -8 1t-7 1t-6 1l-3 1l-196 72q-4 4 -12 4q-6 0 -16 -8l-62 -56 q-26 -18 -44 -18t-34 13t-16 35z" />
<glyph unicode="&#x1ebe;" horiz-adv-x="1198" d="M158 72v960q0 72 48 72h812q68 0 68 -56q0 -48 -68 -48h-756v-356h518q72 0 72 -56q0 -48 -72 -48h-518v-436h756q68 0 68 -56q0 -48 -68 -48h-812q-48 0 -48 72zM304 1222q0 20 12 36l210 264h118l214 -264q12 -16 12 -36q0 -46 -46 -46q-10 0 -19 4t-12 7t-13 15 t-12 14l-182 192l-180 -192q-4 -4 -10 -12t-10 -11t-9 -8t-12 -7t-15 -2q-46 0 -46 46zM754 1426q0 22 26 52l138 136q24 26 50 26q22 0 36 -17t14 -33q0 -20 -24 -48l-140 -138q-24 -26 -48 -26q-20 0 -36 15t-16 33z" />
<glyph unicode="&#x1ebf;" horiz-adv-x="1184" d="M124 352v218q0 210 108 281t338 71h58q230 0 337 -71t107 -281v-80h-844v-136q0 -86 17 -136t65 -75t103 -32t157 -7h268q64 0 87 28t23 96q0 66 52 66t52 -72q0 -46 -6 -80t-25 -69t-62 -54t-107 -19h-282q-230 0 -338 71t-108 281zM228 594h740q-2 142 -75 183t-265 41 h-58q-194 0 -267 -41t-75 -183zM310 1072q0 20 12 36l210 264h118l214 -264q12 -16 12 -36q0 -46 -46 -46q-10 0 -19 4t-12 7t-13 15t-12 14l-182 192l-180 -192q-4 -4 -10 -12t-10 -11t-9 -8t-12 -7t-15 -2q-46 0 -46 46zM760 1276q0 22 26 52l138 136q24 26 50 26 q22 0 36 -17t14 -33q0 -20 -24 -48l-140 -138q-24 -26 -48 -26q-20 0 -36 15t-16 33z" />
<glyph unicode="&#x1ec0;" d="M158 72v960q0 72 48 72h812q68 0 68 -56q0 -48 -68 -48h-756v-356h518q72 0 72 -56q0 -48 -72 -48h-518v-436h756q68 0 68 -56q0 -48 -68 -48h-812q-48 0 -48 72zM170 1588q0 16 16 33t36 17q24 0 48 -26l140 -138q24 -28 24 -50q0 -16 -14 -32t-36 -16q-26 0 -50 26 l-138 136q-26 30 -26 50zM320 1220q0 20 12 36l210 264h118l214 -264q12 -16 12 -36q0 -46 -46 -46q-10 0 -19 4t-12 7t-13 15t-12 14l-182 192l-180 -192q-4 -4 -10 -12t-10 -11t-9 -8t-12 -7t-15 -2q-46 0 -46 46z" />
<glyph unicode="&#x1ec1;" horiz-adv-x="1184" d="M124 352v218q0 210 108 281t338 71h58q230 0 337 -71t107 -281v-80h-844v-136q0 -86 17 -136t65 -75t103 -32t157 -7h268q64 0 87 28t23 96q0 66 52 66t52 -72q0 -46 -6 -80t-25 -69t-62 -54t-107 -19h-282q-230 0 -338 71t-108 281zM160 1440q0 16 16 33t36 17 q24 0 48 -26l140 -138q24 -28 24 -50q0 -16 -14 -32t-36 -16q-26 0 -50 26l-138 136q-26 30 -26 50zM228 594h740q-2 142 -75 183t-265 41h-58q-194 0 -267 -41t-75 -183zM310 1072q0 20 12 36l210 264h118l214 -264q12 -16 12 -36q0 -46 -46 -46q-10 0 -19 4t-12 7t-13 15 t-12 14l-182 192l-180 -192q-4 -4 -10 -12t-10 -11t-9 -8t-12 -7t-15 -2q-46 0 -46 46z" />
<glyph unicode="&#x1ec2;" d="M162 72v960q0 72 48 72h812q68 0 68 -56q0 -48 -68 -48h-756v-356h518q72 0 72 -56q0 -48 -72 -48h-518v-436h756q68 0 68 -56q0 -48 -68 -48h-812q-48 0 -48 72zM308 1162q0 20 12 36l210 264h118l214 -264q12 -16 12 -36q0 -46 -46 -46q-10 0 -19 4t-12 7t-13 15 t-12 14l-182 192l-180 -192q-4 -4 -10 -12t-10 -11t-9 -8t-12 -7t-15 -2q-46 0 -46 46zM754 1528q0 56 44 86t94 30q58 0 92 -38t34 -98q0 -36 -17 -60t-37 -33t-37 -22t-17 -31q0 -38 -40 -38q-22 0 -35 12t-13 26q0 40 17 65t37 33t37 23t17 35t-14 31t-28 11 q-50 0 -50 -32q0 -36 -42 -36t-42 36z" />
<glyph unicode="&#x1ec3;" horiz-adv-x="1184" d="M124 352v218q0 210 108 281t338 71h58q230 0 337 -71t107 -281v-80h-844v-136q0 -86 17 -136t65 -75t103 -32t157 -7h268q64 0 87 28t23 96q0 66 52 66t52 -72q0 -46 -6 -80t-25 -69t-62 -54t-107 -19h-282q-230 0 -338 71t-108 281zM228 594h740q-2 142 -75 183t-265 41 h-58q-194 0 -267 -41t-75 -183zM294 1072q0 20 12 36l210 264h118l214 -264q12 -16 12 -36q0 -46 -46 -46q-10 0 -19 4t-12 7t-13 15t-12 14l-182 192l-180 -192q-4 -4 -10 -12t-10 -11t-9 -8t-12 -7t-15 -2q-46 0 -46 46zM740 1438q0 56 44 86t94 30q58 0 92 -38t34 -98 q0 -36 -17 -60t-37 -33t-37 -22t-17 -31q0 -38 -40 -38q-22 0 -35 12t-13 26q0 40 17 65t37 33t37 23t17 35t-14 31t-28 11q-50 0 -50 -32q0 -36 -42 -36t-42 36z" />
<glyph unicode="&#x1ec4;" horiz-adv-x="1154" d="M132 72v960q0 72 48 72h812q68 0 68 -56q0 -48 -68 -48h-756v-356h518q72 0 72 -56q0 -48 -72 -48h-518v-436h756q68 0 68 -56q0 -48 -68 -48h-812q-48 0 -48 72zM294 1490q0 30 28 52l92 76q14 18 38 18q4 0 14 -2t12 -2l196 -72l10 -4q6 0 16 8l62 56q26 18 44 18 q20 0 36 -12t16 -34q0 -28 -28 -54l-94 -78q-16 -16 -38 -16q-4 0 -8 1t-7 1t-6 1l-3 1l-196 72q-4 4 -12 4q-6 0 -16 -8l-62 -56q-26 -18 -44 -18t-34 13t-16 35zM294 1162q0 24 12 36l210 234h118l214 -234q12 -12 12 -36q0 -46 -46 -46q-26 0 -66 40l-172 162l-170 -162 q-40 -40 -66 -40q-46 0 -46 46z" />
<glyph unicode="&#x1ec5;" horiz-adv-x="1184" d="M124 352v218q0 210 108 281t338 71h58q230 0 337 -71t107 -281v-80h-844v-136q0 -86 17 -136t65 -75t103 -32t157 -7h268q64 0 87 28t23 96q0 66 52 66t52 -72q0 -46 -6 -80t-25 -69t-62 -54t-107 -19h-282q-230 0 -338 71t-108 281zM228 594h740q-2 142 -75 183t-265 41 h-58q-194 0 -267 -41t-75 -183zM294 1400q0 30 28 52l92 76q14 18 38 18q4 0 14 -2t12 -2l196 -72l10 -4q6 0 16 8l62 56q26 18 44 18q20 0 36 -12t16 -34q0 -28 -28 -54l-94 -78q-16 -16 -38 -16q-4 0 -8 1t-7 1t-6 1l-3 1l-196 72q-4 4 -12 4q-6 0 -16 -8l-62 -56 q-26 -18 -44 -18t-34 13t-16 35zM294 1072q0 24 12 36l210 234h118l214 -234q12 -12 12 -36q0 -46 -46 -46q-26 0 -66 40l-172 162l-170 -162q-40 -40 -66 -40q-46 0 -46 46z" />
<glyph unicode="&#x1ec6;" d="M168 72v1128q0 72 48 72h812q68 0 68 -56q0 -48 -68 -48h-756v-400h518q72 0 72 -56q0 -48 -72 -48h-518v-560h756q68 0 68 -56q0 -48 -68 -48h-812q-48 0 -48 72zM334 1338q0 20 12 36l210 264h118l214 -264q12 -16 12 -36q0 -46 -46 -46q-10 0 -19 4t-12 7t-13 15 t-12 14l-182 192l-180 -192q-4 -4 -10 -12t-10 -11t-9 -8t-12 -7t-15 -2q-46 0 -46 46zM500 -194q0 34 34 58t68 24q32 0 67 -24t35 -58t-35 -58t-67 -24q-34 0 -68 24t-34 58z" />
<glyph unicode="&#x1ec7;" horiz-adv-x="1184" d="M124 352v218q0 210 108 281t338 71h58q230 0 337 -71t107 -281v-80h-844v-136q0 -86 17 -136t65 -75t103 -32t157 -7h268q64 0 87 28t23 96q0 66 52 66t52 -72q0 -46 -6 -80t-25 -69t-62 -54t-107 -19h-282q-230 0 -338 71t-108 281zM228 594h740q-2 142 -75 183t-265 41 h-58q-194 0 -267 -41t-75 -183zM296 1080q0 20 12 36l210 264h118l214 -264q12 -16 12 -36q0 -46 -46 -46q-10 0 -19 4t-12 7t-13 15t-12 14l-182 192l-180 -192q-4 -4 -10 -12t-10 -11t-9 -8t-12 -7t-15 -2q-46 0 -46 46zM466 -194q0 34 34 58t68 24q32 0 67 -24t35 -58 t-35 -58t-67 -24q-34 0 -68 24t-34 58z" />
<glyph unicode="&#x1ec8;" horiz-adv-x="440" d="M106 1528q0 56 44 86t94 30q58 0 92 -38t34 -98q0 -36 -17 -60t-37 -33t-37 -22t-17 -31q0 -38 -40 -38q-22 0 -35 12t-13 26q0 40 17 65t37 33t37 23t17 35t-14 31t-28 11q-50 0 -50 -32q0 -36 -42 -36t-42 36zM168 50v1170q0 66 52 66t52 -66v-1170q0 -64 -54 -64 q-50 0 -50 64z" />
<glyph unicode="&#x1ec9;" horiz-adv-x="400" d="M88 1250q0 56 44 86t94 30q58 0 92 -38t34 -98q0 -36 -17 -60t-37 -33t-37 -22t-17 -31q0 -38 -40 -38q-22 0 -35 12t-13 26q0 40 17 65t37 33t37 23t17 35t-14 31t-28 11q-50 0 -50 -32q0 -36 -42 -36t-42 36zM148 40v840q0 66 52 66t52 -66v-840q0 -64 -54 -64 q-50 0 -50 64z" />
<glyph unicode="&#x1eca;" horiz-adv-x="440" d="M116 -218q0 34 34 58t68 24q32 0 67 -24t35 -58t-35 -58t-67 -24q-34 0 -68 24t-34 58zM168 50v1170q0 66 52 66t52 -66v-1170q0 -64 -54 -64q-50 0 -50 64z" />
<glyph unicode="&#x1ecb;" horiz-adv-x="400" d="M96 -228q0 34 34 58t68 24q32 0 67 -24t35 -58t-35 -58t-67 -24q-34 0 -68 24t-34 58zM98 1202q0 34 34 58t68 24q32 0 67 -24t35 -58t-35 -58t-67 -24q-34 0 -68 24t-34 58zM148 40v840q0 66 52 66t52 -66v-840q0 -64 -54 -64q-50 0 -50 64z" />
<glyph unicode="&#x1ecc;" horiz-adv-x="1188" d="M130 456v360q0 222 130 348t334 126t334 -127t130 -347v-360q0 -220 -130 -347t-334 -127t-334 126t-130 348zM234 458q0 -176 94 -274t266 -98t266 98t94 274v356q0 176 -94 274t-266 98t-266 -98t-94 -274v-356zM492 -222q0 34 34 58t68 24q32 0 67 -24t35 -58t-35 -58 t-67 -24q-34 0 -68 24t-34 58z" />
<glyph unicode="&#x1ecd;" d="M124 352v218q0 210 108 281t338 71h58q230 0 337 -71t107 -281v-218q0 -210 -107 -281t-337 -71h-58q-230 0 -338 71t-108 281zM228 354q0 -86 17 -136t65 -75t103 -32t157 -7h58q102 0 157 7t102 32t64 75t17 136v214q0 86 -17 136t-64 75t-102 32t-157 7h-58 q-102 0 -157 -7t-103 -32t-65 -75t-17 -136v-214zM498 -204q0 34 34 58t68 24q32 0 67 -24t35 -58t-35 -58t-67 -24q-34 0 -68 24t-34 58z" />
<glyph unicode="&#x1ece;" horiz-adv-x="1188" d="M130 456v360q0 222 130 348t334 126t334 -127t130 -347v-360q0 -220 -130 -347t-334 -127t-334 126t-130 348zM234 458q0 -176 94 -274t266 -98t266 98t94 274v356q0 176 -94 274t-266 98t-266 -98t-94 -274v-356zM480 1528q0 56 44 86t94 30q58 0 92 -38t34 -98 q0 -36 -17 -60t-37 -33t-37 -22t-17 -31q0 -38 -40 -38q-22 0 -35 12t-13 26q0 40 17 65t37 33t37 23t17 35t-14 31t-28 11q-50 0 -50 -32q0 -36 -42 -36t-42 36z" />
<glyph unicode="&#x1ecf;" d="M124 352v218q0 210 108 281t338 71h58q230 0 337 -71t107 -281v-218q0 -210 -107 -281t-337 -71h-58q-230 0 -338 71t-108 281zM228 354q0 -86 17 -136t65 -75t103 -32t157 -7h58q102 0 157 7t102 32t64 75t17 136v214q0 86 -17 136t-64 75t-102 32t-157 7h-58 q-102 0 -157 -7t-103 -32t-65 -75t-17 -136v-214zM486 1246q0 56 44 86t94 30q58 0 92 -38t34 -98q0 -36 -17 -60t-37 -33t-37 -22t-17 -31q0 -38 -40 -38q-22 0 -35 12t-13 26q0 40 17 65t37 33t37 23t17 35t-14 31t-28 11q-50 0 -50 -32q0 -36 -42 -36t-42 36z" />
<glyph unicode="&#x1ed0;" horiz-adv-x="1180" d="M126 456v192q0 222 130 348t334 126t334 -127t130 -347v-192q0 -220 -130 -347t-334 -127t-334 126t-130 348zM230 458q0 -176 94 -274t266 -98t266 98t94 274v188q0 176 -94 274t-266 98t-266 -98t-94 -274v-188zM296 1182q0 20 12 36l210 264h118l214 -264 q12 -16 12 -36q0 -46 -46 -46q-10 0 -19 4t-12 7t-13 15t-12 14l-182 192l-180 -192q-4 -4 -10 -12t-10 -11t-9 -8t-12 -7t-15 -2q-46 0 -46 46zM746 1386q0 22 26 52l138 136q24 26 50 26q22 0 36 -17t14 -33q0 -20 -24 -48l-140 -138q-24 -26 -48 -26q-20 0 -36 15t-16 33 z" />
</font>
</defs>
</svg>
